<?xml version="1.0" encoding="utf-8"?>
<!-- Generator: Adobe Illustrator 19.2.1, SVG Export Plug-In . SVG Version: 6.00 Build 0)  -->
<svg version="1.1" id="Layer_1" xmlns="http://www.w3.org/2000/svg" xmlns:xlink="http://www.w3.org/1999/xlink" x="0px" y="0px"
	 viewBox="0 0 75 75" style="enable-background:new 0 0 75 75;" xml:space="preserve">
<style type="text/css">
	.st0{stroke:#FFFFFF;stroke-width:2.5;stroke-miterlimit:10;}
	.st1{fill:#4DDB5A;stroke:#FFFFFF;stroke-width:2.5;stroke-miterlimit:10;}
</style>
<path class="st0" d="M54.8,32.1c1.1-1.1,2.7-1.8,4.4-1.8c1.6,0,3.1,0.6,4.4,1.8c0.3,0.3,0.7,0.4,1.1,0.4s0.8-0.1,1.1-0.4
	c0.6-0.6,0.6-1.5,0-2.1c-1.7-1.7-4-2.7-6.4-2.7c-2.4,0-4.7,1-6.5,2.7c-0.6,0.6-0.6,1.5,0,2.1C53.2,32.7,54.2,32.7,54.8,32.1z
	 M69.7,25.9c-2.9-2.9-6.6-4.4-10.6-4.4c-4,0-7.7,1.6-10.6,4.4c-0.6,0.6-0.6,1.5,0,2.1c0.6,0.6,1.5,0.6,2.1,0
	c2.2-2.2,5.2-3.5,8.5-3.5c3.2,0,6.2,1.3,8.5,3.5c0.3,0.3,0.7,0.4,1.1,0.4s0.8-0.1,1.1-0.4C70.3,27.4,70.3,26.5,69.7,25.9z
	 M58.6,38.7c-1.9,0.2-3.4,1.6-3.7,3.4c-0.1,0.8,0.4,1.6,1.2,1.7c0.1,0,0.1,0,0.3,0c0.7,0,1.4-0.5,1.5-1.2c0.1-0.5,0.5-1,1-1
	c0.8-0.1,1.4-0.8,1.4-1.6C60.2,39.2,59.4,38.6,58.6,38.7z M25.5,19l5.2,2.6V11.4L25.5,19z M33.8,21.6l5.3-2.7l-5.3-7.6L33.8,21.6z
	 M21.8,19.9c-0.1-0.4,0-0.9,0.2-1.2l9-12.8c0.4-0.5,0.8-0.7,1.2-0.7l0,0c0.4,0,0.9,0.1,1.3,0.7l9,12.8c0.2,0.4,0.3,0.8,0.2,1.2
	c-0.1,0.4-0.4,0.8-0.8,1l-9,4.5c-0.3,0.1-0.4,0.2-0.8,0.2c-0.4,0-0.7-0.1-0.7-0.1l-9-4.5C22.2,20.6,21.9,20.3,21.8,19.9z M64.7,43.1
	c0-3-2.5-5.5-5.5-5.5s-5.5,2.5-5.5,5.5s2.5,5.5,5.5,5.5S64.7,46.1,64.7,43.1z M67.7,43.1c0,4.6-3.8,8.5-8.5,8.5
	c-4.6,0-8.5-3.8-8.5-8.5c0-4.6,3.8-8.5,8.5-8.5S67.7,38.5,67.7,43.1z M24,55.1l-5.2,2.6v7.4l5.2-2.6V55.1z M15.8,57.7l-5.2-2.6v7.4
	l5.2,2.6V57.7z M12.3,52.6l4.9,2.5l4.9-2.5l-4.9-2.5L12.3,52.6z M27,52.6L27,52.6v10.8c0,0.6-0.3,1.1-0.8,1.4l-8.2,4.1
	c-0.1,0.1-0.4,0.2-0.7,0.1l0,0c-0.1,0-0.5-0.1-0.7-0.2l-8.2-4.1c-0.5-0.2-0.8-0.8-0.8-1.4V52.6v-0.1c0-0.1,0-0.1,0-0.2v-0.1
	c0.1-0.2,0.1-0.4,0.3-0.6l0.1-0.1C8,51.5,8,51.4,8.1,51.4c0,0,0,0,0.1-0.1c0,0,0,0,0.1,0c0,0,0.1,0,0.1-0.1l8.2-4.1
	c0.4-0.2,0.9-0.2,1.4,0l8.2,4.1c0,0,0.3,0.2,0.4,0.3l0.1,0.1c0.1,0.1,0.3,0.4,0.3,0.6v0.1C27,52.4,27,52.5,27,52.6z"/>
<path class="st1" d="M15.8,43.4v-4.9c0-2.2,1.8-4,4-4h11V30c0-0.8,0.7-1.5,1.5-1.5c0.8,0,1.5,0.7,1.5,1.5v11c0,0.5,0.4,1,1,1h11.9
	c0.8,0,1.5,0.7,1.5,1.5c0,0.8-0.7,1.5-1.5,1.5H34.7c-2.2,0-4-1.8-4-4v-3.5h-11c-0.5,0-1,0.4-1,1v4.9c0,0.8-0.7,1.5-1.5,1.5
	S15.8,44.2,15.8,43.4z"/>
<path class="st1" d="M59.9,54.7c-0.8,0-1.5,0.7-1.5,1.5v1.3c0,0.5-0.5,1-1,1H46.6c-0.5,0-0.9-0.6-1-1c-0.2-2.6-2-4.3-4.6-4.3h-9.4
	c-0.8,0-1.5,0.7-1.5,1.5c0,0.8,0.7,1.5,1.5,1.5h9.4c1,0,1.5,0.6,1.6,1.3c0.2,2.1,1.8,3.9,4,3.9h10.7c2.2,0,4-1.8,4-4v-1.3
	C61.4,55.4,60.7,54.7,59.9,54.7z"/>
</svg>
