<?xml version="1.0" encoding="utf-8"?>
<!-- Generator: Adobe Illustrator 19.2.1, SVG Export Plug-In . SVG Version: 6.00 Build 0)  -->
<svg version="1.1" id="Layer_1" xmlns="http://www.w3.org/2000/svg" xmlns:xlink="http://www.w3.org/1999/xlink" x="0px" y="0px"
	 viewBox="0 0 75 75" style="enable-background:new 0 0 75 75;" xml:space="preserve">
<style type="text/css">
	.st0{stroke:#FFFFFF;stroke-width:2;stroke-miterlimit:10;}
	.st1{fill:#4DDB5A;stroke:#FFFFFF;stroke-width:2;stroke-miterlimit:10;}
</style>
<path class="st0" d="M28.4,61.2c-2.8-2.3-5.8-4-7.1-4.6v-3.8c0.7-0.7,1.1-1.6,1.1-2.6V45c0-3.3-2.7-6-6-6h-1.1c-3.3,0-6,2.7-6,6v5.2
	c0,1,0.4,1.9,1.1,2.6v3.8C9,57.3,6,58.9,3.1,61.2C2.2,62,1.7,63,1.7,64.1v3.6C1.7,68.4,2.3,69,3,69s1.3-0.6,1.3-1.3v-3.6
	c0-0.4,0.1-0.6,0.3-0.8c2.5-2.1,6.7-4.3,7.4-4.6c0.5-0.2,1-0.6,1-1.2v-5.5c0-0.4-0.2-0.6-0.6-0.9c-0.3-0.2-0.4-0.5-0.4-0.9v-5.2
	c0-1.9,1.6-3.4,3.4-3.4h1.1c1.9,0,3.4,1.6,3.4,3.4v5.2c0,0.4-0.1,0.7-0.4,0.9c-0.3,0.3-0.7,0.5-0.7,0.9v5.5c0,0.6,0.3,0.9,0.8,1.2
	c0.7,0.3,4.1,2,7.2,4.6c0.3,0.2,0.4,0.6,0.4,1v3.6c0,0.7,0.6,1.3,1.3,1.3c0.7,0,1.3-0.6,1.3-1.3v-3.6C29.7,62.9,29.3,61.9,28.4,61.2
	z M46.6,61.2c-0.9,0.8-1.4,1.8-1.4,2.9v3.6c0,0.7,0.6,1.3,1.3,1.3s1.3-0.6,1.3-1.3v-3.6c0-0.4,0.1-0.8,0.5-1
	c3.1-2.5,6.5-4.3,7.2-4.6c0.5-0.2,0.8-0.8,0.8-1.4v-5c0-0.4-0.2-0.8-0.6-1.1c-0.3-0.2-0.4-0.5-0.4-0.9v-5.2c0-1.9,1.6-3.4,3.4-3.4
	h1.1c1.9,0,3.4,1.6,3.4,3.4v5.2c0,0.4-0.1,0.7-0.4,0.9c-0.4,0.2-0.6,0.6-0.6,1.1v5c0,0.6,0.3,1.1,0.8,1.4c0.7,0.3,4.1,2,7.2,4.6
	c0.3,0.2,0.4,0.6,0.4,1v3.6c0,0.7,0.6,1.3,1.3,1.3c0.7,0,1.3-0.6,1.3-1.3v-3.6c0-1.1-0.5-2.2-1.4-2.9c-2.8-2.3-5.8-4-7.1-4.6v-3.8
	c0.7-0.7,1.1-1.6,1.1-2.6V45c0-3.3-2.7-6-6-6h-1.1c-3.3,0-6,2.7-6,6v5.2c0,1,0.4,1.9,1.1,2.6v3.8C52.4,57.3,49.4,58.9,46.6,61.2z"/>
<path class="st1" d="M28.7,52.5c0.2,0,0.4-0.1,0.7-0.1l8.2-4.7l8.2,4.7c0.2,0.1,0.5,0.1,0.7,0.1c0.4,0,0.9-0.2,1.1-0.7
	c0.4-0.6,0.1-1.4-0.4-1.7L39,45.4v-9.5c0-0.7-0.6-1.3-1.3-1.3s-1.3,0.6-1.3,1.3v9.4L28.2,50c-0.6,0.4-0.8,1.1-0.4,1.7
	C27.9,52.3,28.4,52.5,28.7,52.5z"/>
<path class="st0" d="M50.1,27.8c-2.8-2.3-5.8-4-7.1-4.6v-3.8c0.7-0.7,1.1-1.6,1.1-2.6v-5.2c0-3.3-2.7-6-6-6H37c-3.3,0-6,2.7-6,6v5.2
	c0,1,0.4,1.9,1.1,2.6v3.8c-1.4,0.7-4.4,2.3-7.3,4.6c-0.9,0.8-1.4,1.8-1.4,2.9v3.6c0,0.7,0.6,1.3,1.3,1.3c0.7,0,1.3-0.6,1.3-1.3v-3.6
	c0-0.4,0.1-0.6,0.3-0.8c2.5-2.1,6.7-4.3,7.4-4.6c0.5-0.2,1-0.6,1-1.2v-5.5c0-0.4-0.2-0.6-0.6-0.9c-0.3-0.2-0.4-0.5-0.4-0.9v-5.2
	c0-1.9,1.6-3.4,3.4-3.4h1.1c1.9,0,3.4,1.6,3.4,3.4v5.2c0,0.4-0.1,0.7-0.4,0.9c-0.3,0.3-0.7,0.5-0.7,0.9v5.5c0,0.6,0.3,0.9,0.8,1.2
	c0.7,0.3,4.1,2,7.2,4.6c0.3,0.2,0.4,0.6,0.4,1v3.6c0,0.7,0.6,1.3,1.3,1.3c0.7,0,1.3-0.6,1.3-1.3v-3.6C51.4,29.5,51,28.5,50.1,27.8z"
	/>
</svg>
