<?xml version="1.0" encoding="utf-8"?>
<!-- Generator: Adobe Illustrator 19.2.1, SVG Export Plug-In . SVG Version: 6.00 Build 0)  -->
<svg version="1.1" id="Layer_1" xmlns="http://www.w3.org/2000/svg" xmlns:xlink="http://www.w3.org/1999/xlink" x="0px" y="0px"
	 viewBox="0 0 75 75" style="enable-background:new 0 0 75 75;" xml:space="preserve">
<style type="text/css">
	.st0{fill:#4DDB5A;}
</style>
<path d="M50,28.2c-4.5-0.7-9.4-0.9-12.8-0.9S29,27.4,20.9,29c-3.7,0.8-5.6,2.2-5.6,3.4V33v18c0,0.3,0,0.7,0,0.8v0.1v0.2
	c0.1,3.2,11.4,5.1,22.3,5.1c12.5,0,22.2-2.4,22.2-5.1v-0.2c0-0.1,0-0.6,0-0.9V33.2c0,0,0-0.7,0-0.8c0-1.5-2.7-2.9-7.5-3.8L50,28.2z
	 M52.6,29.1c6.7,1.1,6.8,3.4,6.8,3.4v0.8c-0.8,1.1-5,2.2-5.5,2.3c-1.3-1.8-6.3-2.5-6.3-2.5l4.5-4.1L52.6,29.1z M53.4,35.7
	c-5.8,1.5-11.6,1.4-15.8,1.4C26.7,37,22,35.6,22,35.6s0.8-1.1,2.4-1.5c2.8-0.9,8.1-1.2,13.2-1.3C46.8,32.7,52,34.1,53.4,35.7z
	 M47.1,28.2c1.7,0.2,4.4,0.7,4.4,0.7L47.1,33c0,0-2.4-0.5-7.6-0.6c0.2-0.3,2.8-4.6,2.8-4.6S45.4,28,47.1,28.2z M36.7,27.7
	c2,0,5.3,0.1,5.3,0.1l-2.9,4.6l-0.1,0c-2.3,0-4.6,0.1-4.6,0.1l-2.8-4.6C31.6,27.9,33.7,27.7,36.7,27.7z M22.4,29.1
	c4.3-0.7,8.7-1.1,8.7-1.1l2.8,4.5l-0.2,0c-4.4,0.2-7.1,0.7-7.1,0.7l-4.5-4.1L22.4,29.1z M15.7,32.5c0-0.2,0.3-2.1,5.4-3.2l0.6-0.1
	l4.6,4.1c0,0-3.3,0.5-4.6,2.1l-0.1,0.1l-0.8-0.2C15.3,33.9,15.7,32.7,15.7,32.5z M35.8,56.8v-6.6H41v6.6c0,0-1.1,0-2.6,0
	S35.8,56.8,35.8,56.8z M43.2,56.7c-0.8,0.1-1.8,0.1-1.8,0.1V50c0-0.1-0.1-0.2-0.2-0.2h-5.6c-0.1,0-0.2,0.1-0.2,0.2v6.8
	c0,0-1.3,0-2.1-0.1c-0.6,0-2.1-0.1-2.1-0.1V46H45v10.6C45,56.6,43.9,56.7,43.2,56.7z M59.5,52.1c0,0.8-2.2,2.2-5.3,3
	c-3.8,1-8.8,1.4-8.8,1.4V45.8c0-0.1-0.1-0.2-0.2-0.2H31c-0.1,0-0.2,0.1-0.2,0.2v10.8c0,0-12.6-0.8-15-3.9c-0.2-0.3-0.2-0.8-0.2-1.5
	V33.3c0,0,0.1,0.4,1.6,1.2c1.9,0.9,7.3,2.8,20.4,3c7,0,11.2-0.2,16.2-1.5c5.2-1.3,5.7-2.2,5.7-2.2v17.3
	C59.5,51.1,59.5,51.5,59.5,52.1z"/>
<path class="st0" d="M57.9,16.8l-6.4-2.2c-0.1,0-0.2,0-0.3,0.1l-0.1,0.2v10.7l0.4,0.1v-6.4l6.4-2.2c0.1,0,0.1,0,0.1-0.2
	S58,16.8,57.9,16.8z M51.5,19v-3.8l5.6,1.9L51.5,19z"/>
<path class="st0" d="M44,15.2L37.6,13c-0.2-0.1-0.3,0.1-0.3,0.1s0,0,0,0.1v0.1v0.2v11.1h0.4v-7l6.3-2.2C44.1,15.4,44.1,15.4,44,15.2
	C44.1,15.2,44,15.2,44,15.2z M37.6,17.3v-3.8l5.5,1.9L37.6,17.3z"/>
<path class="st0" d="M28.4,16.8L22,14.6c-0.2-0.1-0.3,0.1-0.3,0.2c0,0,0,0,0,0.1V15v0.2v11L22,26v-6.7l6.3-2.2
	C28.4,17.1,28.4,17.1,28.4,16.8C28.4,16.7,28.4,16.8,28.4,16.8z M22,18.9v-3.8l5.5,1.9L22,18.9z"/>
</svg>
