<?xml version="1.0" encoding="utf-8"?>
<!-- Generator: Adobe Illustrator 20.0.0, SVG Export Plug-In . SVG Version: 6.00 Build 0)  -->
<svg version="1.1" id="Layer_1" xmlns="http://www.w3.org/2000/svg" xmlns:xlink="http://www.w3.org/1999/xlink" x="0px" y="0px"
	 viewBox="0 0 75 75" style="enable-background:new 0 0 75 75;" xml:space="preserve">
<style type="text/css">
	.st0{fill:#969696;stroke:#969696;stroke-miterlimit:10;}
	.st1{fill:#969696;stroke:#969696;stroke-width:0.75;stroke-linecap:round;stroke-linejoin:round;stroke-miterlimit:10;}
</style>
<path class="st0" d="M43.7,53.4c-12.7,0-23-10.3-23-23c0-12.7,10.3-23,23-23c12.7,0,23,10.4,23,23C66.7,43,56.4,53.4,43.7,53.4z
	 M43.7,4.5c-14.4,0-25.9,11.6-25.9,25.9c0,6.9,2.6,13.1,7,17.8L5.2,68.9l1.6,1.6l20.9-19.9c4.4,3.6,10.1,5.7,16.2,5.7
	c14.4,0,25.9-11.6,25.9-25.9C69.8,16.1,58.1,4.5,43.7,4.5z"/>
<path class="st1" d="M43.7,53.4c-12.7,0-23-10.3-23-23c0-12.7,10.3-23,23-23c12.7,0,23,10.4,23,23C66.7,43,56.4,53.4,43.7,53.4z
	 M43.7,4.5c-14.4,0-25.9,11.6-25.9,25.9c0,6.9,2.6,13.1,7,17.8L5.2,68.9l1.6,1.6l20.9-19.9c4.4,3.6,10.1,5.7,16.2,5.7
	c14.4,0,25.9-11.6,25.9-25.9C69.8,16.1,58.1,4.5,43.7,4.5z"/>
</svg>
