<?xml version="1.0" encoding="utf-8"?>
<!-- Generator: Adobe Illustrator 20.0.0, SVG Export Plug-In . SVG Version: 6.00 Build 0)  -->
<svg version="1.1" id="Layer_1" xmlns="http://www.w3.org/2000/svg" xmlns:xlink="http://www.w3.org/1999/xlink" x="0px" y="0px"
	 viewBox="0 0 200 200" style="enable-background:new 0 0 200 200;" xml:space="preserve">
<style type="text/css">
	.st0{fill:#999999;}
</style>
<path class="st0" d="M174.3,74.3C174.3,33.3,141,0,100,0S25.7,33.3,25.7,74.3c0,12.2,3,23.8,8.2,33.9l0,0l0.1,0.1
	c1.5,3,66,91.6,66,91.6s64.5-88.6,66-91.6l0.1-0.1l0,0C171.3,98.1,174.3,86.5,174.3,74.3z M100,105.4c-20.2,0-36.6-16.4-36.6-36.6
	S79.8,32.2,100,32.2s36.6,16.4,36.6,36.6S120.2,105.4,100,105.4z"/>
</svg>
