<?xml version="1.0" encoding="utf-8"?>
<!-- Generator: Adobe Illustrator 20.0.0, SVG Export Plug-In . SVG Version: 6.00 Build 0)  -->
<svg version="1.1" id="Layer_1" xmlns="http://www.w3.org/2000/svg" xmlns:xlink="http://www.w3.org/1999/xlink" x="0px" y="0px"
	 viewBox="0 0 75 75" style="enable-background:new 0 0 75 75;" xml:space="preserve">
<style type="text/css">
	.st0{fill:#0C3979;}
</style>
<g>
	<g>
		<path class="st0" d="M20.8,12.7c0,4.4-3.6,8.1-8.1,8.1s-8.1-3.6-8.1-8.1s3.6-8.1,8.1-8.1S20.8,8.3,20.8,12.7"/>
	</g>
	<g>
		<path class="st0" d="M45,12.7c0,4.4-3.6,8.1-8.1,8.1s-8.1-3.6-8.1-8.1s3.6-8.1,8.1-8.1S45,8.3,45,12.7"/>
	</g>
	<g>
		<path class="st0" d="M20.8,36.9c0,4.4-3.6,8.1-8.1,8.1s-8.1-3.6-8.1-8.1s3.6-8.1,8.1-8.1S20.8,32.5,20.8,36.9"/>
	</g>
	<g>
		<path class="st0" d="M45,36.9c0,4.4-3.6,8.1-8.1,8.1s-8.1-3.6-8.1-8.1s3.6-8.1,8.1-8.1S45,32.5,45,36.9"/>
	</g>
	<g>
		<path class="st0" d="M69.1,36.9c0,4.4-3.6,8.1-8.1,8.1S53,41.4,53,36.9s3.6-8.1,8.1-8.1S69.1,32.5,69.1,36.9"/>
	</g>
	<g>
		<path class="st0" d="M20.8,61.1c0,4.4-3.6,8.1-8.1,8.1s-8.1-3.6-8.1-8.1S8.3,53,12.7,53S20.8,56.6,20.8,61.1"/>
	</g>
	<g>
		<path class="st0" d="M45,61.1c0,4.4-3.6,8.1-8.1,8.1s-8.1-3.6-8.1-8.1s3.6-8.1,8.1-8.1S45,56.6,45,61.1"/>
	</g>
	<g>
		<path class="st0" d="M61.1,70.3c-5.1,0-9.3-4.2-9.3-9.3s4.2-9.3,9.3-9.3s9.3,4.2,9.3,9.3S66.2,70.3,61.1,70.3z M61.1,54.2
			c-3.8,0-6.9,3.1-6.9,6.9s3.1,6.9,6.9,6.9s6.9-3.1,6.9-6.9S64.9,54.2,61.1,54.2z"/>
	</g>
	<g>
		<path class="st0" d="M69.1,12.7c0,4.4-3.6,8.1-8.1,8.1S53,17.2,53,12.7s3.6-8.1,8.1-8.1S69.1,8.3,69.1,12.7"/>
	</g>
</g>
</svg>
