<?xml version="1.0" encoding="utf-8"?>
<!-- Generator: Adobe Illustrator 20.0.0, SVG Export Plug-In . SVG Version: 6.00 Build 0)  -->
<svg version="1.1" xmlns="http://www.w3.org/2000/svg" xmlns:xlink="http://www.w3.org/1999/xlink" x="0px" y="0px"
	 viewBox="0 0 470 175" style="enable-background:new 0 0 470 175;" xml:space="preserve">
<style type="text/css">
	.st0{fill:#D3D3D3;}
</style>
<g id="Layer_1">
</g>
<g id="Layer_2">
	<g>
		<g>
			<path class="st0" d="M5.5,136.4V43.3h13.2c2.3,0,3.9,0.4,4.8,1.3c0.9,0.8,1.5,2.3,1.8,4.4l1.4,11.2c3.3-5.7,7.2-10.3,11.7-13.6
				c4.5-3.3,9.5-5,15.1-5c4.6,0,8.4,1.1,11.4,3.2l-2.9,16.8c-0.2,1.1-0.6,1.9-1.2,2.3c-0.6,0.5-1.4,0.7-2.4,0.7
				c-0.9,0-2.1-0.2-3.7-0.6c-1.6-0.4-3.7-0.6-6.3-0.6c-4.7,0-8.6,1.3-12,3.9c-3.3,2.6-6.1,6.3-8.4,11.3v58H5.5z"/>
			<path class="st0" d="M115.7,41.9c5.9,0,11.3,0.9,16.2,2.8c4.9,1.9,9.2,4.6,12.7,8.2c3.6,3.6,6.3,8,8.3,13.2c2,5.2,3,11.2,3,17.9
				c0,1.7-0.1,3.1-0.2,4.2c-0.2,1.1-0.4,2-0.8,2.6c-0.4,0.6-0.9,1.1-1.6,1.4c-0.7,0.3-1.5,0.4-2.5,0.4H93.3c0.7,9.6,3.2,16.6,7.7,21
				c4.5,4.5,10.4,6.7,17.8,6.7c3.6,0,6.8-0.4,9.4-1.3c2.6-0.8,4.9-1.8,6.9-2.8c2-1,3.7-2,5.2-2.8c1.5-0.8,2.9-1.3,4.3-1.3
				c0.9,0,1.7,0.2,2.4,0.5c0.7,0.4,1.2,0.9,1.7,1.5l6.5,8.2c-2.5,2.9-5.3,5.3-8.3,7.3c-3.1,2-6.3,3.5-9.7,4.7
				c-3.4,1.2-6.8,2-10.2,2.5c-3.5,0.5-6.8,0.7-10.1,0.7c-6.5,0-12.5-1.1-18.1-3.2c-5.6-2.1-10.4-5.3-14.5-9.5
				c-4.1-4.2-7.3-9.4-9.7-15.6c-2.4-6.2-3.5-13.4-3.5-21.5c0-6.3,1-12.3,3.1-17.9c2.1-5.6,5-10.5,8.8-14.6c3.8-4.1,8.5-7.4,14.1-9.8
				C102.5,43.1,108.7,41.9,115.7,41.9z M116.1,57.9c-6.5,0-11.6,1.8-15.3,5.5c-3.7,3.7-6,8.9-7.1,15.7h42.1c0-2.9-0.4-5.6-1.2-8.2
				c-0.8-2.6-2-4.8-3.6-6.8c-1.6-1.9-3.7-3.5-6.2-4.6C122.3,58.5,119.4,57.9,116.1,57.9z"/>
			<path class="st0" d="M244.7,136.4h-10.1c-2.1,0-3.8-0.3-5-1c-1.2-0.6-2.1-1.9-2.7-3.9l-2-6.6c-2.4,2.1-4.7,4-6.9,5.6
				c-2.3,1.6-4.6,2.9-7,4c-2.4,1.1-5,1.9-7.7,2.4s-5.7,0.8-9.1,0.8c-3.9,0-7.6-0.5-10.9-1.6c-3.3-1.1-6.2-2.7-8.6-4.8
				c-2.4-2.1-4.2-4.8-5.6-7.9c-1.3-3.2-2-6.8-2-11c0-3.5,0.9-7,2.8-10.4c1.8-3.4,4.9-6.5,9.2-9.3c4.3-2.8,10-5.1,17.1-6.9
				c7.1-1.8,16-2.7,26.6-2.7v-5.5c0-6.3-1.3-10.9-3.9-13.9c-2.6-3-6.5-4.5-11.5-4.5c-3.6,0-6.7,0.4-9.1,1.3
				c-2.4,0.8-4.5,1.8-6.3,2.9c-1.8,1.1-3.4,2-4.9,2.9c-1.5,0.8-3.2,1.3-5,1.3c-1.5,0-2.8-0.4-3.9-1.2c-1.1-0.8-2-1.8-2.6-2.9
				l-4.1-7.2c10.7-9.8,23.6-14.7,38.7-14.7c5.4,0,10.3,0.9,14.6,2.7c4.3,1.8,7.9,4.3,10.8,7.4c3,3.2,5.2,7,6.8,11.4
				c1.5,4.4,2.3,9.3,2.3,14.5V136.4z M201.2,122.4c2.3,0,4.4-0.2,6.3-0.6c1.9-0.4,3.8-1,5.5-1.9c1.7-0.8,3.4-1.9,5-3.1
				c1.6-1.2,3.2-2.7,4.9-4.3V96.9c-6.5,0-12,0.4-16.4,1.2c-4.4,0.8-7.9,1.9-10.6,3.2c-2.7,1.3-4.6,2.8-5.7,4.5
				c-1.1,1.7-1.7,3.6-1.7,5.6c0,4,1.2,6.8,3.5,8.5C194.4,121.6,197.4,122.4,201.2,122.4z"/>
			<path class="st0" d="M329.8,63c-0.7,0.8-1.3,1.5-2,2c-0.6,0.5-1.6,0.7-2.8,0.7c-1.1,0-2.3-0.3-3.4-1c-1.1-0.7-2.4-1.5-3.9-2.4
				c-1.5-0.9-3.3-1.7-5.4-2.4c-2.1-0.7-4.7-1-7.8-1c-3.9,0-7.4,0.7-10.3,2.1c-3,1.4-5.4,3.5-7.4,6.1c-2,2.7-3.4,5.9-4.4,9.7
				c-1,3.8-1.5,8.1-1.5,12.8c0,5,0.5,9.4,1.6,13.2c1.1,3.9,2.6,7.1,4.6,9.8c2,2.6,4.4,4.6,7.3,6c2.8,1.4,6,2,9.6,2
				c3.6,0,6.5-0.4,8.7-1.3c2.2-0.9,4.1-1.8,5.6-2.9c1.5-1.1,2.8-2,3.9-2.9c1.1-0.9,2.4-1.3,3.8-1.3c1.8,0,3.2,0.7,4.1,2.1l6.4,8.2
				c-2.5,2.9-5.2,5.3-8.1,7.3c-2.9,2-5.9,3.5-9,4.7c-3.1,1.2-6.3,2-9.7,2.5c-3.3,0.5-6.6,0.7-9.9,0.7c-5.7,0-11.2-1.1-16.2-3.2
				c-5.1-2.1-9.5-5.3-13.3-9.4c-3.8-4.1-6.8-9.1-9-15.1c-2.2-6-3.3-12.7-3.3-20.4c0-6.8,1-13.2,2.9-19c2-5.8,4.9-10.9,8.7-15.1
				c3.8-4.3,8.5-7.6,14.2-10c5.6-2.4,12.1-3.6,19.4-3.6c7,0,13,1.1,18.3,3.4c5.2,2.2,9.9,5.4,14.1,9.6L329.8,63z"/>
			<path class="st0" d="M348.6,136.4V1.6H371v51.8c3.6-3.4,7.6-6.2,12-8.3c4.4-2.1,9.5-3.2,15.3-3.2c5.1,0,9.6,0.9,13.5,2.6
				c3.9,1.7,7.2,4.1,9.8,7.3c2.6,3.1,4.6,6.8,6,11.2c1.4,4.3,2,9.1,2,14.3v59.2h-22.4V77.1c0-5.7-1.3-10.1-3.9-13.2
				c-2.6-3.1-6.6-4.7-11.8-4.7c-3.9,0-7.5,0.9-10.9,2.6c-3.4,1.8-6.6,4.1-9.6,7.2v67.3H348.6z"/>
		</g>
		<g>
			<g>
				<path class="st0" d="M446.8,42.1v2h-4.7v13.1h-2.4V44.1h-4.7v-2H446.8z"/>
				<path class="st0" d="M456.7,51.9c0.1,0.2,0.2,0.4,0.3,0.7c0.1-0.2,0.2-0.4,0.3-0.7s0.2-0.4,0.3-0.6l4.8-8.8
					c0.1-0.2,0.2-0.3,0.3-0.4s0.3-0.1,0.5-0.1h1.8v15.1h-2.2V46.8c0-0.2,0-0.4,0-0.5c0-0.2,0-0.4,0-0.6l-4.9,9
					c-0.2,0.4-0.5,0.6-0.9,0.6h-0.3c-0.4,0-0.7-0.2-0.9-0.6l-4.9-9c0,0.2,0,0.4,0.1,0.6c0,0.2,0,0.4,0,0.6v10.4h-2.2V42.1h1.8
					c0.2,0,0.4,0,0.5,0.1s0.2,0.2,0.3,0.4l4.9,8.8C456.5,51.5,456.6,51.7,456.7,51.9z"/>
			</g>
		</g>
		<g>
			<path class="st0" d="M18.8,5.5c-0.1,0.2-0.2,0.3-0.4,0.4C18.3,6,18.2,6.1,18,6.1c-0.2,0-0.4-0.1-0.7-0.2
				c-0.2-0.2-0.5-0.4-0.9-0.6C16,5,15.6,4.9,15.1,4.7s-1.1-0.3-1.7-0.3c-0.6,0-1.2,0.1-1.6,0.2S10.9,5,10.5,5.3
				c-0.3,0.3-0.6,0.6-0.7,1C9.6,6.7,9.6,7.1,9.6,7.5c0,0.6,0.2,1,0.5,1.4s0.7,0.7,1.2,1s1.1,0.5,1.7,0.7c0.6,0.2,1.3,0.4,1.9,0.6
				c0.7,0.2,1.3,0.5,1.9,0.8c0.6,0.3,1.2,0.7,1.7,1.1s0.9,1,1.2,1.6s0.5,1.4,0.5,2.4c0,1-0.2,1.9-0.5,2.8c-0.3,0.9-0.8,1.6-1.5,2.3
				c-0.7,0.7-1.5,1.2-2.4,1.5c-1,0.4-2,0.6-3.3,0.6c-0.7,0-1.4-0.1-2.1-0.2c-0.7-0.1-1.3-0.3-2-0.6S7.2,23,6.7,22.7s-1-0.8-1.5-1.2
				l1.1-1.7c0.1-0.1,0.2-0.3,0.4-0.3c0.1-0.1,0.3-0.1,0.5-0.1c0.2,0,0.5,0.1,0.8,0.3C8.2,19.8,8.6,20,9,20.3
				c0.4,0.3,0.9,0.5,1.5,0.7c0.6,0.2,1.3,0.3,2.1,0.3c1.3,0,2.3-0.3,3.1-1c0.7-0.6,1.1-1.5,1.1-2.7c0-0.6-0.2-1.2-0.5-1.6
				c-0.3-0.4-0.7-0.7-1.2-1c-0.5-0.3-1.1-0.5-1.7-0.7s-1.3-0.4-1.9-0.6c-0.7-0.2-1.3-0.5-1.9-0.8S8.3,12.5,7.8,12
				c-0.5-0.5-0.9-1-1.2-1.7S6.2,8.8,6.2,7.7c0-0.8,0.2-1.6,0.5-2.4s0.8-1.4,1.4-2c0.6-0.6,1.4-1.1,2.3-1.4c0.9-0.4,1.9-0.5,3.1-0.5
				c1.3,0,2.5,0.2,3.6,0.6c1.1,0.4,2,1,2.8,1.7L18.8,5.5z"/>
			<path class="st0" d="M29.9,24.1h-3.7V1.7h3.7V24.1z"/>
			<path class="st0" d="M42.5,12.6L35.3,1.7h3.6c0.3,0,0.5,0,0.6,0.1c0.1,0.1,0.2,0.2,0.3,0.4l5.5,8.6c0-0.1,0.1-0.3,0.1-0.4
				c0.1-0.1,0.1-0.3,0.2-0.4l5.1-7.8C50.8,2,50.9,1.9,51,1.8c0.1-0.1,0.3-0.1,0.5-0.1H55l-7.3,10.8l7.6,11.7h-3.6
				c-0.2,0-0.5-0.1-0.6-0.2c-0.2-0.1-0.3-0.3-0.4-0.5l-5.6-9c0,0.1-0.1,0.2-0.1,0.4s-0.1,0.2-0.2,0.3l-5.4,8.3
				c-0.1,0.2-0.2,0.3-0.4,0.5c-0.1,0.1-0.3,0.2-0.6,0.2h-3.4L42.5,12.6z"/>
			<path class="st0" d="M70,24.4c-1.8,0-3.5-0.3-4.9-0.9s-2.7-1.4-3.8-2.4c-1-1-1.8-2.2-2.4-3.6c-0.6-1.4-0.8-3-0.8-4.6
				c0-1.7,0.3-3.2,0.8-4.7s1.3-2.6,2.3-3.6s2.2-1.8,3.7-2.4c1.4-0.6,3-0.8,4.8-0.8c0.9,0,1.7,0.1,2.5,0.2c0.8,0.1,1.5,0.3,2.2,0.6
				s1.3,0.6,1.8,0.9c0.6,0.4,1.1,0.8,1.5,1.2l-1,1.7c-0.2,0.3-0.4,0.4-0.6,0.5c-0.3,0.1-0.5,0-0.8-0.2c-0.3-0.2-0.6-0.4-1-0.6
				S73.5,5.3,73,5.2c-0.4-0.2-0.9-0.3-1.5-0.4c-0.6-0.1-1.2-0.2-2-0.2c-1.2,0-2.3,0.2-3.2,0.6c-1,0.4-1.8,0.9-2.4,1.7
				c-0.7,0.7-1.2,1.6-1.6,2.6c-0.4,1-0.5,2.2-0.5,3.4c0,1.3,0.2,2.5,0.6,3.6c0.4,1.1,0.9,2,1.6,2.7c0.7,0.7,1.6,1.3,2.6,1.7
				c1,0.4,2.1,0.6,3.4,0.6c0.9,0,1.8-0.1,2.5-0.3c0.7-0.2,1.4-0.5,2.1-0.8v-4.5h-3.1c-0.2,0-0.4-0.1-0.6-0.2
				c-0.1-0.1-0.2-0.3-0.2-0.5v-2.1h7.2V22C75.5,23.6,72.9,24.4,70,24.4z"/>
			<path class="st0" d="M87.9,24.1h-3.7V1.7h3.7V24.1z"/>
			<path class="st0" d="M99.1,21.1h9.3v3.1h-13V1.7h3.7V21.1z"/>
			<path class="st0" d="M117.4,21.1h9.3v3.1h-13V1.7h3.7V21.1z"/>
		</g>
		<g>
			<rect x="363.9" y="162.6" class="st0" width="65" height="1"/>
		</g>
		<g>
			<rect x="4.9" y="162.6" class="st0" width="65" height="1"/>
		</g>
		<g>
			<path class="st0" d="M92.1,156.5v1.9h-3.7v10.5h-2.3v-10.5h-3.7v-1.9H92.1z"/>
			<path class="st0" d="M94.1,168.8v-12.7h2.1v4.9c0.3-0.3,0.7-0.6,1.1-0.8c0.4-0.2,0.9-0.3,1.4-0.3c0.5,0,0.9,0.1,1.3,0.2
				c0.4,0.2,0.7,0.4,0.9,0.7c0.2,0.3,0.4,0.6,0.6,1.1c0.1,0.4,0.2,0.9,0.2,1.3v5.6h-2.1v-5.6c0-0.5-0.1-1-0.4-1.2
				c-0.2-0.3-0.6-0.4-1.1-0.4c-0.4,0-0.7,0.1-1,0.2c-0.3,0.2-0.6,0.4-0.9,0.7v6.3H94.1z"/>
			<path class="st0" d="M108.1,159.9c0.6,0,1.1,0.1,1.5,0.3c0.5,0.2,0.9,0.4,1.2,0.8s0.6,0.8,0.8,1.2c0.2,0.5,0.3,1.1,0.3,1.7
				c0,0.2,0,0.3,0,0.4c0,0.1,0,0.2-0.1,0.2c0,0.1-0.1,0.1-0.2,0.1s-0.1,0-0.2,0H106c0.1,0.9,0.3,1.6,0.7,2s1,0.6,1.7,0.6
				c0.3,0,0.6,0,0.9-0.1c0.2-0.1,0.5-0.2,0.6-0.3c0.2-0.1,0.3-0.2,0.5-0.3c0.1-0.1,0.3-0.1,0.4-0.1c0.1,0,0.2,0,0.2,0.1
				s0.1,0.1,0.2,0.1l0.6,0.8c-0.2,0.3-0.5,0.5-0.8,0.7c-0.3,0.2-0.6,0.3-0.9,0.4c-0.3,0.1-0.6,0.2-1,0.2c-0.3,0-0.6,0.1-1,0.1
				c-0.6,0-1.2-0.1-1.7-0.3c-0.5-0.2-1-0.5-1.4-0.9c-0.4-0.4-0.7-0.9-0.9-1.5c-0.2-0.6-0.3-1.3-0.3-2c0-0.6,0.1-1.2,0.3-1.7
				s0.5-1,0.8-1.4c0.4-0.4,0.8-0.7,1.3-0.9C106.8,160,107.4,159.9,108.1,159.9z M108.1,161.4c-0.6,0-1.1,0.2-1.4,0.5
				s-0.6,0.8-0.7,1.5h4c0-0.3,0-0.5-0.1-0.8c-0.1-0.2-0.2-0.5-0.3-0.6c-0.2-0.2-0.3-0.3-0.6-0.4S108.4,161.4,108.1,161.4z"/>
			<path class="st0" d="M124.8,164.3c0.1,0.2,0.2,0.4,0.2,0.6c0.1-0.2,0.2-0.4,0.2-0.6c0.1-0.2,0.2-0.4,0.3-0.6l3.7-6.8
				c0-0.1,0.1-0.2,0.1-0.2c0-0.1,0.1-0.1,0.2-0.1c0.1,0,0.1,0,0.2,0s0.2,0,0.3,0h1.7v12.4h-2v-8c0-0.1,0-0.3,0-0.5s0-0.4,0-0.5
				l-3.7,7c-0.1,0.2-0.2,0.3-0.3,0.4c-0.1,0.1-0.3,0.1-0.5,0.1h-0.3c-0.2,0-0.3,0-0.5-0.1c-0.1-0.1-0.2-0.2-0.3-0.4l-3.8-7
				c0,0.2,0,0.4,0,0.6c0,0.2,0,0.3,0,0.5v8h-2v-12.4h1.7c0.1,0,0.2,0,0.3,0s0.1,0,0.2,0c0.1,0,0.1,0.1,0.2,0.1
				c0.1,0.1,0.1,0.1,0.1,0.2l3.7,6.9C124.6,163.9,124.7,164.1,124.8,164.3z"/>
			<path class="st0" d="M138.4,159.9c0.7,0,1.2,0.1,1.8,0.3c0.5,0.2,1,0.5,1.4,0.9c0.4,0.4,0.7,0.9,0.9,1.4s0.3,1.2,0.3,1.9
				c0,0.7-0.1,1.3-0.3,1.9s-0.5,1-0.9,1.4c-0.4,0.4-0.8,0.7-1.4,0.9c-0.5,0.2-1.1,0.3-1.8,0.3s-1.3-0.1-1.8-0.3
				c-0.5-0.2-1-0.5-1.4-0.9c-0.4-0.4-0.7-0.9-0.9-1.4s-0.3-1.2-0.3-1.9c0-0.7,0.1-1.3,0.3-1.9s0.5-1,0.9-1.4s0.8-0.7,1.4-0.9
				C137.2,160,137.8,159.9,138.4,159.9z M138.4,167.3c0.7,0,1.3-0.2,1.6-0.7s0.5-1.2,0.5-2.2c0-0.9-0.2-1.7-0.5-2.2
				c-0.4-0.5-0.9-0.7-1.6-0.7c-0.7,0-1.3,0.2-1.6,0.7c-0.4,0.5-0.5,1.2-0.5,2.2s0.2,1.7,0.5,2.1
				C137.2,167.1,137.7,167.3,138.4,167.3z"/>
			<path class="st0" d="M145.1,168.8v-12.7h2.1v5c0.3-0.4,0.7-0.7,1.2-0.9c0.4-0.2,1-0.3,1.5-0.3c0.5,0,0.9,0.1,1.3,0.3
				c0.4,0.2,0.7,0.5,1,0.9c0.3,0.4,0.5,0.8,0.7,1.4c0.2,0.6,0.2,1.2,0.2,1.9c0,0.7-0.1,1.3-0.3,1.8c-0.2,0.6-0.4,1-0.8,1.5
				c-0.3,0.4-0.7,0.7-1.2,1c-0.5,0.2-1,0.3-1.6,0.3c-0.3,0-0.5,0-0.7-0.1c-0.2-0.1-0.4-0.1-0.6-0.2c-0.2-0.1-0.4-0.2-0.5-0.4
				c-0.2-0.1-0.3-0.3-0.4-0.5l-0.1,0.6c0,0.1-0.1,0.3-0.2,0.3c-0.1,0.1-0.2,0.1-0.3,0.1H145.1z M149.2,161.6c-0.4,0-0.8,0.1-1.1,0.3
				c-0.3,0.2-0.6,0.4-0.9,0.8v3.9c0.2,0.3,0.5,0.5,0.8,0.6c0.3,0.1,0.6,0.2,0.9,0.2c0.3,0,0.6-0.1,0.9-0.2c0.3-0.1,0.5-0.3,0.7-0.5
				c0.2-0.2,0.3-0.6,0.4-0.9c0.1-0.4,0.1-0.8,0.1-1.3c0-0.5,0-0.9-0.1-1.3c-0.1-0.4-0.2-0.6-0.4-0.9c-0.2-0.2-0.3-0.4-0.6-0.5
				C149.7,161.6,149.5,161.6,149.2,161.6z"/>
			<path class="st0" d="M158,157.5c0,0.2,0,0.4-0.1,0.5c-0.1,0.2-0.2,0.3-0.3,0.4c-0.1,0.1-0.3,0.2-0.4,0.3s-0.3,0.1-0.5,0.1
				c-0.2,0-0.4,0-0.5-0.1s-0.3-0.2-0.4-0.3c-0.1-0.1-0.2-0.3-0.3-0.4c-0.1-0.2-0.1-0.3-0.1-0.5c0-0.2,0-0.4,0.1-0.5s0.2-0.3,0.3-0.4
				c0.1-0.1,0.3-0.2,0.4-0.3s0.3-0.1,0.5-0.1c0.2,0,0.4,0,0.5,0.1s0.3,0.2,0.4,0.3c0.1,0.1,0.2,0.3,0.3,0.4S158,157.3,158,157.5z
				 M157.7,160v8.8h-2.1V160H157.7z"/>
			<path class="st0" d="M162.9,156.1v12.7h-2.1v-12.7H162.9z"/>
			<path class="st0" d="M169.6,159.9c0.6,0,1.1,0.1,1.5,0.3c0.5,0.2,0.9,0.4,1.2,0.8s0.6,0.8,0.8,1.2c0.2,0.5,0.3,1.1,0.3,1.7
				c0,0.2,0,0.3,0,0.4c0,0.1,0,0.2-0.1,0.2c0,0.1-0.1,0.1-0.2,0.1s-0.1,0-0.2,0h-5.4c0.1,0.9,0.3,1.6,0.7,2s1,0.6,1.7,0.6
				c0.3,0,0.6,0,0.9-0.1c0.2-0.1,0.5-0.2,0.6-0.3c0.2-0.1,0.3-0.2,0.5-0.3c0.1-0.1,0.3-0.1,0.4-0.1c0.1,0,0.2,0,0.2,0.1
				s0.1,0.1,0.2,0.1l0.6,0.8c-0.2,0.3-0.5,0.5-0.8,0.7c-0.3,0.2-0.6,0.3-0.9,0.4c-0.3,0.1-0.6,0.2-1,0.2c-0.3,0-0.6,0.1-1,0.1
				c-0.6,0-1.2-0.1-1.7-0.3c-0.5-0.2-1-0.5-1.4-0.9c-0.4-0.4-0.7-0.9-0.9-1.5c-0.2-0.6-0.3-1.3-0.3-2c0-0.6,0.1-1.2,0.3-1.7
				s0.5-1,0.8-1.4c0.4-0.4,0.8-0.7,1.3-0.9C168.3,160,168.9,159.9,169.6,159.9z M169.6,161.4c-0.6,0-1.1,0.2-1.4,0.5
				s-0.6,0.8-0.7,1.5h4c0-0.3,0-0.5-0.1-0.8c-0.1-0.2-0.2-0.5-0.3-0.6c-0.2-0.2-0.3-0.3-0.6-0.4S169.9,161.4,169.6,161.4z"/>
			<path class="st0" d="M186.4,158.7c-0.1,0.1-0.1,0.2-0.2,0.3c-0.1,0.1-0.2,0.1-0.3,0.1c-0.1,0-0.2,0-0.4-0.1
				c-0.1-0.1-0.3-0.2-0.5-0.3c-0.2-0.1-0.4-0.2-0.7-0.3c-0.3-0.1-0.6-0.1-0.9-0.1c-0.3,0-0.6,0-0.8,0.1s-0.4,0.2-0.6,0.3
				c-0.2,0.1-0.3,0.3-0.4,0.5c-0.1,0.2-0.1,0.4-0.1,0.6c0,0.3,0.1,0.5,0.2,0.7c0.2,0.2,0.4,0.4,0.6,0.5c0.3,0.1,0.6,0.3,0.9,0.4
				c0.3,0.1,0.7,0.2,1,0.3c0.4,0.1,0.7,0.3,1,0.4s0.6,0.4,0.9,0.6c0.3,0.2,0.5,0.6,0.6,0.9c0.2,0.4,0.2,0.8,0.2,1.3
				c0,0.6-0.1,1.1-0.3,1.6c-0.2,0.5-0.5,0.9-0.8,1.3c-0.4,0.4-0.8,0.6-1.3,0.9c-0.5,0.2-1.1,0.3-1.8,0.3c-0.4,0-0.8,0-1.2-0.1
				s-0.7-0.2-1.1-0.3c-0.3-0.1-0.7-0.3-1-0.5s-0.6-0.4-0.8-0.7l0.7-1.1c0.1-0.1,0.1-0.1,0.2-0.2c0.1-0.1,0.2-0.1,0.3-0.1
				c0.1,0,0.3,0.1,0.5,0.2c0.2,0.1,0.4,0.2,0.6,0.4c0.2,0.1,0.5,0.3,0.8,0.4c0.3,0.1,0.7,0.2,1.1,0.2c0.7,0,1.2-0.2,1.5-0.5
				c0.4-0.3,0.5-0.8,0.5-1.3c0-0.3-0.1-0.6-0.2-0.8s-0.4-0.4-0.6-0.5c-0.3-0.1-0.6-0.3-0.9-0.4s-0.7-0.2-1-0.3
				c-0.4-0.1-0.7-0.2-1-0.4c-0.3-0.2-0.6-0.4-0.9-0.6c-0.3-0.3-0.5-0.6-0.6-1s-0.2-0.9-0.2-1.4c0-0.4,0.1-0.9,0.3-1.3
				c0.2-0.4,0.4-0.8,0.8-1.1c0.3-0.3,0.8-0.6,1.3-0.8c0.5-0.2,1.1-0.3,1.7-0.3c0.7,0,1.4,0.1,2,0.3c0.6,0.2,1.1,0.5,1.6,1
				L186.4,158.7z"/>
			<path class="st0" d="M200.6,162.6c0,0.9-0.2,1.7-0.5,2.5c-0.3,0.8-0.7,1.4-1.3,2s-1.2,1-2,1.3s-1.6,0.5-2.6,0.5h-4.7v-12.4h4.7
				c0.9,0,1.8,0.2,2.6,0.5s1.4,0.7,2,1.3s1,1.2,1.3,2C200.4,160.9,200.6,161.7,200.6,162.6z M198.2,162.6c0-0.7-0.1-1.3-0.3-1.8
				c-0.2-0.5-0.4-1-0.8-1.4s-0.7-0.7-1.2-0.9c-0.5-0.2-1-0.3-1.6-0.3h-2.4v8.7h2.4c0.6,0,1.1-0.1,1.6-0.3s0.9-0.5,1.2-0.9
				s0.6-0.8,0.8-1.4C198.1,163.9,198.2,163.3,198.2,162.6z"/>
			<path class="st0" d="M205.4,161.6h0.5c0.2,0,0.4,0,0.5-0.1c0.1-0.1,0.3-0.2,0.4-0.3l3.4-4.3c0.1-0.2,0.3-0.3,0.4-0.4
				c0.2-0.1,0.4-0.1,0.6-0.1h2l-4.2,5.1c-0.1,0.2-0.3,0.3-0.4,0.4s-0.2,0.2-0.4,0.3c0.2,0.1,0.4,0.2,0.5,0.3
				c0.2,0.1,0.3,0.3,0.4,0.5l4.3,5.8h-2c-0.3,0-0.5,0-0.6-0.1s-0.2-0.2-0.3-0.3l-3.5-4.6c-0.1-0.1-0.2-0.3-0.4-0.3s-0.3-0.1-0.6-0.1
				h-0.7v5.4h-2.3v-12.4h2.3V161.6z"/>
			<path class="st0" d="M219.7,168.8v-7.2l-0.8-0.1c-0.2,0-0.3-0.1-0.4-0.2c-0.1-0.1-0.1-0.2-0.1-0.4v-0.9h1.3v-0.6
				c0-0.5,0.1-1,0.2-1.4c0.2-0.4,0.4-0.7,0.6-1c0.3-0.3,0.6-0.5,1-0.6s0.9-0.2,1.4-0.2c0.4,0,0.8,0.1,1.1,0.2l0,1.1
				c0,0.2-0.1,0.3-0.2,0.3c-0.1,0-0.3,0.1-0.5,0.1c-0.3,0-0.5,0-0.7,0.1c-0.2,0.1-0.4,0.1-0.5,0.3c-0.1,0.1-0.2,0.3-0.3,0.5
				c-0.1,0.2-0.1,0.5-0.1,0.8v0.6h2.3v1.5h-2.2v7.2H219.7z"/>
			<path class="st0" d="M229.7,159.9c0.7,0,1.2,0.1,1.8,0.3c0.5,0.2,1,0.5,1.4,0.9c0.4,0.4,0.7,0.9,0.9,1.4s0.3,1.2,0.3,1.9
				c0,0.7-0.1,1.3-0.3,1.9s-0.5,1-0.9,1.4c-0.4,0.4-0.8,0.7-1.4,0.9c-0.5,0.2-1.1,0.3-1.8,0.3s-1.3-0.1-1.8-0.3
				c-0.5-0.2-1-0.5-1.4-0.9c-0.4-0.4-0.7-0.9-0.9-1.4s-0.3-1.2-0.3-1.9c0-0.7,0.1-1.3,0.3-1.9s0.5-1,0.9-1.4s0.8-0.7,1.4-0.9
				C228.5,160,229.1,159.9,229.7,159.9z M229.7,167.3c0.7,0,1.3-0.2,1.6-0.7s0.5-1.2,0.5-2.2c0-0.9-0.2-1.7-0.5-2.2
				c-0.4-0.5-0.9-0.7-1.6-0.7c-0.7,0-1.3,0.2-1.6,0.7c-0.4,0.5-0.5,1.2-0.5,2.2s0.2,1.7,0.5,2.1C228.4,167.1,229,167.3,229.7,167.3z
				"/>
			<path class="st0" d="M236.3,168.8V160h1.2c0.2,0,0.4,0,0.5,0.1c0.1,0.1,0.1,0.2,0.2,0.4l0.1,1.1c0.3-0.5,0.7-1,1.1-1.3
				c0.4-0.3,0.9-0.5,1.4-0.5c0.4,0,0.8,0.1,1.1,0.3l-0.3,1.6c0,0.1-0.1,0.2-0.1,0.2c-0.1,0-0.1,0.1-0.2,0.1c-0.1,0-0.2,0-0.4-0.1
				s-0.3-0.1-0.6-0.1c-0.4,0-0.8,0.1-1.1,0.4s-0.6,0.6-0.8,1.1v5.5H236.3z"/>
			<path class="st0" d="M254.6,158.7c-0.1,0.1-0.1,0.2-0.2,0.3c-0.1,0.1-0.2,0.1-0.3,0.1c-0.1,0-0.2,0-0.4-0.1
				c-0.1-0.1-0.3-0.2-0.5-0.3c-0.2-0.1-0.4-0.2-0.7-0.3c-0.3-0.1-0.6-0.1-0.9-0.1c-0.3,0-0.6,0-0.8,0.1s-0.4,0.2-0.6,0.3
				c-0.2,0.1-0.3,0.3-0.4,0.5c-0.1,0.2-0.1,0.4-0.1,0.6c0,0.3,0.1,0.5,0.2,0.7c0.2,0.2,0.4,0.4,0.6,0.5c0.3,0.1,0.6,0.3,0.9,0.4
				s0.7,0.2,1,0.3c0.4,0.1,0.7,0.3,1,0.4s0.6,0.4,0.9,0.6c0.3,0.2,0.5,0.6,0.6,0.9c0.2,0.4,0.2,0.8,0.2,1.3c0,0.6-0.1,1.1-0.3,1.6
				c-0.2,0.5-0.5,0.9-0.8,1.3c-0.4,0.4-0.8,0.6-1.3,0.9c-0.5,0.2-1.1,0.3-1.8,0.3c-0.4,0-0.8,0-1.2-0.1s-0.7-0.2-1.1-0.3
				c-0.3-0.1-0.7-0.3-1-0.5s-0.6-0.4-0.8-0.7l0.7-1.1c0.1-0.1,0.1-0.1,0.2-0.2c0.1-0.1,0.2-0.1,0.3-0.1c0.1,0,0.3,0.1,0.5,0.2
				c0.2,0.1,0.4,0.2,0.6,0.4c0.2,0.1,0.5,0.3,0.8,0.4c0.3,0.1,0.7,0.2,1.1,0.2c0.7,0,1.2-0.2,1.5-0.5c0.4-0.3,0.5-0.8,0.5-1.3
				c0-0.3-0.1-0.6-0.2-0.8s-0.4-0.4-0.6-0.5c-0.3-0.1-0.6-0.3-0.9-0.4s-0.7-0.2-1-0.3c-0.4-0.1-0.7-0.2-1-0.4
				c-0.3-0.2-0.6-0.4-0.9-0.6c-0.3-0.3-0.5-0.6-0.6-1s-0.2-0.9-0.2-1.4c0-0.4,0.1-0.9,0.3-1.3c0.2-0.4,0.4-0.8,0.8-1.1
				c0.3-0.3,0.8-0.6,1.3-0.8c0.5-0.2,1.1-0.3,1.7-0.3c0.7,0,1.4,0.1,2,0.3c0.6,0.2,1.1,0.5,1.6,1L254.6,158.7z"/>
			<path class="st0" d="M260.3,157.5c0,0.2,0,0.4-0.1,0.5c-0.1,0.2-0.2,0.3-0.3,0.4c-0.1,0.1-0.3,0.2-0.4,0.3s-0.3,0.1-0.5,0.1
				c-0.2,0-0.4,0-0.5-0.1s-0.3-0.2-0.4-0.3c-0.1-0.1-0.2-0.3-0.3-0.4c-0.1-0.2-0.1-0.3-0.1-0.5c0-0.2,0-0.4,0.1-0.5s0.2-0.3,0.3-0.4
				c0.1-0.1,0.3-0.2,0.4-0.3s0.3-0.1,0.5-0.1c0.2,0,0.4,0,0.5,0.1s0.3,0.2,0.4,0.3c0.1,0.1,0.2,0.3,0.3,0.4S260.3,157.3,260.3,157.5
				z M259.9,160v8.8h-2.1V160H259.9z"/>
			<path class="st0" d="M265,164.3l-2.9-4.2h2c0.2,0,0.3,0,0.3,0.1c0.1,0,0.1,0.1,0.2,0.2l1.8,2.9c0-0.1,0.1-0.2,0.1-0.3
				s0.1-0.2,0.2-0.3l1.5-2.3c0.1-0.1,0.1-0.2,0.2-0.2c0.1-0.1,0.2-0.1,0.3-0.1h1.9l-2.9,4.2l3,4.6h-2c-0.2,0-0.3,0-0.4-0.1
				c-0.1-0.1-0.2-0.2-0.2-0.3l-1.9-3.1c-0.1,0.2-0.1,0.4-0.2,0.5l-1.6,2.5c-0.1,0.1-0.1,0.2-0.2,0.3c-0.1,0.1-0.2,0.1-0.3,0.1H262
				L265,164.3z"/>
			<path class="st0" d="M275.9,159.9c0.4,0,0.7,0,1.1,0.1c0.3,0.1,0.6,0.2,0.9,0.3h2.5v0.8c0,0.1,0,0.2-0.1,0.3s-0.2,0.1-0.4,0.2
				l-0.8,0.1c0.1,0.1,0.1,0.3,0.1,0.5c0,0.2,0,0.3,0,0.5c0,0.4-0.1,0.8-0.3,1.2s-0.4,0.6-0.7,0.9c-0.3,0.2-0.7,0.4-1.1,0.6
				c-0.4,0.1-0.9,0.2-1.4,0.2c-0.3,0-0.7,0-1-0.1c-0.3,0.2-0.4,0.4-0.4,0.6c0,0.2,0.1,0.3,0.2,0.4c0.2,0.1,0.4,0.1,0.6,0.2
				c0.3,0,0.6,0.1,0.9,0.1c0.3,0,0.7,0,1,0c0.4,0,0.7,0.1,1,0.1c0.3,0.1,0.6,0.2,0.9,0.3c0.3,0.2,0.5,0.4,0.6,0.6
				c0.2,0.3,0.2,0.6,0.2,1c0,0.4-0.1,0.8-0.3,1.1c-0.2,0.4-0.5,0.7-0.8,1c-0.4,0.3-0.8,0.5-1.3,0.7c-0.5,0.2-1.1,0.3-1.8,0.3
				c-0.7,0-1.2-0.1-1.7-0.2c-0.5-0.1-0.9-0.3-1.2-0.5c-0.3-0.2-0.6-0.5-0.7-0.7s-0.2-0.6-0.2-0.9c0-0.4,0.1-0.8,0.4-1
				c0.3-0.3,0.6-0.5,1-0.7c-0.2-0.1-0.4-0.3-0.5-0.5s-0.2-0.5-0.2-0.8c0-0.1,0-0.3,0.1-0.4c0-0.1,0.1-0.3,0.2-0.4s0.2-0.3,0.4-0.4
				c0.1-0.1,0.3-0.2,0.5-0.3c-0.4-0.2-0.8-0.6-1-1c-0.3-0.4-0.4-0.9-0.4-1.4c0-0.4,0.1-0.8,0.3-1.2s0.4-0.6,0.7-0.9s0.7-0.4,1.1-0.6
				S275.3,159.9,275.9,159.9z M278.2,169.2c0-0.2-0.1-0.3-0.2-0.4s-0.2-0.2-0.4-0.3c-0.2-0.1-0.4-0.1-0.6-0.1s-0.5,0-0.8,0
				s-0.5,0-0.8,0s-0.6,0-0.8-0.1c-0.2,0.1-0.4,0.3-0.6,0.5s-0.2,0.4-0.2,0.6c0,0.2,0,0.3,0.1,0.4c0.1,0.1,0.2,0.2,0.4,0.3
				c0.2,0.1,0.4,0.2,0.7,0.2c0.3,0.1,0.6,0.1,1,0.1c0.4,0,0.7,0,1-0.1c0.3-0.1,0.5-0.1,0.7-0.3s0.3-0.2,0.4-0.4
				C278.1,169.5,278.2,169.4,278.2,169.2z M275.9,164.2c0.3,0,0.5,0,0.7-0.1c0.2-0.1,0.4-0.2,0.5-0.3s0.2-0.3,0.3-0.5
				c0.1-0.2,0.1-0.4,0.1-0.6c0-0.4-0.1-0.8-0.4-1c-0.3-0.3-0.6-0.4-1.2-0.4s-0.9,0.1-1.2,0.4c-0.3,0.3-0.4,0.6-0.4,1
				c0,0.2,0,0.4,0.1,0.6c0.1,0.2,0.2,0.3,0.3,0.5c0.1,0.1,0.3,0.2,0.5,0.3C275.4,164.2,275.6,164.2,275.9,164.2z"/>
			<path class="st0" d="M284.9,157.5c0,0.2,0,0.4-0.1,0.5c-0.1,0.2-0.2,0.3-0.3,0.4c-0.1,0.1-0.3,0.2-0.4,0.3s-0.3,0.1-0.5,0.1
				c-0.2,0-0.4,0-0.5-0.1s-0.3-0.2-0.4-0.3c-0.1-0.1-0.2-0.3-0.3-0.4c-0.1-0.2-0.1-0.3-0.1-0.5c0-0.2,0-0.4,0.1-0.5s0.2-0.3,0.3-0.4
				c0.1-0.1,0.3-0.2,0.4-0.3s0.3-0.1,0.5-0.1c0.2,0,0.4,0,0.5,0.1s0.3,0.2,0.4,0.3c0.1,0.1,0.2,0.3,0.3,0.4S284.9,157.3,284.9,157.5
				z M284.5,160v8.8h-2.1V160H284.5z"/>
			<path class="st0" d="M289.8,156.1v12.7h-2.1v-12.7H289.8z"/>
			<path class="st0" d="M295.1,156.1v12.7H293v-12.7H295.1z"/>
			<path class="st0" d="M308.8,158.7c-0.1,0.1-0.1,0.2-0.2,0.3c-0.1,0.1-0.2,0.1-0.3,0.1c-0.1,0-0.2,0-0.4-0.1
				c-0.1-0.1-0.3-0.2-0.5-0.3c-0.2-0.1-0.4-0.2-0.7-0.3c-0.3-0.1-0.6-0.1-0.9-0.1c-0.3,0-0.6,0-0.8,0.1s-0.4,0.2-0.6,0.3
				c-0.2,0.1-0.3,0.3-0.4,0.5c-0.1,0.2-0.1,0.4-0.1,0.6c0,0.3,0.1,0.5,0.2,0.7c0.2,0.2,0.4,0.4,0.6,0.5c0.3,0.1,0.6,0.3,0.9,0.4
				s0.7,0.2,1,0.3c0.4,0.1,0.7,0.3,1,0.4s0.6,0.4,0.9,0.6c0.3,0.2,0.5,0.6,0.6,0.9c0.2,0.4,0.2,0.8,0.2,1.3c0,0.6-0.1,1.1-0.3,1.6
				c-0.2,0.5-0.5,0.9-0.8,1.3c-0.4,0.4-0.8,0.6-1.3,0.9c-0.5,0.2-1.1,0.3-1.8,0.3c-0.4,0-0.8,0-1.2-0.1s-0.7-0.2-1.1-0.3
				c-0.3-0.1-0.7-0.3-1-0.5s-0.6-0.4-0.8-0.7l0.7-1.1c0.1-0.1,0.1-0.1,0.2-0.2c0.1-0.1,0.2-0.1,0.3-0.1c0.1,0,0.3,0.1,0.5,0.2
				c0.2,0.1,0.4,0.2,0.6,0.4c0.2,0.1,0.5,0.3,0.8,0.4c0.3,0.1,0.7,0.2,1.1,0.2c0.7,0,1.2-0.2,1.5-0.5c0.4-0.3,0.5-0.8,0.5-1.3
				c0-0.3-0.1-0.6-0.2-0.8s-0.4-0.4-0.6-0.5c-0.3-0.1-0.6-0.3-0.9-0.4s-0.7-0.2-1-0.3c-0.4-0.1-0.7-0.2-1-0.4
				c-0.3-0.2-0.6-0.4-0.9-0.6c-0.3-0.3-0.5-0.6-0.6-1s-0.2-0.9-0.2-1.4c0-0.4,0.1-0.9,0.3-1.3c0.2-0.4,0.4-0.8,0.8-1.1
				c0.3-0.3,0.8-0.6,1.3-0.8c0.5-0.2,1.1-0.3,1.7-0.3c0.7,0,1.4,0.1,2,0.3c0.6,0.2,1.1,0.5,1.6,1L308.8,158.7z"/>
			<path class="st0" d="M315.4,159.9c0.6,0,1.1,0.1,1.5,0.3c0.5,0.2,0.9,0.4,1.2,0.8s0.6,0.8,0.8,1.2c0.2,0.5,0.3,1.1,0.3,1.7
				c0,0.2,0,0.3,0,0.4c0,0.1,0,0.2-0.1,0.2c0,0.1-0.1,0.1-0.2,0.1s-0.1,0-0.2,0h-5.4c0.1,0.9,0.3,1.6,0.7,2s1,0.6,1.7,0.6
				c0.3,0,0.6,0,0.9-0.1c0.2-0.1,0.5-0.2,0.6-0.3c0.2-0.1,0.3-0.2,0.5-0.3c0.1-0.1,0.3-0.1,0.4-0.1c0.1,0,0.2,0,0.2,0.1
				s0.1,0.1,0.2,0.1l0.6,0.8c-0.2,0.3-0.5,0.5-0.8,0.7c-0.3,0.2-0.6,0.3-0.9,0.4c-0.3,0.1-0.6,0.2-1,0.2c-0.3,0-0.6,0.1-1,0.1
				c-0.6,0-1.2-0.1-1.7-0.3c-0.5-0.2-1-0.5-1.4-0.9c-0.4-0.4-0.7-0.9-0.9-1.5c-0.2-0.6-0.3-1.3-0.3-2c0-0.6,0.1-1.2,0.3-1.7
				s0.5-1,0.8-1.4c0.4-0.4,0.8-0.7,1.3-0.9C314.2,160,314.8,159.9,315.4,159.9z M315.5,161.4c-0.6,0-1.1,0.2-1.4,0.5
				s-0.6,0.8-0.7,1.5h4c0-0.3,0-0.5-0.1-0.8c-0.1-0.2-0.2-0.5-0.3-0.6c-0.2-0.2-0.3-0.3-0.6-0.4S315.8,161.4,315.5,161.4z"/>
			<path class="st0" d="M321.6,168.8V160h1.3c0.3,0,0.5,0.1,0.5,0.4l0.1,0.7c0.2-0.2,0.4-0.3,0.6-0.5c0.2-0.1,0.4-0.3,0.6-0.4
				c0.2-0.1,0.5-0.2,0.7-0.2s0.5-0.1,0.8-0.1c0.5,0,0.9,0.1,1.3,0.2c0.4,0.2,0.7,0.4,0.9,0.7c0.2,0.3,0.4,0.6,0.6,1.1
				c0.1,0.4,0.2,0.9,0.2,1.3v5.6h-2.1v-5.6c0-0.5-0.1-1-0.4-1.2c-0.2-0.3-0.6-0.4-1.1-0.4c-0.4,0-0.7,0.1-1,0.2
				c-0.3,0.2-0.6,0.4-0.9,0.7v6.3H321.6z"/>
			<path class="st0" d="M337.1,161.8c-0.1,0.1-0.1,0.2-0.2,0.2c-0.1,0-0.1,0.1-0.2,0.1c-0.1,0-0.2,0-0.3-0.1
				c-0.1-0.1-0.3-0.1-0.4-0.2c-0.2-0.1-0.3-0.1-0.5-0.2c-0.2-0.1-0.4-0.1-0.7-0.1c-0.4,0-0.7,0.1-1,0.3s-0.4,0.4-0.4,0.7
				c0,0.2,0.1,0.3,0.2,0.5c0.1,0.1,0.3,0.2,0.5,0.3c0.2,0.1,0.4,0.2,0.7,0.3c0.3,0.1,0.5,0.2,0.8,0.3c0.3,0.1,0.5,0.2,0.8,0.3
				c0.3,0.1,0.5,0.3,0.7,0.4s0.4,0.4,0.5,0.6c0.1,0.3,0.2,0.6,0.2,0.9c0,0.4-0.1,0.8-0.2,1.2c-0.2,0.4-0.4,0.7-0.7,0.9
				c-0.3,0.3-0.7,0.5-1.1,0.6c-0.4,0.1-0.9,0.2-1.5,0.2c-0.3,0-0.6,0-0.9-0.1c-0.3-0.1-0.6-0.1-0.8-0.2c-0.3-0.1-0.5-0.2-0.7-0.3
				c-0.2-0.1-0.4-0.3-0.6-0.4l0.5-0.8c0.1-0.1,0.1-0.2,0.2-0.2s0.2-0.1,0.3-0.1c0.1,0,0.3,0,0.4,0.1c0.1,0.1,0.3,0.2,0.4,0.2
				c0.2,0.1,0.3,0.2,0.5,0.2s0.5,0.1,0.8,0.1c0.3,0,0.5,0,0.6-0.1s0.3-0.1,0.4-0.2c0.1-0.1,0.2-0.2,0.3-0.3c0.1-0.1,0.1-0.3,0.1-0.4
				c0-0.2-0.1-0.4-0.2-0.5c-0.1-0.1-0.3-0.2-0.5-0.3s-0.4-0.2-0.7-0.3c-0.3-0.1-0.5-0.2-0.8-0.3s-0.5-0.2-0.8-0.3
				c-0.3-0.1-0.5-0.3-0.7-0.5c-0.2-0.2-0.4-0.4-0.5-0.7c-0.1-0.3-0.2-0.6-0.2-1c0-0.4,0.1-0.7,0.2-1c0.1-0.3,0.4-0.6,0.6-0.8
				s0.6-0.4,1-0.6c0.4-0.1,0.9-0.2,1.4-0.2c0.6,0,1.2,0.1,1.6,0.3c0.5,0.2,0.9,0.5,1.2,0.8L337.1,161.8z"/>
			<path class="st0" d="M343.7,159.9c0.6,0,1.1,0.1,1.5,0.3c0.5,0.2,0.9,0.4,1.2,0.8s0.6,0.8,0.8,1.2c0.2,0.5,0.3,1.1,0.3,1.7
				c0,0.2,0,0.3,0,0.4c0,0.1,0,0.2-0.1,0.2c0,0.1-0.1,0.1-0.2,0.1s-0.1,0-0.2,0h-5.4c0.1,0.9,0.3,1.6,0.7,2s1,0.6,1.7,0.6
				c0.3,0,0.6,0,0.9-0.1c0.2-0.1,0.5-0.2,0.6-0.3c0.2-0.1,0.3-0.2,0.5-0.3c0.1-0.1,0.3-0.1,0.4-0.1c0.1,0,0.2,0,0.2,0.1
				s0.1,0.1,0.2,0.1l0.6,0.8c-0.2,0.3-0.5,0.5-0.8,0.7c-0.3,0.2-0.6,0.3-0.9,0.4c-0.3,0.1-0.6,0.2-1,0.2c-0.3,0-0.6,0.1-1,0.1
				c-0.6,0-1.2-0.1-1.7-0.3c-0.5-0.2-1-0.5-1.4-0.9c-0.4-0.4-0.7-0.9-0.9-1.5c-0.2-0.6-0.3-1.3-0.3-2c0-0.6,0.1-1.2,0.3-1.7
				s0.5-1,0.8-1.4c0.4-0.4,0.8-0.7,1.3-0.9C342.4,160,343,159.9,343.7,159.9z M343.7,161.4c-0.6,0-1.1,0.2-1.4,0.5s-0.6,0.8-0.7,1.5
				h4c0-0.3,0-0.5-0.1-0.8c-0.1-0.2-0.2-0.5-0.3-0.6c-0.2-0.2-0.3-0.3-0.6-0.4S344,161.4,343.7,161.4z"/>
		</g>
	</g>
</g>
</svg>
