<?xml version="1.0" encoding="utf-8"?>
<!-- Generator: Adobe Illustrator 19.1.0, SVG Export Plug-In . SVG Version: 6.00 Build 0)  -->
<svg version="1.1" id="Layer_1" xmlns="http://www.w3.org/2000/svg" xmlns:xlink="http://www.w3.org/1999/xlink" x="0px" y="0px"
	 viewBox="-17 310.6 576 172.4" style="enable-background:new -17 310.6 576 172.4;" xml:space="preserve">
<style type="text/css">
	.st0{fill:#0051C6;}
	.st1{fill:#4DDB5A;}
	.st2{fill:#383838;}
</style>
<g>
	<g>
		<path class="st0" d="M116.8,448.9h-10.1c-2.1,0-3.8-0.3-5-1c-1.2-0.6-2.1-1.9-2.7-3.9l-2-6.6c-2.4,2.1-4.7,4-6.9,5.6
			c-2.2,1.6-4.6,2.9-7,4c-2.4,1.1-5,1.9-7.7,2.4s-5.7,0.8-9.1,0.8c-3.9,0-7.6-0.5-10.9-1.6c-3.3-1.1-6.2-2.7-8.6-4.8
			c-2.4-2.1-4.2-4.8-5.6-7.9c-1.3-3.2-2-6.8-2-11c0-3.5,0.9-7,2.8-10.4c1.8-3.4,4.9-6.5,9.2-9.3s10-5.1,17.1-6.9s16-2.7,26.6-2.7
			v-5.5c0-6.3-1.3-10.9-3.9-13.9s-6.5-4.5-11.5-4.5c-3.6,0-6.7,0.4-9.1,1.3c-2.4,0.8-4.5,1.8-6.3,2.9c-1.8,1.1-3.4,2-4.9,2.9
			c-1.5,0.8-3.2,1.3-5,1.3c-1.5,0-2.8-0.4-3.9-1.2c-1.1-0.8-2-1.8-2.6-2.9l-4.1-7.2c10.7-9.8,23.6-14.7,38.7-14.7
			c5.4,0,10.3,0.9,14.6,2.7c4.3,1.8,7.9,4.3,10.8,7.4c3,3.2,5.2,7,6.8,11.4c1.6,4.4,2.3,9.3,2.3,14.5L116.8,448.9L116.8,448.9z
			 M73.2,434.9c2.3,0,4.4-0.2,6.3-0.6c1.9-0.4,3.8-1,5.5-1.9c1.7-0.8,3.4-1.9,5-3.1s3.2-2.7,4.9-4.3v-15.6c-6.5,0-12,0.4-16.4,1.2
			s-7.9,1.9-10.6,3.2c-2.7,1.3-4.6,2.8-5.7,4.5s-1.7,3.6-1.7,5.6c0,4,1.2,6.8,3.5,8.5C66.4,434.1,69.5,434.9,73.2,434.9z"/>
		<path class="st0" d="M191.7,374c-0.6,1-1.2,1.6-1.9,2c-0.7,0.4-1.5,0.6-2.5,0.6c-1.1,0-2.3-0.3-3.5-0.9c-1.2-0.6-2.7-1.3-4.3-2
			c-1.6-0.8-3.5-1.4-5.6-2c-2.1-0.6-4.6-0.9-7.4-0.9c-4.4,0-7.9,0.9-10.4,2.8c-2.5,1.9-3.8,4.3-3.8,7.3c0,2,0.6,3.7,2,5
			c1.3,1.4,3,2.6,5.2,3.6c2.1,1,4.6,1.9,7.3,2.8c2.7,0.9,5.5,1.7,8.3,2.7s5.6,2.1,8.3,3.3c2.7,1.2,5.2,2.8,7.3,4.7
			c2.1,1.9,3.9,4.2,5.2,6.8c1.3,2.7,2,5.9,2,9.6c0,4.5-0.8,8.6-2.4,12.4s-4,7-7.2,9.8c-3.1,2.8-7,4.9-11.7,6.4
			c-4.6,1.5-9.9,2.3-15.9,2.3c-3.2,0-6.3-0.3-9.4-0.9c-3.1-0.6-6-1.4-8.8-2.4s-5.4-2.2-7.8-3.6c-2.4-1.4-4.5-2.9-6.3-4.5l5.2-8.5
			c0.7-1,1.5-1.8,2.4-2.4c0.9-0.5,2.1-0.8,3.4-0.8c1.4,0,2.7,0.4,3.9,1.2c1.2,0.8,2.7,1.6,4.3,2.5c1.6,0.9,3.6,1.8,5.8,2.5
			c2.2,0.8,5,1.2,8.4,1.2c2.7,0,4.9-0.3,6.8-1c1.9-0.7,3.5-1.5,4.7-2.5s2.1-2.2,2.7-3.6c0.6-1.4,0.9-2.8,0.9-4.2c0-2.2-0.7-4-2-5.4
			c-1.3-1.4-3-2.6-5.2-3.6c-2.1-1-4.6-1.9-7.3-2.8c-2.8-0.8-5.6-1.7-8.4-2.7c-2.9-1-5.7-2.1-8.4-3.4c-2.8-1.3-5.2-2.9-7.3-4.9
			s-3.9-4.4-5.2-7.3c-1.3-2.9-2-6.4-2-10.5c0-3.8,0.8-7.4,2.3-10.9c1.5-3.4,3.7-6.5,6.7-9c2.9-2.6,6.6-4.6,11-6.2
			c4.4-1.5,9.4-2.3,15.2-2.3c6.4,0,12.2,1.1,17.5,3.2c5.3,2.1,9.6,4.9,13.2,8.3L191.7,374z"/>
		<path class="st0" d="M268.6,374c-0.6,1-1.2,1.6-1.9,2c-0.7,0.4-1.5,0.6-2.5,0.6c-1.1,0-2.3-0.3-3.5-0.9c-1.2-0.6-2.7-1.3-4.3-2
			c-1.6-0.8-3.5-1.4-5.6-2c-2.1-0.6-4.6-0.9-7.4-0.9c-4.4,0-7.9,0.9-10.4,2.8c-2.5,1.9-3.8,4.3-3.8,7.3c0,2,0.6,3.7,2,5
			c1.3,1.4,3,2.6,5.2,3.6c2.1,1,4.6,1.9,7.3,2.8c2.7,0.9,5.5,1.7,8.3,2.7c2.8,1,5.6,2.1,8.3,3.3c2.7,1.2,5.2,2.8,7.3,4.7
			c2.1,1.9,3.9,4.2,5.2,6.8c1.3,2.7,2,5.9,2,9.6c0,4.5-0.8,8.6-2.4,12.4s-4,7-7.2,9.8c-3.1,2.8-7,4.9-11.7,6.4
			c-4.6,1.5-9.9,2.3-15.9,2.3c-3.2,0-6.3-0.3-9.4-0.9c-3.1-0.6-6-1.4-8.8-2.4s-5.4-2.2-7.8-3.6c-2.4-1.4-4.5-2.9-6.3-4.5l5.2-8.5
			c0.7-1,1.5-1.8,2.4-2.4c0.9-0.5,2.1-0.8,3.4-0.8c1.4,0,2.7,0.4,3.9,1.2c1.2,0.8,2.7,1.6,4.3,2.5c1.6,0.9,3.6,1.8,5.8,2.5
			c2.2,0.8,5,1.2,8.4,1.2c2.7,0,4.9-0.3,6.8-1c1.9-0.7,3.5-1.5,4.7-2.5s2.1-2.2,2.7-3.6c0.6-1.4,0.9-2.8,0.9-4.2c0-2.2-0.7-4-2-5.4
			c-1.3-1.4-3-2.6-5.2-3.6c-2.1-1-4.6-1.9-7.3-2.8c-2.8-0.8-5.6-1.7-8.4-2.7c-2.9-1-5.7-2.1-8.4-3.4c-2.8-1.3-5.2-2.9-7.3-4.9
			s-3.9-4.4-5.2-7.3c-1.3-2.9-2-6.4-2-10.5c0-3.8,0.8-7.4,2.3-10.9c1.5-3.4,3.7-6.5,6.7-9c2.9-2.6,6.6-4.6,11-6.2
			c4.4-1.5,9.4-2.3,15.2-2.3c6.4,0,12.2,1.1,17.5,3.2c5.3,2.1,9.6,4.9,13.2,8.3L268.6,374z"/>
		<path class="st0" d="M317.5,328.7c0,1.9-0.4,3.8-1.2,5.4c-0.8,1.7-1.8,3.2-3.1,4.4c-1.3,1.3-2.8,2.3-4.6,3
			c-1.8,0.8-3.6,1.1-5.6,1.1c-1.9,0-3.8-0.4-5.5-1.1c-1.7-0.8-3.2-1.8-4.5-3c-1.3-1.3-2.3-2.8-3-4.4c-0.8-1.7-1.1-3.5-1.1-5.4
			c0-2,0.4-3.9,1.1-5.6c0.8-1.8,1.8-3.3,3-4.5c1.3-1.3,2.8-2.3,4.5-3s3.6-1.1,5.5-1.1c2,0,3.9,0.4,5.6,1.1s3.3,1.8,4.6,3
			c1.3,1.3,2.3,2.8,3.1,4.5S317.5,326.7,317.5,328.7z M314.1,355.8v93.1h-22.4v-93.1H314.1L314.1,355.8z"/>
		<path class="st0" d="M392.3,374c-0.6,1-1.2,1.6-1.9,2c-0.7,0.4-1.5,0.6-2.5,0.6c-1.1,0-2.3-0.3-3.5-0.9c-1.2-0.6-2.7-1.3-4.3-2
			c-1.6-0.8-3.5-1.4-5.6-2c-2.1-0.6-4.6-0.9-7.4-0.9c-4.4,0-7.9,0.9-10.4,2.8c-2.5,1.9-3.8,4.3-3.8,7.3c0,2,0.6,3.7,2,5
			c1.3,1.4,3,2.6,5.2,3.6c2.1,1,4.6,1.9,7.3,2.8c2.7,0.8,5.5,1.7,8.3,2.7s5.6,2.1,8.3,3.3c2.7,1.2,5.2,2.8,7.3,4.7
			c2.1,1.9,3.9,4.2,5.2,6.8c1.3,2.7,2,5.9,2,9.6c0,4.5-0.8,8.6-2.4,12.4s-4,7-7.2,9.8c-3.1,2.8-7,4.9-11.7,6.4
			c-4.6,1.5-9.9,2.3-15.9,2.3c-3.2,0-6.3-0.3-9.4-0.9c-3.1-0.6-6-1.4-8.8-2.4s-5.4-2.2-7.8-3.6c-2.4-1.4-4.5-2.9-6.3-4.5l5.2-8.5
			c0.7-1,1.5-1.8,2.4-2.4c0.9-0.5,2.1-0.8,3.4-0.8c1.4,0,2.7,0.4,3.9,1.2c1.2,0.8,2.7,1.6,4.3,2.5c1.6,0.9,3.6,1.8,5.8,2.5
			c2.2,0.8,5,1.2,8.4,1.2c2.7,0,4.9-0.3,6.8-1c1.9-0.6,3.5-1.5,4.7-2.5s2.1-2.2,2.7-3.6c0.6-1.4,0.9-2.8,0.9-4.2c0-2.2-0.7-4-2-5.4
			c-1.3-1.4-3-2.6-5.2-3.6c-2.1-1-4.6-1.9-7.3-2.8c-2.8-0.8-5.6-1.7-8.4-2.7c-2.9-1-5.7-2.1-8.4-3.4c-2.8-1.3-5.2-2.9-7.3-4.9
			c-2.1-2-3.9-4.4-5.2-7.3c-1.3-2.9-2-6.4-2-10.5c0-3.8,0.8-7.4,2.3-10.9c1.5-3.4,3.7-6.5,6.7-9c2.9-2.6,6.6-4.6,11-6.2
			c4.4-1.5,9.4-2.3,15.2-2.3c6.4,0,12.2,1.1,17.5,3.2c5.3,2.1,9.6,4.9,13.2,8.3L392.3,374z"/>
		<path class="st0" d="M444.6,450.3c-8,0-14.2-2.3-18.6-6.8c-4.4-4.6-6.5-10.9-6.5-18.9v-52h-9.4c-1.2,0-2.3-0.4-3.1-1.2
			c-0.9-0.8-1.3-2-1.3-3.5V359l15-2.4l4.7-25.4c0.2-1.2,0.8-2.1,1.7-2.8c0.9-0.7,2-1,3.3-1H442v29.3h24.5v16H442v50.4
			c0,2.9,0.7,5.2,2.2,6.8s3.4,2.4,5.8,2.4c1.4,0,2.6-0.2,3.5-0.5s1.8-0.7,2.4-1c0.7-0.4,1.3-0.7,1.9-1c0.5-0.3,1.1-0.5,1.6-0.5
			c0.7,0,1.2,0.2,1.6,0.5s0.9,0.8,1.4,1.5l6.7,10.9c-3.3,2.7-7,4.8-11.2,6.2C453.5,449.6,449.1,450.3,444.6,450.3z"/>
	</g>
	<g>
		<g>
			<path class="st0" d="M485.2,356.6v2h-4.7v13.1h-2.4v-13.1h-4.7v-2H485.2z"/>
			<path class="st0" d="M495.1,366.4c0.1,0.2,0.2,0.4,0.3,0.7c0.1-0.2,0.2-0.4,0.3-0.7c0.1-0.3,0.2-0.4,0.3-0.6l4.8-8.8
				c0.1-0.2,0.2-0.3,0.3-0.4c0.1-0.1,0.3-0.1,0.5-0.1h1.8v15.1h-2.2v-10.4c0-0.2,0-0.4,0-0.5c0-0.2,0-0.4,0-0.6l-4.9,9
				c-0.2,0.4-0.5,0.6-0.9,0.6h-0.3c-0.4,0-0.7-0.2-0.9-0.6l-4.9-9c0,0.2,0,0.4,0.1,0.6c0,0.2,0,0.4,0,0.6v10.4h-2.2v-15.1h1.8
				c0.2,0,0.4,0,0.5,0.1c0.1,0.1,0.2,0.2,0.3,0.4l4.9,8.8C494.9,366,495,366.2,495.1,366.4z"/>
		</g>
	</g>
	<g>
		<path class="st1" d="M52.2,316c-0.1,0.2-0.2,0.3-0.4,0.4c-0.1,0.1-0.3,0.1-0.5,0.1s-0.4-0.1-0.7-0.2c-0.2-0.2-0.5-0.4-0.9-0.6
			s-0.8-0.4-1.3-0.6s-1.1-0.3-1.7-0.3s-1.2,0.1-1.6,0.2c-0.4,0.1-0.9,0.4-1.2,0.7c-0.3,0.3-0.6,0.6-0.7,1c-0.2,0.4-0.2,0.8-0.2,1.2
			c0,0.6,0.2,1,0.5,1.4c0.3,0.4,0.7,0.7,1.2,1s1.1,0.5,1.7,0.7c0.6,0.2,1.3,0.4,1.9,0.6c0.7,0.2,1.3,0.5,1.9,0.8
			c0.6,0.3,1.2,0.7,1.7,1.1c0.5,0.4,0.9,1,1.2,1.6c0.3,0.6,0.5,1.4,0.5,2.4s-0.2,1.9-0.5,2.8c-0.3,0.9-0.8,1.6-1.5,2.3
			s-1.5,1.2-2.4,1.5c-1,0.4-2,0.6-3.3,0.6c-0.7,0-1.4-0.1-2.1-0.2c-0.7-0.1-1.3-0.3-2-0.6c-0.7-0.3-1.2-0.6-1.7-0.9s-1-0.8-1.5-1.2
			l1.1-1.7c0.1-0.1,0.2-0.3,0.4-0.3c0.1-0.1,0.3-0.1,0.5-0.1s0.5,0.1,0.8,0.3c0.3,0.2,0.6,0.5,1.1,0.7c0.4,0.3,0.9,0.5,1.5,0.7
			s1.3,0.3,2.1,0.3c1.3,0,2.3-0.3,3.1-1c0.7-0.6,1.1-1.5,1.1-2.7c0-0.6-0.2-1.2-0.5-1.6c-0.3-0.4-0.7-0.7-1.2-1s-1.1-0.5-1.7-0.7
			c-0.6-0.2-1.3-0.4-1.9-0.6c-0.7-0.2-1.3-0.5-1.9-0.8c-0.6-0.3-1.2-0.7-1.7-1.1c-0.5-0.5-0.9-1-1.2-1.7s-0.5-1.5-0.5-2.6
			c0-0.8,0.2-1.6,0.5-2.4s0.8-1.4,1.4-2c0.6-0.6,1.4-1.1,2.3-1.4c0.9-0.4,1.9-0.5,3.1-0.5c1.3,0,2.5,0.2,3.6,0.6
			c1.1,0.4,2,1,2.8,1.7L52.2,316z"/>
		<path class="st1" d="M63.3,334.6h-3.7v-22.5h3.7V334.6z"/>
		<path class="st1" d="M75.9,323.1l-7.3-10.9h3.6c0.3,0,0.5,0,0.6,0.1c0.1,0.1,0.2,0.2,0.3,0.4l5.5,8.6c0-0.1,0.1-0.3,0.1-0.4
			c0.1-0.1,0.1-0.3,0.2-0.4l5.1-7.8c0.1-0.2,0.2-0.3,0.3-0.4c0.1-0.1,0.3-0.1,0.5-0.1h3.5L81,323l7.6,11.7H85
			c-0.2,0-0.5-0.1-0.6-0.2c-0.2-0.1-0.3-0.3-0.4-0.5l-5.6-9c0,0.1-0.1,0.2-0.1,0.4s-0.1,0.2-0.2,0.3l-5.4,8.3
			c-0.1,0.2-0.2,0.3-0.4,0.5c-0.1,0.1-0.3,0.2-0.6,0.2h-3.4L75.9,323.1z"/>
		<path class="st1" d="M103.3,334.9c-1.8,0-3.5-0.3-4.9-0.9c-1.4-0.6-2.7-1.4-3.8-2.4c-1-1-1.8-2.2-2.4-3.6c-0.6-1.4-0.8-3-0.8-4.6
			c0-1.7,0.3-3.2,0.8-4.7s1.3-2.6,2.3-3.6s2.2-1.8,3.7-2.4c1.4-0.6,3-0.8,4.8-0.8c0.9,0,1.7,0.1,2.5,0.2c0.8,0.1,1.5,0.3,2.2,0.6
			c0.7,0.3,1.3,0.6,1.8,0.9c0.6,0.4,1.1,0.8,1.5,1.2l-1,1.7c-0.2,0.3-0.4,0.4-0.6,0.5c-0.3,0.1-0.5,0-0.8-0.2s-0.6-0.4-1-0.6
			s-0.7-0.4-1.2-0.6c-0.4-0.2-0.9-0.3-1.5-0.4c-0.6-0.1-1.2-0.2-2-0.2c-1.2,0-2.3,0.2-3.2,0.6c-1,0.4-1.8,0.9-2.4,1.7
			c-0.7,0.7-1.2,1.6-1.6,2.6s-0.5,2.2-0.5,3.4c0,1.3,0.2,2.5,0.6,3.6c0.4,1.1,0.9,2,1.6,2.7s1.6,1.3,2.6,1.7c1,0.4,2.1,0.6,3.4,0.6
			c0.9,0,1.8-0.1,2.5-0.3s1.4-0.5,2.1-0.8v-4.5h-3.1c-0.2,0-0.4-0.1-0.6-0.2c-0.1-0.1-0.2-0.3-0.2-0.5v-2.1h7.2v8.9
			C108.9,334.1,106.3,334.9,103.3,334.9z"/>
		<path class="st1" d="M121.3,334.6h-3.7v-22.5h3.7V334.6z"/>
		<path class="st1" d="M132.5,331.6h9.3v3.1h-13v-22.5h3.7V331.6z"/>
		<path class="st1" d="M150.8,331.6h9.3v3.1h-13v-22.5h3.7V331.6z"/>
	</g>
	<g>
		<rect x="38.6" y="475.5" class="st2" width="20" height="1"/>
	</g>
	<g>
		<rect x="447.6" y="475.5" class="st2" width="20" height="1"/>
	</g>
	<g>
		<path class="st2" d="M73.4,477.2v4.1h-2.2v-11.6H75c0.8,0,1.4,0.1,2,0.3s1,0.4,1.4,0.8c0.4,0.4,0.6,0.7,0.8,1.2s0.3,0.9,0.3,1.5
			c0,0.6-0.1,1.1-0.3,1.5c-0.2,0.4-0.5,0.9-0.8,1.2c-0.3,0.3-0.8,0.6-1.4,0.8s-1.2,0.3-2,0.3L73.4,477.2L73.4,477.2z M73.4,475.6H75
			c0.4,0,0.7,0,1-0.1c0.3-0.1,0.5-0.2,0.7-0.4s0.3-0.4,0.4-0.7c0.1-0.3,0.1-0.6,0.1-0.9s0-0.6-0.1-0.8c-0.1-0.3-0.2-0.5-0.4-0.6
			c-0.2-0.2-0.4-0.3-0.7-0.4c-0.3-0.1-0.6-0.1-1-0.1h-1.6V475.6z"/>
		<path class="st2" d="M81.7,481.3v-8.2h1.2c0.2,0,0.3,0,0.4,0.1c0.1,0.1,0.1,0.2,0.2,0.4l0.1,1c0.3-0.5,0.6-0.9,1-1.2
			s0.8-0.4,1.3-0.4c0.4,0,0.7,0.1,1,0.3l-0.3,1.5c0,0.1-0.1,0.2-0.1,0.2c-0.1,0-0.1,0.1-0.2,0.1s-0.2,0-0.3-0.1
			c-0.1,0-0.3-0.1-0.6-0.1c-0.4,0-0.8,0.1-1.1,0.3c-0.3,0.2-0.5,0.6-0.7,1v5.1L81.7,481.3L81.7,481.3z"/>
		<path class="st2" d="M92.3,473c0.6,0,1.2,0.1,1.7,0.3s0.9,0.5,1.3,0.8c0.4,0.4,0.6,0.8,0.8,1.3s0.3,1.1,0.3,1.8s-0.1,1.2-0.3,1.8
			c-0.2,0.5-0.5,1-0.8,1.3c-0.4,0.4-0.8,0.7-1.3,0.8c-0.5,0.2-1.1,0.3-1.7,0.3s-1.2-0.1-1.7-0.3c-0.5-0.2-0.9-0.5-1.3-0.8
			c-0.4-0.4-0.6-0.8-0.8-1.3s-0.3-1.1-0.3-1.8c0-0.6,0.1-1.2,0.3-1.8c0.2-0.5,0.5-1,0.8-1.3c0.4-0.4,0.8-0.6,1.3-0.8
			C91.1,473.1,91.7,473,92.3,473z M92.3,479.9c0.7,0,1.2-0.2,1.5-0.7s0.5-1.1,0.5-2c0-0.9-0.2-1.6-0.5-2c-0.3-0.4-0.8-0.7-1.5-0.7
			s-1.2,0.2-1.5,0.7s-0.5,1.1-0.5,2c0,0.9,0.2,1.5,0.5,2S91.6,479.9,92.3,479.9z"/>
		<path class="st2" d="M98.8,481.3v-6.7l-0.7-0.1c-0.2,0-0.3-0.1-0.4-0.2c-0.1-0.1-0.1-0.2-0.1-0.3v-0.8h1.2v-0.6
			c0-0.5,0.1-0.9,0.2-1.3c0.1-0.4,0.3-0.7,0.6-1s0.6-0.5,1-0.6c0.4-0.1,0.8-0.2,1.3-0.2c0.4,0,0.7,0.1,1.1,0.2v1
			c0,0.2-0.1,0.3-0.2,0.3s-0.3,0.1-0.5,0.1s-0.4,0-0.6,0.1c-0.2,0.1-0.3,0.1-0.5,0.3c-0.1,0.1-0.2,0.3-0.3,0.5s-0.1,0.5-0.1,0.8v0.5
			h2.1v1.4h-2.1v6.7L98.8,481.3L98.8,481.3z"/>
		<path class="st2" d="M108.1,473c0.5,0,1,0.1,1.4,0.2c0.4,0.1,0.8,0.4,1.1,0.7c0.3,0.3,0.6,0.7,0.7,1.2c0.2,0.5,0.3,1,0.3,1.6
			c0,0.1,0,0.3,0,0.4c0,0.1,0,0.2-0.1,0.2c0,0.1-0.1,0.1-0.1,0.1c-0.1,0-0.1,0-0.2,0h-5.1c0.1,0.8,0.3,1.5,0.7,1.9
			c0.4,0.4,0.9,0.6,1.6,0.6c0.3,0,0.6,0,0.8-0.1c0.2-0.1,0.4-0.2,0.6-0.2c0.2-0.1,0.3-0.2,0.5-0.2c0.1-0.1,0.3-0.1,0.4-0.1
			s0.1,0,0.2,0s0.1,0.1,0.2,0.1l0.6,0.7c-0.2,0.3-0.5,0.5-0.7,0.6c-0.3,0.2-0.6,0.3-0.9,0.4c-0.3,0.1-0.6,0.2-0.9,0.2
			s-0.6,0.1-0.9,0.1c-0.6,0-1.1-0.1-1.6-0.3s-0.9-0.5-1.3-0.8s-0.6-0.8-0.9-1.4c-0.3-0.6-0.3-1.2-0.3-1.9c0-0.6,0.1-1.1,0.3-1.6
			s0.4-0.9,0.8-1.3c0.3-0.4,0.8-0.7,1.2-0.9C106.9,473.1,107.5,473,108.1,473z M108.1,474.4c-0.6,0-1,0.2-1.4,0.5s-0.5,0.8-0.6,1.4
			h3.7c0-0.3,0-0.5-0.1-0.7s-0.2-0.4-0.3-0.6s-0.3-0.3-0.5-0.4C108.7,474.4,108.4,474.4,108.1,474.4z"/>
		<path class="st2" d="M118.7,474.7c-0.1,0.1-0.1,0.1-0.2,0.2c-0.1,0-0.1,0.1-0.2,0.1s-0.2,0-0.3-0.1c-0.1-0.1-0.2-0.1-0.4-0.2
			c-0.1-0.1-0.3-0.1-0.5-0.2c-0.2-0.1-0.4-0.1-0.7-0.1c-0.4,0-0.7,0.1-0.9,0.2c-0.2,0.2-0.3,0.4-0.3,0.6s0.1,0.3,0.2,0.4
			c0.1,0.1,0.3,0.2,0.5,0.3s0.4,0.2,0.6,0.2c0.2,0.1,0.5,0.2,0.7,0.2c0.3,0.1,0.5,0.2,0.7,0.3s0.5,0.2,0.6,0.4s0.3,0.4,0.5,0.6
			c0.1,0.2,0.2,0.5,0.2,0.8c0,0.4-0.1,0.8-0.2,1.1c-0.1,0.3-0.4,0.6-0.6,0.9c-0.3,0.2-0.6,0.4-1,0.6s-0.9,0.2-1.4,0.2
			c-0.3,0-0.6,0-0.8-0.1c-0.3-0.1-0.5-0.1-0.8-0.2c-0.3-0.1-0.5-0.2-0.7-0.3s-0.4-0.3-0.6-0.4l0.5-0.8c0.1-0.1,0.1-0.2,0.2-0.2
			s0.2-0.1,0.3-0.1s0.2,0,0.3,0.1c0.1,0.1,0.2,0.1,0.4,0.2c0.1,0.1,0.3,0.2,0.5,0.2s0.4,0.1,0.7,0.1c0.2,0,0.4,0,0.6-0.1
			c0.2-0.1,0.3-0.1,0.4-0.2c0.1-0.1,0.2-0.2,0.2-0.3s0.1-0.2,0.1-0.4s-0.1-0.3-0.2-0.5c-0.1-0.1-0.3-0.2-0.5-0.3s-0.4-0.2-0.6-0.2
			c-0.2-0.1-0.5-0.2-0.7-0.2c-0.3-0.1-0.5-0.2-0.7-0.3s-0.5-0.3-0.6-0.4c-0.1-0.1-0.3-0.4-0.5-0.6c-0.1-0.3-0.2-0.6-0.2-0.9
			s0.1-0.7,0.2-1s0.3-0.6,0.6-0.8c0.3-0.2,0.6-0.4,1-0.5c0.4-0.1,0.8-0.2,1.3-0.2c0.6,0,1.1,0.1,1.5,0.3s0.9,0.4,1.2,0.7
			L118.7,474.7z"/>
		<path class="st2" d="M126.3,474.7c-0.1,0.1-0.1,0.1-0.2,0.2c-0.1,0-0.1,0.1-0.2,0.1c-0.1,0-0.2,0-0.3-0.1
			c-0.1-0.1-0.2-0.1-0.4-0.2c-0.1-0.1-0.3-0.1-0.5-0.2c-0.2-0.1-0.4-0.1-0.7-0.1c-0.4,0-0.7,0.1-0.9,0.2c-0.2,0.2-0.3,0.4-0.3,0.6
			s0.1,0.3,0.2,0.4c0.1,0.1,0.3,0.2,0.5,0.3s0.4,0.2,0.6,0.2c0.2,0.1,0.5,0.2,0.7,0.2c0.3,0.1,0.5,0.2,0.7,0.3
			c0.2,0.1,0.5,0.2,0.6,0.4c0.1,0.2,0.3,0.4,0.5,0.6c0.1,0.2,0.2,0.5,0.2,0.8c0,0.4-0.1,0.8-0.2,1.1c-0.1,0.3-0.4,0.6-0.6,0.9
			c-0.3,0.2-0.6,0.4-1,0.6s-0.9,0.2-1.4,0.2c-0.3,0-0.6,0-0.8-0.1c-0.3-0.1-0.5-0.1-0.8-0.2c-0.3-0.1-0.5-0.2-0.7-0.3
			s-0.4-0.3-0.6-0.4l0.5-0.8c0.1-0.1,0.1-0.2,0.2-0.2s0.2-0.1,0.3-0.1s0.2,0,0.3,0.1c0.1,0.1,0.2,0.1,0.4,0.2
			c0.1,0.1,0.3,0.2,0.5,0.2s0.4,0.1,0.7,0.1c0.2,0,0.4,0,0.6-0.1c0.2-0.1,0.3-0.1,0.4-0.2c0.1-0.1,0.2-0.2,0.2-0.3s0.1-0.2,0.1-0.4
			s-0.1-0.3-0.2-0.5c-0.1-0.1-0.3-0.2-0.5-0.3s-0.4-0.2-0.6-0.2c-0.2-0.1-0.5-0.2-0.7-0.2c-0.3-0.1-0.5-0.2-0.7-0.3
			s-0.5-0.3-0.6-0.4c-0.1-0.1-0.3-0.4-0.5-0.6c-0.1-0.3-0.2-0.6-0.2-0.9s0.1-0.7,0.2-1s0.3-0.6,0.6-0.8c0.3-0.2,0.6-0.4,1-0.5
			c0.4-0.1,0.8-0.2,1.3-0.2c0.6,0,1.1,0.1,1.5,0.3s0.9,0.4,1.2,0.7L126.3,474.7z"/>
		<path class="st2" d="M131.4,470.7c0,0.2,0,0.3-0.1,0.5s-0.2,0.3-0.3,0.4c-0.1,0.1-0.2,0.2-0.4,0.3s-0.3,0.1-0.5,0.1
			s-0.3,0-0.5-0.1c-0.2-0.1-0.3-0.2-0.4-0.3c-0.1-0.1-0.2-0.2-0.3-0.4c-0.1-0.1-0.1-0.3-0.1-0.5s0-0.3,0.1-0.5s0.2-0.3,0.3-0.4
			c0.1-0.1,0.2-0.2,0.4-0.3s0.3-0.1,0.5-0.1s0.3,0,0.5,0.1c0.2,0.1,0.3,0.2,0.4,0.3c0.1,0.1,0.2,0.2,0.3,0.4
			C131.4,470.4,131.4,470.5,131.4,470.7z M131.1,473.1v8.2h-2v-8.2H131.1z"/>
		<path class="st2" d="M137.4,473c0.6,0,1.2,0.1,1.7,0.3s0.9,0.5,1.3,0.8c0.4,0.4,0.6,0.8,0.8,1.3s0.3,1.1,0.3,1.8s-0.1,1.2-0.3,1.8
			c-0.2,0.5-0.5,1-0.8,1.3c-0.4,0.4-0.8,0.7-1.3,0.8c-0.5,0.2-1.1,0.3-1.7,0.3s-1.2-0.1-1.7-0.3c-0.5-0.2-0.9-0.5-1.3-0.8
			c-0.4-0.4-0.6-0.8-0.8-1.3s-0.3-1.1-0.3-1.8c0-0.6,0.1-1.2,0.3-1.8c0.2-0.5,0.5-1,0.8-1.3c0.4-0.4,0.8-0.6,1.3-0.8
			C136.3,473.1,136.8,473,137.4,473z M137.4,479.9c0.7,0,1.2-0.2,1.5-0.7s0.5-1.1,0.5-2c0-0.9-0.2-1.6-0.5-2
			c-0.3-0.4-0.8-0.7-1.5-0.7s-1.2,0.2-1.5,0.7s-0.5,1.1-0.5,2c0,0.9,0.2,1.5,0.5,2S136.7,479.9,137.4,479.9z"/>
		<path class="st2" d="M143.6,481.3v-8.2h1.2c0.3,0,0.4,0.1,0.5,0.4l0.1,0.6c0.2-0.2,0.3-0.3,0.5-0.5c0.2-0.1,0.4-0.3,0.6-0.4
			c0.2-0.1,0.4-0.2,0.7-0.2s0.5-0.1,0.8-0.1c0.4,0,0.8,0.1,1.2,0.2c0.3,0.2,0.6,0.4,0.9,0.6s0.4,0.6,0.5,1c0.1,0.4,0.2,0.8,0.2,1.3
			v5.2h-2V476c0-0.5-0.1-0.9-0.3-1.2c-0.2-0.3-0.6-0.4-1-0.4c-0.3,0-0.7,0.1-1,0.2c-0.3,0.2-0.6,0.4-0.8,0.6v5.9h-2.1V481.3z"/>
		<path class="st2" d="M159.7,481.3h-0.9c-0.2,0-0.3,0-0.4-0.1c-0.1-0.1-0.2-0.2-0.2-0.3l-0.2-0.6c-0.2,0.2-0.4,0.4-0.6,0.5
			c-0.2,0.1-0.4,0.3-0.6,0.4c-0.2,0.1-0.4,0.2-0.7,0.2s-0.5,0.1-0.8,0.1s-0.7,0-1-0.1c-0.3-0.1-0.5-0.2-0.8-0.4
			c-0.2-0.2-0.4-0.4-0.5-0.7s-0.2-0.6-0.2-1c0-0.3,0.1-0.6,0.2-0.9c0.2-0.3,0.4-0.6,0.8-0.8c0.4-0.2,0.9-0.4,1.5-0.6
			s1.4-0.2,2.3-0.2v-0.5c0-0.6-0.1-1-0.3-1.2c-0.2-0.3-0.6-0.4-1-0.4c-0.3,0-0.6,0-0.8,0.1c-0.2,0.1-0.4,0.2-0.6,0.3
			c-0.2,0.1-0.3,0.2-0.4,0.3c-0.1,0.1-0.3,0.1-0.4,0.1s-0.2,0-0.3-0.1c-0.1-0.1-0.2-0.2-0.2-0.3l-0.4-0.6c0.9-0.9,2.1-1.3,3.4-1.3
			c0.5,0,0.9,0.1,1.3,0.2c0.4,0.1,0.7,0.4,1,0.7s0.5,0.6,0.6,1c0.1,0.4,0.2,0.8,0.2,1.3L159.7,481.3L159.7,481.3z M155.9,480.1
			c0.2,0,0.4,0,0.6-0.1c0.2-0.1,0.3-0.1,0.5-0.2c0.2-0.1,0.3-0.2,0.4-0.3c0.1-0.1,0.3-0.2,0.4-0.4v-1.4c-0.6,0-1.1,0-1.4,0.1
			c-0.3,0.1-0.7,0.2-0.9,0.3s-0.4,0.2-0.5,0.4s-0.1,0.3-0.1,0.5c0,0.3,0.1,0.6,0.3,0.7C155.3,480,155.6,480.1,155.9,480.1z"/>
		<path class="st2" d="M164.4,469.4v11.9h-2v-11.9H164.4z"/>
		<path class="st2" d="M177.2,471.9c-0.1,0.1-0.1,0.2-0.2,0.2s-0.2,0.1-0.3,0.1s-0.2,0-0.4-0.1c-0.1-0.1-0.3-0.2-0.5-0.3
			s-0.4-0.2-0.6-0.3c-0.2-0.1-0.5-0.1-0.9-0.1c-0.3,0-0.6,0-0.8,0.1c-0.2,0.1-0.4,0.2-0.6,0.3c-0.2,0.1-0.3,0.3-0.3,0.5
			c-0.1,0.2-0.1,0.4-0.1,0.6c0,0.3,0.1,0.5,0.2,0.7c0.2,0.2,0.4,0.3,0.6,0.5c0.3,0.1,0.5,0.2,0.9,0.3s0.6,0.2,1,0.3
			c0.3,0.1,0.7,0.2,1,0.4c0.3,0.2,0.6,0.3,0.9,0.6c0.2,0.2,0.5,0.5,0.6,0.9c0.1,0.4,0.2,0.7,0.2,1.2s-0.1,1-0.3,1.5
			s-0.4,0.9-0.8,1.2c-0.3,0.3-0.8,0.6-1.3,0.8c-0.5,0.2-1.1,0.3-1.7,0.3c-0.4,0-0.7,0-1.1-0.1c-0.4-0.1-0.7-0.2-1-0.3
			s-0.6-0.3-0.9-0.5s-0.5-0.4-0.8-0.6l0.6-1c0.1-0.1,0.1-0.1,0.2-0.2c0.1-0.1,0.2-0.1,0.3-0.1s0.3,0.1,0.4,0.2
			c0.2,0.1,0.3,0.2,0.5,0.4c0.2,0.1,0.5,0.3,0.7,0.4c0.2,0.1,0.6,0.2,1,0.2c0.6,0,1.1-0.1,1.4-0.4s0.5-0.7,0.5-1.3
			c0-0.3-0.1-0.6-0.2-0.7c-0.2-0.2-0.4-0.4-0.6-0.5c-0.2-0.1-0.5-0.2-0.9-0.3c-0.3-0.1-0.6-0.2-1-0.3s-0.7-0.2-1-0.4
			c-0.3-0.1-0.6-0.3-0.9-0.6c-0.3-0.2-0.5-0.5-0.6-0.9c-0.2-0.4-0.2-0.8-0.2-1.3c0-0.4,0.1-0.8,0.3-1.2s0.4-0.8,0.7-1.1
			c0.3-0.3,0.7-0.6,1.2-0.7c0.5-0.2,1-0.3,1.6-0.3c0.7,0,1.3,0.1,1.9,0.3c0.6,0.2,1.1,0.5,1.5,0.9L177.2,471.9z"/>
		<path class="st2" d="M183.4,473c0.5,0,1,0.1,1.4,0.2c0.4,0.1,0.8,0.4,1.1,0.7c0.3,0.3,0.6,0.7,0.7,1.2c0.2,0.5,0.3,1,0.3,1.6
			c0,0.1,0,0.3,0,0.4c0,0.1,0,0.2-0.1,0.2c0,0.1-0.1,0.1-0.1,0.1c-0.1,0-0.1,0-0.2,0h-5.1c0.1,0.8,0.3,1.5,0.7,1.9
			c0.4,0.4,0.9,0.6,1.6,0.6c0.3,0,0.6,0,0.8-0.1c0.2-0.1,0.4-0.2,0.6-0.2c0.2-0.1,0.3-0.2,0.5-0.2c0.1-0.1,0.3-0.1,0.4-0.1
			s0.1,0,0.2,0s0.1,0.1,0.2,0.1l0.6,0.7c-0.2,0.3-0.5,0.5-0.7,0.6c-0.3,0.2-0.6,0.3-0.9,0.4c-0.3,0.1-0.6,0.2-0.9,0.2
			s-0.6,0.1-0.9,0.1c-0.6,0-1.1-0.1-1.6-0.3s-0.9-0.5-1.3-0.8s-0.6-0.8-0.9-1.4c-0.3-0.6-0.3-1.2-0.3-1.9c0-0.6,0.1-1.1,0.3-1.6
			s0.4-0.9,0.8-1.3c0.3-0.4,0.8-0.7,1.2-0.9C182.3,473.1,182.8,473,183.4,473z M183.5,474.4c-0.6,0-1,0.2-1.4,0.5s-0.5,0.8-0.6,1.4
			h3.7c0-0.3,0-0.5-0.1-0.7s-0.2-0.4-0.3-0.6s-0.3-0.3-0.5-0.4C184,474.4,183.8,474.4,183.5,474.4z"/>
		<path class="st2" d="M189.2,481.3v-8.2h1.2c0.2,0,0.3,0,0.4,0.1c0.1,0.1,0.1,0.2,0.2,0.4l0.1,1c0.3-0.5,0.6-0.9,1-1.2
			s0.8-0.4,1.3-0.4c0.4,0,0.7,0.1,1,0.3l-0.3,1.5c0,0.1-0.1,0.2-0.1,0.2c-0.1,0-0.1,0.1-0.2,0.1s-0.2,0-0.3-0.1
			c-0.1,0-0.3-0.1-0.6-0.1c-0.4,0-0.8,0.1-1.1,0.3s-0.5,0.6-0.7,1v5.1L189.2,481.3L189.2,481.3z"/>
		<path class="st2" d="M200.4,481.3h-1.8l-3.3-8.2h1.6c0.1,0,0.3,0,0.4,0.1c0.1,0.1,0.2,0.2,0.2,0.3l1.6,4.4
			c0.1,0.3,0.2,0.5,0.2,0.8s0.1,0.5,0.2,0.7c0-0.2,0.1-0.5,0.2-0.7s0.1-0.5,0.2-0.8l1.6-4.4c0-0.1,0.1-0.2,0.2-0.3
			c0.1-0.1,0.2-0.1,0.3-0.1h1.6L200.4,481.3z"/>
		<path class="st2" d="M207.8,470.7c0,0.2,0,0.3-0.1,0.5s-0.2,0.3-0.3,0.4c-0.1,0.1-0.2,0.2-0.4,0.3s-0.3,0.1-0.5,0.1
			s-0.3,0-0.5-0.1c-0.2-0.1-0.3-0.2-0.4-0.3c-0.1-0.1-0.2-0.2-0.3-0.4c-0.1-0.1-0.1-0.3-0.1-0.5s0-0.3,0.1-0.5s0.2-0.3,0.3-0.4
			c0.1-0.1,0.2-0.2,0.4-0.3s0.3-0.1,0.5-0.1s0.3,0,0.5,0.1c0.2,0.1,0.3,0.2,0.4,0.3c0.1,0.1,0.2,0.2,0.3,0.4
			C207.8,470.4,207.8,470.5,207.8,470.7z M207.5,473.1v8.2h-2v-8.2H207.5z"/>
		<path class="st2" d="M216.1,474.8c-0.1,0.1-0.1,0.1-0.2,0.2c-0.1,0-0.1,0.1-0.2,0.1s-0.2,0-0.3-0.1c-0.1-0.1-0.2-0.1-0.3-0.2
			c-0.1-0.1-0.3-0.1-0.5-0.2c-0.2-0.1-0.4-0.1-0.7-0.1s-0.7,0.1-0.9,0.2c-0.3,0.1-0.5,0.3-0.7,0.5s-0.3,0.5-0.4,0.9
			c-0.1,0.3-0.1,0.7-0.1,1.1c0,0.4,0,0.8,0.1,1.2c0.1,0.3,0.2,0.6,0.4,0.9c0.2,0.2,0.4,0.4,0.6,0.5c0.3,0.1,0.5,0.2,0.8,0.2
			s0.6,0,0.8-0.1c0.2-0.1,0.4-0.2,0.5-0.3s0.2-0.2,0.3-0.3s0.2-0.1,0.3-0.1c0.2,0,0.3,0.1,0.4,0.2l0.6,0.7c-0.2,0.3-0.5,0.5-0.7,0.6
			c-0.3,0.2-0.5,0.3-0.8,0.4c-0.3,0.1-0.6,0.2-0.9,0.2s-0.6,0.1-0.9,0.1c-0.5,0-1-0.1-1.4-0.3s-0.8-0.5-1.2-0.8
			c-0.3-0.4-0.6-0.8-0.8-1.3s-0.3-1.1-0.3-1.8c0-0.6,0.1-1.2,0.3-1.7s0.4-1,0.8-1.3s0.8-0.7,1.2-0.9c0.5-0.2,1.1-0.3,1.7-0.3
			s1.2,0.1,1.6,0.3c0.5,0.2,0.9,0.5,1.2,0.8L216.1,474.8z"/>
		<path class="st2" d="M222,473c0.5,0,1,0.1,1.4,0.2c0.4,0.1,0.8,0.4,1.1,0.7c0.3,0.3,0.6,0.7,0.7,1.2c0.2,0.5,0.3,1,0.3,1.6
			c0,0.1,0,0.3,0,0.4c0,0.1,0,0.2-0.1,0.2c0,0.1-0.1,0.1-0.1,0.1c-0.1,0-0.1,0-0.2,0H220c0.1,0.8,0.3,1.5,0.7,1.9
			c0.4,0.4,0.9,0.6,1.6,0.6c0.3,0,0.6,0,0.8-0.1c0.2-0.1,0.4-0.2,0.6-0.2c0.2-0.1,0.3-0.2,0.5-0.2c0.1-0.1,0.3-0.1,0.4-0.1
			s0.1,0,0.2,0s0.1,0.1,0.2,0.1l0.6,0.7c-0.2,0.3-0.5,0.5-0.7,0.6c-0.3,0.2-0.6,0.3-0.9,0.4c-0.3,0.1-0.6,0.2-0.9,0.2
			s-0.6,0.1-0.9,0.1c-0.6,0-1.1-0.1-1.6-0.3s-0.9-0.5-1.3-0.8s-0.6-0.8-0.9-1.4c-0.3-0.6-0.3-1.2-0.3-1.9c0-0.6,0.1-1.1,0.3-1.6
			s0.4-0.9,0.8-1.3c0.3-0.4,0.8-0.7,1.2-0.9C220.8,473.1,221.4,473,222,473z M222,474.4c-0.6,0-1,0.2-1.4,0.5s-0.5,0.8-0.6,1.4h3.7
			c0-0.3,0-0.5-0.1-0.7s-0.2-0.4-0.3-0.6s-0.3-0.3-0.5-0.4C222.6,474.4,222.3,474.4,222,474.4z"/>
		<path class="st2" d="M232.6,474.7c-0.1,0.1-0.1,0.1-0.2,0.2c-0.1,0-0.1,0.1-0.2,0.1s-0.2,0-0.3-0.1c-0.1-0.1-0.2-0.1-0.4-0.2
			c-0.1-0.1-0.3-0.1-0.5-0.2c-0.2-0.1-0.4-0.1-0.7-0.1c-0.4,0-0.7,0.1-0.9,0.2c-0.2,0.2-0.3,0.4-0.3,0.6s0.1,0.3,0.2,0.4
			c0.1,0.1,0.3,0.2,0.5,0.3s0.4,0.2,0.6,0.2c0.2,0.1,0.5,0.2,0.7,0.2c0.3,0.1,0.5,0.2,0.7,0.3s0.5,0.2,0.6,0.4s0.3,0.4,0.5,0.6
			c0.1,0.2,0.2,0.5,0.2,0.8c0,0.4-0.1,0.8-0.2,1.1c-0.1,0.3-0.4,0.6-0.6,0.9c-0.3,0.2-0.6,0.4-1,0.6s-0.9,0.2-1.4,0.2
			c-0.3,0-0.6,0-0.8-0.1c-0.3-0.1-0.5-0.1-0.8-0.2c-0.3-0.1-0.5-0.2-0.7-0.3s-0.4-0.3-0.6-0.4l0.5-0.8c0.1-0.1,0.1-0.2,0.2-0.2
			s0.2-0.1,0.3-0.1s0.2,0,0.3,0.1c0.1,0.1,0.2,0.1,0.4,0.2c0.1,0.1,0.3,0.2,0.5,0.2s0.4,0.1,0.7,0.1c0.2,0,0.4,0,0.6-0.1
			c0.2-0.1,0.3-0.1,0.4-0.2c0.1-0.1,0.2-0.2,0.2-0.3s0.1-0.2,0.1-0.4s-0.1-0.3-0.2-0.5c-0.1-0.1-0.3-0.2-0.5-0.3s-0.4-0.2-0.6-0.2
			c-0.2-0.1-0.5-0.2-0.7-0.2c-0.3-0.1-0.5-0.2-0.7-0.3s-0.5-0.3-0.6-0.4c-0.1-0.1-0.3-0.4-0.5-0.6c-0.1-0.3-0.2-0.6-0.2-0.9
			s0.1-0.7,0.2-1s0.3-0.6,0.6-0.8c0.3-0.2,0.6-0.4,1-0.5c0.4-0.1,0.8-0.2,1.3-0.2c0.6,0,1.1,0.1,1.5,0.3s0.9,0.4,1.2,0.7
			L232.6,474.7z"/>
		<path class="st2" d="M239.4,481.3v-6.7l-0.8-0.1c-0.2,0-0.3-0.1-0.4-0.2c-0.1-0.1-0.1-0.2-0.1-0.3v-0.8h1.2v-0.6
			c0-0.5,0.1-0.9,0.2-1.3c0.1-0.4,0.3-0.7,0.6-1s0.6-0.5,1-0.6c0.4-0.1,0.8-0.2,1.3-0.2c0.4,0,0.7,0.1,1.1,0.2v1
			c0,0.2-0.1,0.3-0.2,0.3s-0.3,0.1-0.5,0.1s-0.4,0-0.6,0.1c-0.2,0.1-0.3,0.1-0.5,0.3c-0.1,0.1-0.2,0.3-0.3,0.5s-0.1,0.5-0.1,0.8v0.5
			h2.1v1.4h-2.1v6.7L239.4,481.3L239.4,481.3L239.4,481.3z"/>
		<path class="st2" d="M248.7,473c0.6,0,1.2,0.1,1.7,0.3s0.9,0.5,1.3,0.8c0.4,0.4,0.6,0.8,0.8,1.3s0.3,1.1,0.3,1.8s-0.1,1.2-0.3,1.8
			c-0.2,0.5-0.5,1-0.8,1.3c-0.4,0.4-0.8,0.7-1.3,0.8c-0.5,0.2-1.1,0.3-1.7,0.3s-1.2-0.1-1.7-0.3c-0.5-0.2-0.9-0.5-1.3-0.8
			c-0.4-0.4-0.6-0.8-0.8-1.3s-0.3-1.1-0.3-1.8c0-0.6,0.1-1.2,0.3-1.8c0.2-0.5,0.5-1,0.8-1.3c0.4-0.4,0.8-0.6,1.3-0.8
			C247.5,473.1,248.1,473,248.7,473z M248.7,479.9c0.7,0,1.2-0.2,1.5-0.7s0.5-1.1,0.5-2c0-0.9-0.2-1.6-0.5-2
			c-0.3-0.4-0.8-0.7-1.5-0.7s-1.2,0.2-1.5,0.7s-0.5,1.1-0.5,2c0,0.9,0.2,1.5,0.5,2S248,479.9,248.7,479.9z"/>
		<path class="st2" d="M254.9,481.3v-8.2h1.2c0.2,0,0.3,0,0.4,0.1c0.1,0.1,0.1,0.2,0.2,0.4l0.1,1c0.3-0.5,0.6-0.9,1-1.2
			s0.8-0.4,1.3-0.4c0.4,0,0.7,0.1,1,0.3l-0.3,1.5c0,0.1-0.1,0.2-0.1,0.2c-0.1,0-0.1,0.1-0.2,0.1s-0.2,0-0.3-0.1
			c-0.1,0-0.3-0.1-0.6-0.1c-0.4,0-0.8,0.1-1.1,0.3c-0.3,0.2-0.5,0.6-0.7,1v5.1L254.9,481.3L254.9,481.3z"/>
		<path class="st2" d="M268,477.2v4.1h-2.2v-11.6h3.8c0.8,0,1.4,0.1,2,0.3s1,0.4,1.4,0.8c0.4,0.4,0.6,0.7,0.8,1.2
			c0.2,0.5,0.3,0.9,0.3,1.5c0,0.6-0.1,1.1-0.3,1.5c-0.2,0.4-0.5,0.9-0.8,1.2c-0.3,0.3-0.8,0.6-1.4,0.8s-1.2,0.3-2,0.3L268,477.2
			L268,477.2z M268,475.6h1.6c0.4,0,0.7,0,1-0.1c0.3-0.1,0.5-0.2,0.7-0.4s0.3-0.4,0.4-0.7c0.1-0.3,0.1-0.6,0.1-0.9s0-0.6-0.1-0.8
			c-0.1-0.3-0.2-0.5-0.4-0.6c-0.2-0.2-0.4-0.3-0.7-0.4c-0.3-0.1-0.6-0.1-1-0.1H268V475.6z"/>
		<path class="st2" d="M276.3,481.3v-8.2h1.2c0.2,0,0.3,0,0.4,0.1c0.1,0.1,0.1,0.2,0.2,0.4l0.1,1c0.3-0.5,0.6-0.9,1-1.2
			s0.8-0.4,1.3-0.4c0.4,0,0.7,0.1,1,0.3l-0.3,1.5c0,0.1-0.1,0.2-0.1,0.2c-0.1,0-0.1,0.1-0.2,0.1s-0.2,0-0.3-0.1
			c-0.1,0-0.3-0.1-0.6-0.1c-0.4,0-0.8,0.1-1.1,0.3c-0.3,0.2-0.5,0.6-0.7,1v5.1L276.3,481.3L276.3,481.3z"/>
		<path class="st2" d="M286.9,473c0.6,0,1.2,0.1,1.7,0.3s0.9,0.5,1.3,0.8c0.4,0.4,0.6,0.8,0.8,1.3c0.2,0.5,0.3,1.1,0.3,1.8
			s-0.1,1.2-0.3,1.8c-0.2,0.5-0.5,1-0.8,1.3c-0.4,0.4-0.8,0.7-1.3,0.8c-0.5,0.2-1.1,0.3-1.7,0.3s-1.2-0.1-1.7-0.3
			c-0.5-0.2-0.9-0.5-1.3-0.8c-0.4-0.4-0.6-0.8-0.8-1.3c-0.2-0.5-0.3-1.1-0.3-1.8c0-0.6,0.1-1.2,0.3-1.8c0.2-0.5,0.5-1,0.8-1.3
			c0.4-0.4,0.8-0.6,1.3-0.8C285.8,473.1,286.3,473,286.9,473z M286.9,479.9c0.7,0,1.2-0.2,1.5-0.7s0.5-1.1,0.5-2
			c0-0.9-0.2-1.6-0.5-2c-0.3-0.4-0.8-0.7-1.5-0.7s-1.2,0.2-1.5,0.7s-0.5,1.1-0.5,2c0,0.9,0.2,1.5,0.5,2
			C285.7,479.7,286.2,479.9,286.9,479.9z"/>
		<path class="st2" d="M294.6,477.1l-2.7-4h1.9c0.1,0,0.3,0,0.3,0.1c0,0.1,0.1,0.1,0.2,0.2l1.7,2.7c0-0.1,0.1-0.2,0.1-0.3
			s0.1-0.2,0.1-0.3l1.4-2.2c0.1-0.1,0.1-0.2,0.2-0.2s0.2-0.1,0.3-0.1h1.8l-2.7,3.9l2.8,4.3h-1.9c-0.1,0-0.3,0-0.3-0.1
			c-0.1-0.1-0.2-0.2-0.2-0.3l-1.7-2.9c0,0.2-0.1,0.4-0.2,0.5l-1.5,2.4c-0.1,0.1-0.1,0.2-0.2,0.3s-0.2,0.1-0.3,0.1h-1.8L294.6,477.1z
			"/>
		<path class="st2" d="M304.3,470.7c0,0.2,0,0.3-0.1,0.5s-0.2,0.3-0.3,0.4c-0.1,0.1-0.2,0.2-0.4,0.3s-0.3,0.1-0.5,0.1
			s-0.3,0-0.5-0.1c-0.2-0.1-0.3-0.2-0.4-0.3s-0.2-0.2-0.3-0.4c-0.1-0.1-0.1-0.3-0.1-0.5s0-0.3,0.1-0.5s0.2-0.3,0.3-0.4
			c0.1-0.1,0.2-0.2,0.4-0.3c0.2-0.1,0.3-0.1,0.5-0.1s0.3,0,0.5,0.1c0.2,0.1,0.3,0.2,0.4,0.3s0.2,0.2,0.3,0.4
			C304.2,470.4,304.3,470.5,304.3,470.7z M304,473.1v8.2h-2v-8.2H304z"/>
		<path class="st2" d="M306.8,481.3v-8.2h1.2c0.3,0,0.4,0.1,0.5,0.4l0.1,0.6c0.1-0.2,0.3-0.3,0.5-0.4c0.2-0.1,0.3-0.2,0.5-0.3
			s0.4-0.2,0.6-0.2s0.4-0.1,0.7-0.1c0.5,0,0.9,0.1,1.3,0.4s0.6,0.7,0.7,1.1c0.1-0.3,0.3-0.5,0.5-0.7s0.4-0.4,0.6-0.5
			c0.2-0.1,0.5-0.2,0.7-0.3s0.5-0.1,0.8-0.1c0.5,0,0.9,0.1,1.2,0.2c0.3,0.1,0.6,0.3,0.9,0.6c0.2,0.3,0.4,0.6,0.5,1
			c0.1,0.4,0.2,0.8,0.2,1.3v5.2h-2v-5.2c0-0.5-0.1-0.9-0.3-1.2c-0.2-0.3-0.6-0.4-1-0.4c-0.2,0-0.4,0-0.6,0.1
			c-0.2,0.1-0.3,0.2-0.5,0.3c-0.1,0.1-0.2,0.3-0.3,0.5c-0.1,0.2-0.1,0.4-0.1,0.7v5.2h-2v-5.2c0-0.5-0.1-0.9-0.3-1.2
			c-0.2-0.3-0.5-0.4-1-0.4c-0.3,0-0.5,0.1-0.8,0.2c-0.3,0.1-0.5,0.3-0.7,0.6v6H306.8z"/>
		<path class="st2" d="M323.3,470.7c0,0.2,0,0.3-0.1,0.5s-0.2,0.3-0.3,0.4c-0.1,0.1-0.2,0.2-0.4,0.3s-0.3,0.1-0.5,0.1
			s-0.3,0-0.5-0.1c-0.2-0.1-0.3-0.2-0.4-0.3s-0.2-0.2-0.3-0.4c-0.1-0.1-0.1-0.3-0.1-0.5s0-0.3,0.1-0.5s0.2-0.3,0.3-0.4
			c0.1-0.1,0.2-0.2,0.4-0.3c0.2-0.1,0.3-0.1,0.5-0.1s0.3,0,0.5,0.1c0.2,0.1,0.3,0.2,0.4,0.3s0.2,0.2,0.3,0.4
			C323.2,470.4,323.3,470.5,323.3,470.7z M323,473.1v8.2h-2v-8.2H323z"/>
		<path class="st2" d="M328.5,481.4c-0.7,0-1.3-0.2-1.6-0.6c-0.4-0.4-0.6-1-0.6-1.7v-4.6h-0.8c-0.1,0-0.2,0-0.3-0.1
			c-0.1-0.1-0.1-0.2-0.1-0.3v-0.8l1.3-0.2l0.4-2.2c0-0.1,0.1-0.2,0.1-0.2c0.1-0.1,0.2-0.1,0.3-0.1h1v2.6h2.2v1.4h-2.2v4.4
			c0,0.3,0.1,0.5,0.2,0.6c0.1,0.1,0.3,0.2,0.5,0.2c0.1,0,0.2,0,0.3,0c0.1,0,0.2-0.1,0.2-0.1c0.1,0,0.1-0.1,0.2-0.1s0.1,0,0.1,0
			c0.1,0,0.1,0,0.1,0l0.1,0.1l0.6,1c-0.3,0.2-0.6,0.4-1,0.5C329.3,481.4,328.9,481.4,328.5,481.4z"/>
		<path class="st2" d="M335.5,483.6c-0.1,0.1-0.1,0.2-0.2,0.3s-0.2,0.1-0.4,0.1h-1.5l1.5-3.3l-3.3-7.6h1.7c0.2,0,0.3,0,0.4,0.1
			c0.1,0.1,0.1,0.2,0.2,0.3l1.8,4.3c0.1,0.1,0.1,0.3,0.2,0.4c0,0.1,0.1,0.3,0.1,0.4c0-0.2,0.1-0.3,0.1-0.4c0.1-0.1,0.1-0.3,0.2-0.4
			l1.6-4.2c0-0.1,0.1-0.2,0.2-0.3s0.2-0.1,0.3-0.1h1.6L335.5,483.6z"/>
		<path class="st2" d="M352.8,469.7v1.7h-5.1v3.2h4v1.7h-4v3.3h5.1v1.7h-7.3v-11.6H352.8L352.8,469.7z"/>
		<path class="st2" d="M355.1,481.3v-8.2h1.2c0.3,0,0.4,0.1,0.5,0.4l0.1,0.6c0.2-0.2,0.3-0.3,0.5-0.5c0.2-0.1,0.4-0.3,0.6-0.4
			c0.2-0.1,0.4-0.2,0.7-0.2s0.5-0.1,0.8-0.1c0.4,0,0.8,0.1,1.2,0.2c0.3,0.2,0.6,0.4,0.9,0.6s0.4,0.6,0.5,1c0.1,0.4,0.2,0.8,0.2,1.3
			v5.2h-2V476c0-0.5-0.1-0.9-0.3-1.2c-0.2-0.3-0.6-0.4-1-0.4c-0.3,0-0.7,0.1-1,0.2c-0.3,0.2-0.6,0.4-0.8,0.6v5.9h-2.1L355.1,481.3
			L355.1,481.3z"/>
		<path class="st2" d="M371.2,481.3h-0.9c-0.2,0-0.3,0-0.4-0.1c-0.1-0.1-0.2-0.2-0.2-0.3l-0.2-0.6c-0.2,0.2-0.4,0.4-0.6,0.5
			c-0.2,0.1-0.4,0.3-0.6,0.4c-0.2,0.1-0.4,0.2-0.7,0.2s-0.5,0.1-0.8,0.1s-0.7,0-1-0.1c-0.3-0.1-0.5-0.2-0.8-0.4
			c-0.2-0.2-0.4-0.4-0.5-0.7s-0.2-0.6-0.2-1c0-0.3,0.1-0.6,0.2-0.9c0.2-0.3,0.4-0.6,0.8-0.8s0.9-0.4,1.5-0.6s1.4-0.2,2.3-0.2v-0.5
			c0-0.6-0.1-1-0.3-1.2c-0.2-0.3-0.6-0.4-1-0.4c-0.3,0-0.6,0-0.8,0.1c-0.2,0.1-0.4,0.2-0.6,0.3s-0.3,0.2-0.4,0.3s-0.3,0.1-0.4,0.1
			s-0.2,0-0.3-0.1c-0.1-0.1-0.2-0.2-0.2-0.3l-0.4-0.6c0.9-0.9,2.1-1.3,3.4-1.3c0.5,0,0.9,0.1,1.3,0.2c0.4,0.1,0.7,0.4,1,0.7
			s0.5,0.6,0.6,1c0.1,0.4,0.2,0.8,0.2,1.3V481.3z M367.4,480.1c0.2,0,0.4,0,0.6-0.1c0.2-0.1,0.3-0.1,0.5-0.2
			c0.2-0.1,0.3-0.2,0.4-0.3s0.3-0.2,0.4-0.4v-1.4c-0.6,0-1.1,0-1.4,0.1c-0.3,0.1-0.7,0.2-0.9,0.3c-0.2,0.1-0.4,0.2-0.5,0.4
			s-0.1,0.3-0.1,0.5c0,0.3,0.1,0.6,0.3,0.7C366.8,480,367.1,480.1,367.4,480.1z"/>
		<path class="st2" d="M373.8,481.3v-11.9h2v4.7c0.3-0.3,0.7-0.6,1.1-0.8s0.9-0.3,1.4-0.3c0.4,0,0.9,0.1,1.2,0.3
			c0.4,0.2,0.7,0.5,1,0.8c0.3,0.4,0.5,0.8,0.6,1.3s0.2,1.1,0.2,1.8c0,0.6-0.1,1.2-0.2,1.7s-0.4,1-0.7,1.4c-0.3,0.4-0.7,0.7-1.1,0.9
			c-0.4,0.2-0.9,0.3-1.5,0.3c-0.2,0-0.5,0-0.7-0.1c-0.2-0.1-0.4-0.1-0.6-0.2c-0.2-0.1-0.3-0.2-0.5-0.3s-0.3-0.3-0.4-0.4l-0.1,0.6
			c0,0.1-0.1,0.2-0.2,0.3s-0.2,0.1-0.3,0.1h-1.2L373.8,481.3L373.8,481.3z M377.6,474.5c-0.4,0-0.8,0.1-1.1,0.3
			c-0.3,0.2-0.6,0.4-0.8,0.7v3.7c0.2,0.3,0.5,0.5,0.7,0.6c0.2,0.1,0.6,0.2,0.9,0.2s0.6-0.1,0.8-0.2c0.2-0.1,0.4-0.3,0.6-0.5
			s0.3-0.5,0.4-0.9c0.1-0.3,0.1-0.8,0.1-1.2c0-0.5,0-0.9-0.1-1.2s-0.2-0.6-0.3-0.8c-0.1-0.2-0.3-0.4-0.5-0.5
			C378.1,474.6,377.9,474.5,377.6,474.5z"/>
		<path class="st2" d="M385.6,469.4v11.9h-2v-11.9H385.6z"/>
		<path class="st2" d="M391.8,473c0.5,0,1,0.1,1.4,0.2c0.4,0.1,0.8,0.4,1.1,0.7c0.3,0.3,0.6,0.7,0.7,1.2c0.2,0.5,0.3,1,0.3,1.6
			c0,0.1,0,0.3,0,0.4c0,0.1,0,0.2-0.1,0.2c0,0.1-0.1,0.1-0.1,0.1c-0.1,0-0.1,0-0.2,0h-5.1c0.1,0.8,0.3,1.5,0.7,1.9
			c0.4,0.4,0.9,0.6,1.6,0.6c0.3,0,0.6,0,0.8-0.1c0.2-0.1,0.4-0.2,0.6-0.2c0.2-0.1,0.3-0.2,0.5-0.2c0.1-0.1,0.3-0.1,0.4-0.1
			s0.1,0,0.2,0s0.1,0.1,0.2,0.1l0.6,0.7c-0.2,0.3-0.5,0.5-0.7,0.6c-0.3,0.2-0.6,0.3-0.9,0.4c-0.3,0.1-0.6,0.2-0.9,0.2
			s-0.6,0.1-0.9,0.1c-0.6,0-1.1-0.1-1.6-0.3s-0.9-0.5-1.3-0.8s-0.6-0.8-0.9-1.4c-0.3-0.6-0.3-1.2-0.3-1.9c0-0.6,0.1-1.1,0.3-1.6
			s0.4-0.9,0.8-1.3c0.3-0.4,0.8-0.7,1.2-0.9C390.6,473.1,391.2,473,391.8,473z M391.9,474.4c-0.6,0-1,0.2-1.4,0.5s-0.5,0.8-0.6,1.4
			h3.7c0-0.3,0-0.5-0.1-0.7s-0.2-0.4-0.3-0.6s-0.3-0.3-0.5-0.4C392.4,474.4,392.1,474.4,391.9,474.4z"/>
		<path class="st2" d="M397.6,481.3v-8.2h1.2c0.3,0,0.4,0.1,0.5,0.4l0.1,0.6c0.1-0.2,0.3-0.3,0.5-0.4c0.2-0.1,0.3-0.2,0.5-0.3
			s0.4-0.2,0.6-0.2s0.4-0.1,0.7-0.1c0.5,0,0.9,0.1,1.3,0.4s0.6,0.7,0.7,1.1c0.1-0.3,0.3-0.5,0.5-0.7s0.4-0.4,0.6-0.5
			c0.2-0.1,0.5-0.2,0.7-0.3s0.5-0.1,0.8-0.1c0.5,0,0.9,0.1,1.2,0.2c0.3,0.1,0.6,0.3,0.9,0.6c0.2,0.3,0.4,0.6,0.5,1
			c0.1,0.4,0.2,0.8,0.2,1.3v5.2h-2v-5.2c0-0.5-0.1-0.9-0.3-1.2c-0.2-0.3-0.6-0.4-1-0.4c-0.2,0-0.4,0-0.6,0.1
			c-0.2,0.1-0.3,0.2-0.5,0.3c-0.1,0.1-0.2,0.3-0.3,0.5s-0.1,0.4-0.1,0.7v5.2h-2v-5.2c0-0.5-0.1-0.9-0.3-1.2c-0.2-0.3-0.5-0.4-1-0.4
			c-0.3,0-0.5,0.1-0.8,0.2c-0.3,0.1-0.5,0.3-0.7,0.6v6H397.6z"/>
		<path class="st2" d="M415,473c0.5,0,1,0.1,1.4,0.2c0.4,0.1,0.8,0.4,1.1,0.7c0.3,0.3,0.6,0.7,0.7,1.2c0.2,0.5,0.3,1,0.3,1.6
			c0,0.1,0,0.3,0,0.4c0,0.1,0,0.2-0.1,0.2c0,0.1-0.1,0.1-0.1,0.1c-0.1,0-0.1,0-0.2,0H413c0.1,0.8,0.3,1.5,0.7,1.9
			c0.4,0.4,0.9,0.6,1.6,0.6c0.3,0,0.6,0,0.8-0.1c0.2-0.1,0.4-0.2,0.6-0.2c0.2-0.1,0.3-0.2,0.5-0.2c0.1-0.1,0.3-0.1,0.4-0.1
			s0.1,0,0.2,0s0.1,0.1,0.2,0.1l0.6,0.7c-0.2,0.3-0.5,0.5-0.7,0.6c-0.3,0.2-0.6,0.3-0.9,0.4c-0.3,0.1-0.6,0.2-0.9,0.2
			s-0.6,0.1-0.9,0.1c-0.6,0-1.1-0.1-1.6-0.3s-0.9-0.5-1.3-0.8s-0.6-0.8-0.9-1.4c-0.3-0.6-0.3-1.2-0.3-1.9c0-0.6,0.1-1.1,0.3-1.6
			s0.4-0.9,0.8-1.3c0.3-0.4,0.8-0.7,1.2-0.9C413.9,473.1,414.4,473,415,473z M415.1,474.4c-0.6,0-1,0.2-1.4,0.5s-0.5,0.8-0.6,1.4
			h3.7c0-0.3,0-0.5-0.1-0.7s-0.2-0.4-0.3-0.6s-0.3-0.3-0.5-0.4C415.6,474.4,415.4,474.4,415.1,474.4z"/>
		<path class="st2" d="M420.8,481.3v-8.2h1.2c0.3,0,0.4,0.1,0.5,0.4l0.1,0.6c0.2-0.2,0.3-0.3,0.5-0.5c0.2-0.1,0.4-0.3,0.6-0.4
			c0.2-0.1,0.4-0.2,0.7-0.2s0.5-0.1,0.8-0.1c0.4,0,0.8,0.1,1.2,0.2c0.3,0.2,0.6,0.4,0.9,0.6s0.4,0.6,0.5,1c0.1,0.4,0.2,0.8,0.2,1.3
			v5.2h-2V476c0-0.5-0.1-0.9-0.3-1.2c-0.2-0.3-0.6-0.4-1-0.4c-0.3,0-0.7,0.1-1,0.2c-0.3,0.2-0.6,0.4-0.8,0.6v5.9h-2.1L420.8,481.3
			L420.8,481.3z"/>
		<path class="st2" d="M433.2,481.4c-0.7,0-1.3-0.2-1.6-0.6c-0.4-0.4-0.6-1-0.6-1.7v-4.6h-0.8c-0.1,0-0.2,0-0.3-0.1
			c-0.1-0.1-0.1-0.2-0.1-0.3v-0.8l1.3-0.2l0.4-2.2c0-0.1,0.1-0.2,0.1-0.2c0.1-0.1,0.2-0.1,0.3-0.1h1v2.6h2.2v1.4h-2.2v4.4
			c0,0.3,0.1,0.5,0.2,0.6c0.1,0.1,0.3,0.2,0.5,0.2c0.1,0,0.2,0,0.3,0s0.2-0.1,0.2-0.1c0.1,0,0.1-0.1,0.2-0.1s0.1,0,0.1,0
			c0.1,0,0.1,0,0.1,0l0.1,0.1l0.6,1c-0.3,0.2-0.6,0.4-1,0.5C433.9,481.4,433.6,481.4,433.2,481.4z"/>
	</g>
</g>
</svg>
