<?xml version="1.0" encoding="utf-8"?>
<!-- Generator: Adobe Illustrator 19.1.0, SVG Export Plug-In . SVG Version: 6.00 Build 0)  -->
<svg version="1.1" id="Layer_1" xmlns="http://www.w3.org/2000/svg" xmlns:xlink="http://www.w3.org/1999/xlink" x="0px" y="0px"
	 viewBox="-17 310.6 576 173.4" style="enable-background:new -17 310.6 576 173.4;" xml:space="preserve">
<style type="text/css">
	.st0{fill:#0051C6;}
	.st1{fill:#4DDB5A;}
	.st2{fill:#383838;}
</style>
<g>
	<g>
		<path class="st0" d="M41.3,448.5v-93.1h13.2c2.3,0,3.9,0.4,4.8,1.3c0.9,0.8,1.5,2.3,1.8,4.4l1.4,11.2c3.3-5.7,7.2-10.3,11.7-13.6
			c4.5-3.3,9.5-5,15.1-5c4.6,0,8.4,1.1,11.4,3.2l-2.9,16.8c-0.2,1.1-0.6,1.9-1.2,2.3c-0.6,0.5-1.4,0.7-2.4,0.7
			c-0.9,0-2.1-0.2-3.7-0.6s-3.7-0.6-6.3-0.6c-4.7,0-8.6,1.3-12,3.9c-3.3,2.6-6.1,6.3-8.4,11.3v58H41.3V448.5z"/>
		<path class="st0" d="M151.5,354c5.9,0,11.3,0.9,16.2,2.8s9.2,4.6,12.7,8.2c3.6,3.6,6.3,8,8.3,13.2s3,11.2,3,17.9
			c0,1.7-0.1,3.1-0.2,4.2c-0.2,1.1-0.4,2-0.8,2.6s-0.9,1.1-1.6,1.4s-1.5,0.4-2.5,0.4h-57.5c0.7,9.6,3.2,16.6,7.7,21
			c4.5,4.5,10.4,6.7,17.8,6.7c3.6,0,6.8-0.4,9.4-1.3c2.6-0.8,4.9-1.8,6.9-2.8s3.7-2,5.2-2.8s2.9-1.3,4.3-1.3c0.9,0,1.7,0.2,2.4,0.5
			c0.7,0.4,1.2,0.9,1.7,1.5l6.5,8.2c-2.5,2.9-5.3,5.3-8.3,7.3c-3.1,2-6.3,3.5-9.7,4.7s-6.8,2-10.2,2.5c-3.5,0.5-6.8,0.7-10.1,0.7
			c-6.5,0-12.5-1.1-18.1-3.2s-10.4-5.3-14.5-9.5c-4.1-4.2-7.3-9.4-9.7-15.6s-3.5-13.4-3.5-21.5c0-6.3,1-12.3,3.1-17.9
			s5-10.5,8.8-14.6s8.5-7.4,14.1-9.8C138.3,355.2,144.6,354,151.5,354z M152,370c-6.5,0-11.6,1.8-15.3,5.5s-6,8.9-7.1,15.7h42.1
			c0-2.9-0.4-5.6-1.2-8.2s-2-4.8-3.6-6.8c-1.6-1.9-3.7-3.5-6.2-4.6C158.2,370.6,155.3,370,152,370z"/>
		<path class="st0" d="M280.6,448.5h-10.1c-2.1,0-3.8-0.3-5-1c-1.2-0.6-2.1-1.9-2.7-3.9l-2-6.6c-2.4,2.1-4.7,4-6.9,5.6
			c-2.3,1.6-4.6,2.9-7,4s-5,1.9-7.7,2.4s-5.7,0.8-9.1,0.8c-3.9,0-7.6-0.5-10.9-1.6s-6.2-2.7-8.6-4.8c-2.4-2.1-4.2-4.8-5.6-7.9
			c-1.3-3.2-2-6.8-2-11c0-3.5,0.9-7,2.8-10.4c1.8-3.4,4.9-6.5,9.2-9.3s10-5.1,17.1-6.9s16-2.7,26.6-2.7v-5.5
			c0-6.3-1.3-10.9-3.9-13.9s-6.5-4.5-11.5-4.5c-3.6,0-6.7,0.4-9.1,1.3c-2.4,0.8-4.5,1.8-6.3,2.9s-3.4,2-4.9,2.9
			c-1.5,0.8-3.2,1.3-5,1.3c-1.5,0-2.8-0.4-3.9-1.2c-1.1-0.8-2-1.8-2.6-2.9l-4.1-7.2c10.7-9.8,23.6-14.7,38.7-14.7
			c5.4,0,10.3,0.9,14.6,2.7c4.3,1.8,7.9,4.3,10.8,7.4c3,3.2,5.2,7,6.8,11.4c1.5,4.4,2.3,9.3,2.3,14.5L280.6,448.5L280.6,448.5z
			 M237.1,434.5c2.3,0,4.4-0.2,6.3-0.6c1.9-0.4,3.8-1,5.5-1.9c1.7-0.8,3.4-1.9,5-3.1s3.2-2.7,4.9-4.3V409c-6.5,0-12,0.4-16.4,1.2
			c-4.4,0.8-7.9,1.9-10.6,3.2c-2.7,1.3-4.6,2.8-5.7,4.5c-1.1,1.7-1.7,3.6-1.7,5.6c0,4,1.2,6.8,3.5,8.5
			C230.3,433.7,233.3,434.5,237.1,434.5z"/>
		<path class="st0" d="M365.7,375.1c-0.7,0.8-1.3,1.5-2,2c-0.6,0.5-1.6,0.7-2.8,0.7c-1.1,0-2.3-0.3-3.4-1s-2.4-1.5-3.9-2.4
			s-3.3-1.7-5.4-2.4c-2.1-0.7-4.7-1-7.8-1c-3.9,0-7.4,0.7-10.3,2.1c-3,1.4-5.4,3.5-7.4,6.1c-2,2.7-3.4,5.9-4.4,9.7
			c-1,3.8-1.5,8.1-1.5,12.8c0,5,0.5,9.4,1.6,13.2c1.1,3.9,2.6,7.1,4.6,9.8c2,2.6,4.4,4.6,7.3,6c2.8,1.4,6,2,9.6,2s6.5-0.4,8.7-1.3
			s4.1-1.8,5.6-2.9s2.8-2,3.9-2.9s2.4-1.3,3.8-1.3c1.8,0,3.2,0.7,4.1,2.1l6.4,8.2c-2.5,2.9-5.2,5.3-8.1,7.3s-5.9,3.5-9,4.7
			s-6.3,2-9.7,2.5c-3.3,0.5-6.6,0.7-9.9,0.7c-5.7,0-11.2-1.1-16.2-3.2c-5.1-2.1-9.5-5.3-13.3-9.4s-6.8-9.1-9-15.1
			s-3.3-12.7-3.3-20.4c0-6.8,1-13.2,2.9-19c2-5.8,4.9-10.9,8.7-15.1c3.8-4.3,8.5-7.6,14.2-10c5.6-2.4,12.1-3.6,19.4-3.6
			c7,0,13,1.1,18.3,3.4c5.2,2.2,9.9,5.4,14.1,9.6L365.7,375.1z"/>
		<path class="st0" d="M384.5,448.5V313.7h22.4v51.8c3.6-3.4,7.6-6.2,12-8.3s9.5-3.2,15.3-3.2c5.1,0,9.6,0.9,13.5,2.6
			s7.2,4.1,9.8,7.3c2.6,3.1,4.6,6.8,6,11.2c1.4,4.3,2,9.1,2,14.3v59.2h-22.4v-59.2c0-5.7-1.3-10.1-3.9-13.2s-6.6-4.7-11.8-4.7
			c-3.9,0-7.5,0.9-10.9,2.6c-3.4,1.8-6.6,4.1-9.6,7.2v67.3h-22.4L384.5,448.5L384.5,448.5z"/>
	</g>
	<g>
		<g>
			<path class="st0" d="M482.7,354.2v2H478v13.1h-2.4v-13.1h-4.7v-2H482.7z"/>
			<path class="st0" d="M492.6,364c0.1,0.2,0.2,0.4,0.3,0.7c0.1-0.2,0.2-0.4,0.3-0.7c0.1-0.3,0.2-0.4,0.3-0.6l4.8-8.8
				c0.1-0.2,0.2-0.3,0.3-0.4c0.1-0.1,0.3-0.1,0.5-0.1h1.8v15.1h-2.2v-10.4c0-0.2,0-0.4,0-0.5c0-0.2,0-0.4,0-0.6l-4.9,9
				c-0.2,0.4-0.5,0.6-0.9,0.6h-0.3c-0.4,0-0.7-0.2-0.9-0.6l-4.9-9c0,0.2,0,0.4,0.1,0.6c0,0.2,0,0.4,0,0.6v10.4h-2.2v-15.1h1.8
				c0.2,0,0.4,0,0.5,0.1s0.2,0.2,0.3,0.4l4.9,8.8C492.4,363.6,492.5,363.8,492.6,364z"/>
		</g>
	</g>
	<g>
		<path class="st1" d="M54.7,317.6c-0.1,0.2-0.2,0.3-0.4,0.4c-0.1,0.1-0.3,0.1-0.5,0.1s-0.4-0.1-0.7-0.2c-0.2-0.2-0.5-0.4-0.9-0.6
			s-0.8-0.4-1.3-0.6s-1.1-0.3-1.7-0.3s-1.2,0.1-1.6,0.2c-0.4,0.1-0.9,0.4-1.2,0.7s-0.6,0.6-0.7,1c-0.2,0.4-0.2,0.8-0.2,1.2
			c0,0.6,0.2,1,0.5,1.4s0.7,0.7,1.2,1s1.1,0.5,1.7,0.7s1.3,0.4,1.9,0.6c0.7,0.2,1.3,0.5,1.9,0.8c0.6,0.3,1.2,0.7,1.7,1.1
			s0.9,1,1.2,1.6s0.5,1.4,0.5,2.4s-0.2,1.9-0.5,2.8s-0.8,1.6-1.5,2.3c-0.7,0.7-1.5,1.2-2.4,1.5c-1,0.4-2,0.6-3.3,0.6
			c-0.7,0-1.4-0.1-2.1-0.2c-0.7-0.1-1.3-0.3-2-0.6s-1.2-0.6-1.7-0.9s-1-0.8-1.5-1.2l1.1-1.7c0.1-0.1,0.2-0.3,0.4-0.3
			c0.1-0.1,0.3-0.1,0.5-0.1s0.5,0.1,0.8,0.3s0.6,0.5,1.1,0.7c0.4,0.3,0.9,0.5,1.5,0.7s1.3,0.3,2.1,0.3c1.3,0,2.3-0.3,3.1-1
			c0.7-0.6,1.1-1.5,1.1-2.7c0-0.6-0.2-1.2-0.5-1.6s-0.7-0.7-1.2-1s-1.1-0.5-1.7-0.7c-0.6-0.2-1.3-0.4-1.9-0.6
			c-0.7-0.2-1.3-0.5-1.9-0.8c-0.6-0.3-1.2-0.7-1.7-1.1c-0.5-0.5-0.9-1-1.2-1.7s-0.5-1.5-0.5-2.6c0-0.8,0.2-1.6,0.5-2.4
			s0.8-1.4,1.4-2s1.4-1.1,2.3-1.4c0.9-0.4,1.9-0.5,3.1-0.5c1.3,0,2.5,0.2,3.6,0.6s2,1,2.8,1.7L54.7,317.6z"/>
		<path class="st1" d="M65.8,336.2h-3.7v-22.5h3.7V336.2z"/>
		<path class="st1" d="M78.4,324.7l-7.3-10.9h3.6c0.3,0,0.5,0,0.6,0.1s0.2,0.2,0.3,0.4l5.5,8.6c0-0.1,0.1-0.3,0.1-0.4
			c0.1-0.1,0.1-0.3,0.2-0.4l5.1-7.8c0.1-0.2,0.2-0.3,0.3-0.4c0.1-0.1,0.3-0.1,0.5-0.1h3.5l-7.3,10.8l7.6,11.7h-3.6
			c-0.2,0-0.5-0.1-0.6-0.2c-0.2-0.1-0.3-0.3-0.4-0.5l-5.6-9c0,0.1-0.1,0.2-0.1,0.4c0,0.2-0.1,0.2-0.2,0.3l-5.4,8.3
			c-0.1,0.2-0.2,0.3-0.4,0.5c-0.1,0.1-0.3,0.2-0.6,0.2h-3.4L78.4,324.7z"/>
		<path class="st1" d="M105.8,336.5c-1.8,0-3.5-0.3-4.9-0.9s-2.7-1.4-3.8-2.4c-1-1-1.8-2.2-2.4-3.6s-0.8-3-0.8-4.6
			c0-1.7,0.3-3.2,0.8-4.7s1.3-2.6,2.3-3.6s2.2-1.8,3.7-2.4c1.4-0.6,3-0.8,4.8-0.8c0.9,0,1.7,0.1,2.5,0.2s1.5,0.3,2.2,0.6
			c0.7,0.3,1.3,0.6,1.8,0.9c0.6,0.4,1.1,0.8,1.5,1.2l-1,1.7c-0.2,0.3-0.4,0.4-0.6,0.5c-0.3,0.1-0.5,0-0.8-0.2s-0.6-0.4-1-0.6
			s-0.7-0.4-1.2-0.6c-0.4-0.2-0.9-0.3-1.5-0.4s-1.2-0.2-2-0.2c-1.2,0-2.3,0.2-3.2,0.6c-1,0.4-1.8,0.9-2.4,1.7
			c-0.7,0.7-1.2,1.6-1.6,2.6s-0.5,2.2-0.5,3.4c0,1.3,0.2,2.5,0.6,3.6s0.9,2,1.6,2.7s1.6,1.3,2.6,1.7s2.1,0.6,3.4,0.6
			c0.9,0,1.8-0.1,2.5-0.3s1.4-0.5,2.1-0.8v-4.5h-3.1c-0.2,0-0.4-0.1-0.6-0.2c-0.1-0.1-0.2-0.3-0.2-0.5v-2.1h7.2v8.9
			C111.4,335.7,108.8,336.5,105.8,336.5z"/>
		<path class="st1" d="M123.8,336.2h-3.7v-22.5h3.7V336.2z"/>
		<path class="st1" d="M135,333.2h9.3v3.1h-13v-22.5h3.7V333.2z"/>
		<path class="st1" d="M153.3,333.2h9.3v3.1h-13v-22.5h3.7V333.2z"/>
	</g>
	<g>
		<rect x="400.1" y="475.1" class="st2" width="65" height="1"/>
	</g>
	<g>
		<rect x="41.1" y="475.1" class="st2" width="65" height="1"/>
	</g>
	<g>
		<path class="st2" d="M128,468.6v1.9h-3.7V481H122v-10.5h-3.7v-1.9H128z"/>
		<path class="st2" d="M130,480.9v-12.7h2.1v4.9c0.3-0.3,0.7-0.6,1.1-0.8c0.4-0.2,0.9-0.3,1.4-0.3s0.9,0.1,1.3,0.2
			c0.4,0.2,0.7,0.4,0.9,0.7c0.2,0.3,0.4,0.6,0.6,1.1c0.1,0.4,0.2,0.9,0.2,1.3v5.6h-2.1v-5.6c0-0.5-0.1-1-0.4-1.2
			c-0.2-0.3-0.6-0.4-1.1-0.4c-0.4,0-0.7,0.1-1,0.2c-0.3,0.2-0.6,0.4-0.9,0.7v6.3L130,480.9L130,480.9z"/>
		<path class="st2" d="M144,472c0.6,0,1.1,0.1,1.5,0.3c0.5,0.2,0.9,0.4,1.2,0.8s0.6,0.8,0.8,1.2c0.2,0.5,0.3,1.1,0.3,1.7
			c0,0.2,0,0.3,0,0.4s0,0.2-0.1,0.2c0,0.1-0.1,0.1-0.2,0.1s-0.1,0-0.2,0h-5.4c0.1,0.9,0.3,1.6,0.7,2s1,0.6,1.7,0.6
			c0.3,0,0.6,0,0.9-0.1c0.2-0.1,0.5-0.2,0.6-0.3c0.2-0.1,0.3-0.2,0.5-0.3c0.1-0.1,0.3-0.1,0.4-0.1s0.2,0,0.2,0.1s0.1,0.1,0.2,0.1
			l0.6,0.8c-0.2,0.3-0.5,0.5-0.8,0.7s-0.6,0.3-0.9,0.4s-0.6,0.2-1,0.2c-0.3,0-0.6,0.1-1,0.1c-0.6,0-1.2-0.1-1.7-0.3
			c-0.5-0.2-1-0.5-1.4-0.9s-0.7-0.9-0.9-1.5s-0.3-1.3-0.3-2c0-0.6,0.1-1.2,0.3-1.7s0.5-1,0.8-1.4c0.4-0.4,0.8-0.7,1.3-0.9
			C142.7,472.1,143.3,472,144,472z M144,473.5c-0.6,0-1.1,0.2-1.4,0.5s-0.6,0.8-0.7,1.5h4c0-0.3,0-0.5-0.1-0.8
			c-0.1-0.2-0.2-0.5-0.3-0.6c-0.2-0.2-0.3-0.3-0.6-0.4S144.3,473.5,144,473.5z"/>
		<path class="st2" d="M160.6,476.4c0.1,0.2,0.2,0.4,0.2,0.6c0.1-0.2,0.2-0.4,0.2-0.6c0.1-0.2,0.2-0.4,0.3-0.6l3.7-6.8
			c0-0.1,0.1-0.2,0.1-0.2c0-0.1,0.1-0.1,0.2-0.1s0.1,0,0.2,0s0.2,0,0.3,0h1.7v12.4h-2v-8c0-0.1,0-0.3,0-0.5s0-0.4,0-0.5l-3.7,7
			c-0.1,0.2-0.2,0.3-0.3,0.4s-0.3,0.1-0.5,0.1h-0.3c-0.2,0-0.3,0-0.5-0.1c-0.1-0.1-0.2-0.2-0.3-0.4l-3.8-7c0,0.2,0,0.4,0,0.6
			s0,0.3,0,0.5v8h-2v-12.4h1.7c0.1,0,0.2,0,0.3,0s0.1,0,0.2,0s0.1,0.1,0.2,0.1c0.1,0.1,0.1,0.1,0.1,0.2l3.7,6.9
			C160.5,476,160.6,476.2,160.6,476.4z"/>
		<path class="st2" d="M174.3,472c0.7,0,1.2,0.1,1.8,0.3c0.5,0.2,1,0.5,1.4,0.9s0.7,0.9,0.9,1.4s0.3,1.2,0.3,1.9
			c0,0.7-0.1,1.3-0.3,1.9s-0.5,1-0.9,1.4s-0.8,0.7-1.4,0.9c-0.5,0.2-1.1,0.3-1.8,0.3s-1.3-0.1-1.8-0.3c-0.5-0.2-1-0.5-1.4-0.9
			s-0.7-0.9-0.9-1.4s-0.3-1.2-0.3-1.9c0-0.7,0.1-1.3,0.3-1.9s0.5-1,0.9-1.4s0.8-0.7,1.4-0.9C173.1,472.1,173.7,472,174.3,472z
			 M174.3,479.4c0.7,0,1.3-0.2,1.6-0.7s0.5-1.2,0.5-2.2c0-0.9-0.2-1.7-0.5-2.2c-0.4-0.5-0.9-0.7-1.6-0.7s-1.3,0.2-1.6,0.7
			c-0.4,0.5-0.5,1.2-0.5,2.2s0.2,1.7,0.5,2.1C173,479.2,173.6,479.4,174.3,479.4z"/>
		<path class="st2" d="M180.9,480.9v-12.7h2.1v5c0.3-0.4,0.7-0.7,1.2-0.9c0.4-0.2,1-0.3,1.5-0.3s0.9,0.1,1.3,0.3
			c0.4,0.2,0.7,0.5,1,0.9s0.5,0.8,0.7,1.4s0.2,1.2,0.2,1.9c0,0.7-0.1,1.3-0.3,1.8c-0.2,0.6-0.4,1-0.8,1.5c-0.3,0.4-0.7,0.7-1.2,1
			c-0.5,0.2-1,0.3-1.6,0.3c-0.3,0-0.5,0-0.7-0.1s-0.4-0.1-0.6-0.2s-0.4-0.2-0.5-0.4c-0.2-0.1-0.3-0.3-0.4-0.5l-0.1,0.6
			c0,0.1-0.1,0.3-0.2,0.3c-0.1,0.1-0.2,0.1-0.3,0.1L180.9,480.9L180.9,480.9z M185,473.7c-0.4,0-0.8,0.1-1.1,0.3
			c-0.3,0.2-0.6,0.4-0.9,0.8v3.9c0.2,0.3,0.5,0.5,0.8,0.6s0.6,0.2,0.9,0.2s0.6-0.1,0.9-0.2s0.5-0.3,0.7-0.5s0.3-0.6,0.4-0.9
			c0.1-0.4,0.1-0.8,0.1-1.3s0-0.9-0.1-1.3s-0.2-0.6-0.4-0.9c-0.2-0.2-0.3-0.4-0.6-0.5C185.6,473.7,185.3,473.7,185,473.7z"/>
		<path class="st2" d="M193.9,469.6c0,0.2,0,0.4-0.1,0.5c-0.1,0.2-0.2,0.3-0.3,0.4s-0.3,0.2-0.4,0.3s-0.3,0.1-0.5,0.1
			s-0.4,0-0.5-0.1s-0.3-0.2-0.4-0.3c-0.1-0.1-0.2-0.3-0.3-0.4c-0.1-0.2-0.1-0.3-0.1-0.5s0-0.4,0.1-0.5s0.2-0.3,0.3-0.4
			s0.3-0.2,0.4-0.3s0.3-0.1,0.5-0.1s0.4,0,0.5,0.1s0.3,0.2,0.4,0.3c0.1,0.1,0.2,0.3,0.3,0.4S193.9,469.4,193.9,469.6z M193.5,472.1
			v8.8h-2.1v-8.8H193.5z"/>
		<path class="st2" d="M198.8,468.2v12.7h-2.1v-12.7H198.8z"/>
		<path class="st2" d="M205.4,472c0.6,0,1.1,0.1,1.5,0.3c0.5,0.2,0.9,0.4,1.2,0.8s0.6,0.8,0.8,1.2c0.2,0.5,0.3,1.1,0.3,1.7
			c0,0.2,0,0.3,0,0.4s0,0.2-0.1,0.2c0,0.1-0.1,0.1-0.2,0.1s-0.1,0-0.2,0h-5.4c0.1,0.9,0.3,1.6,0.7,2s1,0.6,1.7,0.6
			c0.3,0,0.6,0,0.9-0.1c0.2-0.1,0.5-0.2,0.6-0.3c0.2-0.1,0.3-0.2,0.5-0.3c0.1-0.1,0.3-0.1,0.4-0.1s0.2,0,0.2,0.1s0.1,0.1,0.2,0.1
			l0.6,0.8c-0.2,0.3-0.5,0.5-0.8,0.7s-0.6,0.3-0.9,0.4s-0.6,0.2-1,0.2c-0.3,0-0.6,0.1-1,0.1c-0.6,0-1.2-0.1-1.7-0.3
			c-0.5-0.2-1-0.5-1.4-0.9s-0.7-0.9-0.9-1.5s-0.3-1.3-0.3-2c0-0.6,0.1-1.2,0.3-1.7s0.5-1,0.8-1.4c0.4-0.4,0.8-0.7,1.3-0.9
			C204.2,472.1,204.8,472,205.4,472z M205.5,473.5c-0.6,0-1.1,0.2-1.4,0.5s-0.6,0.8-0.7,1.5h4c0-0.3,0-0.5-0.1-0.8
			c-0.1-0.2-0.2-0.5-0.3-0.6c-0.2-0.2-0.3-0.3-0.6-0.4S205.8,473.5,205.5,473.5z"/>
		<path class="st2" d="M222.3,470.8c-0.1,0.1-0.1,0.2-0.2,0.3c-0.1,0.1-0.2,0.1-0.3,0.1s-0.2,0-0.4-0.1c-0.1-0.1-0.3-0.2-0.5-0.3
			c-0.2-0.1-0.4-0.2-0.7-0.3c-0.3-0.1-0.6-0.1-0.9-0.1s-0.6,0-0.8,0.1s-0.4,0.2-0.6,0.3c-0.2,0.1-0.3,0.3-0.4,0.5s-0.1,0.4-0.1,0.6
			c0,0.3,0.1,0.5,0.2,0.7c0.2,0.2,0.4,0.4,0.6,0.5c0.3,0.1,0.6,0.3,0.9,0.4s0.7,0.2,1,0.3c0.4,0.1,0.7,0.3,1,0.4s0.6,0.4,0.9,0.6
			s0.5,0.6,0.6,0.9c0.2,0.4,0.2,0.8,0.2,1.3c0,0.6-0.1,1.1-0.3,1.6s-0.5,0.9-0.8,1.3c-0.4,0.4-0.8,0.6-1.3,0.9
			c-0.5,0.2-1.1,0.3-1.8,0.3c-0.4,0-0.8,0-1.2-0.1s-0.7-0.2-1.1-0.3c-0.3-0.1-0.7-0.3-1-0.5s-0.6-0.4-0.8-0.7l0.7-1.1
			c0.1-0.1,0.1-0.1,0.2-0.2s0.2-0.1,0.3-0.1s0.3,0.1,0.5,0.2s0.4,0.2,0.6,0.4c0.2,0.1,0.5,0.3,0.8,0.4s0.7,0.2,1.1,0.2
			c0.7,0,1.2-0.2,1.5-0.5c0.4-0.3,0.5-0.8,0.5-1.3c0-0.3-0.1-0.6-0.2-0.8s-0.4-0.4-0.6-0.5c-0.3-0.1-0.6-0.3-0.9-0.4s-0.7-0.2-1-0.3
			c-0.4-0.1-0.7-0.2-1-0.4c-0.3-0.2-0.6-0.4-0.9-0.6c-0.3-0.3-0.5-0.6-0.6-1s-0.2-0.9-0.2-1.4c0-0.4,0.1-0.9,0.3-1.3
			s0.4-0.8,0.8-1.1c0.3-0.3,0.8-0.6,1.3-0.8c0.5-0.2,1.1-0.3,1.7-0.3c0.7,0,1.4,0.1,2,0.3c0.6,0.2,1.1,0.5,1.6,1L222.3,470.8z"/>
		<path class="st2" d="M236.4,474.7c0,0.9-0.2,1.7-0.5,2.5s-0.7,1.4-1.3,2s-1.2,1-2,1.3S231,481,230,481h-4.7v-12.4h4.7
			c0.9,0,1.8,0.2,2.6,0.5s1.4,0.7,2,1.3s1,1.2,1.3,2C236.3,473,236.4,473.8,236.4,474.7z M234.1,474.7c0-0.7-0.1-1.3-0.3-1.8
			s-0.4-1-0.8-1.4s-0.7-0.7-1.2-0.9c-0.5-0.2-1-0.3-1.6-0.3h-2.4v8.7h2.4c0.6,0,1.1-0.1,1.6-0.3s0.9-0.5,1.2-0.9s0.6-0.8,0.8-1.4
			C234,476,234.1,475.4,234.1,474.7z"/>
		<path class="st2" d="M241.2,473.7h0.5c0.2,0,0.4,0,0.5-0.1s0.3-0.2,0.4-0.3l3.4-4.3c0.1-0.2,0.3-0.3,0.4-0.4
			c0.2-0.1,0.4-0.1,0.6-0.1h2l-4.2,5.1c-0.1,0.2-0.3,0.3-0.4,0.4s-0.2,0.2-0.4,0.3c0.2,0.1,0.4,0.2,0.5,0.3c0.2,0.1,0.3,0.3,0.4,0.5
			l4.3,5.8h-2c-0.3,0-0.5,0-0.6-0.1s-0.2-0.2-0.3-0.3l-3.5-4.6c-0.1-0.1-0.2-0.3-0.4-0.3s-0.3-0.1-0.6-0.1h-0.7v5.4h-2.3v-12.4h2.3
			v5.2H241.2z"/>
		<path class="st2" d="M255.6,480.9v-7.2l-0.8-0.1c-0.2,0-0.3-0.1-0.4-0.2s-0.1-0.2-0.1-0.4v-0.9h1.3v-0.6c0-0.5,0.1-1,0.2-1.4
			c0.2-0.4,0.4-0.7,0.6-1c0.3-0.3,0.6-0.5,1-0.6s0.9-0.2,1.4-0.2c0.4,0,0.8,0.1,1.1,0.2v1.1c0,0.2-0.1,0.3-0.2,0.3s-0.3,0.1-0.5,0.1
			c-0.3,0-0.5,0-0.7,0.1s-0.4,0.1-0.5,0.3c-0.1,0.1-0.2,0.3-0.3,0.5c-0.1,0.2-0.1,0.5-0.1,0.8v0.6h2.3v1.5h-2.2v7.2L255.6,480.9
			L255.6,480.9z"/>
		<path class="st2" d="M265.6,472c0.7,0,1.2,0.1,1.8,0.3c0.5,0.2,1,0.5,1.4,0.9s0.7,0.9,0.9,1.4s0.3,1.2,0.3,1.9
			c0,0.7-0.1,1.3-0.3,1.9s-0.5,1-0.9,1.4s-0.8,0.7-1.4,0.9c-0.5,0.2-1.1,0.3-1.8,0.3s-1.3-0.1-1.8-0.3c-0.5-0.2-1-0.5-1.4-0.9
			s-0.7-0.9-0.9-1.4s-0.3-1.2-0.3-1.9c0-0.7,0.1-1.3,0.3-1.9s0.5-1,0.9-1.4s0.8-0.7,1.4-0.9C264.4,472.1,264.9,472,265.6,472z
			 M265.6,479.4c0.7,0,1.3-0.2,1.6-0.7s0.5-1.2,0.5-2.2c0-0.9-0.2-1.7-0.5-2.2c-0.4-0.5-0.9-0.7-1.6-0.7s-1.3,0.2-1.6,0.7
			c-0.4,0.5-0.5,1.2-0.5,2.2s0.2,1.7,0.5,2.1C264.3,479.2,264.9,479.4,265.6,479.4z"/>
		<path class="st2" d="M272.2,480.9v-8.8h1.2c0.2,0,0.4,0,0.5,0.1s0.1,0.2,0.2,0.4l0.1,1.1c0.3-0.5,0.7-1,1.1-1.3s0.9-0.5,1.4-0.5
			c0.4,0,0.8,0.1,1.1,0.3l-0.3,1.6c0,0.1-0.1,0.2-0.1,0.2c-0.1,0-0.1,0.1-0.2,0.1s-0.2,0-0.4-0.1s-0.3-0.1-0.6-0.1
			c-0.4,0-0.8,0.1-1.1,0.4s-0.6,0.6-0.8,1.1v5.5L272.2,480.9L272.2,480.9z"/>
		<path class="st2" d="M290.5,470.8c-0.1,0.1-0.1,0.2-0.2,0.3c-0.1,0.1-0.2,0.1-0.3,0.1c-0.1,0-0.2,0-0.4-0.1
			c-0.1-0.1-0.3-0.2-0.5-0.3c-0.2-0.1-0.4-0.2-0.7-0.3c-0.3-0.1-0.6-0.1-0.9-0.1s-0.6,0-0.8,0.1s-0.4,0.2-0.6,0.3
			c-0.2,0.1-0.3,0.3-0.4,0.5s-0.1,0.4-0.1,0.6c0,0.3,0.1,0.5,0.2,0.7c0.2,0.2,0.4,0.4,0.6,0.5c0.3,0.1,0.6,0.3,0.9,0.4
			s0.7,0.2,1,0.3c0.4,0.1,0.7,0.3,1,0.4s0.6,0.4,0.9,0.6s0.5,0.6,0.6,0.9c0.2,0.4,0.2,0.8,0.2,1.3c0,0.6-0.1,1.1-0.3,1.6
			c-0.2,0.5-0.5,0.9-0.8,1.3c-0.4,0.4-0.8,0.6-1.3,0.9c-0.5,0.2-1.1,0.3-1.8,0.3c-0.4,0-0.8,0-1.2-0.1s-0.7-0.2-1.1-0.3
			c-0.3-0.1-0.7-0.3-1-0.5s-0.6-0.4-0.8-0.7l0.7-1.1c0.1-0.1,0.1-0.1,0.2-0.2s0.2-0.1,0.3-0.1c0.1,0,0.3,0.1,0.5,0.2
			s0.4,0.2,0.6,0.4c0.2,0.1,0.5,0.3,0.8,0.4s0.7,0.2,1.1,0.2c0.7,0,1.2-0.2,1.5-0.5c0.4-0.3,0.5-0.8,0.5-1.3c0-0.3-0.1-0.6-0.2-0.8
			s-0.4-0.4-0.6-0.5c-0.3-0.1-0.6-0.3-0.9-0.4s-0.7-0.2-1-0.3c-0.4-0.1-0.7-0.2-1-0.4c-0.3-0.2-0.6-0.4-0.9-0.6
			c-0.3-0.3-0.5-0.6-0.6-1s-0.2-0.9-0.2-1.4c0-0.4,0.1-0.9,0.3-1.3c0.2-0.4,0.4-0.8,0.8-1.1c0.3-0.3,0.8-0.6,1.3-0.8
			c0.5-0.2,1.1-0.3,1.7-0.3c0.7,0,1.4,0.1,2,0.3c0.6,0.2,1.1,0.5,1.6,1L290.5,470.8z"/>
		<path class="st2" d="M296.1,469.6c0,0.2,0,0.4-0.1,0.5c-0.1,0.2-0.2,0.3-0.3,0.4c-0.1,0.1-0.3,0.2-0.4,0.3s-0.3,0.1-0.5,0.1
			s-0.4,0-0.5-0.1s-0.3-0.2-0.4-0.3c-0.1-0.1-0.2-0.3-0.3-0.4c-0.1-0.2-0.1-0.3-0.1-0.5s0-0.4,0.1-0.5s0.2-0.3,0.3-0.4
			c0.1-0.1,0.3-0.2,0.4-0.3s0.3-0.1,0.5-0.1s0.4,0,0.5,0.1s0.3,0.2,0.4,0.3c0.1,0.1,0.2,0.3,0.3,0.4S296.1,469.4,296.1,469.6z
			 M295.8,472.1v8.8h-2.1v-8.8H295.8z"/>
		<path class="st2" d="M300.9,476.4l-2.9-4.2h2c0.2,0,0.3,0,0.3,0.1c0.1,0,0.1,0.1,0.2,0.2l1.8,2.9c0-0.1,0.1-0.2,0.1-0.3
			s0.1-0.2,0.2-0.3l1.5-2.3c0.1-0.1,0.1-0.2,0.2-0.2c0.1-0.1,0.2-0.1,0.3-0.1h1.9l-2.9,4.2l3,4.6h-2c-0.2,0-0.3,0-0.4-0.1
			s-0.2-0.2-0.2-0.3l-1.9-3.1c-0.1,0.2-0.1,0.4-0.2,0.5l-1.6,2.5c-0.1,0.1-0.1,0.2-0.2,0.3c-0.1,0.1-0.2,0.1-0.3,0.1h-1.9
			L300.9,476.4z"/>
		<path class="st2" d="M311.7,472c0.4,0,0.7,0,1.1,0.1c0.3,0.1,0.6,0.2,0.9,0.3h2.5v0.8c0,0.1,0,0.2-0.1,0.3s-0.2,0.1-0.4,0.2
			l-0.8,0.1c0.1,0.1,0.1,0.3,0.1,0.5s0,0.3,0,0.5c0,0.4-0.1,0.8-0.3,1.2s-0.4,0.6-0.7,0.9c-0.3,0.2-0.7,0.4-1.1,0.6
			c-0.4,0.1-0.9,0.2-1.4,0.2c-0.3,0-0.7,0-1-0.1c-0.3,0.2-0.4,0.4-0.4,0.6s0.1,0.3,0.2,0.4c0.2,0.1,0.4,0.1,0.6,0.2
			c0.3,0,0.6,0.1,0.9,0.1s0.7,0,1,0c0.4,0,0.7,0.1,1,0.1c0.3,0.1,0.6,0.2,0.9,0.3c0.3,0.2,0.5,0.4,0.6,0.6c0.2,0.3,0.2,0.6,0.2,1
			s-0.1,0.8-0.3,1.1c-0.2,0.4-0.5,0.7-0.8,1c-0.4,0.3-0.8,0.5-1.3,0.7s-1.1,0.3-1.8,0.3c-0.7,0-1.2-0.1-1.7-0.2s-0.9-0.3-1.2-0.5
			c-0.3-0.2-0.6-0.5-0.7-0.7s-0.2-0.6-0.2-0.9c0-0.4,0.1-0.8,0.4-1c0.3-0.3,0.6-0.5,1-0.7c-0.2-0.1-0.4-0.3-0.5-0.5
			s-0.2-0.5-0.2-0.8c0-0.1,0-0.3,0.1-0.4c0-0.1,0.1-0.3,0.2-0.4s0.2-0.3,0.4-0.4c0.1-0.1,0.3-0.2,0.5-0.3c-0.4-0.2-0.8-0.6-1-1
			c-0.3-0.4-0.4-0.9-0.4-1.4c0-0.4,0.1-0.8,0.3-1.2s0.4-0.6,0.7-0.9s0.7-0.4,1.1-0.6S311.2,472,311.7,472z M314,481.3
			c0-0.2-0.1-0.3-0.2-0.4s-0.2-0.2-0.4-0.3c-0.2-0.1-0.4-0.1-0.6-0.1s-0.5,0-0.8,0s-0.5,0-0.8,0s-0.6,0-0.8-0.1
			c-0.2,0.1-0.4,0.3-0.6,0.5s-0.2,0.4-0.2,0.6s0,0.3,0.1,0.4s0.2,0.2,0.4,0.3c0.2,0.1,0.4,0.2,0.7,0.2c0.3,0.1,0.6,0.1,1,0.1
			s0.7,0,1-0.1s0.5-0.1,0.7-0.3s0.3-0.2,0.4-0.4C314,481.6,314,481.5,314,481.3z M311.7,476.3c0.3,0,0.5,0,0.7-0.1s0.4-0.2,0.5-0.3
			s0.2-0.3,0.3-0.5c0.1-0.2,0.1-0.4,0.1-0.6c0-0.4-0.1-0.8-0.4-1c-0.3-0.3-0.6-0.4-1.2-0.4s-0.9,0.1-1.2,0.4c-0.3,0.3-0.4,0.6-0.4,1
			c0,0.2,0,0.4,0.1,0.6s0.2,0.3,0.3,0.5c0.1,0.1,0.3,0.2,0.5,0.3C311.2,476.3,311.5,476.3,311.7,476.3z"/>
		<path class="st2" d="M320.7,469.6c0,0.2,0,0.4-0.1,0.5c-0.1,0.2-0.2,0.3-0.3,0.4c-0.1,0.1-0.3,0.2-0.4,0.3s-0.3,0.1-0.5,0.1
			s-0.4,0-0.5-0.1s-0.3-0.2-0.4-0.3c-0.1-0.1-0.2-0.3-0.3-0.4c-0.1-0.2-0.1-0.3-0.1-0.5s0-0.4,0.1-0.5s0.2-0.3,0.3-0.4
			c0.1-0.1,0.3-0.2,0.4-0.3s0.3-0.1,0.5-0.1s0.4,0,0.5,0.1s0.3,0.2,0.4,0.3c0.1,0.1,0.2,0.3,0.3,0.4S320.7,469.4,320.7,469.6z
			 M320.4,472.1v8.8h-2.1v-8.8H320.4z"/>
		<path class="st2" d="M325.7,468.2v12.7h-2.1v-12.7H325.7z"/>
		<path class="st2" d="M330.9,468.2v12.7h-2.1v-12.7H330.9z"/>
		<path class="st2" d="M344.6,470.8c-0.1,0.1-0.1,0.2-0.2,0.3c-0.1,0.1-0.2,0.1-0.3,0.1c-0.1,0-0.2,0-0.4-0.1
			c-0.1-0.1-0.3-0.2-0.5-0.3c-0.2-0.1-0.4-0.2-0.7-0.3c-0.3-0.1-0.6-0.1-0.9-0.1s-0.6,0-0.8,0.1s-0.4,0.2-0.6,0.3
			c-0.2,0.1-0.3,0.3-0.4,0.5s-0.1,0.4-0.1,0.6c0,0.3,0.1,0.5,0.2,0.7c0.2,0.2,0.4,0.4,0.6,0.5c0.3,0.1,0.6,0.3,0.9,0.4
			s0.7,0.2,1,0.3c0.4,0.1,0.7,0.3,1,0.4s0.6,0.4,0.9,0.6s0.5,0.6,0.6,0.9c0.2,0.4,0.2,0.8,0.2,1.3c0,0.6-0.1,1.1-0.3,1.6
			c-0.2,0.5-0.5,0.9-0.8,1.3c-0.4,0.4-0.8,0.6-1.3,0.9c-0.5,0.2-1.1,0.3-1.8,0.3c-0.4,0-0.8,0-1.2-0.1s-0.7-0.2-1.1-0.3
			c-0.3-0.1-0.7-0.3-1-0.5s-0.6-0.4-0.8-0.7l0.7-1.1c0.1-0.1,0.1-0.1,0.2-0.2s0.2-0.1,0.3-0.1c0.1,0,0.3,0.1,0.5,0.2
			s0.4,0.2,0.6,0.4c0.2,0.1,0.5,0.3,0.8,0.4s0.7,0.2,1.1,0.2c0.7,0,1.2-0.2,1.5-0.5c0.4-0.3,0.5-0.8,0.5-1.3c0-0.3-0.1-0.6-0.2-0.8
			s-0.4-0.4-0.6-0.5c-0.3-0.1-0.6-0.3-0.9-0.4s-0.7-0.2-1-0.3c-0.4-0.1-0.7-0.2-1-0.4c-0.3-0.2-0.6-0.4-0.9-0.6
			c-0.3-0.3-0.5-0.6-0.6-1s-0.2-0.9-0.2-1.4c0-0.4,0.1-0.9,0.3-1.3c0.2-0.4,0.4-0.8,0.8-1.1c0.3-0.3,0.8-0.6,1.3-0.8
			c0.5-0.2,1.1-0.3,1.7-0.3c0.7,0,1.4,0.1,2,0.3c0.6,0.2,1.1,0.5,1.6,1L344.6,470.8z"/>
		<path class="st2" d="M351.3,472c0.6,0,1.1,0.1,1.5,0.3c0.5,0.2,0.9,0.4,1.2,0.8s0.6,0.8,0.8,1.2c0.2,0.5,0.3,1.1,0.3,1.7
			c0,0.2,0,0.3,0,0.4s0,0.2-0.1,0.2c0,0.1-0.1,0.1-0.2,0.1s-0.1,0-0.2,0h-5.4c0.1,0.9,0.3,1.6,0.7,2s1,0.6,1.7,0.6
			c0.3,0,0.6,0,0.9-0.1c0.2-0.1,0.5-0.2,0.6-0.3c0.2-0.1,0.3-0.2,0.5-0.3c0.1-0.1,0.3-0.1,0.4-0.1s0.2,0,0.2,0.1s0.1,0.1,0.2,0.1
			l0.6,0.8c-0.2,0.3-0.5,0.5-0.8,0.7s-0.6,0.3-0.9,0.4s-0.6,0.2-1,0.2c-0.3,0-0.6,0.1-1,0.1c-0.6,0-1.2-0.1-1.7-0.3
			c-0.5-0.2-1-0.5-1.4-0.9s-0.7-0.9-0.9-1.5c-0.2-0.6-0.3-1.3-0.3-2c0-0.6,0.1-1.2,0.3-1.7s0.5-1,0.8-1.4c0.4-0.4,0.8-0.7,1.3-0.9
			C350.1,472.1,350.7,472,351.3,472z M351.4,473.5c-0.6,0-1.1,0.2-1.4,0.5s-0.6,0.8-0.7,1.5h4c0-0.3,0-0.5-0.1-0.8
			c-0.1-0.2-0.2-0.5-0.3-0.6c-0.2-0.2-0.3-0.3-0.6-0.4S351.7,473.5,351.4,473.5z"/>
		<path class="st2" d="M357.5,480.9v-8.8h1.3c0.3,0,0.5,0.1,0.5,0.4l0.1,0.7c0.2-0.2,0.4-0.3,0.6-0.5c0.2-0.1,0.4-0.3,0.6-0.4
			s0.5-0.2,0.7-0.2s0.5-0.1,0.8-0.1c0.5,0,0.9,0.1,1.3,0.2c0.4,0.2,0.7,0.4,0.9,0.7c0.2,0.3,0.4,0.6,0.6,1.1
			c0.1,0.4,0.2,0.9,0.2,1.3v5.6H363v-5.6c0-0.5-0.1-1-0.4-1.2c-0.2-0.3-0.6-0.4-1.1-0.4c-0.4,0-0.7,0.1-1,0.2
			c-0.3,0.2-0.6,0.4-0.9,0.7v6.3L357.5,480.9L357.5,480.9z"/>
		<path class="st2" d="M373,473.9c-0.1,0.1-0.1,0.2-0.2,0.2s-0.1,0.1-0.2,0.1s-0.2,0-0.3-0.1c-0.1-0.1-0.3-0.1-0.4-0.2
			c-0.2-0.1-0.3-0.1-0.5-0.2s-0.4-0.1-0.7-0.1c-0.4,0-0.7,0.1-1,0.3s-0.4,0.4-0.4,0.7c0,0.2,0.1,0.3,0.2,0.5
			c0.1,0.1,0.3,0.2,0.5,0.3c0.2,0.1,0.4,0.2,0.7,0.3c0.3,0.1,0.5,0.2,0.8,0.3c0.3,0.1,0.5,0.2,0.8,0.3c0.3,0.1,0.5,0.3,0.7,0.4
			s0.4,0.4,0.5,0.6c0.1,0.3,0.2,0.6,0.2,0.9c0,0.4-0.1,0.8-0.2,1.2c-0.2,0.4-0.4,0.7-0.7,0.9c-0.3,0.3-0.7,0.5-1.1,0.6
			s-0.9,0.2-1.5,0.2c-0.3,0-0.6,0-0.9-0.1s-0.6-0.1-0.8-0.2c-0.3-0.1-0.5-0.2-0.7-0.3c-0.2-0.1-0.4-0.3-0.6-0.4l0.5-0.8
			c0.1-0.1,0.1-0.2,0.2-0.2s0.2-0.1,0.3-0.1c0.1,0,0.3,0,0.4,0.1s0.3,0.2,0.4,0.2c0.2,0.1,0.3,0.2,0.5,0.2s0.5,0.1,0.8,0.1
			s0.5,0,0.6-0.1s0.3-0.1,0.4-0.2s0.2-0.2,0.3-0.3c0.1-0.1,0.1-0.3,0.1-0.4c0-0.2-0.1-0.4-0.2-0.5s-0.3-0.2-0.5-0.3
			s-0.4-0.2-0.7-0.3c-0.3-0.1-0.5-0.2-0.8-0.3s-0.5-0.2-0.8-0.3c-0.3-0.1-0.5-0.3-0.7-0.5s-0.4-0.4-0.5-0.7c-0.1-0.3-0.2-0.6-0.2-1
			s0.1-0.7,0.2-1s0.4-0.6,0.6-0.8s0.6-0.4,1-0.6c0.4-0.1,0.9-0.2,1.4-0.2c0.6,0,1.2,0.1,1.6,0.3c0.5,0.2,0.9,0.5,1.2,0.8L373,473.9z
			"/>
		<path class="st2" d="M379.5,472c0.6,0,1.1,0.1,1.5,0.3c0.5,0.2,0.9,0.4,1.2,0.8s0.6,0.8,0.8,1.2c0.2,0.5,0.3,1.1,0.3,1.7
			c0,0.2,0,0.3,0,0.4s0,0.2-0.1,0.2c0,0.1-0.1,0.1-0.2,0.1s-0.1,0-0.2,0h-5.4c0.1,0.9,0.3,1.6,0.7,2s1,0.6,1.7,0.6
			c0.3,0,0.6,0,0.9-0.1c0.2-0.1,0.5-0.2,0.6-0.3c0.2-0.1,0.3-0.2,0.5-0.3c0.1-0.1,0.3-0.1,0.4-0.1s0.2,0,0.2,0.1s0.1,0.1,0.2,0.1
			l0.6,0.8c-0.2,0.3-0.5,0.5-0.8,0.7s-0.6,0.3-0.9,0.4s-0.6,0.2-1,0.2c-0.3,0-0.6,0.1-1,0.1c-0.6,0-1.2-0.1-1.7-0.3
			c-0.5-0.2-1-0.5-1.4-0.9s-0.7-0.9-0.9-1.5c-0.2-0.6-0.3-1.3-0.3-2c0-0.6,0.1-1.2,0.3-1.7s0.5-1,0.8-1.4c0.4-0.4,0.8-0.7,1.3-0.9
			C378.3,472.1,378.9,472,379.5,472z M379.6,473.5c-0.6,0-1.1,0.2-1.4,0.5s-0.6,0.8-0.7,1.5h4c0-0.3,0-0.5-0.1-0.8
			c-0.1-0.2-0.2-0.5-0.3-0.6c-0.2-0.2-0.3-0.3-0.6-0.4S379.9,473.5,379.6,473.5z"/>
	</g>
</g>
</svg>
