<?xml version="1.0" encoding="utf-8"?>
<!-- Generator: Adobe Illustrator 19.1.0, SVG Export Plug-In . SVG Version: 6.00 Build 0)  -->
<svg version="1.1" id="Layer_1" xmlns="http://www.w3.org/2000/svg" xmlns:xlink="http://www.w3.org/1999/xlink" x="0px" y="0px"
	 viewBox="-17 310.2 576 172.8" style="enable-background:new -17 310.2 576 172.8;" xml:space="preserve">
<style type="text/css">
	.st0{fill:#0051C6;}
	.st1{fill:#4DDB5A;}
	.st2{fill:#383838;}
</style>
<g>
	<g>
		<path class="st0" d="M100.4,372.6c-0.6,1-1.2,1.6-1.9,2c-0.7,0.4-1.5,0.6-2.5,0.6c-1.1,0-2.3-0.3-3.5-0.9s-2.7-1.3-4.3-2
			c-1.6-0.8-3.5-1.4-5.6-2s-4.6-0.9-7.4-0.9c-4.4,0-7.9,0.9-10.4,2.8s-3.8,4.3-3.8,7.3c0,2,0.6,3.7,2,5c1.3,1.4,3,2.6,5.2,3.6
			c2.1,1,4.6,1.9,7.3,2.8s5.5,1.7,8.3,2.7s5.6,2.1,8.3,3.3c2.7,1.2,5.2,2.8,7.3,4.7c2.1,1.9,3.9,4.2,5.2,6.8c1.3,2.7,2,5.9,2,9.6
			c0,4.5-0.8,8.6-2.4,12.4s-4,7-7.2,9.8c-3.1,2.8-7,4.9-11.7,6.4c-4.6,1.5-9.9,2.3-15.9,2.3c-3.2,0-6.3-0.3-9.4-0.9s-6-1.4-8.8-2.4
			c-2.8-1-5.4-2.2-7.8-3.6c-2.4-1.4-4.5-2.9-6.3-4.5l5.2-8.5c0.7-1,1.5-1.8,2.4-2.4c0.9-0.5,2.1-0.8,3.4-0.8c1.4,0,2.7,0.4,3.9,1.2
			c1.2,0.8,2.7,1.6,4.3,2.5s3.6,1.8,5.8,2.5c2.2,0.8,5,1.2,8.4,1.2c2.7,0,4.9-0.3,6.8-1s3.5-1.5,4.7-2.5s2.1-2.2,2.7-3.6
			s0.9-2.8,0.9-4.2c0-2.2-0.7-4-2-5.4s-3-2.6-5.2-3.6c-2.1-1-4.6-1.9-7.3-2.8c-2.8-0.8-5.6-1.7-8.4-2.7c-2.9-1-5.7-2.1-8.4-3.4
			c-2.8-1.3-5.2-2.9-7.3-4.9s-3.9-4.4-5.2-7.3c-1.3-2.9-2-6.4-2-10.5c0-3.8,0.8-7.4,2.3-10.9c1.5-3.4,3.7-6.5,6.7-9
			c2.9-2.6,6.6-4.6,11-6.2c4.4-1.5,9.4-2.3,15.2-2.3c6.4,0,12.2,1.1,17.5,3.2s9.6,4.9,13.2,8.3L100.4,372.6z"/>
		<path class="st0" d="M160.5,353c5.9,0,11.3,0.9,16.2,2.8s9.2,4.6,12.7,8.2c3.6,3.6,6.3,8,8.3,13.2s3,11.2,3,17.9
			c0,1.7-0.1,3.1-0.2,4.2c-0.2,1.1-0.4,2-0.8,2.6c-0.4,0.6-0.9,1.1-1.6,1.4s-1.5,0.4-2.5,0.4h-57.5c0.7,9.6,3.2,16.6,7.7,21
			c4.5,4.5,10.4,6.7,17.8,6.7c3.6,0,6.8-0.4,9.4-1.3c2.6-0.8,4.9-1.8,6.9-2.8s3.7-2,5.2-2.8s2.9-1.3,4.3-1.3c0.9,0,1.7,0.2,2.4,0.5
			c0.7,0.4,1.2,0.9,1.7,1.5l6.5,8.2c-2.5,2.9-5.3,5.3-8.3,7.3c-3.1,2-6.3,3.5-9.7,4.7s-6.8,2-10.2,2.5c-3.5,0.5-6.8,0.7-10.1,0.7
			c-6.5,0-12.5-1.1-18.1-3.2s-10.4-5.3-14.5-9.5c-4.1-4.2-7.3-9.4-9.7-15.6s-3.5-13.4-3.5-21.5c0-6.3,1-12.3,3.1-17.9
			s5-10.5,8.8-14.6s8.5-7.4,14.1-9.8C147.3,354.2,153.5,353,160.5,353z M161,369c-6.5,0-11.6,1.8-15.3,5.5s-6,8.9-7.1,15.7h42.1
			c0-2.9-0.4-5.6-1.2-8.2s-2-4.8-3.6-6.8c-1.6-1.9-3.7-3.5-6.2-4.6C167.2,369.6,164.3,369,161,369z"/>
		<path class="st0" d="M216.6,447.5v-93.1h13.7c2.9,0,4.8,1.4,5.7,4.1l1.5,7.3c1.9-1.9,3.9-3.7,5.9-5.3c2.1-1.6,4.3-2.9,6.6-4.1
			c2.3-1.1,4.8-2,7.5-2.6c2.7-0.6,5.6-0.9,8.7-0.9c5.1,0,9.6,0.9,13.5,2.6s7.2,4.1,9.8,7.3c2.6,3.1,4.6,6.8,6,11.2
			c1.4,4.3,2,9.1,2,14.3v59.2h-22.4v-59.2c0-5.7-1.3-10.1-3.9-13.2s-6.6-4.7-11.8-4.7c-3.9,0-7.5,0.9-10.9,2.6
			c-3.4,1.8-6.6,4.1-9.6,7.2v67.3L216.6,447.5L216.6,447.5z"/>
		<path class="st0" d="M372.7,372.6c-0.6,1-1.2,1.6-1.9,2c-0.7,0.4-1.5,0.6-2.5,0.6c-1.1,0-2.3-0.3-3.5-0.9s-2.7-1.3-4.3-2
			c-1.6-0.8-3.5-1.4-5.6-2s-4.6-0.9-7.4-0.9c-4.4,0-7.9,0.9-10.4,2.8s-3.8,4.3-3.8,7.3c0,2,0.6,3.7,2,5c1.3,1.4,3,2.6,5.2,3.6
			c2.1,1,4.6,1.9,7.3,2.8c2.7,0.8,5.5,1.7,8.3,2.7s5.6,2.1,8.3,3.3c2.7,1.2,5.2,2.8,7.3,4.7c2.1,1.9,3.9,4.2,5.2,6.8
			c1.3,2.7,2,5.9,2,9.6c0,4.5-0.8,8.6-2.4,12.4s-4,7-7.2,9.8c-3.1,2.8-7,4.9-11.7,6.4c-4.6,1.5-9.9,2.3-15.9,2.3
			c-3.2,0-6.3-0.3-9.4-0.9s-6-1.4-8.8-2.4s-5.4-2.2-7.8-3.6s-4.5-2.9-6.3-4.5l5.2-8.5c0.7-1,1.5-1.8,2.4-2.4
			c0.9-0.5,2.1-0.8,3.4-0.8c1.4,0,2.7,0.4,3.9,1.2c1.2,0.8,2.7,1.6,4.3,2.5c1.6,0.9,3.6,1.8,5.8,2.5c2.2,0.8,5,1.2,8.4,1.2
			c2.7,0,4.9-0.3,6.8-1c1.9-0.6,3.5-1.5,4.7-2.5s2.1-2.2,2.7-3.6s0.9-2.8,0.9-4.2c0-2.2-0.7-4-2-5.4s-3-2.6-5.2-3.6
			c-2.1-1-4.6-1.9-7.3-2.8c-2.8-0.8-5.6-1.7-8.4-2.7c-2.9-1-5.7-2.1-8.4-3.4c-2.8-1.3-5.2-2.9-7.3-4.9c-2.1-2-3.9-4.4-5.2-7.3
			c-1.3-2.9-2-6.4-2-10.5c0-3.8,0.8-7.4,2.3-10.9c1.5-3.4,3.7-6.5,6.7-9c2.9-2.6,6.6-4.6,11-6.2c4.4-1.5,9.4-2.3,15.2-2.3
			c6.4,0,12.2,1.1,17.5,3.2s9.6,4.9,13.2,8.3L372.7,372.6z"/>
		<path class="st0" d="M432.8,353c5.9,0,11.3,0.9,16.2,2.8s9.2,4.6,12.7,8.2c3.6,3.6,6.3,8,8.3,13.2s3,11.2,3,17.9
			c0,1.7-0.1,3.1-0.2,4.2c-0.2,1.1-0.4,2-0.8,2.6s-0.9,1.1-1.6,1.4s-1.5,0.4-2.5,0.4h-57.5c0.7,9.6,3.2,16.6,7.7,21
			c4.5,4.5,10.4,6.7,17.8,6.7c3.6,0,6.8-0.4,9.4-1.3c2.6-0.8,4.9-1.8,6.9-2.8s3.7-2,5.2-2.8s2.9-1.3,4.3-1.3c0.9,0,1.7,0.2,2.4,0.5
			c0.7,0.4,1.2,0.9,1.7,1.5l6.5,8.2c-2.5,2.9-5.3,5.3-8.3,7.3c-3.1,2-6.3,3.5-9.7,4.7c-3.4,1.2-6.8,2-10.2,2.5
			c-3.5,0.5-6.8,0.7-10.1,0.7c-6.5,0-12.5-1.1-18.1-3.2s-10.4-5.3-14.5-9.5s-7.3-9.4-9.7-15.6s-3.5-13.4-3.5-21.5
			c0-6.3,1-12.3,3.1-17.9s5-10.5,8.8-14.6s8.5-7.4,14.1-9.8C419.6,354.2,425.8,353,432.8,353z M433.3,369c-6.5,0-11.6,1.8-15.3,5.5
			c-3.7,3.7-6,8.9-7.1,15.7h42c0-2.9-0.4-5.6-1.2-8.2c-0.8-2.6-2-4.8-3.6-6.8c-1.6-1.9-3.7-3.5-6.2-4.6
			C439.5,369.6,436.6,369,433.3,369z"/>
	</g>
	<g>
		<g>
			<path class="st0" d="M486.8,353.2v2h-4.7v13.1h-2.4v-13.1h-4.8v-2H486.8z"/>
			<path class="st0" d="M496.7,363c0.1,0.2,0.2,0.4,0.3,0.7c0.1-0.2,0.2-0.4,0.3-0.7c0.1-0.3,0.2-0.4,0.3-0.6l4.8-8.8
				c0.1-0.2,0.2-0.3,0.3-0.4s0.3-0.1,0.5-0.1h1.8v15.1h-2.2v-10.4c0-0.2,0-0.4,0-0.5c0-0.2,0-0.4,0-0.6l-4.9,9
				c-0.2,0.4-0.5,0.6-0.9,0.6h-0.3c-0.4,0-0.7-0.2-0.9-0.6l-4.9-9c0,0.2,0,0.4,0.1,0.6c0,0.2,0,0.4,0,0.6v10.4h-2.1v-15.1h1.8
				c0.2,0,0.4,0,0.5,0.1s0.2,0.2,0.3,0.4l4.9,8.8C496.5,362.6,496.6,362.8,496.7,363z"/>
		</g>
	</g>
	<g>
		<path class="st1" d="M53.5,314.6c-0.1,0.2-0.2,0.3-0.4,0.4c-0.1,0.1-0.3,0.1-0.5,0.1c-0.2,0-0.4-0.1-0.7-0.2
			c-0.2-0.2-0.5-0.4-0.9-0.6s-0.8-0.4-1.3-0.6s-1.1-0.3-1.7-0.3c-0.6,0-1.2,0.1-1.6,0.2s-0.9,0.4-1.2,0.7c-0.3,0.3-0.6,0.6-0.7,1
			c-0.2,0.4-0.2,0.8-0.2,1.2c0,0.6,0.2,1,0.5,1.4c0.3,0.4,0.7,0.7,1.2,1s1.1,0.5,1.7,0.7c0.6,0.2,1.3,0.4,1.9,0.6
			c0.7,0.2,1.3,0.5,1.9,0.8c0.6,0.3,1.2,0.7,1.7,1.1s0.9,1,1.2,1.6c0.3,0.6,0.5,1.4,0.5,2.4s-0.2,1.9-0.5,2.8
			c-0.3,0.9-0.8,1.6-1.5,2.3c-0.7,0.7-1.5,1.2-2.4,1.5c-1,0.4-2,0.6-3.3,0.6c-0.7,0-1.4-0.1-2.1-0.2s-1.3-0.3-2-0.6
			c-0.7-0.3-1.2-0.6-1.7-0.9s-1-0.8-1.5-1.2l1.1-1.7c0.1-0.1,0.2-0.3,0.4-0.3c0.1-0.1,0.3-0.1,0.5-0.1c0.2,0,0.5,0.1,0.8,0.3
			c0.3,0.2,0.6,0.5,1.1,0.7c0.4,0.3,0.9,0.5,1.5,0.7s1.3,0.3,2.1,0.3c1.3,0,2.3-0.3,3.1-1c0.7-0.6,1.1-1.5,1.1-2.7
			c0-0.6-0.2-1.2-0.5-1.6c-0.3-0.4-0.7-0.7-1.2-1s-1.1-0.5-1.7-0.7c-0.6-0.2-1.3-0.4-1.9-0.6c-0.7-0.2-1.3-0.5-1.9-0.8
			c-0.6-0.3-1.2-0.7-1.7-1.1c-0.5-0.5-0.9-1-1.2-1.7c-0.3-0.7-0.5-1.5-0.5-2.6c0-0.8,0.2-1.6,0.5-2.4c0.3-0.8,0.8-1.4,1.4-2
			s1.4-1.1,2.3-1.4c0.9-0.4,1.9-0.5,3.1-0.5c1.3,0,2.5,0.2,3.6,0.6s2,1,2.8,1.7L53.5,314.6z"/>
		<path class="st1" d="M64.6,333.2h-3.7v-22.5h3.7V333.2z"/>
		<path class="st1" d="M77.2,321.7l-7.3-10.9h3.6c0.3,0,0.5,0,0.6,0.1s0.2,0.2,0.3,0.4l5.5,8.6c0-0.1,0.1-0.3,0.1-0.4
			c0.1-0.1,0.1-0.3,0.2-0.4l5.1-7.8c0.1-0.2,0.2-0.3,0.3-0.4c0.1-0.1,0.3-0.1,0.5-0.1h3.5l-7.3,10.8l7.6,11.7h-3.6
			c-0.2,0-0.5-0.1-0.6-0.2c-0.2-0.1-0.3-0.3-0.4-0.5l-5.6-9c0,0.1-0.1,0.2-0.1,0.4c0,0.2-0.1,0.2-0.2,0.3l-5.4,8.3
			c-0.1,0.2-0.2,0.3-0.4,0.5c-0.1,0.1-0.3,0.2-0.6,0.2h-3.4L77.2,321.7z"/>
		<path class="st1" d="M104.6,333.5c-1.8,0-3.5-0.3-4.9-0.9s-2.7-1.4-3.8-2.4c-1-1-1.8-2.2-2.4-3.6s-0.8-3-0.8-4.6
			c0-1.7,0.3-3.2,0.8-4.7s1.3-2.6,2.3-3.6s2.2-1.8,3.7-2.4c1.4-0.6,3-0.8,4.8-0.8c0.9,0,1.7,0.1,2.5,0.2s1.5,0.3,2.2,0.6
			s1.3,0.6,1.8,0.9c0.6,0.4,1.1,0.8,1.5,1.2l-1,1.7c-0.2,0.3-0.4,0.4-0.6,0.5c-0.3,0.1-0.5,0-0.8-0.2s-0.6-0.4-1-0.6
			s-0.7-0.4-1.2-0.6c-0.4-0.2-0.9-0.3-1.5-0.4s-1.2-0.2-2-0.2c-1.2,0-2.3,0.2-3.2,0.6c-1,0.4-1.8,0.9-2.4,1.7
			c-0.7,0.7-1.2,1.6-1.6,2.6s-0.5,2.2-0.5,3.4c0,1.3,0.2,2.5,0.6,3.6s0.9,2,1.6,2.7s1.6,1.3,2.6,1.7c1,0.4,2.1,0.6,3.4,0.6
			c0.9,0,1.8-0.1,2.5-0.3c0.7-0.2,1.4-0.5,2.1-0.8v-4.5h-3.1c-0.2,0-0.4-0.1-0.6-0.2c-0.1-0.1-0.2-0.3-0.2-0.5v-2.1h7.2v8.9
			C110.2,332.7,107.6,333.5,104.6,333.5z"/>
		<path class="st1" d="M122.6,333.2h-3.7v-22.5h3.7V333.2z"/>
		<path class="st1" d="M133.8,330.2h9.3v3.1h-13v-22.5h3.7V330.2z"/>
		<path class="st1" d="M152.1,330.2h9.3v3.1h-13v-22.5h3.7V330.2z"/>
	</g>
	<g>
		<rect x="39.9" y="474.1" class="st2" width="58" height="1"/>
	</g>
	<g>
		<rect x="415.9" y="474.1" class="st2" width="58" height="1"/>
	</g>
	<g>
		<path class="st2" d="M119.6,467.6v1.9h-3.7V480h-2.3v-10.5h-3.7v-1.9H119.6z"/>
		<path class="st2" d="M121.6,479.9v-12.7h2.1v4.9c0.3-0.3,0.7-0.6,1.1-0.8c0.4-0.2,0.9-0.3,1.4-0.3s0.9,0.1,1.3,0.2
			c0.4,0.2,0.7,0.4,0.9,0.7c0.2,0.3,0.4,0.6,0.6,1.1c0.1,0.4,0.2,0.9,0.2,1.3v5.6h-2.1v-5.6c0-0.5-0.1-1-0.4-1.2
			c-0.2-0.3-0.6-0.4-1.1-0.4c-0.4,0-0.7,0.1-1,0.2c-0.3,0.2-0.6,0.4-0.9,0.7v6.3L121.6,479.9L121.6,479.9z"/>
		<path class="st2" d="M135.6,471c0.6,0,1.1,0.1,1.5,0.3c0.5,0.2,0.9,0.4,1.2,0.8s0.6,0.8,0.8,1.2c0.2,0.5,0.3,1.1,0.3,1.7
			c0,0.2,0,0.3,0,0.4s0,0.2-0.1,0.2c0,0.1-0.1,0.1-0.2,0.1s-0.1,0-0.2,0h-5.4c0.1,0.9,0.3,1.6,0.7,2s1,0.6,1.7,0.6
			c0.3,0,0.6,0,0.9-0.1c0.2-0.1,0.5-0.2,0.6-0.3c0.2-0.1,0.3-0.2,0.5-0.3c0.1-0.1,0.3-0.1,0.4-0.1s0.2,0,0.2,0.1s0.1,0.1,0.2,0.1
			l0.6,0.8c-0.2,0.3-0.5,0.5-0.8,0.7s-0.6,0.3-0.9,0.4c-0.3,0.1-0.6,0.2-1,0.2c-0.3,0-0.6,0.1-1,0.1c-0.6,0-1.2-0.1-1.7-0.3
			s-1-0.5-1.4-0.9s-0.7-0.9-0.9-1.5s-0.3-1.3-0.3-2c0-0.6,0.1-1.2,0.3-1.7s0.5-1,0.8-1.4c0.4-0.4,0.8-0.7,1.3-0.9
			C134.3,471.1,134.9,471,135.6,471z M135.6,472.5c-0.6,0-1.1,0.2-1.4,0.5s-0.6,0.8-0.7,1.5h4c0-0.3,0-0.5-0.1-0.8
			c-0.1-0.2-0.2-0.5-0.3-0.6c-0.2-0.2-0.3-0.3-0.6-0.4C136.2,472.6,135.9,472.5,135.6,472.5z"/>
		<path class="st2" d="M148.1,475.6v4.4h-2.3v-12.4h4c0.8,0,1.5,0.1,2.1,0.3c0.6,0.2,1.1,0.5,1.5,0.8s0.7,0.8,0.9,1.2s0.3,1,0.3,1.6
			s-0.1,1.1-0.3,1.6s-0.5,0.9-0.9,1.3s-0.9,0.6-1.5,0.8c-0.6,0.2-1.3,0.3-2.1,0.3h-1.7V475.6z M148.1,473.8h1.7
			c0.4,0,0.8-0.1,1.1-0.2s0.6-0.3,0.8-0.5s0.4-0.4,0.5-0.7c0.1-0.3,0.2-0.6,0.2-0.9s-0.1-0.6-0.2-0.9s-0.3-0.5-0.5-0.7
			s-0.5-0.3-0.8-0.4s-0.7-0.1-1.1-0.1h-1.7V473.8z"/>
		<path class="st2" d="M156.9,479.9v-8.8h1.2c0.2,0,0.4,0,0.5,0.1s0.1,0.2,0.2,0.4l0.1,1.1c0.3-0.5,0.7-1,1.1-1.3s0.9-0.5,1.4-0.5
			c0.4,0,0.8,0.1,1.1,0.3l-0.3,1.6c0,0.1-0.1,0.2-0.1,0.2c-0.1,0-0.1,0.1-0.2,0.1s-0.2,0-0.4-0.1s-0.3-0.1-0.6-0.1
			c-0.4,0-0.8,0.1-1.1,0.4s-0.6,0.6-0.8,1.1v5.5L156.9,479.9L156.9,479.9z"/>
		<path class="st2" d="M168.3,471c0.7,0,1.2,0.1,1.8,0.3c0.5,0.2,1,0.5,1.4,0.9s0.7,0.9,0.9,1.4s0.3,1.2,0.3,1.9
			c0,0.7-0.1,1.3-0.3,1.9s-0.5,1-0.9,1.4s-0.8,0.7-1.4,0.9c-0.5,0.2-1.1,0.3-1.8,0.3s-1.3-0.1-1.8-0.3c-0.5-0.2-1-0.5-1.4-0.9
			s-0.7-0.9-0.9-1.4s-0.3-1.2-0.3-1.9s0.1-1.3,0.3-1.9s0.5-1,0.9-1.4s0.8-0.7,1.4-0.9C167.1,471.1,167.6,471,168.3,471z
			 M168.3,478.4c0.7,0,1.3-0.2,1.6-0.7s0.5-1.2,0.5-2.2c0-0.9-0.2-1.7-0.5-2.2c-0.4-0.5-0.9-0.7-1.6-0.7s-1.3,0.2-1.6,0.7
			c-0.4,0.5-0.5,1.2-0.5,2.2s0.2,1.7,0.5,2.1C167,478.2,167.6,478.4,168.3,478.4z"/>
		<path class="st2" d="M176.5,475.4l-2.9-4.2h2c0.2,0,0.3,0,0.3,0.1c0.1,0,0.1,0.1,0.2,0.2l1.8,2.9c0-0.1,0.1-0.2,0.1-0.3
			s0.1-0.2,0.2-0.3l1.5-2.3c0.1-0.1,0.1-0.2,0.2-0.2c0.1-0.1,0.2-0.1,0.3-0.1h1.9l-2.9,4.2l3,4.6h-2c-0.2,0-0.3,0-0.4-0.1
			c-0.1-0.1-0.2-0.2-0.2-0.3l-1.9-3.1c-0.1,0.2-0.1,0.4-0.2,0.5l-1.6,2.5c-0.1,0.1-0.1,0.2-0.2,0.3c-0.1,0.1-0.2,0.1-0.3,0.1h-1.9
			L176.5,475.4z"/>
		<path class="st2" d="M186.8,468.6c0,0.2,0,0.4-0.1,0.5c-0.1,0.2-0.2,0.3-0.3,0.4s-0.3,0.2-0.4,0.3s-0.3,0.1-0.5,0.1
			s-0.4,0-0.5-0.1s-0.3-0.2-0.4-0.3c-0.1-0.1-0.2-0.3-0.3-0.4c-0.1-0.2-0.1-0.3-0.1-0.5s0-0.4,0.1-0.5s0.2-0.3,0.3-0.4
			s0.3-0.2,0.4-0.3s0.3-0.1,0.5-0.1s0.4,0,0.5,0.1s0.3,0.2,0.4,0.3c0.1,0.1,0.2,0.3,0.3,0.4S186.8,468.4,186.8,468.6z M186.5,471.1
			v8.8h-2.1v-8.8H186.5z"/>
		<path class="st2" d="M189.5,479.9v-8.8h1.3c0.3,0,0.5,0.1,0.5,0.4l0.1,0.6c0.2-0.2,0.3-0.3,0.5-0.5s0.3-0.3,0.5-0.4
			s0.4-0.2,0.6-0.2c0.2-0.1,0.5-0.1,0.7-0.1c0.6,0,1,0.1,1.4,0.4s0.6,0.7,0.8,1.2c0.1-0.3,0.3-0.5,0.5-0.7s0.4-0.4,0.7-0.5
			s0.5-0.2,0.8-0.3c0.3-0.1,0.6-0.1,0.8-0.1c0.5,0,0.9,0.1,1.3,0.2c0.4,0.1,0.7,0.4,0.9,0.6s0.5,0.6,0.6,1s0.2,0.9,0.2,1.4v5.6h-2.1
			v-5.6c0-0.6-0.1-1-0.4-1.3s-0.6-0.4-1.1-0.4c-0.2,0-0.4,0-0.6,0.1c-0.2,0.1-0.3,0.2-0.5,0.3s-0.2,0.3-0.3,0.5s-0.1,0.5-0.1,0.7
			v5.6h-2.1V474c0-0.6-0.1-1-0.4-1.3s-0.6-0.4-1-0.4c-0.3,0-0.6,0.1-0.9,0.2c-0.3,0.2-0.5,0.4-0.7,0.6v6.4h-2V479.9z"/>
		<path class="st2" d="M207.1,468.6c0,0.2,0,0.4-0.1,0.5c-0.1,0.2-0.2,0.3-0.3,0.4s-0.3,0.2-0.4,0.3s-0.3,0.1-0.5,0.1
			s-0.4,0-0.5-0.1s-0.3-0.2-0.4-0.3c-0.1-0.1-0.2-0.3-0.3-0.4c-0.1-0.2-0.1-0.3-0.1-0.5s0-0.4,0.1-0.5s0.2-0.3,0.3-0.4
			s0.3-0.2,0.4-0.3s0.3-0.1,0.5-0.1s0.4,0,0.5,0.1s0.3,0.2,0.4,0.3c0.1,0.1,0.2,0.3,0.3,0.4S207.1,468.4,207.1,468.6z M206.8,471.1
			v8.8h-2.1v-8.8H206.8z"/>
		<path class="st2" d="M212.7,480.1c-0.8,0-1.3-0.2-1.8-0.6c-0.4-0.4-0.6-1-0.6-1.8v-4.9h-0.9c-0.1,0-0.2,0-0.3-0.1
			s-0.1-0.2-0.1-0.3v-0.8l1.4-0.2l0.4-2.4c0-0.1,0.1-0.2,0.2-0.3c0.1-0.1,0.2-0.1,0.3-0.1h1.1v2.8h2.3v1.5h-2.3v4.8
			c0,0.3,0.1,0.5,0.2,0.6c0.1,0.2,0.3,0.2,0.5,0.2c0.1,0,0.2,0,0.3,0s0.2-0.1,0.2-0.1s0.1-0.1,0.2-0.1s0.1,0,0.2,0s0.1,0,0.2,0
			s0.1,0.1,0.1,0.1l0.6,1c-0.3,0.3-0.7,0.5-1.1,0.6C213.5,480,213.1,480.1,212.7,480.1z"/>
		<path class="st2" d="M220.2,482.3c-0.1,0.1-0.1,0.3-0.2,0.3c-0.1,0.1-0.3,0.1-0.5,0.1h-1.6l1.6-3.5l-3.5-8.1h1.8
			c0.2,0,0.3,0,0.4,0.1c0.1,0.1,0.2,0.2,0.2,0.3l1.9,4.5c0.1,0.1,0.1,0.3,0.2,0.5c0,0.2,0.1,0.3,0.1,0.5c0-0.2,0.1-0.3,0.1-0.5
			c0.1-0.2,0.1-0.3,0.2-0.5l1.8-4.5c0-0.1,0.1-0.2,0.2-0.3s0.2-0.1,0.4-0.1h1.7L220.2,482.3z"/>
		<path class="st2" d="M238.7,467.6v1.8h-5.5v3.4h4.3v1.8h-4.3v3.5h5.5v1.8h-7.8v-12.4h7.8V467.6z"/>
		<path class="st2" d="M241.2,479.9v-8.8h1.3c0.3,0,0.5,0.1,0.5,0.4l0.1,0.7c0.2-0.2,0.4-0.3,0.6-0.5c0.2-0.1,0.4-0.3,0.6-0.4
			c0.2-0.1,0.5-0.2,0.7-0.2s0.5-0.1,0.8-0.1c0.5,0,0.9,0.1,1.3,0.2c0.4,0.2,0.7,0.4,0.9,0.7c0.2,0.3,0.4,0.6,0.6,1.1
			c0.1,0.4,0.2,0.9,0.2,1.3v5.6h-2.1v-5.6c0-0.5-0.1-1-0.4-1.2c-0.2-0.3-0.6-0.4-1.1-0.4c-0.4,0-0.7,0.1-1,0.2
			c-0.3,0.2-0.6,0.4-0.9,0.7v6.3L241.2,479.9L241.2,479.9z"/>
		<path class="st2" d="M254.5,471c0.4,0,0.7,0,1.1,0.1c0.3,0.1,0.6,0.2,0.9,0.3h2.5v0.8c0,0.1,0,0.2-0.1,0.3s-0.2,0.1-0.4,0.2
			l-0.8,0.1c0.1,0.1,0.1,0.3,0.1,0.5s0,0.3,0,0.5c0,0.4-0.1,0.8-0.3,1.2s-0.4,0.6-0.7,0.9c-0.3,0.2-0.7,0.4-1.1,0.6
			c-0.4,0.1-0.9,0.2-1.4,0.2c-0.3,0-0.7,0-1-0.1c-0.3,0.2-0.4,0.4-0.4,0.6s0.1,0.3,0.2,0.4c0.2,0.1,0.4,0.1,0.6,0.2
			c0.3,0,0.6,0.1,0.9,0.1c0.3,0,0.7,0,1,0c0.4,0,0.7,0.1,1,0.1c0.3,0.1,0.6,0.2,0.9,0.3c0.3,0.2,0.5,0.4,0.6,0.6
			c0.2,0.3,0.2,0.6,0.2,1s-0.1,0.8-0.3,1.1c-0.2,0.4-0.5,0.7-0.8,1c-0.4,0.3-0.8,0.5-1.3,0.7s-1.1,0.3-1.8,0.3s-1.2-0.1-1.7-0.2
			s-0.9-0.3-1.2-0.5s-0.6-0.5-0.7-0.7s-0.2-0.6-0.2-0.9c0-0.4,0.1-0.8,0.4-1c0.3-0.3,0.6-0.5,1-0.7c-0.2-0.1-0.4-0.3-0.5-0.5
			s-0.2-0.5-0.2-0.8c0-0.1,0-0.3,0.1-0.4c0-0.1,0.1-0.3,0.2-0.4c0.1-0.1,0.2-0.3,0.4-0.4c0.1-0.1,0.3-0.2,0.5-0.3
			c-0.4-0.2-0.8-0.6-1-1c-0.3-0.4-0.4-0.9-0.4-1.4c0-0.4,0.1-0.8,0.3-1.2s0.4-0.6,0.7-0.9s0.7-0.4,1.1-0.6S254,471,254.5,471z
			 M256.9,480.3c0-0.2-0.1-0.3-0.2-0.4s-0.2-0.2-0.4-0.3c-0.2-0.1-0.4-0.1-0.6-0.1s-0.5,0-0.8,0s-0.5,0-0.8,0s-0.6,0-0.8-0.1
			c-0.2,0.1-0.4,0.3-0.6,0.5s-0.2,0.4-0.2,0.6s0,0.3,0.1,0.4s0.2,0.2,0.4,0.3c0.2,0.1,0.4,0.2,0.7,0.2c0.3,0.1,0.6,0.1,1,0.1
			c0.4,0,0.7,0,1-0.1c0.3-0.1,0.5-0.1,0.7-0.3c0.2-0.2,0.3-0.2,0.4-0.4C256.8,480.6,256.9,480.5,256.9,480.3z M254.5,475.3
			c0.3,0,0.5,0,0.7-0.1s0.4-0.2,0.5-0.3s0.2-0.3,0.3-0.5c0.1-0.2,0.1-0.4,0.1-0.6c0-0.4-0.1-0.8-0.4-1c-0.3-0.3-0.6-0.4-1.2-0.4
			s-0.9,0.1-1.2,0.4s-0.4,0.6-0.4,1c0,0.2,0,0.4,0.1,0.6s0.2,0.3,0.3,0.5c0.1,0.1,0.3,0.2,0.5,0.3
			C254.1,475.3,254.3,475.3,254.5,475.3z"/>
		<path class="st2" d="M263.6,468.6c0,0.2,0,0.4-0.1,0.5c-0.1,0.2-0.2,0.3-0.3,0.4c-0.1,0.1-0.3,0.2-0.4,0.3s-0.3,0.1-0.5,0.1
			s-0.4,0-0.5-0.1s-0.3-0.2-0.4-0.3c-0.1-0.1-0.2-0.3-0.3-0.4c-0.1-0.2-0.1-0.3-0.1-0.5s0-0.4,0.1-0.5s0.2-0.3,0.3-0.4
			c0.1-0.1,0.3-0.2,0.4-0.3s0.3-0.1,0.5-0.1s0.4,0,0.5,0.1s0.3,0.2,0.4,0.3s0.2,0.3,0.3,0.4C263.6,468.2,263.6,468.4,263.6,468.6z
			 M263.2,471.1v8.8h-2.1v-8.8H263.2z"/>
		<path class="st2" d="M266.3,479.9v-8.8h1.3c0.3,0,0.5,0.1,0.5,0.4l0.1,0.7c0.2-0.2,0.4-0.3,0.6-0.5c0.2-0.1,0.4-0.3,0.6-0.4
			s0.5-0.2,0.7-0.2s0.5-0.1,0.8-0.1c0.5,0,0.9,0.1,1.3,0.2c0.4,0.2,0.7,0.4,0.9,0.7c0.2,0.3,0.4,0.6,0.6,1.1
			c0.1,0.4,0.2,0.9,0.2,1.3v5.6h-2.1v-5.6c0-0.5-0.1-1-0.4-1.2c-0.2-0.3-0.6-0.4-1.1-0.4c-0.4,0-0.7,0.1-1,0.2
			c-0.3,0.2-0.6,0.4-0.9,0.7v6.3L266.3,479.9L266.3,479.9z"/>
		<path class="st2" d="M280.2,471c0.6,0,1.1,0.1,1.5,0.3c0.5,0.2,0.9,0.4,1.2,0.8c0.3,0.4,0.6,0.8,0.8,1.2c0.2,0.5,0.3,1.1,0.3,1.7
			c0,0.2,0,0.3,0,0.4s0,0.2-0.1,0.2c0,0.1-0.1,0.1-0.2,0.1s-0.1,0-0.2,0H278c0.1,0.9,0.3,1.6,0.7,2c0.4,0.4,1,0.6,1.7,0.6
			c0.3,0,0.6,0,0.9-0.1c0.2-0.1,0.5-0.2,0.6-0.3c0.2-0.1,0.3-0.2,0.5-0.3c0.1-0.1,0.3-0.1,0.4-0.1s0.2,0,0.2,0.1s0.1,0.1,0.2,0.1
			l0.6,0.8c-0.2,0.3-0.5,0.5-0.8,0.7s-0.6,0.3-0.9,0.4s-0.6,0.2-1,0.2c-0.3,0-0.6,0.1-1,0.1c-0.6,0-1.2-0.1-1.7-0.3s-1-0.5-1.4-0.9
			s-0.7-0.9-0.9-1.5c-0.2-0.6-0.3-1.3-0.3-2c0-0.6,0.1-1.2,0.3-1.7s0.5-1,0.8-1.4c0.4-0.4,0.8-0.7,1.3-0.9
			C279,471.1,279.6,471,280.2,471z M280.3,472.5c-0.6,0-1.1,0.2-1.4,0.5s-0.6,0.8-0.7,1.5h4c0-0.3,0-0.5-0.1-0.8
			c-0.1-0.2-0.2-0.5-0.3-0.6c-0.2-0.2-0.3-0.3-0.6-0.4C280.9,472.6,280.6,472.5,280.3,472.5z"/>
		<path class="st2" d="M290.7,479.9v-7.2l-0.8-0.1c-0.2,0-0.3-0.1-0.4-0.2s-0.1-0.2-0.1-0.4v-0.9h1.3v-0.6c0-0.5,0.1-1,0.2-1.4
			c0.2-0.4,0.4-0.7,0.6-1c0.3-0.3,0.6-0.5,1-0.6s0.9-0.2,1.4-0.2c0.4,0,0.8,0.1,1.1,0.2v1.1c0,0.2-0.1,0.3-0.2,0.3s-0.3,0.1-0.5,0.1
			c-0.3,0-0.5,0-0.7,0.1s-0.4,0.1-0.5,0.3c-0.1,0.1-0.2,0.3-0.3,0.5c-0.1,0.2-0.1,0.5-0.1,0.8v0.6h2.3v1.5h-2.2v7.2L290.7,479.9
			L290.7,479.9z"/>
		<path class="st2" d="M300.7,471c0.7,0,1.2,0.1,1.8,0.3c0.5,0.2,1,0.5,1.4,0.9s0.7,0.9,0.9,1.4s0.3,1.2,0.3,1.9
			c0,0.7-0.1,1.3-0.3,1.9c-0.2,0.6-0.5,1-0.9,1.4s-0.8,0.7-1.4,0.9c-0.5,0.2-1.1,0.3-1.8,0.3s-1.3-0.1-1.8-0.3
			c-0.5-0.2-1-0.5-1.4-0.9s-0.7-0.9-0.9-1.4s-0.3-1.2-0.3-1.9s0.1-1.3,0.3-1.9c0.2-0.6,0.5-1,0.9-1.4s0.8-0.7,1.4-0.9
			C299.4,471.1,300,471,300.7,471z M300.7,478.4c0.7,0,1.3-0.2,1.6-0.7s0.5-1.2,0.5-2.2c0-0.9-0.2-1.7-0.5-2.2
			c-0.4-0.5-0.9-0.7-1.6-0.7s-1.3,0.2-1.6,0.7c-0.4,0.5-0.5,1.2-0.5,2.2s0.2,1.7,0.5,2.1C299.4,478.2,299.9,478.4,300.7,478.4z"/>
		<path class="st2" d="M307.3,479.9v-8.8h1.2c0.2,0,0.4,0,0.5,0.1s0.1,0.2,0.2,0.4l0.1,1.1c0.3-0.5,0.7-1,1.1-1.3s0.9-0.5,1.4-0.5
			c0.4,0,0.8,0.1,1.1,0.3l-0.3,1.6c0,0.1-0.1,0.2-0.1,0.2c-0.1,0-0.1,0.1-0.2,0.1s-0.2,0-0.4-0.1c-0.2-0.1-0.3-0.1-0.6-0.1
			c-0.4,0-0.8,0.1-1.1,0.4s-0.6,0.6-0.8,1.1v5.5L307.3,479.9L307.3,479.9z"/>
		<path class="st2" d="M326.7,467.6v1.8h-5.5v3.4h4.3v1.8h-4.3v3.5h5.5v1.8h-7.8v-12.4h7.8V467.6z"/>
		<path class="st2" d="M329.2,479.9v-8.8h1.3c0.3,0,0.5,0.1,0.5,0.4l0.1,0.7c0.2-0.2,0.4-0.3,0.6-0.5c0.2-0.1,0.4-0.3,0.6-0.4
			s0.5-0.2,0.7-0.2s0.5-0.1,0.8-0.1c0.5,0,0.9,0.1,1.3,0.2c0.4,0.2,0.7,0.4,0.9,0.7c0.2,0.3,0.4,0.6,0.6,1.1
			c0.1,0.4,0.2,0.9,0.2,1.3v5.6h-2.1v-5.6c0-0.5-0.1-1-0.4-1.2c-0.2-0.3-0.6-0.4-1.1-0.4c-0.4,0-0.7,0.1-1,0.2
			c-0.3,0.2-0.6,0.4-0.9,0.7v6.3L329.2,479.9L329.2,479.9z"/>
		<path class="st2" d="M342.5,480.1c-0.8,0-1.3-0.2-1.8-0.6c-0.4-0.4-0.6-1-0.6-1.8v-4.9h-0.9c-0.1,0-0.2,0-0.3-0.1
			c-0.1-0.1-0.1-0.2-0.1-0.3v-0.8l1.4-0.2l0.4-2.4c0-0.1,0.1-0.2,0.2-0.3s0.2-0.1,0.3-0.1h1.1v2.8h2.3v1.5h-2.3v4.8
			c0,0.3,0.1,0.5,0.2,0.6c0.1,0.2,0.3,0.2,0.5,0.2c0.1,0,0.2,0,0.3,0c0.1,0,0.2-0.1,0.2-0.1s0.1-0.1,0.2-0.1s0.1,0,0.2,0
			s0.1,0,0.2,0s0.1,0.1,0.1,0.1l0.6,1c-0.3,0.3-0.7,0.5-1.1,0.6C343.3,480,342.9,480.1,342.5,480.1z"/>
		<path class="st2" d="M350.5,471c0.6,0,1.1,0.1,1.5,0.3c0.5,0.2,0.9,0.4,1.2,0.8c0.3,0.4,0.6,0.8,0.8,1.2c0.2,0.5,0.3,1.1,0.3,1.7
			c0,0.2,0,0.3,0,0.4s0,0.2-0.1,0.2c0,0.1-0.1,0.1-0.2,0.1s-0.1,0-0.2,0h-5.4c0.1,0.9,0.3,1.6,0.7,2c0.4,0.4,1,0.6,1.7,0.6
			c0.3,0,0.6,0,0.9-0.1c0.2-0.1,0.5-0.2,0.6-0.3c0.2-0.1,0.3-0.2,0.5-0.3c0.1-0.1,0.3-0.1,0.4-0.1s0.2,0,0.2,0.1s0.1,0.1,0.2,0.1
			l0.6,0.8c-0.2,0.3-0.5,0.5-0.8,0.7s-0.6,0.3-0.9,0.4s-0.6,0.2-1,0.2c-0.3,0-0.6,0.1-1,0.1c-0.6,0-1.2-0.1-1.7-0.3s-1-0.5-1.4-0.9
			s-0.7-0.9-0.9-1.5c-0.2-0.6-0.3-1.3-0.3-2c0-0.6,0.1-1.2,0.3-1.7s0.5-1,0.8-1.4c0.4-0.4,0.8-0.7,1.3-0.9
			C349.2,471.1,349.8,471,350.5,471z M350.5,472.5c-0.6,0-1.1,0.2-1.4,0.5s-0.6,0.8-0.7,1.5h4c0-0.3,0-0.5-0.1-0.8
			c-0.1-0.2-0.2-0.5-0.3-0.6c-0.2-0.2-0.3-0.3-0.6-0.4C351.1,472.6,350.8,472.5,350.5,472.5z"/>
		<path class="st2" d="M356.6,479.9v-8.8h1.2c0.2,0,0.4,0,0.5,0.1s0.1,0.2,0.2,0.4l0.1,1.1c0.3-0.5,0.7-1,1.1-1.3s0.9-0.5,1.4-0.5
			c0.4,0,0.8,0.1,1.1,0.3l-0.3,1.6c0,0.1-0.1,0.2-0.1,0.2c-0.1,0-0.1,0.1-0.2,0.1s-0.2,0-0.4-0.1c-0.2-0.1-0.3-0.1-0.6-0.1
			c-0.4,0-0.8,0.1-1.1,0.4s-0.6,0.6-0.8,1.1v5.5L356.6,479.9L356.6,479.9z"/>
		<path class="st2" d="M364.2,482.8v-11.7h1.3c0.1,0,0.3,0,0.4,0.1s0.2,0.2,0.2,0.3l0.2,0.8c0.4-0.4,0.8-0.7,1.2-1
			c0.5-0.3,1-0.4,1.6-0.4c0.5,0,0.9,0.1,1.3,0.3c0.4,0.2,0.7,0.5,1,0.9s0.5,0.8,0.7,1.4s0.2,1.2,0.2,1.9s-0.1,1.3-0.3,1.8
			c-0.2,0.6-0.4,1-0.8,1.5c-0.3,0.4-0.7,0.7-1.2,1c-0.5,0.2-1,0.3-1.6,0.3c-0.5,0-0.9-0.1-1.3-0.2c-0.3-0.2-0.7-0.4-0.9-0.6v3.6
			L364.2,482.8L364.2,482.8z M368.3,472.7c-0.4,0-0.8,0.1-1.1,0.3c-0.3,0.2-0.6,0.4-0.9,0.8v3.9c0.2,0.3,0.5,0.5,0.8,0.6
			s0.6,0.2,0.9,0.2s0.6-0.1,0.9-0.2s0.5-0.3,0.7-0.5s0.3-0.6,0.4-0.9c0.1-0.4,0.1-0.8,0.1-1.3s0-0.9-0.1-1.3s-0.2-0.6-0.4-0.9
			c-0.2-0.2-0.3-0.4-0.6-0.5C368.7,472.8,368.6,472.7,368.3,472.7z"/>
		<path class="st2" d="M374.5,479.9v-8.8h1.2c0.2,0,0.4,0,0.5,0.1s0.1,0.2,0.2,0.4l0.1,1.1c0.3-0.5,0.7-1,1.1-1.3s0.9-0.5,1.4-0.5
			c0.4,0,0.8,0.1,1.1,0.3l-0.3,1.6c0,0.1-0.1,0.2-0.1,0.2c-0.1,0-0.1,0.1-0.2,0.1s-0.2,0-0.4-0.1c-0.2-0.1-0.3-0.1-0.6-0.1
			c-0.4,0-0.8,0.1-1.1,0.4s-0.6,0.6-0.8,1.1v5.5L374.5,479.9L374.5,479.9z"/>
		<path class="st2" d="M384.7,468.6c0,0.2,0,0.4-0.1,0.5c-0.1,0.2-0.2,0.3-0.3,0.4c-0.1,0.1-0.3,0.2-0.4,0.3s-0.3,0.1-0.5,0.1
			s-0.4,0-0.5-0.1s-0.3-0.2-0.4-0.3c-0.1-0.1-0.2-0.3-0.3-0.4c-0.1-0.2-0.1-0.3-0.1-0.5s0-0.4,0.1-0.5s0.2-0.3,0.3-0.4
			c0.1-0.1,0.3-0.2,0.4-0.3s0.3-0.1,0.5-0.1s0.4,0,0.5,0.1s0.3,0.2,0.4,0.3s0.2,0.3,0.3,0.4C384.7,468.2,384.7,468.4,384.7,468.6z
			 M384.4,471.1v8.8h-2.1v-8.8H384.4z"/>
		<path class="st2" d="M392.6,472.9c-0.1,0.1-0.1,0.2-0.2,0.2s-0.1,0.1-0.2,0.1s-0.2,0-0.3-0.1c-0.1-0.1-0.3-0.1-0.4-0.2
			c-0.2-0.1-0.3-0.1-0.5-0.2s-0.4-0.1-0.7-0.1c-0.4,0-0.7,0.1-1,0.3c-0.3,0.2-0.4,0.4-0.4,0.7c0,0.2,0.1,0.3,0.2,0.5
			c0.1,0.1,0.3,0.2,0.5,0.3s0.4,0.2,0.7,0.3c0.3,0.1,0.5,0.2,0.8,0.3s0.5,0.2,0.8,0.3s0.5,0.3,0.7,0.4s0.4,0.4,0.5,0.6
			c0.1,0.3,0.2,0.6,0.2,0.9c0,0.4-0.1,0.8-0.2,1.2c-0.2,0.4-0.4,0.7-0.7,0.9c-0.3,0.3-0.7,0.5-1.1,0.6s-0.9,0.2-1.5,0.2
			c-0.3,0-0.6,0-0.9-0.1s-0.6-0.1-0.8-0.2c-0.3-0.1-0.5-0.2-0.7-0.3c-0.2-0.1-0.4-0.3-0.6-0.4l0.5-0.8c0.1-0.1,0.1-0.2,0.2-0.2
			s0.2-0.1,0.3-0.1s0.3,0,0.4,0.1s0.3,0.2,0.4,0.2c0.2,0.1,0.3,0.2,0.5,0.2s0.5,0.1,0.8,0.1s0.5,0,0.6-0.1s0.3-0.1,0.4-0.2
			s0.2-0.2,0.3-0.3c0.1-0.1,0.1-0.3,0.1-0.4c0-0.2-0.1-0.4-0.2-0.5s-0.3-0.2-0.5-0.3s-0.4-0.2-0.7-0.3c-0.3-0.1-0.5-0.2-0.8-0.3
			s-0.5-0.2-0.8-0.3c-0.3-0.1-0.5-0.3-0.7-0.5s-0.4-0.4-0.5-0.7s-0.2-0.6-0.2-1s0.1-0.7,0.2-1s0.4-0.6,0.6-0.8
			c0.2-0.2,0.6-0.4,1-0.6c0.4-0.1,0.9-0.2,1.4-0.2c0.6,0,1.2,0.1,1.6,0.3c0.5,0.2,0.9,0.5,1.2,0.8L392.6,472.9z"/>
		<path class="st2" d="M399.1,471c0.6,0,1.1,0.1,1.5,0.3c0.5,0.2,0.9,0.4,1.2,0.8c0.3,0.4,0.6,0.8,0.8,1.2c0.2,0.5,0.3,1.1,0.3,1.7
			c0,0.2,0,0.3,0,0.4s0,0.2-0.1,0.2c0,0.1-0.1,0.1-0.2,0.1s-0.1,0-0.2,0H397c0.1,0.9,0.3,1.6,0.7,2c0.4,0.4,1,0.6,1.7,0.6
			c0.3,0,0.6,0,0.9-0.1c0.2-0.1,0.5-0.2,0.6-0.3c0.2-0.1,0.3-0.2,0.5-0.3c0.1-0.1,0.3-0.1,0.4-0.1s0.2,0,0.2,0.1s0.1,0.1,0.2,0.1
			l0.6,0.8c-0.2,0.3-0.5,0.5-0.8,0.7s-0.6,0.3-0.9,0.4s-0.6,0.2-1,0.2c-0.3,0-0.6,0.1-1,0.1c-0.6,0-1.2-0.1-1.7-0.3s-1-0.5-1.4-0.9
			s-0.7-0.9-0.9-1.5c-0.2-0.6-0.3-1.3-0.3-2c0-0.6,0.1-1.2,0.3-1.7s0.5-1,0.8-1.4c0.4-0.4,0.8-0.7,1.3-0.9
			C397.9,471.1,398.5,471,399.1,471z M399.2,472.5c-0.6,0-1.1,0.2-1.4,0.5s-0.6,0.8-0.7,1.5h4c0-0.3,0-0.5-0.1-0.8
			c-0.1-0.2-0.2-0.5-0.3-0.6c-0.2-0.2-0.3-0.3-0.6-0.4C399.8,472.6,399.5,472.5,399.2,472.5z"/>
	</g>
</g>
</svg>
