<?xml version="1.0" encoding="utf-8"?>
<!-- Generator: Adobe Illustrator 20.0.0, SVG Export Plug-In . SVG Version: 6.00 Build 0)  -->
<svg version="1.1" id="Layer_1" xmlns="http://www.w3.org/2000/svg" xmlns:xlink="http://www.w3.org/1999/xlink" x="0px" y="0px"
	 viewBox="0 0 75 75" style="enable-background:new 0 0 75 75;" xml:space="preserve">
<style type="text/css">
	.st0{fill:#4DDB5A;}
</style>
<path class="st0" d="M40.3,53.7v-5.2h-5.5v5.2c-6.9-1.2-12.3-6.6-13.5-13.5h5.2v-5.5h-5.2c1.2-6.9,6.6-12.3,13.5-13.5v5.3h5.5v-5.2
	c6.9,1.2,12.3,6.6,13.5,13.5h-5.3v5.5h5.2C52.6,47.1,47.1,52.6,40.3,53.7z M65,34.8h-5.7c-1.2-9.9-9.1-17.8-19-19V10h-5.5v5.7
	c-9.9,1.2-17.8,9.1-19,19H10v5.5h5.7c1.2,9.9,9.1,17.8,19,19v5.7h5.5v-5.7c9.9-1.2,17.8-9.1,19-19h5.7L65,34.8L65,34.8z"/>
<path class="st0" d="M37.5,40.3c-1.5,0-2.8-1.2-2.8-2.8c0-1.5,1.2-2.8,2.8-2.8c1.5,0,2.8,1.2,2.8,2.8C40.3,39,39,40.3,37.5,40.3z
	 M37.5,29.3c-4.5,0-8.2,3.7-8.2,8.2c0,4.6,3.7,8.2,8.2,8.2c4.5,0,8.2-3.7,8.2-8.2C45.7,33,42,29.3,37.5,29.3z"/>
</svg>
