<?xml version="1.0" encoding="utf-8"?>
<!-- Generator: Adobe Illustrator 19.2.0, SVG Export Plug-In . SVG Version: 6.00 Build 0)  -->
<svg version="1.1" id="Layer_1" xmlns="http://www.w3.org/2000/svg" xmlns:xlink="http://www.w3.org/1999/xlink" x="0px" y="0px"
	 viewBox="0 0 792 612" style="enable-background:new 0 0 792 612;" xml:space="preserve">
<style type="text/css">
	.st0{fill:#4DB45A;}
	.st1{fill:#4DBE5A;}
	.st2{fill:#4DAA5A;}
	.st3{fill:#4DC85A;}
	.st4{fill:#4DD25A;}
	.st5{fill:#4DDB5A;}
	.st6{fill:#0051C6;}
	.st7{fill:#383838;}
</style>
<g>
	<g>
		<g>
			<g>
				<g>
					<path class="st0" d="M415.5,238.8h3.4v-87.5h-3.4c-5.4,0-9.8,4.4-9.8,9.8v68C405.7,234.4,410.1,238.8,415.5,238.8z"/>
				</g>
			</g>
			<g>
				<g>
					<path class="st1" d="M394.1,242.5h3.4v-95h-3.4c-5.4,0-9.8,4.4-9.8,9.8v75.4C384.3,238.1,388.7,242.5,394.1,242.5z"/>
				</g>
			</g>
			<g>
				<g>
					<path class="st2" d="M436.9,235.2h3.4v-80.3h-3.4c-5.4,0-9.8,4.4-9.8,9.8v60.8C427.1,230.8,431.5,235.2,436.9,235.2z"/>
				</g>
			</g>
			<g>
				<g>
					<path class="st3" d="M372.7,246.2h3.4V143.8h-3.4c-5.4,0-9.8,4.4-9.8,9.8v82.9C363,241.9,367.3,246.2,372.7,246.2z"/>
				</g>
			</g>
			<g>
				<g>
					<path class="st4" d="M351.4,250h3.4V140.1h-3.4c-5.4,0-9.8,4.4-9.8,9.8v90.4C341.6,245.6,346,250,351.4,250z"/>
				</g>
			</g>
			<g>
				<g>
					<path class="st5" d="M330,253.7h3.4V136.3H330c-5.4,0-9.8,4.4-9.8,9.8v97.8C320.2,249.3,324.6,253.7,330,253.7z"/>
				</g>
			</g>
		</g>
		<g>
			<g>
				<path class="st6" d="M218.5,280.9c8.6,0,15.6,9.1,15.6,16.1h21.8c0-20-16.8-38-37.4-38s-37.4,16.5-37.4,37.1
					c0,20.6,16.8,37.3,37.4,37.3c8.6,0,15.6,6.9,15.6,15.5c0,8.6-7,16.6-15.6,16.6c-8.6,0-15.6-6.6-15.6-14.6h-21.8
					c0,20,16.8,36.4,37.4,36.4s37.4-17.3,37.4-37.9c0-20.6-16.8-37.7-37.4-37.7c-8.6,0-15.6-6.8-15.6-15.4
					C202.9,287.7,209.9,280.9,218.5,280.9z"/>
			</g>
			<g>
				<rect x="481" y="297" class="st6" width="24" height="91"/>
			</g>
			<g>
				<rect x="517" y="260" class="st6" width="25" height="128"/>
			</g>
			<g>
				<rect x="554" y="260" class="st6" width="23" height="128"/>
			</g>
			<g>
				<path class="st6" d="M469,297h-23v6.3c-7-4-13.7-6.3-22-6.3c-24.6,0-44.3,20-44.3,44.6c0,24.6,19.5,44.6,44.1,44.6
					c8.3,0,15.2-2.3,22.2-6.3v4c0,13.5-9.4,25.9-22.9,25.9H407v22h16.1c25.5,0,45.9-22.4,45.9-47.9v-41.9c0-0.2,0-0.3,0-0.5
					c0-0.2,0-0.3,0-0.5V297z M446,342.1c0,12.4-9.6,22.4-22,22.4c-12.6,0-22.4-10.2-22.4-22.8c0-12.6,9.7-22.8,22.2-22.8
					c12.4,0,22.2,10,22.2,22.4V342.1z"/>
			</g>
			<g>
				<polygon class="st6" points="385.5,297 359.8,297 344.8,321.2 329.9,297 304.2,297 332,342.7 304.4,388 330.1,388 344.8,364.1 
					359.6,388 385.3,388 357.7,342.7 				"/>
			</g>
			<g>
				<rect x="269" y="297" class="st6" width="24" height="91"/>
			</g>
			<g>
				<path class="st6" d="M588.2,379.8v-1h6.9v1h-2.9v7.6h-1.1v-7.6H588.2z"/>
				<path class="st6" d="M598.1,378.9l2.7,7.2l2.7-7.2h1.6v8.6H604v-7.1h0l-2.7,7.1h-1l-2.7-7.1h0v7.1h-1.1v-8.6H598.1z"/>
			</g>
			<g>
				<circle class="st6" cx="280.2" cy="270.8" r="12"/>
			</g>
			<g>
				<circle class="st6" cx="492.2" cy="270.8" r="12"/>
			</g>
		</g>
	</g>
	<g>
		<path class="st7" d="M191.2,468.4l-7.4-19.3h-0.1c0.1,1.5,0.2,3.3,0.2,5.4v13.8h-2.3v-21.7h3.8l6.9,17.9h0.1l6.9-17.9h3.8v21.7
			h-2.5v-14c0-1.6,0.1-3.3,0.2-5.2h-0.1l-7.4,19.2H191.2z"/>
		<path class="st7" d="M223.6,460.2c0,2.7-0.7,4.7-2,6.2c-1.3,1.5-3.2,2.2-5.5,2.2c-1.5,0-2.7-0.3-3.9-1c-1.1-0.7-2-1.7-2.6-2.9
			c-0.6-1.3-0.9-2.8-0.9-4.5c0-2.7,0.7-4.7,2-6.2c1.3-1.5,3.2-2.2,5.5-2.2c2.3,0,4.1,0.8,5.4,2.3
			C222.9,455.6,223.6,457.6,223.6,460.2z M211.2,460.2c0,2.1,0.4,3.7,1.2,4.8c0.8,1.1,2.1,1.6,3.7,1.6c1.6,0,2.8-0.5,3.7-1.6
			c0.8-1.1,1.3-2.7,1.3-4.8c0-2.1-0.4-3.6-1.3-4.7c-0.8-1.1-2.1-1.6-3.7-1.6c-1.6,0-2.8,0.5-3.7,1.6
			C211.6,456.5,211.2,458.1,211.2,460.2z"/>
		<path class="st7" d="M236.2,451.8c0.7,0,1.4,0.1,1.9,0.2l-0.3,2.3c-0.7-0.1-1.3-0.2-1.8-0.2c-1.3,0-2.4,0.5-3.4,1.6
			c-0.9,1.1-1.4,2.4-1.4,4v8.7h-2.5v-16.3h2l0.3,3h0.1c0.6-1.1,1.3-1.9,2.2-2.5C234.2,452.1,235.2,451.8,236.2,451.8z"/>
		<path class="st7" d="M248.7,468.7c-2.4,0-4.3-0.7-5.7-2.2c-1.4-1.5-2.1-3.5-2.1-6.1c0-2.6,0.6-4.7,1.9-6.3s3-2.3,5.2-2.3
			c2,0,3.7,0.7,4.8,2c1.2,1.3,1.8,3.1,1.8,5.3v1.6h-11.2c0,1.9,0.5,3.4,1.4,4.4c0.9,1,2.2,1.5,3.9,1.5c1.8,0,3.5-0.4,5.2-1.1v2.2
			c-0.9,0.4-1.7,0.6-2.5,0.8C250.8,468.6,249.8,468.7,248.7,468.7z M248.1,453.9c-1.3,0-2.4,0.4-3.1,1.3c-0.8,0.9-1.2,2-1.4,3.5h8.5
			c0-1.6-0.3-2.7-1-3.6C250.4,454.3,249.4,453.9,248.1,453.9z"/>
		<path class="st7" d="M279.3,468.4l-7.4-19.3h-0.1c0.1,1.5,0.2,3.3,0.2,5.4v13.8h-2.3v-21.7h3.8l6.9,17.9h0.1l6.9-17.9h3.8v21.7
			h-2.5v-14c0-1.6,0.1-3.3,0.2-5.2h-0.1l-7.4,19.2H279.3z"/>
		<path class="st7" d="M311.7,460.2c0,2.7-0.7,4.7-2,6.2c-1.3,1.5-3.2,2.2-5.5,2.2c-1.5,0-2.7-0.3-3.9-1c-1.1-0.7-2-1.7-2.6-2.9
			c-0.6-1.3-0.9-2.8-0.9-4.5c0-2.7,0.7-4.7,2-6.2c1.3-1.5,3.2-2.2,5.5-2.2c2.3,0,4.1,0.8,5.4,2.3C311,455.6,311.7,457.6,311.7,460.2
			z M299.3,460.2c0,2.1,0.4,3.7,1.2,4.8c0.8,1.1,2.1,1.6,3.7,1.6c1.6,0,2.8-0.5,3.7-1.6c0.8-1.1,1.3-2.7,1.3-4.8
			c0-2.1-0.4-3.6-1.3-4.7c-0.8-1.1-2.1-1.6-3.7-1.6c-1.6,0-2.8,0.5-3.7,1.6C299.7,456.5,299.3,458.1,299.3,460.2z"/>
		<path class="st7" d="M324.4,451.8c2.1,0,3.8,0.7,5,2.2s1.8,3.5,1.8,6.2c0,2.7-0.6,4.8-1.8,6.2c-1.2,1.5-2.9,2.2-5,2.2
			c-1.1,0-2-0.2-2.9-0.6c-0.9-0.4-1.6-1-2.2-1.8h-0.2l-0.5,2.1h-1.8v-23.1h2.5v5.6c0,1.3,0,2.4-0.1,3.4h0.1
			C320.5,452.6,322.2,451.8,324.4,451.8z M324.1,453.9c-1.7,0-2.9,0.5-3.6,1.4c-0.7,1-1.1,2.6-1.1,4.9c0,2.3,0.4,3.9,1.1,4.9
			c0.8,1,2,1.5,3.7,1.5c1.5,0,2.6-0.6,3.4-1.7c0.7-1.1,1.1-2.7,1.1-4.8c0-2.1-0.4-3.7-1.1-4.7C326.8,454.4,325.6,453.9,324.1,453.9z
			"/>
		<path class="st7" d="M336.1,447.7c0-0.6,0.1-1,0.4-1.2c0.3-0.3,0.6-0.4,1-0.4c0.4,0,0.7,0.1,1,0.4c0.3,0.3,0.4,0.7,0.4,1.2
			c0,0.6-0.1,1-0.4,1.2c-0.3,0.3-0.6,0.4-1,0.4c-0.4,0-0.8-0.1-1-0.4C336.3,448.6,336.1,448.2,336.1,447.7z M338.8,468.4h-2.5v-16.3
			h2.5V468.4z"/>
		<path class="st7" d="M347.2,468.4h-2.5v-23.1h2.5V468.4z"/>
		<path class="st7" d="M353,447.7c0-0.6,0.1-1,0.4-1.2c0.3-0.3,0.6-0.4,1-0.4c0.4,0,0.7,0.1,1,0.4c0.3,0.3,0.4,0.7,0.4,1.2
			c0,0.6-0.1,1-0.4,1.2c-0.3,0.3-0.6,0.4-1,0.4c-0.4,0-0.8-0.1-1-0.4C353.1,448.6,353,448.2,353,447.7z M355.7,468.4h-2.5v-16.3h2.5
			V468.4z"/>
		<path class="st7" d="M367.3,466.6c0.4,0,0.9,0,1.3-0.1c0.4-0.1,0.7-0.1,1-0.2v1.9c-0.3,0.1-0.7,0.2-1.2,0.3
			c-0.5,0.1-1,0.1-1.4,0.1c-3.1,0-4.7-1.7-4.7-5V454h-2.3v-1.2l2.3-1l1-3.5h1.4v3.8h4.7v1.9h-4.7v9.6c0,1,0.2,1.7,0.7,2.3
			C365.8,466.4,366.5,466.6,367.3,466.6z"/>
		<path class="st7" d="M372.5,452.1h2.6l3.6,9.3c0.8,2.1,1.3,3.7,1.5,4.6h0.1c0.1-0.5,0.4-1.4,0.8-2.6c0.4-1.2,1.8-5,4-11.3h2.6
			l-7,18.5c-0.7,1.8-1.5,3.1-2.4,3.9c-0.9,0.8-2.1,1.2-3.4,1.2c-0.8,0-1.5-0.1-2.2-0.3v-2c0.5,0.1,1.2,0.2,1.8,0.2
			c1.7,0,2.9-1,3.6-2.9l0.9-2.3L372.5,452.1z"/>
		<path class="st7" d="M389.6,466.8c0-0.7,0.2-1.2,0.5-1.5c0.3-0.3,0.7-0.5,1.3-0.5c0.6,0,1,0.2,1.3,0.5c0.3,0.3,0.5,0.8,0.5,1.5
			c0,0.6-0.2,1.1-0.5,1.5c-0.3,0.3-0.8,0.5-1.3,0.5c-0.5,0-0.9-0.2-1.3-0.5C389.8,468,389.6,467.5,389.6,466.8z"/>
		<path class="st7" d="M418.4,468.4l-7.4-19.3h-0.1c0.1,1.5,0.2,3.3,0.2,5.4v13.8h-2.3v-21.7h3.8l6.9,17.9h0.1l6.9-17.9h3.8v21.7
			h-2.5v-14c0-1.6,0.1-3.3,0.2-5.2h-0.1l-7.4,19.2H418.4z"/>
		<path class="st7" d="M450.8,460.2c0,2.7-0.7,4.7-2,6.2c-1.3,1.5-3.2,2.2-5.5,2.2c-1.5,0-2.7-0.3-3.9-1c-1.1-0.7-2-1.7-2.6-2.9
			c-0.6-1.3-0.9-2.8-0.9-4.5c0-2.7,0.7-4.7,2-6.2c1.3-1.5,3.2-2.2,5.5-2.2c2.3,0,4.1,0.8,5.4,2.3
			C450.1,455.6,450.8,457.6,450.8,460.2z M438.4,460.2c0,2.1,0.4,3.7,1.2,4.8c0.8,1.1,2.1,1.6,3.7,1.6c1.6,0,2.8-0.5,3.7-1.6
			c0.8-1.1,1.3-2.7,1.3-4.8c0-2.1-0.4-3.6-1.3-4.7c-0.8-1.1-2.1-1.6-3.7-1.6c-1.6,0-2.8,0.5-3.7,1.6
			C438.8,456.5,438.4,458.1,438.4,460.2z"/>
		<path class="st7" d="M463.4,451.8c0.7,0,1.4,0.1,1.9,0.2l-0.3,2.3c-0.7-0.1-1.3-0.2-1.8-0.2c-1.3,0-2.4,0.5-3.4,1.6
			c-0.9,1.1-1.4,2.4-1.4,4v8.7H456v-16.3h2l0.3,3h0.1c0.6-1.1,1.3-1.9,2.2-2.5C461.4,452.1,462.4,451.8,463.4,451.8z"/>
		<path class="st7" d="M476,468.7c-2.4,0-4.3-0.7-5.7-2.2c-1.4-1.5-2.1-3.5-2.1-6.1c0-2.6,0.6-4.7,1.9-6.3s3-2.3,5.2-2.3
			c2,0,3.7,0.7,4.8,2c1.2,1.3,1.8,3.1,1.8,5.3v1.6h-11.2c0,1.9,0.5,3.4,1.4,4.4c0.9,1,2.2,1.5,3.9,1.5c1.8,0,3.5-0.4,5.2-1.1v2.2
			c-0.9,0.4-1.7,0.6-2.5,0.8C478,468.6,477.1,468.7,476,468.7z M475.3,453.9c-1.3,0-2.4,0.4-3.1,1.3c-0.8,0.9-1.2,2-1.4,3.5h8.5
			c0-1.6-0.3-2.7-1-3.6C477.6,454.3,476.6,453.9,475.3,453.9z"/>
		<path class="st7" d="M506.2,448.6c-2.4,0-4.3,0.8-5.7,2.4s-2.1,3.8-2.1,6.5c0,2.8,0.7,5,2,6.6c1.3,1.6,3.2,2.3,5.7,2.3
			c1.5,0,3.2-0.3,5.2-0.8v2.2c-1.5,0.6-3.4,0.8-5.6,0.8c-3.2,0-5.7-1-7.4-2.9c-1.7-1.9-2.6-4.7-2.6-8.3c0-2.2,0.4-4.2,1.3-5.9
			c0.8-1.7,2-3,3.6-3.9c1.6-0.9,3.4-1.4,5.6-1.4c2.3,0,4.3,0.4,6,1.2l-1.1,2.2C509.5,449,507.8,448.6,506.2,448.6z"/>
		<path class="st7" d="M530.2,460.2c0,2.7-0.7,4.7-2,6.2c-1.3,1.5-3.2,2.2-5.5,2.2c-1.5,0-2.7-0.3-3.9-1c-1.1-0.7-2-1.7-2.6-2.9
			c-0.6-1.3-0.9-2.8-0.9-4.5c0-2.7,0.7-4.7,2-6.2c1.3-1.5,3.2-2.2,5.5-2.2c2.3,0,4.1,0.8,5.4,2.3
			C529.5,455.6,530.2,457.6,530.2,460.2z M517.8,460.2c0,2.1,0.4,3.7,1.2,4.8c0.8,1.1,2.1,1.6,3.7,1.6c1.6,0,2.8-0.5,3.7-1.6
			c0.8-1.1,1.3-2.7,1.3-4.8c0-2.1-0.4-3.6-1.3-4.7c-0.8-1.1-2.1-1.6-3.7-1.6c-1.6,0-2.8,0.5-3.7,1.6
			C518.2,456.5,517.8,458.1,517.8,460.2z"/>
		<path class="st7" d="M546.5,468.4v-10.5c0-1.3-0.3-2.3-0.9-3c-0.6-0.7-1.6-1-2.8-1c-1.7,0-3,0.5-3.7,1.4c-0.8,0.9-1.2,2.4-1.2,4.6
			v8.5h-2.5v-16.3h2l0.4,2.2h0.1c0.5-0.8,1.2-1.4,2.1-1.9c0.9-0.4,1.9-0.7,3-0.7c2,0,3.4,0.5,4.4,1.4c1,0.9,1.5,2.5,1.5,4.5v10.6
			H546.5z"/>
		<path class="st7" d="M560.2,466.6c0.4,0,0.9,0,1.3-0.1c0.4-0.1,0.7-0.1,1-0.2v1.9c-0.3,0.1-0.7,0.2-1.2,0.3
			c-0.5,0.1-1,0.1-1.4,0.1c-3.2,0-4.7-1.7-4.7-5V454h-2.3v-1.2l2.3-1l1-3.5h1.4v3.8h4.7v1.9h-4.7v9.6c0,1,0.2,1.7,0.7,2.3
			C558.8,466.4,559.4,466.6,560.2,466.6z"/>
		<path class="st7" d="M574.2,451.8c0.7,0,1.4,0.1,1.9,0.2l-0.3,2.3c-0.7-0.1-1.3-0.2-1.8-0.2c-1.3,0-2.4,0.5-3.4,1.6
			c-0.9,1.1-1.4,2.4-1.4,4v8.7h-2.5v-16.3h2l0.3,3h0.1c0.6-1.1,1.3-1.9,2.2-2.5C572.2,452.1,573.2,451.8,574.2,451.8z"/>
		<path class="st7" d="M593.9,460.2c0,2.7-0.7,4.7-2,6.2c-1.3,1.5-3.2,2.2-5.5,2.2c-1.5,0-2.7-0.3-3.9-1c-1.1-0.7-2-1.7-2.6-2.9
			c-0.6-1.3-0.9-2.8-0.9-4.5c0-2.7,0.7-4.7,2-6.2c1.3-1.5,3.2-2.2,5.5-2.2c2.3,0,4.1,0.8,5.4,2.3
			C593.3,455.6,593.9,457.6,593.9,460.2z M581.5,460.2c0,2.1,0.4,3.7,1.2,4.8c0.8,1.1,2.1,1.6,3.7,1.6c1.6,0,2.8-0.5,3.7-1.6
			c0.8-1.1,1.3-2.7,1.3-4.8c0-2.1-0.4-3.6-1.3-4.7c-0.8-1.1-2.1-1.6-3.7-1.6c-1.6,0-2.8,0.5-3.7,1.6
			C581.9,456.5,581.5,458.1,581.5,460.2z"/>
		<path class="st7" d="M601.6,468.4h-2.5v-23.1h2.5V468.4z"/>
		<path class="st7" d="M607.3,466.8c0-0.7,0.2-1.2,0.5-1.5c0.3-0.3,0.7-0.5,1.3-0.5c0.6,0,1,0.2,1.3,0.5c0.3,0.3,0.5,0.8,0.5,1.5
			c0,0.6-0.2,1.1-0.5,1.5c-0.3,0.3-0.8,0.5-1.3,0.5c-0.5,0-0.9-0.2-1.3-0.5C607.5,468,607.3,467.5,607.3,466.8z"/>
	</g>
</g>
</svg>
