<?xml version="1.0" encoding="utf-8"?>
<!-- Generator: Adobe Illustrator 20.0.0, SVG Export Plug-In . SVG Version: 6.00 Build 0)  -->
<svg version="1.1" id="Layer_1" xmlns="http://www.w3.org/2000/svg" xmlns:xlink="http://www.w3.org/1999/xlink" x="0px" y="0px"
	 viewBox="0 0 75 75" style="enable-background:new 0 0 75 75;" xml:space="preserve">
<style type="text/css">
	.st0{fill:#4DDB5A;}
</style>
<g>
	<polygon class="st0" points="35,51.9 19,36 23.5,31.5 35,43.1 64.1,15.2 68.4,19.8 	"/>
</g>
<g>
	<path class="st0" d="M62.2,40.6C60.6,52.8,50,62.5,37.5,62.5c-13.8,0-25-11.2-25-25s11.2-25,25-25c4.4,0,8.4,1.2,12.2,3.1l4.7-4.7
		c-5-2.8-10.6-4.7-16.9-4.7C20.3,6.2,6.2,20.3,6.2,37.5s14.1,31.2,31.2,31.2c16.2,0,29.4-12.2,30.9-28.1H62.2z"/>
</g>
</svg>
