<?xml version="1.0" encoding="utf-8"?>
<!-- Generator: Adobe Illustrator 20.0.0, SVG Export Plug-In . SVG Version: 6.00 Build 0)  -->
<svg version="1.1" id="Layer_1" xmlns="http://www.w3.org/2000/svg" xmlns:xlink="http://www.w3.org/1999/xlink" x="0px" y="0px"
	 viewBox="0 0 75 75" style="enable-background:new 0 0 75 75;" xml:space="preserve">
<style type="text/css">
	.st0{fill-rule:evenodd;clip-rule:evenodd;fill:#4DDB5A;}
</style>
<path class="st0" d="M11.6,47L11.6,47c1.7,0,3.1,1.4,3.1,3.1c0,1.7-1.4,3.1-3.1,3.1c-1.7,0-3.1-1.4-3.1-3.1C8.5,48.4,9.9,47,11.6,47
	 M11.6,43.8L11.6,43.8c3.4,0,6.2,2.8,6.2,6.2c0,3.4-2.8,6.2-6.2,6.2c-3.4,0-6.2-2.8-6.2-6.2C5.4,46.5,8.2,43.8,11.6,43.8"/>
<path class="st0" d="M60.9,47L60.9,47c1.7,0,3.1,1.4,3.1,3.1c0,1.7-1.4,3.1-3.1,3.1s-3.1-1.4-3.1-3.1C57.8,48.4,59.2,47,60.9,47
	 M60.9,43.8L60.9,43.8c3.4,0,6.2,2.8,6.2,6.2c0,3.4-2.8,6.2-6.2,6.2c-3.4,0-6.2-2.8-6.2-6.2C54.7,46.5,57.5,43.8,60.9,43.8"/>
<path class="st0" d="M14.1,26.8v7.7H4.8l1.2-6.5c0.1-0.8,0.8-1.4,1.5-1.4h6.7V26.8z M1.9,36.8l1.6-9.3v0.1c0.3-1.9,1.9-3.3,3.8-3.3
	h10.6c0.9,0,1.6,0.7,1.6,1.6v8.6h3.1V20.4c0-0.9,0.7-1.6,1.6-1.6h49.3c0.9,0,1.6,0.7,1.6,1.6v29.7h-7.2c0,0,0-0.1,0-0.1
	c0-3.8-3.1-6.8-6.9-6.8c-3.8,0-6.9,3-6.9,6.8v0.1H18.5V50c0-3.8-3.1-6.8-6.9-6.8c-3.8,0-6.9,3-6.9,6.8v0.1H2.3L0,39.6l0.1,0
	C0,39.4,0,39.3,0,39.1C0,38,0.8,37,1.9,36.8L1.9,36.8z"/>
<polygon class="st0" points="54,50.1 56.6,50.1 58.1,46.1 63.7,46.1 67.2,50.1 71.4,50.1 65.8,42 65.8,41.8 53.9,41.8 "/>
</svg>
