<?xml version="1.0" encoding="utf-8"?>
<!-- Generator: Adobe Illustrator 20.0.0, SVG Export Plug-In . SVG Version: 6.00 Build 0)  -->
<svg version="1.1" xmlns="http://www.w3.org/2000/svg" xmlns:xlink="http://www.w3.org/1999/xlink" x="0px" y="0px"
	 viewBox="0 0 843.5 412.4" style="enable-background:new 0 0 843.5 412.4;" xml:space="preserve">
<style type="text/css">
	.st0{fill:#D3D3D3;}
</style>
<g id="Layer_1">
</g>
<g id="Layer_2">
	<g>
		<g>
			<path class="st0" d="M803.8,96.8v4.5h-10.3v28.6h-5.3v-28.6h-10.3v-4.5H803.8z"/>
			<path class="st0" d="M825.4,118.3c0.2,0.5,0.4,0.9,0.6,1.4c0.2-0.5,0.4-1,0.6-1.5c0.2-0.5,0.4-0.9,0.7-1.4l10.4-19.2
				c0.2-0.4,0.5-0.7,0.7-0.8s0.6-0.1,1.1-0.1h4v33h-4.7v-22.6c0-0.4,0-0.8,0-1.2c0-0.4,0-0.9,0.1-1.3l-10.6,19.6
				c-0.4,0.8-1,1.2-1.9,1.2h-0.8c-0.9,0-1.5-0.4-1.9-1.2l-10.8-19.7c0,0.5,0.1,0.9,0.1,1.3c0,0.4,0,0.8,0,1.2v22.6h-4.7v-33h4
				c0.5,0,0.8,0,1.1,0.1c0.3,0.1,0.5,0.3,0.7,0.8l10.6,19.2C825,117.4,825.2,117.8,825.4,118.3z"/>
		</g>
	</g>
	<g>
		<path class="st0" d="M29.8,8.9c-0.2,0.4-0.5,0.7-0.8,0.9c-0.3,0.2-0.6,0.3-1,0.3c-0.4,0-0.9-0.2-1.5-0.5c-0.5-0.4-1.2-0.8-2-1.2
			c-0.8-0.4-1.7-0.9-2.8-1.2S19.5,6.6,18,6.6c-1.4,0-2.6,0.2-3.6,0.5c-1,0.3-1.9,0.8-2.6,1.4c-0.7,0.6-1.2,1.3-1.6,2.2
			c-0.4,0.8-0.5,1.7-0.5,2.7c0,1.3,0.3,2.3,1,3.1c0.7,0.8,1.5,1.5,2.6,2.1c1.1,0.6,2.3,1.1,3.7,1.6c1.4,0.4,2.8,0.9,4.2,1.4
			c1.4,0.5,2.9,1.1,4.2,1.7c1.4,0.6,2.6,1.4,3.7,2.4s2,2.2,2.6,3.6s1,3.1,1,5.2c0,2.2-0.4,4.2-1.1,6.1c-0.7,1.9-1.8,3.6-3.3,5
			C27,47,25.2,48.2,23.1,49c-2.1,0.8-4.5,1.2-7.1,1.2c-1.6,0-3.1-0.2-4.6-0.5c-1.5-0.3-2.9-0.7-4.3-1.3c-1.4-0.6-2.6-1.2-3.8-2
			s-2.2-1.7-3.2-2.7l2.3-3.8c0.2-0.3,0.5-0.6,0.8-0.7C3.6,39,4,38.9,4.4,38.9c0.5,0,1.1,0.2,1.7,0.7c0.6,0.5,1.4,1,2.3,1.6
			c0.9,0.6,2,1.1,3.3,1.6c1.3,0.5,2.8,0.7,4.6,0.7c2.9,0,5.1-0.7,6.7-2.1c1.6-1.4,2.4-3.4,2.4-5.8c0-1.4-0.3-2.5-1-3.4
			c-0.7-0.9-1.5-1.6-2.6-2.2c-1.1-0.6-2.3-1.1-3.7-1.5c-1.4-0.4-2.8-0.8-4.2-1.3c-1.4-0.5-2.8-1-4.2-1.6c-1.4-0.6-2.6-1.4-3.7-2.5
			c-1.1-1-2-2.3-2.6-3.8s-1-3.3-1-5.6c0-1.8,0.3-3.5,1-5.2s1.7-3.1,3-4.4c1.3-1.3,3-2.3,4.9-3.1c2-0.8,4.2-1.2,6.7-1.2
			c2.8,0,5.4,0.4,7.8,1.3c2.4,0.9,4.4,2.1,6.1,3.8L29.8,8.9z"/>
		<path class="st0" d="M54.2,49.7h-8V0.5h8V49.7z"/>
		<path class="st0" d="M81.7,24.5L65.8,0.5h7.9c0.6,0,1,0.1,1.2,0.3c0.3,0.2,0.5,0.4,0.7,0.8l11.9,18.8c0.1-0.3,0.2-0.6,0.3-0.9
			c0.1-0.3,0.3-0.6,0.5-0.9l11.1-17c0.2-0.4,0.5-0.7,0.7-0.9c0.3-0.2,0.6-0.3,1-0.3h7.6l-16,23.5l16.5,25.6h-7.9
			c-0.5,0-1-0.1-1.3-0.4c-0.3-0.3-0.6-0.6-0.8-1L87.1,28.6c-0.1,0.3-0.2,0.5-0.3,0.8s-0.2,0.5-0.4,0.7L74.6,48.2
			c-0.2,0.4-0.5,0.7-0.8,1c-0.3,0.3-0.7,0.4-1.2,0.4h-7.4L81.7,24.5z"/>
		<path class="st0" d="M141.7,50.2c-4,0-7.6-0.6-10.8-1.9c-3.2-1.2-6-3-8.2-5.2c-2.3-2.2-4-4.9-5.3-7.9c-1.2-3.1-1.8-6.4-1.8-10.1
			c0-3.7,0.6-7.1,1.8-10.2s2.9-5.7,5.1-7.9s4.9-3.9,8-5.2C133.5,0.6,137,0,140.9,0c2,0,3.8,0.2,5.5,0.5c1.7,0.3,3.3,0.7,4.7,1.3
			c1.5,0.5,2.8,1.2,4,2c1.2,0.8,2.4,1.6,3.4,2.6l-2.3,3.7c-0.4,0.6-0.8,0.9-1.4,1.1c-0.6,0.1-1.2,0-1.8-0.4
			c-0.7-0.4-1.4-0.8-2.1-1.2c-0.7-0.4-1.6-0.8-2.5-1.2c-1-0.4-2.1-0.7-3.3-0.9c-1.3-0.2-2.7-0.4-4.4-0.4c-2.6,0-4.9,0.4-7,1.3
			c-2.1,0.9-3.9,2.1-5.3,3.7c-1.5,1.6-2.6,3.5-3.4,5.7c-0.8,2.3-1.2,4.8-1.2,7.5c0,2.9,0.4,5.6,1.3,7.9c0.8,2.3,2,4.3,3.6,5.9
			c1.5,1.6,3.4,2.8,5.6,3.7c2.2,0.8,4.6,1.3,7.4,1.3c2,0,3.8-0.2,5.4-0.6c1.6-0.4,3.1-1,4.7-1.8v-9.8h-6.9c-0.5,0-0.9-0.1-1.2-0.4
			c-0.3-0.3-0.4-0.7-0.4-1.1v-4.5h15.7v19.4C153.8,48.5,148.1,50.2,141.7,50.2z"/>
		<path class="st0" d="M181,49.7h-8V0.5h8V49.7z"/>
		<path class="st0" d="M205.4,43h20.4v6.7h-28.4V0.5h8V43z"/>
		<path class="st0" d="M245.4,43h20.4v6.7h-28.4V0.5h8V43z"/>
	</g>
	<g>
		<path class="st0" d="M78.6,377.8v4.2h-8.3v23.5h-5.2V382h-8.4v-4.2H78.6z"/>
		<path class="st0" d="M83.2,405.5V377h4.7v10.9c0.8-0.7,1.6-1.3,2.5-1.8c0.9-0.4,2-0.7,3.2-0.7c1.1,0,2,0.2,2.9,0.5
			c0.8,0.4,1.5,0.9,2.1,1.5s1,1.4,1.3,2.4c0.3,0.9,0.4,1.9,0.4,3v12.5h-4.7V393c0-1.2-0.3-2.1-0.8-2.8c-0.6-0.7-1.4-1-2.5-1
			c-0.8,0-1.6,0.2-2.3,0.6c-0.7,0.4-1.4,0.9-2,1.5v14.2H83.2z"/>
		<path class="st0" d="M114.6,385.5c1.2,0,2.4,0.2,3.4,0.6s1.9,1,2.7,1.7c0.8,0.8,1.3,1.7,1.8,2.8c0.4,1.1,0.6,2.4,0.6,3.8
			c0,0.4,0,0.7,0,0.9c0,0.2-0.1,0.4-0.2,0.6c-0.1,0.1-0.2,0.2-0.3,0.3c-0.1,0.1-0.3,0.1-0.5,0.1h-12.2c0.1,2,0.7,3.5,1.6,4.4
			c0.9,0.9,2.2,1.4,3.8,1.4c0.8,0,1.4-0.1,2-0.3c0.6-0.2,1-0.4,1.5-0.6c0.4-0.2,0.8-0.4,1.1-0.6c0.3-0.2,0.6-0.3,0.9-0.3
			c0.2,0,0.4,0,0.5,0.1c0.1,0.1,0.3,0.2,0.4,0.3l1.4,1.7c-0.5,0.6-1.1,1.1-1.8,1.5c-0.7,0.4-1.3,0.7-2,1c-0.7,0.3-1.4,0.4-2.2,0.5
			c-0.7,0.1-1.4,0.2-2.1,0.2c-1.4,0-2.6-0.2-3.8-0.7c-1.2-0.5-2.2-1.1-3.1-2c-0.9-0.9-1.6-2-2.1-3.3c-0.5-1.3-0.7-2.8-0.7-4.6
			c0-1.3,0.2-2.6,0.7-3.8c0.4-1.2,1.1-2.2,1.9-3.1c0.8-0.9,1.8-1.6,3-2.1C111.9,385.8,113.2,385.5,114.6,385.5z M114.7,388.9
			c-1.4,0-2.5,0.4-3.2,1.2c-0.8,0.8-1.3,1.9-1.5,3.3h8.9c0-0.6-0.1-1.2-0.2-1.7c-0.2-0.5-0.4-1-0.8-1.4c-0.3-0.4-0.8-0.7-1.3-1
			C116.1,389,115.4,388.9,114.7,388.9z"/>
		<path class="st0" d="M143.1,395.7v9.8h-5.2v-27.7h9c1.9,0,3.5,0.2,4.8,0.7c1.4,0.4,2.5,1,3.4,1.8c0.9,0.8,1.5,1.7,2,2.8
			c0.4,1.1,0.6,2.3,0.6,3.6c0,1.3-0.2,2.6-0.7,3.7c-0.4,1.1-1.1,2.1-2,2.9c-0.9,0.8-2,1.4-3.4,1.9c-1.3,0.4-2.9,0.7-4.7,0.7H143.1z
			 M143.1,391.7h3.9c0.9,0,1.8-0.1,2.5-0.4c0.7-0.2,1.3-0.6,1.7-1c0.5-0.4,0.8-1,1-1.6c0.2-0.6,0.3-1.3,0.3-2.1c0-0.7-0.1-1.4-0.3-2
			c-0.2-0.6-0.6-1.1-1-1.5c-0.5-0.4-1-0.7-1.7-1c-0.7-0.2-1.5-0.3-2.5-0.3h-3.9V391.7z"/>
		<path class="st0" d="M163,405.5v-19.7h2.8c0.5,0,0.8,0.1,1,0.3c0.2,0.2,0.3,0.5,0.4,0.9l0.3,2.4c0.7-1.2,1.5-2.2,2.5-2.9
			c0.9-0.7,2-1.1,3.2-1.1c1,0,1.8,0.2,2.4,0.7l-0.6,3.5c0,0.2-0.1,0.4-0.2,0.5c-0.1,0.1-0.3,0.1-0.5,0.1c-0.2,0-0.5,0-0.8-0.1
			c-0.3-0.1-0.8-0.1-1.3-0.1c-1,0-1.8,0.3-2.5,0.8c-0.7,0.5-1.3,1.3-1.8,2.4v12.2H163z"/>
		<path class="st0" d="M188.6,385.5c1.5,0,2.8,0.2,4,0.7s2.2,1.1,3.1,2c0.8,0.9,1.5,1.9,2,3.2c0.5,1.3,0.7,2.7,0.7,4.2
			c0,1.6-0.2,3-0.7,4.2c-0.5,1.3-1.1,2.3-2,3.2c-0.8,0.9-1.9,1.6-3.1,2s-2.5,0.7-4,0.7c-1.5,0-2.8-0.2-4-0.7c-1.2-0.5-2.2-1.2-3.1-2
			c-0.9-0.9-1.5-1.9-2-3.2c-0.5-1.3-0.7-2.7-0.7-4.2c0-1.5,0.2-2.9,0.7-4.2c0.5-1.3,1.1-2.3,2-3.2c0.8-0.9,1.9-1.5,3.1-2
			C185.8,385.7,187.1,385.5,188.6,385.5z M188.6,402.1c1.6,0,2.8-0.5,3.6-1.6c0.8-1.1,1.2-2.7,1.2-4.8c0-2.1-0.4-3.7-1.2-4.9
			c-0.8-1.1-2-1.7-3.6-1.7c-1.7,0-2.9,0.6-3.7,1.7c-0.8,1.1-1.2,2.7-1.2,4.8c0,2.1,0.4,3.7,1.2,4.8
			C185.7,401.6,186.9,402.1,188.6,402.1z"/>
		<path class="st0" d="M207,395.3l-6.5-9.5h4.6c0.3,0,0.6,0,0.8,0.1c0.2,0.1,0.3,0.3,0.4,0.5l4.1,6.6c0.1-0.2,0.1-0.4,0.2-0.7
			c0.1-0.2,0.2-0.4,0.4-0.7l3.3-5.2c0.2-0.2,0.3-0.4,0.5-0.5c0.2-0.1,0.4-0.2,0.6-0.2h4.4l-6.5,9.3l6.7,10.4h-4.6
			c-0.3,0-0.6-0.1-0.8-0.3c-0.2-0.2-0.4-0.4-0.5-0.6l-4.2-6.8c-0.1,0.5-0.3,0.8-0.5,1.1l-3.7,5.7c-0.1,0.2-0.3,0.4-0.5,0.6
			c-0.2,0.2-0.5,0.3-0.8,0.3h-4.2L207,395.3z"/>
		<path class="st0" d="M230.3,380.1c0,0.4-0.1,0.8-0.2,1.1c-0.2,0.4-0.4,0.7-0.7,0.9c-0.3,0.3-0.6,0.5-1,0.6
			c-0.4,0.2-0.8,0.2-1.2,0.2c-0.4,0-0.8-0.1-1.2-0.2c-0.4-0.2-0.7-0.4-0.9-0.6c-0.3-0.3-0.5-0.6-0.6-0.9c-0.2-0.4-0.2-0.7-0.2-1.1
			c0-0.4,0.1-0.8,0.2-1.2c0.2-0.4,0.4-0.7,0.6-1c0.3-0.3,0.6-0.5,0.9-0.6c0.4-0.2,0.8-0.2,1.2-0.2c0.4,0,0.8,0.1,1.2,0.2
			c0.4,0.2,0.7,0.4,1,0.6c0.3,0.3,0.5,0.6,0.7,1C230.2,379.3,230.3,379.7,230.3,380.1z M229.6,385.8v19.7h-4.7v-19.7H229.6z"/>
		<path class="st0" d="M236.5,405.5v-19.7h2.9c0.6,0,1,0.3,1.2,0.9l0.3,1.5c0.3-0.4,0.7-0.7,1.1-1.1c0.4-0.3,0.8-0.6,1.2-0.8
			c0.4-0.2,0.9-0.4,1.4-0.5c0.5-0.1,1-0.2,1.6-0.2c1.2,0,2.3,0.3,3.1,1c0.8,0.7,1.4,1.6,1.8,2.7c0.3-0.7,0.7-1.2,1.2-1.7
			c0.5-0.5,1-0.8,1.5-1.1c0.5-0.3,1.1-0.5,1.8-0.7c0.6-0.1,1.2-0.2,1.9-0.2c1.1,0,2.1,0.2,2.9,0.5c0.8,0.3,1.6,0.8,2.1,1.5
			c0.6,0.6,1,1.4,1.3,2.3c0.3,0.9,0.5,2,0.5,3.2v12.5h-4.7V393c0-1.3-0.3-2.2-0.8-2.8c-0.5-0.6-1.4-0.9-2.4-0.9
			c-0.5,0-0.9,0.1-1.4,0.2c-0.4,0.2-0.8,0.4-1.1,0.7c-0.3,0.3-0.6,0.7-0.7,1.2c-0.2,0.5-0.3,1-0.3,1.6v12.5h-4.8V393
			c0-1.3-0.3-2.3-0.8-2.9c-0.5-0.6-1.3-0.9-2.3-0.9c-0.7,0-1.3,0.2-1.9,0.5c-0.6,0.3-1.1,0.8-1.7,1.4v14.4H236.5z"/>
		<path class="st0" d="M276.1,380.1c0,0.4-0.1,0.8-0.2,1.1c-0.2,0.4-0.4,0.7-0.7,0.9c-0.3,0.3-0.6,0.5-1,0.6
			c-0.4,0.2-0.8,0.2-1.2,0.2c-0.4,0-0.8-0.1-1.2-0.2c-0.4-0.2-0.7-0.4-0.9-0.6c-0.3-0.3-0.5-0.6-0.6-0.9c-0.2-0.4-0.2-0.7-0.2-1.1
			c0-0.4,0.1-0.8,0.2-1.2c0.2-0.4,0.4-0.7,0.6-1c0.3-0.3,0.6-0.5,0.9-0.6c0.4-0.2,0.8-0.2,1.2-0.2c0.4,0,0.8,0.1,1.2,0.2
			c0.4,0.2,0.7,0.4,1,0.6c0.3,0.3,0.5,0.6,0.7,1C276,379.3,276.1,379.7,276.1,380.1z M275.4,385.8v19.7h-4.7v-19.7H275.4z"/>
		<path class="st0" d="M288.7,405.8c-1.7,0-3-0.5-3.9-1.4c-0.9-1-1.4-2.3-1.4-4v-11h-2c-0.3,0-0.5-0.1-0.7-0.3
			c-0.2-0.2-0.3-0.4-0.3-0.7v-1.9l3.2-0.5l1-5.4c0.1-0.3,0.2-0.5,0.4-0.6c0.2-0.1,0.4-0.2,0.7-0.2h2.5v6.2h5.2v3.4h-5.2V400
			c0,0.6,0.2,1.1,0.5,1.4c0.3,0.3,0.7,0.5,1.2,0.5c0.3,0,0.5,0,0.7-0.1c0.2-0.1,0.4-0.1,0.5-0.2c0.1-0.1,0.3-0.2,0.4-0.2
			c0.1-0.1,0.2-0.1,0.3-0.1c0.1,0,0.3,0,0.3,0.1c0.1,0.1,0.2,0.2,0.3,0.3l1.4,2.3c-0.7,0.6-1.5,1-2.4,1.3
			C290.6,405.6,289.7,405.8,288.7,405.8z"/>
		<path class="st0" d="M305.6,410.9c-0.1,0.3-0.3,0.6-0.5,0.8c-0.2,0.2-0.6,0.3-1,0.3h-3.5l3.7-7.9l-8-18.2h4.1
			c0.4,0,0.7,0.1,0.9,0.3c0.2,0.2,0.4,0.4,0.5,0.6l4.2,10.2c0.1,0.3,0.3,0.7,0.4,1c0.1,0.4,0.2,0.7,0.3,1.1c0.1-0.4,0.2-0.7,0.3-1.1
			c0.1-0.3,0.3-0.7,0.4-1.1l3.9-10.2c0.1-0.3,0.3-0.5,0.5-0.6s0.5-0.3,0.8-0.3h3.8L305.6,410.9z"/>
		<path class="st0" d="M354.2,405.5h-4c-0.4,0-0.8-0.1-1.1-0.3c-0.3-0.2-0.5-0.5-0.6-0.8l-2.1-5.7h-11.5l-2.1,5.7
			c-0.1,0.3-0.3,0.6-0.6,0.8c-0.3,0.2-0.7,0.4-1.1,0.4h-4l10.9-27.7h5.3L354.2,405.5z M336.2,395h8.8l-3.4-9.2
			c-0.2-0.4-0.3-0.9-0.5-1.4c-0.2-0.6-0.4-1.2-0.5-1.8c-0.2,0.7-0.4,1.3-0.5,1.8c-0.2,0.6-0.3,1.1-0.5,1.5L336.2,395z"/>
		<path class="st0" d="M358.3,411.9v-26.1h2.9c0.3,0,0.6,0.1,0.8,0.2c0.2,0.1,0.4,0.4,0.4,0.7l0.4,1.8c0.8-0.9,1.7-1.6,2.7-2.2
			c1-0.6,2.2-0.8,3.6-0.8c1.1,0,2.1,0.2,2.9,0.7c0.9,0.4,1.7,1.1,2.3,1.9c0.6,0.8,1.1,1.9,1.5,3.1c0.4,1.2,0.5,2.7,0.5,4.3
			c0,1.5-0.2,2.8-0.6,4.1c-0.4,1.3-1,2.3-1.7,3.3c-0.7,0.9-1.6,1.6-2.7,2.2s-2.2,0.8-3.5,0.8c-1.1,0-2.1-0.2-2.8-0.5
			c-0.8-0.3-1.5-0.8-2.1-1.4v8H358.3z M367.5,389.2c-1,0-1.8,0.2-2.5,0.6c-0.7,0.4-1.3,1-1.9,1.8v8.8c0.5,0.7,1.1,1.1,1.8,1.4
			c0.6,0.3,1.3,0.4,2,0.4c0.7,0,1.4-0.1,1.9-0.4c0.6-0.3,1.1-0.7,1.5-1.2c0.4-0.5,0.7-1.2,0.9-2.1c0.2-0.8,0.3-1.8,0.3-3
			c0-1.2-0.1-2.1-0.3-2.9c-0.2-0.8-0.5-1.4-0.8-1.9c-0.3-0.5-0.8-0.9-1.3-1.1C368.7,389.3,368.1,389.2,367.5,389.2z"/>
		<path class="st0" d="M381.5,411.9v-26.1h2.9c0.3,0,0.6,0.1,0.8,0.2c0.2,0.1,0.4,0.4,0.4,0.7l0.4,1.8c0.8-0.9,1.7-1.6,2.7-2.2
			c1-0.6,2.2-0.8,3.6-0.8c1.1,0,2.1,0.2,2.9,0.7c0.9,0.4,1.7,1.1,2.3,1.9c0.6,0.8,1.1,1.9,1.5,3.1c0.4,1.2,0.5,2.7,0.5,4.3
			c0,1.5-0.2,2.8-0.6,4.1c-0.4,1.3-1,2.3-1.7,3.3c-0.7,0.9-1.6,1.6-2.7,2.2s-2.2,0.8-3.5,0.8c-1.1,0-2.1-0.2-2.8-0.5
			c-0.8-0.3-1.5-0.8-2.1-1.4v8H381.5z M390.7,389.2c-1,0-1.8,0.2-2.5,0.6c-0.7,0.4-1.3,1-1.9,1.8v8.8c0.5,0.7,1.1,1.1,1.8,1.4
			c0.6,0.3,1.3,0.4,2,0.4c0.7,0,1.4-0.1,1.9-0.4c0.6-0.3,1.1-0.7,1.5-1.2c0.4-0.5,0.7-1.2,0.9-2.1c0.2-0.8,0.3-1.8,0.3-3
			c0-1.2-0.1-2.1-0.3-2.9c-0.2-0.8-0.5-1.4-0.8-1.9c-0.3-0.5-0.8-0.9-1.3-1.1C391.9,389.3,391.3,389.2,390.7,389.2z"/>
		<path class="st0" d="M414.5,405.5v-16.1l-1.7-0.3c-0.4-0.1-0.7-0.2-0.9-0.4c-0.2-0.2-0.3-0.5-0.3-0.8V386h2.9v-1.5
			c0-1.1,0.2-2.1,0.5-3c0.3-0.9,0.8-1.7,1.5-2.3c0.6-0.6,1.4-1.1,2.3-1.4c0.9-0.3,1.9-0.5,3.1-0.5c0.9,0,1.8,0.1,2.5,0.4l-0.1,2.4
			c0,0.4-0.2,0.6-0.5,0.7c-0.3,0.1-0.7,0.1-1.1,0.1c-0.6,0-1.1,0.1-1.5,0.2c-0.4,0.1-0.8,0.3-1.1,0.6c-0.3,0.3-0.5,0.7-0.7,1.2
			c-0.2,0.5-0.2,1.1-0.2,1.8v1.3h5.1v3.4h-5v16.1H414.5z"/>
		<path class="st0" d="M437,385.5c1.5,0,2.8,0.2,4,0.7c1.2,0.5,2.2,1.1,3.1,2c0.8,0.9,1.5,1.9,2,3.2c0.5,1.3,0.7,2.7,0.7,4.2
			c0,1.6-0.2,3-0.7,4.2c-0.5,1.3-1.1,2.3-2,3.2c-0.8,0.9-1.9,1.6-3.1,2c-1.2,0.5-2.5,0.7-4,0.7c-1.5,0-2.8-0.2-4-0.7
			c-1.2-0.5-2.2-1.2-3.1-2c-0.9-0.9-1.5-1.9-2-3.2c-0.5-1.3-0.7-2.7-0.7-4.2c0-1.5,0.2-2.9,0.7-4.2c0.5-1.3,1.1-2.3,2-3.2
			c0.8-0.9,1.9-1.5,3.1-2C434.2,385.7,435.5,385.5,437,385.5z M437,402.1c1.6,0,2.8-0.5,3.6-1.6c0.8-1.1,1.2-2.7,1.2-4.8
			c0-2.1-0.4-3.7-1.2-4.9c-0.8-1.1-2-1.7-3.6-1.7c-1.7,0-2.9,0.6-3.7,1.7c-0.8,1.1-1.2,2.7-1.2,4.8c0,2.1,0.4,3.7,1.2,4.8
			C434.1,401.6,435.3,402.1,437,402.1z"/>
		<path class="st0" d="M451.9,405.5v-19.7h2.8c0.5,0,0.8,0.1,1,0.3c0.2,0.2,0.3,0.5,0.4,0.9l0.3,2.4c0.7-1.2,1.5-2.2,2.5-2.9
			c0.9-0.7,2-1.1,3.2-1.1c1,0,1.8,0.2,2.4,0.7l-0.6,3.5c0,0.2-0.1,0.4-0.3,0.5c-0.1,0.1-0.3,0.1-0.5,0.1c-0.2,0-0.5,0-0.8-0.1
			c-0.3-0.1-0.8-0.1-1.3-0.1c-1,0-1.8,0.3-2.5,0.8c-0.7,0.5-1.3,1.3-1.8,2.4v12.2H451.9z"/>
		<path class="st0" d="M493.2,382.8c-0.1,0.3-0.3,0.5-0.5,0.6s-0.4,0.2-0.7,0.2c-0.3,0-0.5-0.1-0.9-0.3c-0.3-0.2-0.7-0.4-1.1-0.7
			c-0.4-0.2-0.9-0.5-1.5-0.7c-0.6-0.2-1.3-0.3-2.1-0.3c-0.7,0-1.3,0.1-1.9,0.3c-0.5,0.2-1,0.4-1.3,0.7c-0.4,0.3-0.6,0.7-0.8,1.1
			c-0.2,0.4-0.3,0.9-0.3,1.4c0,0.7,0.2,1.2,0.5,1.6c0.4,0.4,0.8,0.8,1.4,1.1c0.6,0.3,1.3,0.6,2,0.8c0.8,0.2,1.5,0.5,2.3,0.8
			c0.8,0.3,1.6,0.6,2.3,1c0.8,0.4,1.5,0.8,2.1,1.4c0.6,0.6,1.1,1.2,1.4,2c0.4,0.8,0.5,1.8,0.5,2.9c0,1.3-0.2,2.4-0.6,3.5
			c-0.4,1.1-1.1,2-1.9,2.9c-0.8,0.8-1.8,1.5-3,1.9c-1.2,0.5-2.5,0.7-4.1,0.7c-0.9,0-1.8-0.1-2.6-0.3c-0.9-0.2-1.7-0.4-2.5-0.7
			c-0.8-0.3-1.5-0.7-2.2-1.1c-0.7-0.4-1.3-0.9-1.8-1.5l1.5-2.5c0.1-0.2,0.3-0.3,0.5-0.5c0.2-0.1,0.4-0.2,0.7-0.2
			c0.3,0,0.7,0.1,1,0.4c0.4,0.3,0.8,0.6,1.3,0.9c0.5,0.3,1.1,0.6,1.8,0.9c0.7,0.3,1.5,0.4,2.5,0.4c1.5,0,2.6-0.3,3.4-1
			c0.8-0.7,1.2-1.7,1.2-3c0-0.7-0.2-1.3-0.5-1.8c-0.4-0.5-0.8-0.8-1.4-1.2c-0.6-0.3-1.3-0.6-2-0.8c-0.8-0.2-1.5-0.5-2.3-0.7
			c-0.8-0.3-1.6-0.6-2.3-0.9c-0.8-0.4-1.5-0.8-2.1-1.4c-0.6-0.6-1.1-1.3-1.4-2.2c-0.4-0.9-0.5-1.9-0.5-3.2c0-1,0.2-2,0.6-3
			c0.4-1,1-1.8,1.8-2.5c0.8-0.7,1.7-1.3,2.8-1.8c1.1-0.4,2.4-0.7,3.9-0.7c1.6,0,3.1,0.3,4.5,0.8c1.4,0.5,2.6,1.2,3.5,2.1
			L493.2,382.8z"/>
		<path class="st0" d="M505.9,380.1c0,0.4-0.1,0.8-0.3,1.1c-0.2,0.4-0.4,0.7-0.7,0.9c-0.3,0.3-0.6,0.5-1,0.6
			c-0.4,0.2-0.8,0.2-1.2,0.2c-0.4,0-0.8-0.1-1.2-0.2c-0.4-0.2-0.7-0.4-0.9-0.6c-0.3-0.3-0.5-0.6-0.6-0.9c-0.2-0.4-0.2-0.7-0.2-1.1
			c0-0.4,0.1-0.8,0.2-1.2c0.2-0.4,0.4-0.7,0.6-1c0.3-0.3,0.6-0.5,0.9-0.6c0.4-0.2,0.8-0.2,1.2-0.2c0.4,0,0.8,0.1,1.2,0.2
			c0.4,0.2,0.7,0.4,1,0.6c0.3,0.3,0.5,0.6,0.7,1C505.8,379.3,505.9,379.7,505.9,380.1z M505.2,385.8v19.7h-4.7v-19.7H505.2z"/>
		<path class="st0" d="M516.7,395.3l-6.5-9.5h4.6c0.3,0,0.6,0,0.8,0.1c0.2,0.1,0.3,0.3,0.4,0.5l4.1,6.6c0.1-0.2,0.1-0.4,0.2-0.7
			c0.1-0.2,0.2-0.4,0.4-0.7l3.3-5.2c0.2-0.2,0.3-0.4,0.5-0.5c0.2-0.1,0.4-0.2,0.6-0.2h4.3l-6.5,9.3l6.7,10.4h-4.6
			c-0.3,0-0.6-0.1-0.8-0.3c-0.2-0.2-0.4-0.4-0.5-0.6l-4.2-6.8c-0.1,0.5-0.3,0.8-0.5,1.1l-3.7,5.7c-0.1,0.2-0.3,0.4-0.5,0.6
			c-0.2,0.2-0.5,0.3-0.8,0.3H510L516.7,395.3z"/>
		<path class="st0" d="M541.1,385.5c0.8,0,1.6,0.1,2.4,0.3c0.7,0.2,1.4,0.4,2,0.8h5.7v1.8c0,0.3-0.1,0.5-0.2,0.7
			c-0.2,0.2-0.4,0.3-0.8,0.3l-1.8,0.3c0.1,0.3,0.2,0.7,0.3,1.1c0.1,0.4,0.1,0.8,0.1,1.2c0,1-0.2,1.9-0.6,2.6c-0.4,0.8-0.9,1.5-1.6,2
			c-0.7,0.5-1.5,1-2.4,1.3c-0.9,0.3-2,0.4-3.1,0.4c-0.7,0-1.5-0.1-2.2-0.2c-0.6,0.4-0.9,0.8-0.9,1.3c0,0.4,0.2,0.7,0.5,0.9
			c0.4,0.2,0.8,0.3,1.4,0.4c0.6,0.1,1.3,0.1,2,0.1c0.8,0,1.5,0,2.3,0.1c0.8,0.1,1.6,0.2,2.3,0.3c0.8,0.2,1.4,0.4,2,0.8
			c0.6,0.3,1.1,0.8,1.4,1.4c0.4,0.6,0.5,1.4,0.5,2.3c0,0.9-0.2,1.7-0.6,2.5c-0.4,0.8-1,1.6-1.9,2.2c-0.8,0.6-1.8,1.2-3,1.5
			c-1.2,0.4-2.5,0.6-4,0.6c-1.5,0-2.8-0.1-3.9-0.4c-1.1-0.3-2-0.7-2.7-1.2c-0.7-0.5-1.3-1-1.6-1.7c-0.4-0.6-0.5-1.3-0.5-2
			c0-0.9,0.3-1.7,0.8-2.3c0.6-0.6,1.3-1.1,2.3-1.5c-0.5-0.3-0.9-0.6-1.2-1.1c-0.3-0.4-0.4-1-0.4-1.7c0-0.3,0-0.6,0.2-0.9
			c0.1-0.3,0.3-0.6,0.5-0.9c0.2-0.3,0.5-0.6,0.8-0.9c0.3-0.3,0.7-0.5,1.1-0.7c-1-0.5-1.8-1.3-2.3-2.1c-0.6-0.9-0.9-1.9-0.9-3.1
			c0-1,0.2-1.8,0.6-2.6c0.4-0.8,0.9-1.5,1.6-2c0.7-0.6,1.5-1,2.5-1.3C539,385.6,540,385.5,541.1,385.5z M546.3,406.3
			c0-0.4-0.1-0.7-0.3-1c-0.2-0.2-0.5-0.4-0.9-0.6c-0.4-0.1-0.9-0.2-1.4-0.3s-1.1-0.1-1.7-0.1c-0.6,0-1.2,0-1.8,0
			c-0.6,0-1.2-0.1-1.8-0.2c-0.5,0.3-1,0.6-1.3,1c-0.3,0.4-0.5,0.9-0.5,1.4c0,0.3,0.1,0.7,0.3,1c0.2,0.3,0.4,0.6,0.8,0.8
			c0.4,0.2,0.9,0.4,1.5,0.5s1.3,0.2,2.2,0.2c0.9,0,1.6-0.1,2.3-0.2c0.6-0.1,1.2-0.3,1.6-0.6c0.4-0.2,0.7-0.5,0.9-0.9
			C546.2,407.1,546.3,406.7,546.3,406.3z M541.1,395.2c0.6,0,1.1-0.1,1.5-0.2c0.4-0.2,0.8-0.4,1.1-0.7c0.3-0.3,0.5-0.6,0.7-1
			c0.1-0.4,0.2-0.8,0.2-1.3c0-1-0.3-1.7-0.9-2.3c-0.6-0.6-1.5-0.9-2.6-0.9c-1.2,0-2,0.3-2.6,0.9c-0.6,0.6-0.9,1.3-0.9,2.3
			c0,0.5,0.1,0.9,0.2,1.3c0.1,0.4,0.4,0.7,0.7,1c0.3,0.3,0.7,0.5,1.1,0.7C540,395.1,540.5,395.2,541.1,395.2z"/>
		<path class="st0" d="M561.4,380.1c0,0.4-0.1,0.8-0.3,1.1c-0.2,0.4-0.4,0.7-0.7,0.9c-0.3,0.3-0.6,0.5-1,0.6
			c-0.4,0.2-0.8,0.2-1.2,0.2c-0.4,0-0.8-0.1-1.2-0.2c-0.4-0.2-0.7-0.4-1-0.6c-0.3-0.3-0.5-0.6-0.6-0.9c-0.2-0.4-0.2-0.7-0.2-1.1
			c0-0.4,0.1-0.8,0.2-1.2c0.2-0.4,0.4-0.7,0.6-1c0.3-0.3,0.6-0.5,1-0.6c0.4-0.2,0.7-0.2,1.2-0.2c0.4,0,0.8,0.1,1.2,0.2
			c0.4,0.2,0.7,0.4,1,0.6c0.3,0.3,0.5,0.6,0.7,1C561.4,379.3,561.4,379.7,561.4,380.1z M560.7,385.8v19.7H556v-19.7H560.7z"/>
		<path class="st0" d="M572.7,377v28.5h-4.7V377H572.7z"/>
		<path class="st0" d="M584.6,377v28.5h-4.7V377H584.6z"/>
		<path class="st0" d="M615.5,382.8c-0.1,0.3-0.3,0.5-0.5,0.6c-0.2,0.1-0.4,0.2-0.7,0.2c-0.3,0-0.5-0.1-0.9-0.3
			c-0.3-0.2-0.7-0.4-1.1-0.7c-0.4-0.2-0.9-0.5-1.5-0.7c-0.6-0.2-1.3-0.3-2.1-0.3c-0.7,0-1.3,0.1-1.9,0.3c-0.5,0.2-1,0.4-1.3,0.7
			c-0.4,0.3-0.6,0.7-0.8,1.1c-0.2,0.4-0.3,0.9-0.3,1.4c0,0.7,0.2,1.2,0.5,1.6c0.4,0.4,0.8,0.8,1.4,1.1c0.6,0.3,1.3,0.6,2.1,0.8
			c0.8,0.2,1.5,0.5,2.3,0.8c0.8,0.3,1.6,0.6,2.3,1c0.8,0.4,1.5,0.8,2.1,1.4c0.6,0.6,1.1,1.2,1.4,2c0.4,0.8,0.5,1.8,0.5,2.9
			c0,1.3-0.2,2.4-0.6,3.5c-0.4,1.1-1.1,2-1.9,2.9c-0.8,0.8-1.8,1.5-3,1.9c-1.2,0.5-2.6,0.7-4.1,0.7c-0.9,0-1.8-0.1-2.6-0.3
			c-0.9-0.2-1.7-0.4-2.5-0.7c-0.8-0.3-1.5-0.7-2.2-1.1c-0.7-0.4-1.3-0.9-1.8-1.5l1.5-2.5c0.1-0.2,0.3-0.3,0.5-0.5
			c0.2-0.1,0.4-0.2,0.7-0.2c0.3,0,0.7,0.1,1,0.4c0.4,0.3,0.8,0.6,1.3,0.9c0.5,0.3,1.1,0.6,1.8,0.9c0.7,0.3,1.5,0.4,2.5,0.4
			c1.5,0,2.6-0.3,3.4-1c0.8-0.7,1.2-1.7,1.2-3c0-0.7-0.2-1.3-0.5-1.8c-0.4-0.5-0.8-0.8-1.4-1.2c-0.6-0.3-1.3-0.6-2.1-0.8
			c-0.8-0.2-1.5-0.5-2.3-0.7c-0.8-0.3-1.6-0.6-2.3-0.9c-0.8-0.4-1.5-0.8-2.1-1.4c-0.6-0.6-1.1-1.3-1.4-2.2c-0.4-0.9-0.5-1.9-0.5-3.2
			c0-1,0.2-2,0.6-3c0.4-1,1-1.8,1.8-2.5c0.8-0.7,1.7-1.3,2.8-1.8c1.1-0.4,2.4-0.7,3.9-0.7c1.6,0,3.1,0.3,4.5,0.8
			c1.4,0.5,2.6,1.2,3.5,2.1L615.5,382.8z"/>
		<path class="st0" d="M630.6,385.5c1.2,0,2.4,0.2,3.4,0.6s1.9,1,2.7,1.7c0.8,0.8,1.3,1.7,1.8,2.8c0.4,1.1,0.6,2.4,0.6,3.8
			c0,0.4,0,0.7,0,0.9c0,0.2-0.1,0.4-0.2,0.6c-0.1,0.1-0.2,0.2-0.3,0.3c-0.1,0.1-0.3,0.1-0.5,0.1h-12.2c0.1,2,0.7,3.5,1.6,4.4
			c0.9,0.9,2.2,1.4,3.8,1.4c0.8,0,1.4-0.1,2-0.3c0.6-0.2,1-0.4,1.5-0.6c0.4-0.2,0.8-0.4,1.1-0.6c0.3-0.2,0.6-0.3,0.9-0.3
			c0.2,0,0.4,0,0.5,0.1c0.1,0.1,0.3,0.2,0.4,0.3l1.4,1.7c-0.5,0.6-1.1,1.1-1.8,1.5c-0.7,0.4-1.3,0.7-2,1c-0.7,0.3-1.4,0.4-2.2,0.5
			c-0.7,0.1-1.4,0.2-2.1,0.2c-1.4,0-2.6-0.2-3.8-0.7c-1.2-0.5-2.2-1.1-3.1-2s-1.6-2-2-3.3c-0.5-1.3-0.7-2.8-0.7-4.6
			c0-1.3,0.2-2.6,0.7-3.8c0.4-1.2,1.1-2.2,1.9-3.1c0.8-0.9,1.8-1.6,3-2.1C627.8,385.8,629.1,385.5,630.6,385.5z M630.7,388.9
			c-1.4,0-2.5,0.4-3.2,1.2c-0.8,0.8-1.3,1.9-1.5,3.3h8.9c0-0.6-0.1-1.2-0.2-1.7c-0.2-0.5-0.4-1-0.8-1.4c-0.3-0.4-0.8-0.7-1.3-1
			C632,389,631.4,388.9,630.7,388.9z"/>
		<path class="st0" d="M644.5,405.5v-19.7h2.9c0.6,0,1,0.3,1.2,0.9l0.3,1.6c0.4-0.4,0.8-0.8,1.3-1.1c0.4-0.3,0.9-0.6,1.4-0.9
			c0.5-0.2,1-0.4,1.6-0.6s1.2-0.2,1.8-0.2c1.1,0,2,0.2,2.9,0.5c0.8,0.4,1.5,0.9,2.1,1.5s1,1.4,1.3,2.4c0.3,0.9,0.4,1.9,0.4,3v12.5
			h-4.7V393c0-1.2-0.3-2.1-0.8-2.8c-0.6-0.7-1.4-1-2.5-1c-0.8,0-1.6,0.2-2.3,0.6c-0.7,0.4-1.4,0.9-2,1.5v14.2H644.5z"/>
		<path class="st0" d="M679.5,389.6c-0.1,0.2-0.3,0.3-0.4,0.4c-0.1,0.1-0.3,0.1-0.5,0.1c-0.2,0-0.5-0.1-0.7-0.2
			c-0.3-0.1-0.6-0.3-0.9-0.4c-0.3-0.2-0.7-0.3-1.2-0.4c-0.4-0.1-1-0.2-1.6-0.2c-0.9,0-1.7,0.2-2.2,0.6c-0.5,0.4-0.8,0.9-0.8,1.6
			c0,0.4,0.1,0.8,0.4,1.1c0.3,0.3,0.6,0.5,1.1,0.8c0.5,0.2,1,0.4,1.5,0.6c0.6,0.2,1.2,0.4,1.8,0.6c0.6,0.2,1.2,0.4,1.8,0.7
			c0.6,0.3,1.1,0.6,1.5,1s0.8,0.9,1.1,1.4c0.3,0.6,0.4,1.2,0.4,2c0,0.9-0.2,1.8-0.5,2.6c-0.3,0.8-0.8,1.5-1.5,2.1
			c-0.7,0.6-1.5,1-2.5,1.4c-1,0.3-2.1,0.5-3.4,0.5c-0.7,0-1.3-0.1-2-0.2c-0.6-0.1-1.3-0.3-1.9-0.5c-0.6-0.2-1.1-0.5-1.6-0.8
			c-0.5-0.3-0.9-0.6-1.3-1l1.1-1.8c0.1-0.2,0.3-0.4,0.5-0.5c0.2-0.1,0.4-0.2,0.7-0.2c0.3,0,0.6,0.1,0.8,0.3c0.3,0.2,0.6,0.3,0.9,0.5
			c0.3,0.2,0.8,0.4,1.2,0.5s1.1,0.3,1.8,0.3c0.6,0,1-0.1,1.4-0.2c0.4-0.1,0.7-0.3,1-0.5c0.3-0.2,0.5-0.5,0.6-0.8
			c0.1-0.3,0.2-0.6,0.2-0.9c0-0.5-0.1-0.8-0.4-1.1c-0.3-0.3-0.6-0.5-1.1-0.8c-0.5-0.2-1-0.4-1.6-0.6c-0.6-0.2-1.2-0.4-1.8-0.6
			c-0.6-0.2-1.2-0.4-1.8-0.7c-0.6-0.3-1.1-0.6-1.6-1c-0.5-0.4-0.8-0.9-1.1-1.6c-0.3-0.6-0.4-1.4-0.4-2.2c0-0.8,0.2-1.6,0.5-2.3
			c0.3-0.7,0.8-1.4,1.4-1.9s1.4-1,2.3-1.3c0.9-0.3,2-0.5,3.2-0.5c1.4,0,2.6,0.2,3.7,0.7c1.1,0.4,2,1,2.8,1.8L679.5,389.6z"/>
		<path class="st0" d="M694.3,385.5c1.2,0,2.4,0.2,3.4,0.6s1.9,1,2.7,1.7c0.8,0.8,1.3,1.7,1.8,2.8c0.4,1.1,0.6,2.4,0.6,3.8
			c0,0.4,0,0.7,0,0.9c0,0.2-0.1,0.4-0.2,0.6c-0.1,0.1-0.2,0.2-0.3,0.3c-0.1,0.1-0.3,0.1-0.5,0.1h-12.2c0.1,2,0.7,3.5,1.6,4.4
			c0.9,0.9,2.2,1.4,3.8,1.4c0.8,0,1.4-0.1,2-0.3c0.6-0.2,1-0.4,1.5-0.6c0.4-0.2,0.8-0.4,1.1-0.6c0.3-0.2,0.6-0.3,0.9-0.3
			c0.2,0,0.4,0,0.5,0.1c0.1,0.1,0.3,0.2,0.4,0.3l1.4,1.7c-0.5,0.6-1.1,1.1-1.8,1.5c-0.7,0.4-1.3,0.7-2,1c-0.7,0.3-1.4,0.4-2.2,0.5
			c-0.7,0.1-1.4,0.2-2.1,0.2c-1.4,0-2.6-0.2-3.8-0.7c-1.2-0.5-2.2-1.1-3.1-2s-1.6-2-2-3.3c-0.5-1.3-0.7-2.8-0.7-4.6
			c0-1.3,0.2-2.6,0.7-3.8c0.4-1.2,1.1-2.2,1.9-3.1c0.8-0.9,1.8-1.6,3-2.1C691.5,385.8,692.8,385.5,694.3,385.5z M694.3,388.9
			c-1.4,0-2.5,0.4-3.2,1.2c-0.8,0.8-1.3,1.9-1.5,3.3h8.9c0-0.6-0.1-1.2-0.2-1.7c-0.2-0.5-0.4-1-0.8-1.4c-0.3-0.4-0.8-0.7-1.3-1
			C695.7,389,695.1,388.9,694.3,388.9z"/>
	</g>
	<g>
		<path class="st0" d="M133.1,134.7c-1.3,2-2.6,3.5-4,4.3c-1.4,0.8-3.2,1.2-5.3,1.2c-2.3,0-4.7-0.6-7.3-1.9c-2.6-1.3-5.6-2.7-9-4.3
			c-3.4-1.6-7.3-3-11.7-4.3c-4.4-1.3-9.6-1.9-15.5-1.9c-9.3,0-16.6,2-21.9,5.9c-5.3,3.9-8,9.1-8,15.4c0,4.2,1.4,7.7,4.1,10.6
			c2.7,2.9,6.3,5.4,10.9,7.5c4.5,2.2,9.6,4.1,15.3,5.8c5.7,1.7,11.5,3.6,17.5,5.6c6,2,11.8,4.3,17.5,6.9c5.7,2.6,10.8,5.9,15.3,9.9
			c4.5,4,8.1,8.8,10.9,14.4c2.7,5.6,4.1,12.3,4.1,20.2c0,9.4-1.7,18.1-5.1,26c-3.4,7.9-8.4,14.8-15,20.6
			c-6.6,5.8-14.8,10.3-24.5,13.5c-9.7,3.2-20.8,4.9-33.4,4.9c-6.7,0-13.3-0.6-19.7-1.8c-6.4-1.2-12.6-2.9-18.5-5
			c-5.9-2.2-11.4-4.7-16.4-7.6c-5-2.9-9.4-6.1-13.2-9.5l10.9-17.9c1.4-2.2,3-3.8,4.9-5c1.9-1.1,4.3-1.7,7.2-1.7
			c2.9,0,5.7,0.8,8.3,2.5c2.6,1.7,5.6,3.4,9,5.3c3.4,1.9,7.5,3.7,12.1,5.3c4.6,1.6,10.5,2.5,17.6,2.5c5.6,0,10.4-0.7,14.4-2
			c4-1.3,7.3-3.1,9.9-5.2c2.6-2.2,4.5-4.7,5.7-7.5c1.2-2.9,1.8-5.8,1.8-8.9c0-4.6-1.4-8.3-4.1-11.2c-2.7-2.9-6.3-5.5-10.9-7.6
			c-4.5-2.2-9.6-4.1-15.4-5.8c-5.8-1.7-11.7-3.6-17.7-5.6c-6-2-11.9-4.4-17.7-7.1c-5.8-2.7-10.9-6.2-15.4-10.4
			c-4.5-4.2-8.1-9.3-10.9-15.4c-2.7-6.1-4.1-13.5-4.1-22.1c0-8,1.6-15.6,4.8-22.8c3.2-7.2,7.8-13.5,14-18.9
			c6.2-5.4,13.8-9.7,23-12.9c9.2-3.2,19.8-4.9,31.9-4.9c13.5,0,25.7,2.2,36.7,6.7c11,4.4,20.2,10.3,27.6,17.5L133.1,134.7z"/>
		<path class="st0" d="M254.7,345.7c-1.4,3.3-3.2,5.8-5.4,7.5c-2.2,1.7-5.6,2.6-10.2,2.6h-35l36.6-78.2l-79-180.9h41.1
			c3.8,0,6.7,0.9,8.8,2.7c2,1.8,3.6,3.8,4.6,6.1l41.7,101.3c1.4,3.3,2.6,6.7,3.6,10.3c1,3.6,1.9,7.1,2.7,10.7
			c1-3.7,2.1-7.2,3.3-10.7c1.2-3.4,2.5-6.9,3.9-10.5l39.2-101.1c1-2.5,2.7-4.6,5-6.3c2.3-1.6,5-2.5,7.9-2.5h37.7L254.7,345.7z"/>
		<path class="st0" d="M390.5,292V96.7h28.7c6.1,0,10.1,2.9,12,8.6l3.2,15.4c3.9-4.1,8.1-7.7,12.5-11c4.4-3.3,9-6.2,13.9-8.6
			c4.9-2.4,10.1-4.3,15.7-5.5c5.6-1.3,11.7-1.9,18.3-1.9c10.7,0,20.1,1.8,28.4,5.4c8.3,3.6,15.1,8.7,20.7,15.2
			c5.5,6.5,9.7,14.3,12.6,23.4c2.9,9.1,4.3,19.1,4.3,30V292h-47V167.7c0-11.9-2.8-21.2-8.3-27.7c-5.5-6.5-13.8-9.8-24.8-9.8
			c-8.1,0-15.7,1.8-22.8,5.5c-7.1,3.7-13.8,8.7-20.2,15V292H390.5z"/>
		<path class="st0" d="M746.1,138c-1.4,1.8-2.8,3.2-4.1,4.2c-1.3,1-3.3,1.5-5.8,1.5c-2.4,0-4.8-0.7-7-2.2c-2.3-1.5-5-3.1-8.2-4.9
			c-3.2-1.8-6.9-3.5-11.3-4.9c-4.4-1.5-9.8-2.2-16.3-2.2c-8.3,0-15.5,1.5-21.7,4.5c-6.2,3-11.4,7.3-15.5,12.9
			c-4.1,5.6-7.2,12.3-9.2,20.3c-2,7.9-3,16.9-3,26.9c0,10.4,1.1,19.7,3.3,27.8c2.2,8.1,5.4,14.9,9.6,20.5c4.2,5.5,9.3,9.7,15.2,12.6
			c6,2.9,12.7,4.3,20.2,4.3c7.5,0,13.5-0.9,18.2-2.8c4.6-1.8,8.5-3.9,11.7-6.1c3.2-2.2,5.9-4.3,8.3-6.1c2.3-1.8,5-2.8,7.9-2.8
			c3.8,0,6.7,1.5,8.6,4.4l13.5,17.1c-5.2,6.1-10.9,11.2-16.9,15.3c-6.1,4.1-12.4,7.4-18.9,9.9c-6.5,2.5-13.3,4.2-20.3,5.2
			c-7,1-13.9,1.5-20.7,1.5c-12.1,0-23.4-2.3-34.1-6.8c-10.7-4.5-20-11.1-27.9-19.7c-7.9-8.6-14.2-19.2-18.8-31.7
			c-4.6-12.5-6.9-26.7-6.9-42.7c0-14.3,2.1-27.6,6.2-39.9c4.1-12.2,10.2-22.8,18.2-31.8c8-8.9,17.9-16,29.7-21
			c11.8-5.1,25.4-7.6,40.7-7.6c14.6,0,27.4,2.4,38.4,7c11,4.7,20.8,11.4,29.6,20.2L746.1,138z"/>
	</g>
	<g>
		<rect x="715.3" y="394" class="st0" width="44" height="2"/>
	</g>
	<g>
		<rect x="0.3" y="394" class="st0" width="44" height="2"/>
	</g>
</g>
</svg>
