<?xml version="1.0" encoding="utf-8"?>
<!-- Generator: Adobe Illustrator 20.0.0, SVG Export Plug-In . SVG Version: 6.00 Build 0)  -->
<svg version="1.1" xmlns="http://www.w3.org/2000/svg" xmlns:xlink="http://www.w3.org/1999/xlink" x="0px" y="0px"
	 viewBox="0 0 470 175" style="enable-background:new 0 0 470 175;" xml:space="preserve">
<style type="text/css">
	.st0{fill:#0051C6;}
	.st1{fill:#4DDB5A;}
	.st2{fill:#383838;}
</style>
<g id="Layer_1">
</g>
<g id="Layer_2">
	<g>
		<g>
			<path class="st0" d="M80.8,138.4H70.7c-2.1,0-3.8-0.3-5-1c-1.2-0.6-2.1-1.9-2.7-3.9l-2-6.6c-2.4,2.1-4.7,4-6.9,5.6
				c-2.3,1.6-4.6,2.9-7,4c-2.4,1.1-5,1.9-7.7,2.4c-2.7,0.5-5.7,0.8-9.1,0.8c-3.9,0-7.6-0.5-10.9-1.6c-3.3-1.1-6.2-2.7-8.6-4.8
				c-2.4-2.1-4.2-4.8-5.6-7.9c-1.3-3.2-2-6.8-2-11c0-3.5,0.9-7,2.8-10.4c1.8-3.4,4.9-6.5,9.2-9.3c4.3-2.8,10-5.1,17.1-6.9
				c7.1-1.8,16-2.7,26.6-2.7v-5.5c0-6.3-1.3-10.9-3.9-13.9c-2.6-3-6.5-4.5-11.5-4.5c-3.6,0-6.7,0.4-9.1,1.3
				c-2.4,0.8-4.5,1.8-6.3,2.9c-1.8,1.1-3.4,2-4.9,2.9c-1.5,0.8-3.2,1.3-5,1.3c-1.5,0-2.8-0.4-3.9-1.2c-1.1-0.8-2-1.8-2.6-2.9
				l-4.1-7.2c10.7-9.8,23.6-14.7,38.7-14.7c5.4,0,10.3,0.9,14.6,2.7c4.3,1.8,7.9,4.3,10.8,7.4c3,3.2,5.2,7,6.8,11.4
				s2.3,9.3,2.3,14.5V138.4z M37.2,124.4c2.3,0,4.4-0.2,6.3-0.6c1.9-0.4,3.8-1,5.5-1.9c1.7-0.8,3.4-1.9,5-3.1
				c1.6-1.2,3.2-2.7,4.9-4.3V98.9c-6.5,0-12,0.4-16.4,1.2c-4.4,0.8-7.9,1.9-10.6,3.2c-2.7,1.3-4.6,2.8-5.7,4.5
				c-1.1,1.7-1.7,3.6-1.7,5.6c0,4,1.2,6.8,3.5,8.5C30.4,123.6,33.5,124.4,37.2,124.4z"/>
			<path class="st0" d="M155.7,63.5c-0.6,1-1.2,1.6-1.9,2c-0.7,0.4-1.5,0.6-2.5,0.6c-1.1,0-2.3-0.3-3.5-0.9c-1.2-0.6-2.7-1.3-4.3-2
				c-1.6-0.8-3.5-1.4-5.6-2c-2.1-0.6-4.6-0.9-7.4-0.9c-4.4,0-7.9,0.9-10.4,2.8c-2.5,1.9-3.8,4.3-3.8,7.3c0,2,0.6,3.7,2,5
				c1.3,1.4,3,2.6,5.2,3.6c2.1,1,4.6,1.9,7.3,2.8s5.5,1.7,8.3,2.7c2.8,1,5.6,2.1,8.3,3.3c2.7,1.2,5.2,2.8,7.3,4.7
				c2.1,1.9,3.9,4.2,5.2,6.8c1.3,2.7,2,5.9,2,9.6c0,4.5-0.8,8.6-2.4,12.4c-1.6,3.8-4,7-7.2,9.8c-3.1,2.8-7,4.9-11.7,6.4
				c-4.6,1.5-9.9,2.3-15.9,2.3c-3.2,0-6.3-0.3-9.4-0.9c-3.1-0.6-6-1.4-8.8-2.4c-2.8-1-5.4-2.2-7.8-3.6c-2.4-1.4-4.5-2.9-6.3-4.5
				l5.2-8.5c0.7-1,1.5-1.8,2.4-2.4c0.9-0.5,2.1-0.8,3.4-0.8c1.4,0,2.7,0.4,3.9,1.2c1.2,0.8,2.7,1.6,4.3,2.5c1.6,0.9,3.6,1.8,5.8,2.5
				c2.2,0.8,5,1.2,8.4,1.2c2.7,0,4.9-0.3,6.8-1s3.5-1.5,4.7-2.5c1.2-1,2.1-2.2,2.7-3.6c0.6-1.4,0.9-2.8,0.9-4.2c0-2.2-0.7-4-2-5.4
				c-1.3-1.4-3-2.6-5.2-3.6c-2.1-1-4.6-1.9-7.3-2.8c-2.8-0.8-5.6-1.7-8.4-2.7c-2.9-1-5.7-2.1-8.4-3.4c-2.8-1.3-5.2-2.9-7.3-4.9
				c-2.1-2-3.9-4.4-5.2-7.3c-1.3-2.9-2-6.4-2-10.5c0-3.8,0.8-7.4,2.3-10.9c1.5-3.4,3.7-6.5,6.7-9c2.9-2.6,6.6-4.6,11-6.2
				c4.4-1.5,9.4-2.3,15.2-2.3c6.4,0,12.2,1.1,17.5,3.2c5.3,2.1,9.6,4.9,13.2,8.3L155.7,63.5z"/>
			<path class="st0" d="M232.6,63.5c-0.6,1-1.2,1.6-1.9,2c-0.7,0.4-1.5,0.6-2.5,0.6c-1.1,0-2.3-0.3-3.5-0.9c-1.2-0.6-2.7-1.3-4.3-2
				c-1.6-0.8-3.5-1.4-5.6-2c-2.1-0.6-4.6-0.9-7.4-0.9c-4.4,0-7.9,0.9-10.4,2.8c-2.5,1.9-3.8,4.3-3.8,7.3c0,2,0.6,3.7,2,5
				c1.3,1.4,3,2.6,5.2,3.6c2.1,1,4.6,1.9,7.3,2.8s5.5,1.7,8.3,2.7c2.8,1,5.6,2.1,8.3,3.3c2.7,1.2,5.2,2.8,7.3,4.7
				c2.1,1.9,3.9,4.2,5.2,6.8c1.3,2.7,2,5.9,2,9.6c0,4.5-0.8,8.6-2.4,12.4c-1.6,3.8-4,7-7.2,9.8c-3.1,2.8-7,4.9-11.7,6.4
				c-4.6,1.5-9.9,2.3-15.9,2.3c-3.2,0-6.3-0.3-9.4-0.9c-3.1-0.6-6-1.4-8.8-2.4c-2.8-1-5.4-2.2-7.8-3.6c-2.4-1.4-4.5-2.9-6.3-4.5
				l5.2-8.5c0.7-1,1.5-1.8,2.4-2.4c0.9-0.5,2.1-0.8,3.4-0.8c1.4,0,2.7,0.4,3.9,1.2c1.2,0.8,2.7,1.6,4.3,2.5c1.6,0.9,3.6,1.8,5.8,2.5
				c2.2,0.8,5,1.2,8.4,1.2c2.7,0,4.9-0.3,6.8-1s3.5-1.5,4.7-2.5c1.2-1,2.1-2.2,2.7-3.6c0.6-1.4,0.9-2.8,0.9-4.2c0-2.2-0.7-4-2-5.4
				c-1.3-1.4-3-2.6-5.2-3.6c-2.1-1-4.6-1.9-7.3-2.8c-2.8-0.8-5.6-1.7-8.4-2.7c-2.9-1-5.7-2.1-8.4-3.4c-2.8-1.3-5.2-2.9-7.3-4.9
				c-2.1-2-3.9-4.4-5.2-7.3c-1.3-2.9-2-6.4-2-10.5c0-3.8,0.8-7.4,2.3-10.9c1.5-3.4,3.7-6.5,6.7-9c2.9-2.6,6.6-4.6,11-6.2
				c4.4-1.5,9.4-2.3,15.2-2.3c6.4,0,12.2,1.1,17.5,3.2c5.3,2.1,9.6,4.9,13.2,8.3L232.6,63.5z"/>
			<path class="st0" d="M281.5,18.2c0,1.9-0.4,3.8-1.2,5.4c-0.8,1.7-1.8,3.2-3.1,4.4c-1.3,1.3-2.8,2.3-4.6,3
				c-1.8,0.8-3.6,1.1-5.6,1.1c-1.9,0-3.8-0.4-5.5-1.1c-1.7-0.8-3.2-1.8-4.5-3c-1.3-1.3-2.3-2.8-3-4.4c-0.8-1.7-1.1-3.5-1.1-5.4
				c0-2,0.4-3.9,1.1-5.6c0.8-1.8,1.8-3.3,3-4.5c1.3-1.3,2.8-2.3,4.5-3s3.6-1.1,5.5-1.1c2,0,3.9,0.4,5.6,1.1s3.3,1.8,4.6,3
				c1.3,1.3,2.3,2.8,3.1,4.5C281.1,14.3,281.5,16.2,281.5,18.2z M278.2,45.3v93.1h-22.4V45.3H278.2z"/>
			<path class="st0" d="M356.3,63.5c-0.6,1-1.2,1.6-1.9,2c-0.7,0.4-1.5,0.6-2.5,0.6c-1.1,0-2.3-0.3-3.5-0.9c-1.2-0.6-2.7-1.3-4.3-2
				c-1.6-0.8-3.5-1.4-5.6-2c-2.1-0.6-4.6-0.9-7.4-0.9c-4.4,0-7.9,0.9-10.4,2.8s-3.8,4.3-3.8,7.3c0,2,0.6,3.7,2,5
				c1.3,1.4,3,2.6,5.2,3.6c2.1,1,4.6,1.9,7.3,2.8c2.7,0.8,5.5,1.7,8.3,2.7c2.8,1,5.6,2.1,8.3,3.3c2.7,1.2,5.2,2.8,7.3,4.7
				c2.1,1.9,3.9,4.2,5.2,6.8c1.3,2.7,2,5.9,2,9.6c0,4.5-0.8,8.6-2.4,12.4s-4,7-7.2,9.8c-3.1,2.8-7,4.9-11.7,6.4
				c-4.6,1.5-9.9,2.3-15.9,2.3c-3.2,0-6.3-0.3-9.4-0.9s-6-1.4-8.8-2.4c-2.8-1-5.4-2.2-7.8-3.6c-2.4-1.4-4.5-2.9-6.3-4.5l5.2-8.5
				c0.7-1,1.5-1.8,2.4-2.4c0.9-0.5,2.1-0.8,3.4-0.8c1.4,0,2.7,0.4,3.9,1.2c1.2,0.8,2.7,1.6,4.3,2.5c1.6,0.9,3.6,1.8,5.8,2.5
				c2.2,0.8,5,1.2,8.4,1.2c2.7,0,4.9-0.3,6.8-1c1.9-0.6,3.5-1.5,4.7-2.5c1.2-1,2.1-2.2,2.7-3.6c0.6-1.4,0.9-2.8,0.9-4.2
				c0-2.2-0.7-4-2-5.4c-1.3-1.4-3-2.6-5.2-3.6c-2.1-1-4.6-1.9-7.3-2.8c-2.8-0.8-5.6-1.7-8.4-2.7c-2.9-1-5.7-2.1-8.4-3.4
				c-2.8-1.3-5.2-2.9-7.3-4.9c-2.1-2-3.9-4.4-5.2-7.3c-1.3-2.9-2-6.4-2-10.5c0-3.8,0.8-7.4,2.3-10.9c1.5-3.4,3.7-6.5,6.7-9
				c2.9-2.6,6.6-4.6,11-6.2c4.4-1.5,9.4-2.3,15.2-2.3c6.4,0,12.2,1.1,17.5,3.2c5.3,2.1,9.6,4.9,13.2,8.3L356.3,63.5z"/>
			<path class="st0" d="M408.6,139.8c-8,0-14.2-2.3-18.6-6.8c-4.4-4.6-6.5-10.9-6.5-18.9v-52H374c-1.2,0-2.3-0.4-3.1-1.2
				c-0.9-0.8-1.3-2-1.3-3.5v-8.9l15-2.4l4.7-25.4c0.2-1.2,0.8-2.1,1.7-2.8c0.9-0.7,2-1,3.3-1h11.6v29.3h24.5v16h-24.5v50.4
				c0,2.9,0.7,5.2,2.2,6.8c1.5,1.6,3.4,2.4,5.8,2.4c1.4,0,2.6-0.2,3.5-0.5c0.9-0.3,1.8-0.7,2.4-1c0.7-0.4,1.3-0.7,1.9-1
				c0.5-0.3,1.1-0.5,1.6-0.5c0.7,0,1.2,0.2,1.6,0.5c0.4,0.3,0.9,0.8,1.4,1.5l6.7,10.9c-3.3,2.7-7,4.8-11.2,6.2
				C417.5,139.1,413.1,139.8,408.6,139.8z"/>
		</g>
		<g>
			<g>
				<path class="st0" d="M449.2,46.1v2h-4.7v13.1H442V48.1h-4.7v-2H449.2z"/>
				<path class="st0" d="M459.1,55.9c0.1,0.2,0.2,0.4,0.3,0.7c0.1-0.2,0.2-0.4,0.3-0.7s0.2-0.4,0.3-0.6l4.8-8.8
					c0.1-0.2,0.2-0.3,0.3-0.4s0.3-0.1,0.5-0.1h1.8v15.1h-2.2V50.8c0-0.2,0-0.4,0-0.5c0-0.2,0-0.4,0-0.6l-4.9,9
					c-0.2,0.4-0.5,0.6-0.9,0.6h-0.3c-0.4,0-0.7-0.2-0.9-0.6l-4.9-9c0,0.2,0,0.4,0.1,0.6c0,0.2,0,0.4,0,0.6v10.4h-2.2V46.1h1.8
					c0.2,0,0.4,0,0.5,0.1s0.2,0.2,0.3,0.4l4.9,8.8C458.9,55.5,459,55.7,459.1,55.9z"/>
			</g>
		</g>
		<g>
			<path class="st1" d="M16.2,5.5c-0.1,0.2-0.2,0.3-0.4,0.4c-0.1,0.1-0.3,0.1-0.5,0.1c-0.2,0-0.4-0.1-0.7-0.2
				c-0.2-0.2-0.5-0.4-0.9-0.6C13.4,5,13,4.9,12.5,4.7s-1.1-0.3-1.7-0.3c-0.6,0-1.2,0.1-1.6,0.2S8.3,5,7.9,5.3
				c-0.3,0.3-0.6,0.6-0.7,1C7,6.7,7,7.1,7,7.5c0,0.6,0.2,1,0.5,1.4s0.7,0.7,1.2,1s1.1,0.5,1.7,0.7c0.6,0.2,1.3,0.4,1.9,0.6
				c0.7,0.2,1.3,0.5,1.9,0.8c0.6,0.3,1.2,0.7,1.7,1.1s0.9,1,1.2,1.6s0.5,1.4,0.5,2.4c0,1-0.2,1.9-0.5,2.8c-0.3,0.9-0.8,1.6-1.5,2.3
				c-0.7,0.7-1.5,1.2-2.4,1.5c-1,0.4-2,0.6-3.3,0.6c-0.7,0-1.4-0.1-2.1-0.2c-0.7-0.1-1.3-0.3-2-0.6S4.6,23,4.1,22.7s-1-0.8-1.5-1.2
				l1.1-1.7c0.1-0.1,0.2-0.3,0.4-0.3c0.1-0.1,0.3-0.1,0.5-0.1c0.2,0,0.5,0.1,0.8,0.3C5.6,19.8,6,20,6.4,20.3
				c0.4,0.3,0.9,0.5,1.5,0.7c0.6,0.2,1.3,0.3,2.1,0.3c1.3,0,2.3-0.3,3.1-1c0.7-0.6,1.1-1.5,1.1-2.7c0-0.6-0.2-1.2-0.5-1.6
				c-0.3-0.4-0.7-0.7-1.2-1c-0.5-0.3-1.1-0.5-1.7-0.7s-1.3-0.4-1.9-0.6c-0.7-0.2-1.3-0.5-1.9-0.8S5.7,12.5,5.2,12
				c-0.5-0.5-0.9-1-1.2-1.7S3.6,8.8,3.6,7.7c0-0.8,0.2-1.6,0.5-2.4s0.8-1.4,1.4-2C6,2.8,6.8,2.3,7.7,1.9c0.9-0.4,1.9-0.5,3.1-0.5
				c1.3,0,2.5,0.2,3.6,0.6c1.1,0.4,2,1,2.8,1.7L16.2,5.5z"/>
			<path class="st1" d="M27.3,24.1h-3.7V1.7h3.7V24.1z"/>
			<path class="st1" d="M39.9,12.6L32.7,1.7h3.6c0.3,0,0.5,0,0.6,0.1C37,1.9,37.1,2,37.2,2.1l5.5,8.6c0-0.1,0.1-0.3,0.1-0.4
				c0.1-0.1,0.1-0.3,0.2-0.4l5.1-7.8c0.1-0.2,0.2-0.3,0.3-0.4c0.1-0.1,0.3-0.1,0.5-0.1h3.5L45,12.4l7.6,11.7H49
				c-0.2,0-0.5-0.1-0.6-0.2c-0.2-0.1-0.3-0.3-0.4-0.5l-5.6-9c0,0.1-0.1,0.2-0.1,0.4s-0.1,0.2-0.2,0.3l-5.4,8.3
				c-0.1,0.2-0.2,0.3-0.4,0.5c-0.1,0.1-0.3,0.2-0.6,0.2h-3.4L39.9,12.6z"/>
			<path class="st1" d="M67.4,24.4c-1.8,0-3.5-0.3-4.9-0.9s-2.7-1.4-3.8-2.4c-1-1-1.8-2.2-2.4-3.6c-0.6-1.4-0.8-3-0.8-4.6
				c0-1.7,0.3-3.2,0.8-4.7s1.3-2.6,2.3-3.6s2.2-1.8,3.7-2.4c1.4-0.6,3-0.8,4.8-0.8c0.9,0,1.7,0.1,2.5,0.2C70.3,1.8,71,2,71.7,2.2
				s1.3,0.6,1.8,0.9c0.6,0.4,1.1,0.8,1.5,1.2L74,6c-0.2,0.3-0.4,0.4-0.6,0.5c-0.3,0.1-0.5,0-0.8-0.2c-0.3-0.2-0.6-0.4-1-0.6
				s-0.7-0.4-1.2-0.6C70,5,69.5,4.8,68.9,4.7c-0.6-0.1-1.2-0.2-2-0.2c-1.2,0-2.3,0.2-3.2,0.6c-1,0.4-1.8,0.9-2.4,1.7
				c-0.7,0.7-1.2,1.6-1.6,2.6c-0.4,1-0.5,2.2-0.5,3.4c0,1.3,0.2,2.5,0.6,3.6c0.4,1.1,0.9,2,1.6,2.7c0.7,0.7,1.6,1.3,2.6,1.7
				c1,0.4,2.1,0.6,3.4,0.6c0.9,0,1.8-0.1,2.5-0.3c0.7-0.2,1.4-0.5,2.1-0.8v-4.5h-3.1c-0.2,0-0.4-0.1-0.6-0.2
				C68,15.5,68,15.4,68,15.2v-2.1h7.2V22C72.9,23.6,70.3,24.4,67.4,24.4z"/>
			<path class="st1" d="M85.3,24.1h-3.7V1.7h3.7V24.1z"/>
			<path class="st1" d="M96.5,21.1h9.3v3.1h-13V1.7h3.7V21.1z"/>
			<path class="st1" d="M114.8,21.1h9.3v3.1h-13V1.7h3.7V21.1z"/>
		</g>
		<g>
			<rect x="2.9" y="164.6" class="st2" width="20" height="1"/>
		</g>
		<g>
			<rect x="411.9" y="164.6" class="st2" width="20" height="1"/>
		</g>
		<g>
			<path class="st2" d="M37.4,166.7v4.1h-2.2v-11.6H39c0.8,0,1.4,0.1,2,0.3s1,0.4,1.4,0.8s0.6,0.7,0.8,1.2c0.2,0.5,0.3,0.9,0.3,1.5
				c0,0.6-0.1,1.1-0.3,1.5s-0.5,0.9-0.8,1.2s-0.8,0.6-1.4,0.8c-0.6,0.2-1.2,0.3-2,0.3H37.4z M37.4,165.1H39c0.4,0,0.7,0,1-0.1
				c0.3-0.1,0.5-0.2,0.7-0.4c0.2-0.2,0.3-0.4,0.4-0.7c0.1-0.3,0.1-0.6,0.1-0.9c0-0.3,0-0.6-0.1-0.8c-0.1-0.3-0.2-0.5-0.4-0.6
				c-0.2-0.2-0.4-0.3-0.7-0.4c-0.3-0.1-0.6-0.1-1-0.1h-1.6V165.1z"/>
			<path class="st2" d="M45.7,170.8v-8.2h1.2c0.2,0,0.3,0,0.4,0.1c0.1,0.1,0.1,0.2,0.2,0.4l0.1,1c0.3-0.5,0.6-0.9,1-1.2
				s0.8-0.4,1.3-0.4c0.4,0,0.7,0.1,1,0.3l-0.3,1.5c0,0.1-0.1,0.2-0.1,0.2c-0.1,0-0.1,0.1-0.2,0.1c-0.1,0-0.2,0-0.3-0.1
				c-0.1,0-0.3-0.1-0.6-0.1c-0.4,0-0.8,0.1-1.1,0.3c-0.3,0.2-0.5,0.6-0.7,1v5.1H45.7z"/>
			<path class="st2" d="M56.3,162.5c0.6,0,1.2,0.1,1.7,0.3c0.5,0.2,0.9,0.5,1.3,0.8c0.4,0.4,0.6,0.8,0.8,1.3
				c0.2,0.5,0.3,1.1,0.3,1.8c0,0.7-0.1,1.2-0.3,1.8c-0.2,0.5-0.5,1-0.8,1.3c-0.4,0.4-0.8,0.7-1.3,0.8c-0.5,0.2-1.1,0.3-1.7,0.3
				s-1.2-0.1-1.7-0.3c-0.5-0.2-0.9-0.5-1.3-0.8c-0.4-0.4-0.6-0.8-0.8-1.3c-0.2-0.5-0.3-1.1-0.3-1.8c0-0.6,0.1-1.2,0.3-1.8
				c0.2-0.5,0.5-1,0.8-1.3c0.4-0.4,0.8-0.6,1.3-0.8C55.1,162.6,55.7,162.5,56.3,162.5z M56.3,169.4c0.7,0,1.2-0.2,1.5-0.7
				s0.5-1.1,0.5-2c0-0.9-0.2-1.6-0.5-2S57,164,56.3,164c-0.7,0-1.2,0.2-1.5,0.7c-0.3,0.5-0.5,1.1-0.5,2c0,0.9,0.2,1.5,0.5,2
				C55.1,169.2,55.6,169.4,56.3,169.4z"/>
			<path class="st2" d="M62.9,170.8v-6.7l-0.7-0.1c-0.2,0-0.3-0.1-0.4-0.2c-0.1-0.1-0.1-0.2-0.1-0.3v-0.8h1.2v-0.6
				c0-0.5,0.1-0.9,0.2-1.3s0.3-0.7,0.6-1c0.3-0.3,0.6-0.5,1-0.6c0.4-0.1,0.8-0.2,1.3-0.2c0.4,0,0.7,0.1,1.1,0.2l0,1
				c0,0.2-0.1,0.3-0.2,0.3c-0.1,0-0.3,0.1-0.5,0.1c-0.2,0-0.4,0-0.6,0.1c-0.2,0.1-0.3,0.1-0.5,0.3c-0.1,0.1-0.2,0.3-0.3,0.5
				c-0.1,0.2-0.1,0.5-0.1,0.8v0.5h2.1v1.4h-2.1v6.7H62.9z"/>
			<path class="st2" d="M72.1,162.5c0.5,0,1,0.1,1.4,0.2s0.8,0.4,1.1,0.7s0.6,0.7,0.7,1.2c0.2,0.5,0.3,1,0.3,1.6c0,0.1,0,0.3,0,0.4
				c0,0.1,0,0.2-0.1,0.2c0,0.1-0.1,0.1-0.1,0.1c-0.1,0-0.1,0-0.2,0h-5.1c0.1,0.8,0.3,1.5,0.7,1.9c0.4,0.4,0.9,0.6,1.6,0.6
				c0.3,0,0.6,0,0.8-0.1c0.2-0.1,0.4-0.2,0.6-0.2c0.2-0.1,0.3-0.2,0.5-0.2c0.1-0.1,0.3-0.1,0.4-0.1c0.1,0,0.1,0,0.2,0
				s0.1,0.1,0.2,0.1l0.6,0.7c-0.2,0.3-0.5,0.5-0.7,0.6c-0.3,0.2-0.6,0.3-0.9,0.4c-0.3,0.1-0.6,0.2-0.9,0.2c-0.3,0-0.6,0.1-0.9,0.1
				c-0.6,0-1.1-0.1-1.6-0.3c-0.5-0.2-0.9-0.5-1.3-0.8s-0.6-0.8-0.9-1.4s-0.3-1.2-0.3-1.9c0-0.6,0.1-1.1,0.3-1.6
				c0.2-0.5,0.4-0.9,0.8-1.3c0.3-0.4,0.8-0.7,1.2-0.9C70.9,162.6,71.5,162.5,72.1,162.5z M72.1,163.9c-0.6,0-1,0.2-1.4,0.5
				s-0.5,0.8-0.6,1.4h3.7c0-0.3,0-0.5-0.1-0.7c-0.1-0.2-0.2-0.4-0.3-0.6c-0.1-0.2-0.3-0.3-0.5-0.4C72.7,163.9,72.4,163.9,72.1,163.9
				z"/>
			<path class="st2" d="M82.7,164.2c-0.1,0.1-0.1,0.1-0.2,0.2c-0.1,0-0.1,0.1-0.2,0.1c-0.1,0-0.2,0-0.3-0.1
				c-0.1-0.1-0.2-0.1-0.4-0.2c-0.1-0.1-0.3-0.1-0.5-0.2c-0.2-0.1-0.4-0.1-0.7-0.1c-0.4,0-0.7,0.1-0.9,0.2c-0.2,0.2-0.3,0.4-0.3,0.6
				c0,0.2,0.1,0.3,0.2,0.4c0.1,0.1,0.3,0.2,0.5,0.3s0.4,0.2,0.6,0.2c0.2,0.1,0.5,0.2,0.7,0.2c0.3,0.1,0.5,0.2,0.7,0.3
				c0.2,0.1,0.5,0.2,0.6,0.4c0.2,0.2,0.3,0.4,0.5,0.6c0.1,0.2,0.2,0.5,0.2,0.8c0,0.4-0.1,0.8-0.2,1.1c-0.1,0.3-0.4,0.6-0.6,0.9
				c-0.3,0.2-0.6,0.4-1,0.6s-0.9,0.2-1.4,0.2c-0.3,0-0.6,0-0.8-0.1c-0.3-0.1-0.5-0.1-0.8-0.2s-0.5-0.2-0.7-0.3
				c-0.2-0.1-0.4-0.3-0.6-0.4l0.5-0.8c0.1-0.1,0.1-0.2,0.2-0.2s0.2-0.1,0.3-0.1c0.1,0,0.2,0,0.3,0.1s0.2,0.1,0.4,0.2
				c0.1,0.1,0.3,0.2,0.5,0.2s0.4,0.1,0.7,0.1c0.2,0,0.4,0,0.6-0.1c0.2-0.1,0.3-0.1,0.4-0.2c0.1-0.1,0.2-0.2,0.2-0.3s0.1-0.2,0.1-0.4
				c0-0.2-0.1-0.3-0.2-0.5c-0.1-0.1-0.3-0.2-0.5-0.3s-0.4-0.2-0.6-0.2c-0.2-0.1-0.5-0.2-0.7-0.2c-0.3-0.1-0.5-0.2-0.7-0.3
				c-0.2-0.1-0.5-0.3-0.6-0.4s-0.3-0.4-0.5-0.6c-0.1-0.3-0.2-0.6-0.2-0.9c0-0.3,0.1-0.7,0.2-1c0.1-0.3,0.3-0.6,0.6-0.8
				s0.6-0.4,1-0.5s0.8-0.2,1.3-0.2c0.6,0,1.1,0.1,1.5,0.3s0.9,0.4,1.2,0.7L82.7,164.2z"/>
			<path class="st2" d="M90.3,164.2c-0.1,0.1-0.1,0.1-0.2,0.2c-0.1,0-0.1,0.1-0.2,0.1c-0.1,0-0.2,0-0.3-0.1
				c-0.1-0.1-0.2-0.1-0.4-0.2c-0.1-0.1-0.3-0.1-0.5-0.2c-0.2-0.1-0.4-0.1-0.7-0.1c-0.4,0-0.7,0.1-0.9,0.2c-0.2,0.2-0.3,0.4-0.3,0.6
				c0,0.2,0.1,0.3,0.2,0.4c0.1,0.1,0.3,0.2,0.5,0.3s0.4,0.2,0.6,0.2c0.2,0.1,0.5,0.2,0.7,0.2c0.3,0.1,0.5,0.2,0.7,0.3
				c0.2,0.1,0.5,0.2,0.6,0.4s0.3,0.4,0.5,0.6c0.1,0.2,0.2,0.5,0.2,0.8c0,0.4-0.1,0.8-0.2,1.1c-0.1,0.3-0.4,0.6-0.6,0.9
				c-0.3,0.2-0.6,0.4-1,0.6s-0.9,0.2-1.4,0.2c-0.3,0-0.6,0-0.8-0.1c-0.3-0.1-0.5-0.1-0.8-0.2s-0.5-0.2-0.7-0.3
				c-0.2-0.1-0.4-0.3-0.6-0.4l0.5-0.8c0.1-0.1,0.1-0.2,0.2-0.2s0.2-0.1,0.3-0.1c0.1,0,0.2,0,0.3,0.1s0.2,0.1,0.4,0.2
				c0.1,0.1,0.3,0.2,0.5,0.2s0.4,0.1,0.7,0.1c0.2,0,0.4,0,0.6-0.1c0.2-0.1,0.3-0.1,0.4-0.2c0.1-0.1,0.2-0.2,0.2-0.3s0.1-0.2,0.1-0.4
				c0-0.2-0.1-0.3-0.2-0.5c-0.1-0.1-0.3-0.2-0.5-0.3s-0.4-0.2-0.6-0.2c-0.2-0.1-0.5-0.2-0.7-0.2c-0.3-0.1-0.5-0.2-0.7-0.3
				c-0.2-0.1-0.5-0.3-0.6-0.4s-0.3-0.4-0.5-0.6c-0.1-0.3-0.2-0.6-0.2-0.9c0-0.3,0.1-0.7,0.2-1c0.1-0.3,0.3-0.6,0.6-0.8
				s0.6-0.4,1-0.5s0.8-0.2,1.3-0.2c0.6,0,1.1,0.1,1.5,0.3s0.9,0.4,1.2,0.7L90.3,164.2z"/>
			<path class="st2" d="M95.4,160.2c0,0.2,0,0.3-0.1,0.5s-0.2,0.3-0.3,0.4c-0.1,0.1-0.2,0.2-0.4,0.3s-0.3,0.1-0.5,0.1
				c-0.2,0-0.3,0-0.5-0.1c-0.2-0.1-0.3-0.2-0.4-0.3c-0.1-0.1-0.2-0.2-0.3-0.4c-0.1-0.1-0.1-0.3-0.1-0.5c0-0.2,0-0.3,0.1-0.5
				c0.1-0.2,0.2-0.3,0.3-0.4s0.2-0.2,0.4-0.3c0.2-0.1,0.3-0.1,0.5-0.1c0.2,0,0.3,0,0.5,0.1c0.2,0.1,0.3,0.2,0.4,0.3
				c0.1,0.1,0.2,0.2,0.3,0.4C95.4,159.9,95.4,160,95.4,160.2z M95.1,162.6v8.2h-2v-8.2H95.1z"/>
			<path class="st2" d="M101.4,162.5c0.6,0,1.2,0.1,1.7,0.3c0.5,0.2,0.9,0.5,1.3,0.8c0.4,0.4,0.6,0.8,0.8,1.3
				c0.2,0.5,0.3,1.1,0.3,1.8c0,0.7-0.1,1.2-0.3,1.8c-0.2,0.5-0.5,1-0.8,1.3c-0.4,0.4-0.8,0.7-1.3,0.8c-0.5,0.2-1.1,0.3-1.7,0.3
				s-1.2-0.1-1.7-0.3c-0.5-0.2-0.9-0.5-1.3-0.8c-0.4-0.4-0.6-0.8-0.8-1.3c-0.2-0.5-0.3-1.1-0.3-1.8c0-0.6,0.1-1.2,0.3-1.8
				c0.2-0.5,0.5-1,0.8-1.3c0.4-0.4,0.8-0.6,1.3-0.8C100.3,162.6,100.8,162.5,101.4,162.5z M101.4,169.4c0.7,0,1.2-0.2,1.5-0.7
				s0.5-1.1,0.5-2c0-0.9-0.2-1.6-0.5-2s-0.8-0.7-1.5-0.7c-0.7,0-1.2,0.2-1.5,0.7c-0.3,0.5-0.5,1.1-0.5,2c0,0.9,0.2,1.5,0.5,2
				C100.2,169.2,100.8,169.4,101.4,169.4z"/>
			<path class="st2" d="M107.6,170.8v-8.2h1.2c0.3,0,0.4,0.1,0.5,0.4l0.1,0.6c0.2-0.2,0.3-0.3,0.5-0.5c0.2-0.1,0.4-0.3,0.6-0.4
				c0.2-0.1,0.4-0.2,0.7-0.2s0.5-0.1,0.8-0.1c0.4,0,0.8,0.1,1.2,0.2c0.3,0.2,0.6,0.4,0.9,0.6s0.4,0.6,0.5,1c0.1,0.4,0.2,0.8,0.2,1.3
				v5.2h-2v-5.2c0-0.5-0.1-0.9-0.3-1.2c-0.2-0.3-0.6-0.4-1-0.4c-0.3,0-0.7,0.1-1,0.2c-0.3,0.2-0.6,0.4-0.8,0.6v5.9H107.6z"/>
			<path class="st2" d="M123.7,170.8h-0.9c-0.2,0-0.3,0-0.4-0.1s-0.2-0.2-0.2-0.3l-0.2-0.6c-0.2,0.2-0.4,0.4-0.6,0.5
				c-0.2,0.1-0.4,0.3-0.6,0.4c-0.2,0.1-0.4,0.2-0.7,0.2s-0.5,0.1-0.8,0.1c-0.3,0-0.7,0-1-0.1c-0.3-0.1-0.5-0.2-0.8-0.4
				c-0.2-0.2-0.4-0.4-0.5-0.7s-0.2-0.6-0.2-1c0-0.3,0.1-0.6,0.2-0.9c0.2-0.3,0.4-0.6,0.8-0.8c0.4-0.2,0.9-0.4,1.5-0.6
				c0.6-0.2,1.4-0.2,2.3-0.2v-0.5c0-0.6-0.1-1-0.3-1.2c-0.2-0.3-0.6-0.4-1-0.4c-0.3,0-0.6,0-0.8,0.1c-0.2,0.1-0.4,0.2-0.6,0.3
				c-0.2,0.1-0.3,0.2-0.4,0.3c-0.1,0.1-0.3,0.1-0.4,0.1c-0.1,0-0.2,0-0.3-0.1s-0.2-0.2-0.2-0.3l-0.4-0.6c0.9-0.9,2.1-1.3,3.4-1.3
				c0.5,0,0.9,0.1,1.3,0.2s0.7,0.4,1,0.7c0.3,0.3,0.5,0.6,0.6,1s0.2,0.8,0.2,1.3V170.8z M119.9,169.6c0.2,0,0.4,0,0.6-0.1
				s0.3-0.1,0.5-0.2c0.2-0.1,0.3-0.2,0.4-0.3c0.1-0.1,0.3-0.2,0.4-0.4v-1.4c-0.6,0-1.1,0-1.4,0.1s-0.7,0.2-0.9,0.3
				c-0.2,0.1-0.4,0.2-0.5,0.4s-0.1,0.3-0.1,0.5c0,0.3,0.1,0.6,0.3,0.7C119.3,169.5,119.6,169.6,119.9,169.6z"/>
			<path class="st2" d="M128.4,158.9v11.9h-2v-11.9H128.4z"/>
			<path class="st2" d="M141.2,161.4c-0.1,0.1-0.1,0.2-0.2,0.2s-0.2,0.1-0.3,0.1s-0.2,0-0.4-0.1c-0.1-0.1-0.3-0.2-0.5-0.3
				c-0.2-0.1-0.4-0.2-0.6-0.3c-0.2-0.1-0.5-0.1-0.9-0.1c-0.3,0-0.6,0-0.8,0.1c-0.2,0.1-0.4,0.2-0.6,0.3c-0.2,0.1-0.3,0.3-0.3,0.5
				c-0.1,0.2-0.1,0.4-0.1,0.6c0,0.3,0.1,0.5,0.2,0.7c0.2,0.2,0.4,0.3,0.6,0.5c0.3,0.1,0.5,0.2,0.9,0.3s0.6,0.2,1,0.3
				c0.3,0.1,0.7,0.2,1,0.4c0.3,0.2,0.6,0.3,0.9,0.6c0.2,0.2,0.5,0.5,0.6,0.9s0.2,0.7,0.2,1.2c0,0.5-0.1,1-0.3,1.5s-0.4,0.9-0.8,1.2
				c-0.3,0.3-0.8,0.6-1.3,0.8s-1.1,0.3-1.7,0.3c-0.4,0-0.7,0-1.1-0.1c-0.4-0.1-0.7-0.2-1-0.3c-0.3-0.1-0.6-0.3-0.9-0.5
				c-0.3-0.2-0.5-0.4-0.8-0.6l0.6-1c0.1-0.1,0.1-0.1,0.2-0.2s0.2-0.1,0.3-0.1c0.1,0,0.3,0.1,0.4,0.2c0.2,0.1,0.3,0.2,0.5,0.4
				c0.2,0.1,0.5,0.3,0.7,0.4s0.6,0.2,1,0.2c0.6,0,1.1-0.1,1.4-0.4c0.3-0.3,0.5-0.7,0.5-1.3c0-0.3-0.1-0.6-0.2-0.7
				c-0.2-0.2-0.4-0.4-0.6-0.5s-0.5-0.2-0.9-0.3c-0.3-0.1-0.6-0.2-1-0.3s-0.7-0.2-1-0.4c-0.3-0.1-0.6-0.3-0.9-0.6
				c-0.3-0.2-0.5-0.5-0.6-0.9c-0.2-0.4-0.2-0.8-0.2-1.3c0-0.4,0.1-0.8,0.3-1.2c0.2-0.4,0.4-0.8,0.7-1.1c0.3-0.3,0.7-0.6,1.2-0.7
				c0.5-0.2,1-0.3,1.6-0.3c0.7,0,1.3,0.1,1.9,0.3s1.1,0.5,1.5,0.9L141.2,161.4z"/>
			<path class="st2" d="M147.5,162.5c0.5,0,1,0.1,1.4,0.2s0.8,0.4,1.1,0.7s0.6,0.7,0.7,1.2c0.2,0.5,0.3,1,0.3,1.6c0,0.1,0,0.3,0,0.4
				c0,0.1,0,0.2-0.1,0.2c0,0.1-0.1,0.1-0.1,0.1c-0.1,0-0.1,0-0.2,0h-5.1c0.1,0.8,0.3,1.5,0.7,1.9c0.4,0.4,0.9,0.6,1.6,0.6
				c0.3,0,0.6,0,0.8-0.1c0.2-0.1,0.4-0.2,0.6-0.2c0.2-0.1,0.3-0.2,0.5-0.2c0.1-0.1,0.3-0.1,0.4-0.1c0.1,0,0.1,0,0.2,0
				s0.1,0.1,0.2,0.1l0.6,0.7c-0.2,0.3-0.5,0.5-0.7,0.6c-0.3,0.2-0.6,0.3-0.9,0.4c-0.3,0.1-0.6,0.2-0.9,0.2c-0.3,0-0.6,0.1-0.9,0.1
				c-0.6,0-1.1-0.1-1.6-0.3c-0.5-0.2-0.9-0.5-1.3-0.8s-0.6-0.8-0.9-1.4s-0.3-1.2-0.3-1.9c0-0.6,0.1-1.1,0.3-1.6
				c0.2-0.5,0.4-0.9,0.8-1.3c0.3-0.4,0.8-0.7,1.2-0.9C146.3,162.6,146.8,162.5,147.5,162.5z M147.5,163.9c-0.6,0-1,0.2-1.4,0.5
				s-0.5,0.8-0.6,1.4h3.7c0-0.3,0-0.5-0.1-0.7c-0.1-0.2-0.2-0.4-0.3-0.6c-0.1-0.2-0.3-0.3-0.5-0.4
				C148,163.9,147.8,163.9,147.5,163.9z"/>
			<path class="st2" d="M153.2,170.8v-8.2h1.2c0.2,0,0.3,0,0.4,0.1c0.1,0.1,0.1,0.2,0.2,0.4l0.1,1c0.3-0.5,0.6-0.9,1-1.2
				s0.8-0.4,1.3-0.4c0.4,0,0.7,0.1,1,0.3l-0.3,1.5c0,0.1-0.1,0.2-0.1,0.2c-0.1,0-0.1,0.1-0.2,0.1c-0.1,0-0.2,0-0.3-0.1
				c-0.1,0-0.3-0.1-0.6-0.1c-0.4,0-0.8,0.1-1.1,0.3c-0.3,0.2-0.5,0.6-0.7,1v5.1H153.2z"/>
			<path class="st2" d="M164.5,170.8h-1.8l-3.3-8.2h1.6c0.1,0,0.3,0,0.4,0.1s0.2,0.2,0.2,0.3l1.6,4.4c0.1,0.3,0.2,0.5,0.2,0.8
				s0.1,0.5,0.2,0.7c0-0.2,0.1-0.5,0.2-0.7s0.1-0.5,0.2-0.8l1.6-4.4c0-0.1,0.1-0.2,0.2-0.3c0.1-0.1,0.2-0.1,0.3-0.1h1.6L164.5,170.8
				z"/>
			<path class="st2" d="M171.9,160.2c0,0.2,0,0.3-0.1,0.5s-0.2,0.3-0.3,0.4c-0.1,0.1-0.2,0.2-0.4,0.3s-0.3,0.1-0.5,0.1
				c-0.2,0-0.3,0-0.5-0.1c-0.2-0.1-0.3-0.2-0.4-0.3c-0.1-0.1-0.2-0.2-0.3-0.4c-0.1-0.1-0.1-0.3-0.1-0.5c0-0.2,0-0.3,0.1-0.5
				c0.1-0.2,0.2-0.3,0.3-0.4s0.2-0.2,0.4-0.3c0.2-0.1,0.3-0.1,0.5-0.1c0.2,0,0.3,0,0.5,0.1c0.2,0.1,0.3,0.2,0.4,0.3
				c0.1,0.1,0.2,0.2,0.3,0.4C171.8,159.9,171.9,160,171.9,160.2z M171.6,162.6v8.2h-2v-8.2H171.6z"/>
			<path class="st2" d="M180.2,164.3c-0.1,0.1-0.1,0.1-0.2,0.2c-0.1,0-0.1,0.1-0.2,0.1c-0.1,0-0.2,0-0.3-0.1
				c-0.1-0.1-0.2-0.1-0.3-0.2c-0.1-0.1-0.3-0.1-0.5-0.2c-0.2-0.1-0.4-0.1-0.7-0.1c-0.3,0-0.7,0.1-0.9,0.2c-0.3,0.1-0.5,0.3-0.7,0.5
				c-0.2,0.2-0.3,0.5-0.4,0.9c-0.1,0.3-0.1,0.7-0.1,1.1c0,0.4,0,0.8,0.1,1.2c0.1,0.3,0.2,0.6,0.4,0.9c0.2,0.2,0.4,0.4,0.6,0.5
				c0.3,0.1,0.5,0.2,0.8,0.2c0.3,0,0.6,0,0.8-0.1c0.2-0.1,0.4-0.2,0.5-0.3c0.1-0.1,0.2-0.2,0.3-0.3s0.2-0.1,0.3-0.1
				c0.2,0,0.3,0.1,0.4,0.2l0.6,0.7c-0.2,0.3-0.5,0.5-0.7,0.6c-0.3,0.2-0.5,0.3-0.8,0.4c-0.3,0.1-0.6,0.2-0.9,0.2
				c-0.3,0-0.6,0.1-0.9,0.1c-0.5,0-1-0.1-1.4-0.3s-0.8-0.5-1.2-0.8c-0.3-0.4-0.6-0.8-0.8-1.3s-0.3-1.1-0.3-1.8
				c0-0.6,0.1-1.2,0.3-1.7c0.2-0.5,0.4-1,0.8-1.3s0.8-0.7,1.2-0.9c0.5-0.2,1.1-0.3,1.7-0.3c0.6,0,1.2,0.1,1.6,0.3
				c0.5,0.2,0.9,0.5,1.2,0.8L180.2,164.3z"/>
			<path class="st2" d="M186,162.5c0.5,0,1,0.1,1.4,0.2s0.8,0.4,1.1,0.7s0.6,0.7,0.7,1.2c0.2,0.5,0.3,1,0.3,1.6c0,0.1,0,0.3,0,0.4
				c0,0.1,0,0.2-0.1,0.2c0,0.1-0.1,0.1-0.1,0.1c-0.1,0-0.1,0-0.2,0H184c0.1,0.8,0.3,1.5,0.7,1.9c0.4,0.4,0.9,0.6,1.6,0.6
				c0.3,0,0.6,0,0.8-0.1c0.2-0.1,0.4-0.2,0.6-0.2c0.2-0.1,0.3-0.2,0.5-0.2c0.1-0.1,0.3-0.1,0.4-0.1c0.1,0,0.1,0,0.2,0
				s0.1,0.1,0.2,0.1l0.6,0.7c-0.2,0.3-0.5,0.5-0.7,0.6c-0.3,0.2-0.6,0.3-0.9,0.4c-0.3,0.1-0.6,0.2-0.9,0.2c-0.3,0-0.6,0.1-0.9,0.1
				c-0.6,0-1.1-0.1-1.6-0.3c-0.5-0.2-0.9-0.5-1.3-0.8s-0.6-0.8-0.9-1.4s-0.3-1.2-0.3-1.9c0-0.6,0.1-1.1,0.3-1.6
				c0.2-0.5,0.4-0.9,0.8-1.3c0.3-0.4,0.8-0.7,1.2-0.9C184.8,162.6,185.4,162.5,186,162.5z M186.1,163.9c-0.6,0-1,0.2-1.4,0.5
				s-0.5,0.8-0.6,1.4h3.7c0-0.3,0-0.5-0.1-0.7c-0.1-0.2-0.2-0.4-0.3-0.6c-0.1-0.2-0.3-0.3-0.5-0.4
				C186.6,163.9,186.3,163.9,186.1,163.9z"/>
			<path class="st2" d="M196.6,164.2c-0.1,0.1-0.1,0.1-0.2,0.2c-0.1,0-0.1,0.1-0.2,0.1c-0.1,0-0.2,0-0.3-0.1
				c-0.1-0.1-0.2-0.1-0.4-0.2c-0.1-0.1-0.3-0.1-0.5-0.2c-0.2-0.1-0.4-0.1-0.7-0.1c-0.4,0-0.7,0.1-0.9,0.2c-0.2,0.2-0.3,0.4-0.3,0.6
				c0,0.2,0.1,0.3,0.2,0.4c0.1,0.1,0.3,0.2,0.5,0.3s0.4,0.2,0.6,0.2c0.2,0.1,0.5,0.2,0.7,0.2c0.3,0.1,0.5,0.2,0.7,0.3
				c0.2,0.1,0.5,0.2,0.6,0.4s0.3,0.4,0.5,0.6c0.1,0.2,0.2,0.5,0.2,0.8c0,0.4-0.1,0.8-0.2,1.1c-0.1,0.3-0.4,0.6-0.6,0.9
				c-0.3,0.2-0.6,0.4-1,0.6s-0.9,0.2-1.4,0.2c-0.3,0-0.6,0-0.8-0.1c-0.3-0.1-0.5-0.1-0.8-0.2s-0.5-0.2-0.7-0.3
				c-0.2-0.1-0.4-0.3-0.6-0.4l0.5-0.8c0.1-0.1,0.1-0.2,0.2-0.2s0.2-0.1,0.3-0.1c0.1,0,0.2,0,0.3,0.1s0.2,0.1,0.4,0.2
				c0.1,0.1,0.3,0.2,0.5,0.2s0.4,0.1,0.7,0.1c0.2,0,0.4,0,0.6-0.1c0.2-0.1,0.3-0.1,0.4-0.2c0.1-0.1,0.2-0.2,0.2-0.3s0.1-0.2,0.1-0.4
				c0-0.2-0.1-0.3-0.2-0.5c-0.1-0.1-0.3-0.2-0.5-0.3s-0.4-0.2-0.6-0.2c-0.2-0.1-0.5-0.2-0.7-0.2c-0.3-0.1-0.5-0.2-0.7-0.3
				c-0.2-0.1-0.5-0.3-0.6-0.4s-0.3-0.4-0.5-0.6c-0.1-0.3-0.2-0.6-0.2-0.9c0-0.3,0.1-0.7,0.2-1c0.1-0.3,0.3-0.6,0.6-0.8
				s0.6-0.4,1-0.5s0.8-0.2,1.3-0.2c0.6,0,1.1,0.1,1.5,0.3s0.9,0.4,1.2,0.7L196.6,164.2z"/>
			<path class="st2" d="M203.4,170.8v-6.7l-0.7-0.1c-0.2,0-0.3-0.1-0.4-0.2c-0.1-0.1-0.1-0.2-0.1-0.3v-0.8h1.2v-0.6
				c0-0.5,0.1-0.9,0.2-1.3s0.3-0.7,0.6-1c0.3-0.3,0.6-0.5,1-0.6c0.4-0.1,0.8-0.2,1.3-0.2c0.4,0,0.7,0.1,1.1,0.2l0,1
				c0,0.2-0.1,0.3-0.2,0.3c-0.1,0-0.3,0.1-0.5,0.1c-0.2,0-0.4,0-0.6,0.1c-0.2,0.1-0.3,0.1-0.5,0.3c-0.1,0.1-0.2,0.3-0.3,0.5
				c-0.1,0.2-0.1,0.5-0.1,0.8v0.5h2.1v1.4h-2.1v6.7H203.4z"/>
			<path class="st2" d="M212.7,162.5c0.6,0,1.2,0.1,1.7,0.3c0.5,0.2,0.9,0.5,1.3,0.8c0.4,0.4,0.6,0.8,0.8,1.3
				c0.2,0.5,0.3,1.1,0.3,1.8c0,0.7-0.1,1.2-0.3,1.8c-0.2,0.5-0.5,1-0.8,1.3c-0.4,0.4-0.8,0.7-1.3,0.8c-0.5,0.2-1.1,0.3-1.7,0.3
				s-1.2-0.1-1.7-0.3c-0.5-0.2-0.9-0.5-1.3-0.8c-0.4-0.4-0.6-0.8-0.8-1.3c-0.2-0.5-0.3-1.1-0.3-1.8c0-0.6,0.1-1.2,0.3-1.8
				c0.2-0.5,0.5-1,0.8-1.3c0.4-0.4,0.8-0.6,1.3-0.8C211.6,162.6,212.1,162.5,212.7,162.5z M212.7,169.4c0.7,0,1.2-0.2,1.5-0.7
				s0.5-1.1,0.5-2c0-0.9-0.2-1.6-0.5-2s-0.8-0.7-1.5-0.7c-0.7,0-1.2,0.2-1.5,0.7c-0.3,0.5-0.5,1.1-0.5,2c0,0.9,0.2,1.5,0.5,2
				C211.5,169.2,212,169.4,212.7,169.4z"/>
			<path class="st2" d="M218.9,170.8v-8.2h1.2c0.2,0,0.3,0,0.4,0.1c0.1,0.1,0.1,0.2,0.2,0.4l0.1,1c0.3-0.5,0.6-0.9,1-1.2
				s0.8-0.4,1.3-0.4c0.4,0,0.7,0.1,1,0.3l-0.3,1.5c0,0.1-0.1,0.2-0.1,0.2c-0.1,0-0.1,0.1-0.2,0.1c-0.1,0-0.2,0-0.3-0.1
				c-0.1,0-0.3-0.1-0.6-0.1c-0.4,0-0.8,0.1-1.1,0.3c-0.3,0.2-0.5,0.6-0.7,1v5.1H218.9z"/>
			<path class="st2" d="M232.1,166.7v4.1h-2.2v-11.6h3.8c0.8,0,1.4,0.1,2,0.3s1,0.4,1.4,0.8s0.6,0.7,0.8,1.2
				c0.2,0.5,0.3,0.9,0.3,1.5c0,0.6-0.1,1.1-0.3,1.5s-0.5,0.9-0.8,1.2s-0.8,0.6-1.4,0.8c-0.6,0.2-1.2,0.3-2,0.3H232.1z M232.1,165.1
				h1.6c0.4,0,0.7,0,1-0.1c0.3-0.1,0.5-0.2,0.7-0.4c0.2-0.2,0.3-0.4,0.4-0.7c0.1-0.3,0.1-0.6,0.1-0.9c0-0.3,0-0.6-0.1-0.8
				c-0.1-0.3-0.2-0.5-0.4-0.6c-0.2-0.2-0.4-0.3-0.7-0.4c-0.3-0.1-0.6-0.1-1-0.1h-1.6V165.1z"/>
			<path class="st2" d="M240.3,170.8v-8.2h1.2c0.2,0,0.3,0,0.4,0.1c0.1,0.1,0.1,0.2,0.2,0.4l0.1,1c0.3-0.5,0.6-0.9,1-1.2
				s0.8-0.4,1.3-0.4c0.4,0,0.7,0.1,1,0.3l-0.3,1.5c0,0.1-0.1,0.2-0.1,0.2c-0.1,0-0.1,0.1-0.2,0.1c-0.1,0-0.2,0-0.3-0.1
				c-0.1,0-0.3-0.1-0.6-0.1c-0.4,0-0.8,0.1-1.1,0.3c-0.3,0.2-0.5,0.6-0.7,1v5.1H240.3z"/>
			<path class="st2" d="M250.9,162.5c0.6,0,1.2,0.1,1.7,0.3c0.5,0.2,0.9,0.5,1.3,0.8c0.4,0.4,0.6,0.8,0.8,1.3
				c0.2,0.5,0.3,1.1,0.3,1.8c0,0.7-0.1,1.2-0.3,1.8c-0.2,0.5-0.5,1-0.8,1.3c-0.4,0.4-0.8,0.7-1.3,0.8c-0.5,0.2-1.1,0.3-1.7,0.3
				s-1.2-0.1-1.7-0.3c-0.5-0.2-0.9-0.5-1.3-0.8c-0.4-0.4-0.6-0.8-0.8-1.3c-0.2-0.5-0.3-1.1-0.3-1.8c0-0.6,0.1-1.2,0.3-1.8
				c0.2-0.5,0.5-1,0.8-1.3c0.4-0.4,0.8-0.6,1.3-0.8C249.8,162.6,250.3,162.5,250.9,162.5z M250.9,169.4c0.7,0,1.2-0.2,1.5-0.7
				s0.5-1.1,0.5-2c0-0.9-0.2-1.6-0.5-2s-0.8-0.7-1.5-0.7c-0.7,0-1.2,0.2-1.5,0.7c-0.3,0.5-0.5,1.1-0.5,2c0,0.9,0.2,1.5,0.5,2
				C249.7,169.2,250.3,169.4,250.9,169.4z"/>
			<path class="st2" d="M258.6,166.6l-2.7-4h1.9c0.1,0,0.3,0,0.3,0.1s0.1,0.1,0.2,0.2l1.7,2.7c0-0.1,0.1-0.2,0.1-0.3
				c0-0.1,0.1-0.2,0.1-0.3l1.4-2.2c0.1-0.1,0.1-0.2,0.2-0.2s0.2-0.1,0.3-0.1h1.8l-2.7,3.9l2.8,4.3h-1.9c-0.1,0-0.3,0-0.3-0.1
				c-0.1-0.1-0.2-0.2-0.2-0.3l-1.7-2.9c0,0.2-0.1,0.4-0.2,0.5l-1.5,2.4c-0.1,0.1-0.1,0.2-0.2,0.3c-0.1,0.1-0.2,0.1-0.3,0.1h-1.8
				L258.6,166.6z"/>
			<path class="st2" d="M268.3,160.2c0,0.2,0,0.3-0.1,0.5s-0.2,0.3-0.3,0.4c-0.1,0.1-0.2,0.2-0.4,0.3s-0.3,0.1-0.5,0.1
				c-0.2,0-0.3,0-0.5-0.1c-0.2-0.1-0.3-0.2-0.4-0.3c-0.1-0.1-0.2-0.2-0.3-0.4c-0.1-0.1-0.1-0.3-0.1-0.5c0-0.2,0-0.3,0.1-0.5
				c0.1-0.2,0.2-0.3,0.3-0.4s0.2-0.2,0.4-0.3c0.2-0.1,0.3-0.1,0.5-0.1c0.2,0,0.3,0,0.5,0.1c0.2,0.1,0.3,0.2,0.4,0.3
				c0.1,0.1,0.2,0.2,0.3,0.4C268.2,159.9,268.3,160,268.3,160.2z M268,162.6v8.2h-2v-8.2H268z"/>
			<path class="st2" d="M270.8,170.8v-8.2h1.2c0.3,0,0.4,0.1,0.5,0.4l0.1,0.6c0.1-0.2,0.3-0.3,0.5-0.4c0.2-0.1,0.3-0.2,0.5-0.3
				c0.2-0.1,0.4-0.2,0.6-0.2s0.4-0.1,0.7-0.1c0.5,0,0.9,0.1,1.3,0.4s0.6,0.7,0.7,1.1c0.1-0.3,0.3-0.5,0.5-0.7
				c0.2-0.2,0.4-0.4,0.6-0.5c0.2-0.1,0.5-0.2,0.7-0.3s0.5-0.1,0.8-0.1c0.5,0,0.9,0.1,1.2,0.2s0.6,0.3,0.9,0.6c0.2,0.3,0.4,0.6,0.5,1
				c0.1,0.4,0.2,0.8,0.2,1.3v5.2h-2v-5.2c0-0.5-0.1-0.9-0.3-1.2c-0.2-0.3-0.6-0.4-1-0.4c-0.2,0-0.4,0-0.6,0.1
				c-0.2,0.1-0.3,0.2-0.5,0.3c-0.1,0.1-0.2,0.3-0.3,0.5c-0.1,0.2-0.1,0.4-0.1,0.7v5.2h-2v-5.2c0-0.5-0.1-0.9-0.3-1.2s-0.5-0.4-1-0.4
				c-0.3,0-0.5,0.1-0.8,0.2s-0.5,0.3-0.7,0.6v6H270.8z"/>
			<path class="st2" d="M287.3,160.2c0,0.2,0,0.3-0.1,0.5s-0.2,0.3-0.3,0.4c-0.1,0.1-0.2,0.2-0.4,0.3s-0.3,0.1-0.5,0.1
				c-0.2,0-0.3,0-0.5-0.1c-0.2-0.1-0.3-0.2-0.4-0.3c-0.1-0.1-0.2-0.2-0.3-0.4c-0.1-0.1-0.1-0.3-0.1-0.5c0-0.2,0-0.3,0.1-0.5
				c0.1-0.2,0.2-0.3,0.3-0.4s0.2-0.2,0.4-0.3c0.2-0.1,0.3-0.1,0.5-0.1c0.2,0,0.3,0,0.5,0.1c0.2,0.1,0.3,0.2,0.4,0.3
				c0.1,0.1,0.2,0.2,0.3,0.4C287.2,159.9,287.3,160,287.3,160.2z M287,162.6v8.2h-2v-8.2H287z"/>
			<path class="st2" d="M292.5,170.9c-0.7,0-1.3-0.2-1.6-0.6c-0.4-0.4-0.6-1-0.6-1.7v-4.6h-0.8c-0.1,0-0.2,0-0.3-0.1
				s-0.1-0.2-0.1-0.3v-0.8l1.3-0.2l0.4-2.2c0-0.1,0.1-0.2,0.1-0.2c0.1-0.1,0.2-0.1,0.3-0.1h1v2.6h2.2v1.4h-2.2v4.4
				c0,0.3,0.1,0.5,0.2,0.6c0.1,0.1,0.3,0.2,0.5,0.2c0.1,0,0.2,0,0.3,0c0.1,0,0.2-0.1,0.2-0.1c0.1,0,0.1-0.1,0.2-0.1s0.1,0,0.1,0
				c0.1,0,0.1,0,0.1,0c0,0,0.1,0.1,0.1,0.1l0.6,1c-0.3,0.2-0.6,0.4-1,0.5C293.3,170.9,292.9,170.9,292.5,170.9z"/>
			<path class="st2" d="M299.5,173.1c-0.1,0.1-0.1,0.2-0.2,0.3c-0.1,0.1-0.2,0.1-0.4,0.1h-1.5l1.5-3.3l-3.3-7.6h1.7
				c0.2,0,0.3,0,0.4,0.1c0.1,0.1,0.1,0.2,0.2,0.3l1.8,4.3c0.1,0.1,0.1,0.3,0.2,0.4c0,0.1,0.1,0.3,0.1,0.4c0-0.2,0.1-0.3,0.1-0.4
				c0.1-0.1,0.1-0.3,0.2-0.4l1.6-4.2c0-0.1,0.1-0.2,0.2-0.3c0.1-0.1,0.2-0.1,0.3-0.1h1.6L299.5,173.1z"/>
			<path class="st2" d="M316.8,159.2v1.7h-5.1v3.2h4v1.7h-4v3.3h5.1v1.7h-7.3v-11.6H316.8z"/>
			<path class="st2" d="M319.1,170.8v-8.2h1.2c0.3,0,0.4,0.1,0.5,0.4l0.1,0.6c0.2-0.2,0.3-0.3,0.5-0.5c0.2-0.1,0.4-0.3,0.6-0.4
				c0.2-0.1,0.4-0.2,0.7-0.2s0.5-0.1,0.8-0.1c0.4,0,0.8,0.1,1.2,0.2c0.3,0.2,0.6,0.4,0.9,0.6s0.4,0.6,0.5,1c0.1,0.4,0.2,0.8,0.2,1.3
				v5.2h-2v-5.2c0-0.5-0.1-0.9-0.3-1.2c-0.2-0.3-0.6-0.4-1-0.4c-0.3,0-0.7,0.1-1,0.2c-0.3,0.2-0.6,0.4-0.8,0.6v5.9H319.1z"/>
			<path class="st2" d="M335.3,170.8h-0.9c-0.2,0-0.3,0-0.4-0.1s-0.2-0.2-0.2-0.3l-0.2-0.6c-0.2,0.2-0.4,0.4-0.6,0.5
				c-0.2,0.1-0.4,0.3-0.6,0.4c-0.2,0.1-0.4,0.2-0.7,0.2s-0.5,0.1-0.8,0.1c-0.3,0-0.7,0-1-0.1c-0.3-0.1-0.5-0.2-0.8-0.4
				c-0.2-0.2-0.4-0.4-0.5-0.7s-0.2-0.6-0.2-1c0-0.3,0.1-0.6,0.2-0.9c0.2-0.3,0.4-0.6,0.8-0.8c0.4-0.2,0.9-0.4,1.5-0.6
				c0.6-0.2,1.4-0.2,2.3-0.2v-0.5c0-0.6-0.1-1-0.3-1.2c-0.2-0.3-0.6-0.4-1-0.4c-0.3,0-0.6,0-0.8,0.1c-0.2,0.1-0.4,0.2-0.6,0.3
				c-0.2,0.1-0.3,0.2-0.4,0.3c-0.1,0.1-0.3,0.1-0.4,0.1c-0.1,0-0.2,0-0.3-0.1s-0.2-0.2-0.2-0.3l-0.4-0.6c0.9-0.9,2.1-1.3,3.4-1.3
				c0.5,0,0.9,0.1,1.3,0.2s0.7,0.4,1,0.7c0.3,0.3,0.5,0.6,0.6,1s0.2,0.8,0.2,1.3V170.8z M331.4,169.6c0.2,0,0.4,0,0.6-0.1
				s0.3-0.1,0.5-0.2c0.2-0.1,0.3-0.2,0.4-0.3c0.1-0.1,0.3-0.2,0.4-0.4v-1.4c-0.6,0-1.1,0-1.4,0.1s-0.7,0.2-0.9,0.3
				c-0.2,0.1-0.4,0.2-0.5,0.4s-0.1,0.3-0.1,0.5c0,0.3,0.1,0.6,0.3,0.7C330.8,169.5,331.1,169.6,331.4,169.6z"/>
			<path class="st2" d="M337.8,170.8v-11.9h2v4.7c0.3-0.3,0.7-0.6,1.1-0.8c0.4-0.2,0.9-0.3,1.4-0.3c0.4,0,0.9,0.1,1.2,0.3
				c0.4,0.2,0.7,0.5,1,0.8c0.3,0.4,0.5,0.8,0.6,1.3s0.2,1.1,0.2,1.8c0,0.6-0.1,1.2-0.2,1.7s-0.4,1-0.7,1.4c-0.3,0.4-0.7,0.7-1.1,0.9
				c-0.4,0.2-0.9,0.3-1.5,0.3c-0.2,0-0.5,0-0.7-0.1s-0.4-0.1-0.6-0.2c-0.2-0.1-0.3-0.2-0.5-0.3s-0.3-0.3-0.4-0.4l-0.1,0.6
				c0,0.1-0.1,0.2-0.2,0.3s-0.2,0.1-0.3,0.1H337.8z M341.7,164c-0.4,0-0.8,0.1-1.1,0.3c-0.3,0.2-0.6,0.4-0.8,0.7v3.7
				c0.2,0.3,0.5,0.5,0.7,0.6s0.6,0.2,0.9,0.2c0.3,0,0.6-0.1,0.8-0.2c0.2-0.1,0.4-0.3,0.6-0.5c0.2-0.2,0.3-0.5,0.4-0.9
				c0.1-0.3,0.1-0.8,0.1-1.2c0-0.5,0-0.9-0.1-1.2c-0.1-0.3-0.2-0.6-0.3-0.8c-0.1-0.2-0.3-0.4-0.5-0.5
				C342.2,164.1,341.9,164,341.7,164z"/>
			<path class="st2" d="M349.6,158.9v11.9h-2v-11.9H349.6z"/>
			<path class="st2" d="M355.8,162.5c0.5,0,1,0.1,1.4,0.2s0.8,0.4,1.1,0.7s0.6,0.7,0.7,1.2c0.2,0.5,0.3,1,0.3,1.6c0,0.1,0,0.3,0,0.4
				c0,0.1,0,0.2-0.1,0.2c0,0.1-0.1,0.1-0.1,0.1c-0.1,0-0.1,0-0.2,0h-5.1c0.1,0.8,0.3,1.5,0.7,1.9c0.4,0.4,0.9,0.6,1.6,0.6
				c0.3,0,0.6,0,0.8-0.1c0.2-0.1,0.4-0.2,0.6-0.2c0.2-0.1,0.3-0.2,0.5-0.2c0.1-0.1,0.3-0.1,0.4-0.1c0.1,0,0.1,0,0.2,0
				s0.1,0.1,0.2,0.1l0.6,0.7c-0.2,0.3-0.5,0.5-0.7,0.6c-0.3,0.2-0.6,0.3-0.9,0.4c-0.3,0.1-0.6,0.2-0.9,0.2c-0.3,0-0.6,0.1-0.9,0.1
				c-0.6,0-1.1-0.1-1.6-0.3c-0.5-0.2-0.9-0.5-1.3-0.8s-0.6-0.8-0.9-1.4s-0.3-1.2-0.3-1.9c0-0.6,0.1-1.1,0.3-1.6
				c0.2-0.5,0.4-0.9,0.8-1.3c0.3-0.4,0.8-0.7,1.2-0.9C354.7,162.6,355.2,162.5,355.8,162.5z M355.9,163.9c-0.6,0-1,0.2-1.4,0.5
				s-0.5,0.8-0.6,1.4h3.7c0-0.3,0-0.5-0.1-0.7c-0.1-0.2-0.2-0.4-0.3-0.6c-0.1-0.2-0.3-0.3-0.5-0.4
				C356.4,163.9,356.2,163.9,355.9,163.9z"/>
			<path class="st2" d="M361.6,170.8v-8.2h1.2c0.3,0,0.4,0.1,0.5,0.4l0.1,0.6c0.1-0.2,0.3-0.3,0.5-0.4c0.2-0.1,0.3-0.2,0.5-0.3
				c0.2-0.1,0.4-0.2,0.6-0.2s0.4-0.1,0.7-0.1c0.5,0,0.9,0.1,1.3,0.4s0.6,0.7,0.7,1.1c0.1-0.3,0.3-0.5,0.5-0.7
				c0.2-0.2,0.4-0.4,0.6-0.5c0.2-0.1,0.5-0.2,0.7-0.3s0.5-0.1,0.8-0.1c0.5,0,0.9,0.1,1.2,0.2s0.6,0.3,0.9,0.6c0.2,0.3,0.4,0.6,0.5,1
				c0.1,0.4,0.2,0.8,0.2,1.3v5.2h-2v-5.2c0-0.5-0.1-0.9-0.3-1.2c-0.2-0.3-0.6-0.4-1-0.4c-0.2,0-0.4,0-0.6,0.1
				c-0.2,0.1-0.3,0.2-0.5,0.3c-0.1,0.1-0.2,0.3-0.3,0.5c-0.1,0.2-0.1,0.4-0.1,0.7v5.2h-2v-5.2c0-0.5-0.1-0.9-0.3-1.2s-0.5-0.4-1-0.4
				c-0.3,0-0.5,0.1-0.8,0.2s-0.5,0.3-0.7,0.6v6H361.6z"/>
			<path class="st2" d="M379,162.5c0.5,0,1,0.1,1.4,0.2s0.8,0.4,1.1,0.7s0.6,0.7,0.7,1.2c0.2,0.5,0.3,1,0.3,1.6c0,0.1,0,0.3,0,0.4
				c0,0.1,0,0.2-0.1,0.2c0,0.1-0.1,0.1-0.1,0.1c-0.1,0-0.1,0-0.2,0h-5.1c0.1,0.8,0.3,1.5,0.7,1.9c0.4,0.4,0.9,0.6,1.6,0.6
				c0.3,0,0.6,0,0.8-0.1c0.2-0.1,0.4-0.2,0.6-0.2c0.2-0.1,0.3-0.2,0.5-0.2c0.1-0.1,0.3-0.1,0.4-0.1c0.1,0,0.1,0,0.2,0
				s0.1,0.1,0.2,0.1l0.6,0.7c-0.2,0.3-0.5,0.5-0.7,0.6c-0.3,0.2-0.6,0.3-0.9,0.4c-0.3,0.1-0.6,0.2-0.9,0.2c-0.3,0-0.6,0.1-0.9,0.1
				c-0.6,0-1.1-0.1-1.6-0.3c-0.5-0.2-0.9-0.5-1.3-0.8s-0.6-0.8-0.9-1.4s-0.3-1.2-0.3-1.9c0-0.6,0.1-1.1,0.3-1.6
				c0.2-0.5,0.4-0.9,0.8-1.3c0.3-0.4,0.8-0.7,1.2-0.9C377.9,162.6,378.4,162.5,379,162.5z M379.1,163.9c-0.6,0-1,0.2-1.4,0.5
				s-0.5,0.8-0.6,1.4h3.7c0-0.3,0-0.5-0.1-0.7c-0.1-0.2-0.2-0.4-0.3-0.6c-0.1-0.2-0.3-0.3-0.5-0.4
				C379.6,163.9,379.4,163.9,379.1,163.9z"/>
			<path class="st2" d="M384.8,170.8v-8.2h1.2c0.3,0,0.4,0.1,0.5,0.4l0.1,0.6c0.2-0.2,0.3-0.3,0.5-0.5c0.2-0.1,0.4-0.3,0.6-0.4
				c0.2-0.1,0.4-0.2,0.7-0.2s0.5-0.1,0.8-0.1c0.4,0,0.8,0.1,1.2,0.2c0.3,0.2,0.6,0.4,0.9,0.6s0.4,0.6,0.5,1c0.1,0.4,0.2,0.8,0.2,1.3
				v5.2h-2v-5.2c0-0.5-0.1-0.9-0.3-1.2c-0.2-0.3-0.6-0.4-1-0.4c-0.3,0-0.7,0.1-1,0.2c-0.3,0.2-0.6,0.4-0.8,0.6v5.9H384.8z"/>
			<path class="st2" d="M397.2,170.9c-0.7,0-1.3-0.2-1.6-0.6c-0.4-0.4-0.6-1-0.6-1.7v-4.6h-0.8c-0.1,0-0.2,0-0.3-0.1
				s-0.1-0.2-0.1-0.3v-0.8l1.3-0.2l0.4-2.2c0-0.1,0.1-0.2,0.1-0.2c0.1-0.1,0.2-0.1,0.3-0.1h1v2.6h2.2v1.4h-2.2v4.4
				c0,0.3,0.1,0.5,0.2,0.6c0.1,0.1,0.3,0.2,0.5,0.2c0.1,0,0.2,0,0.3,0c0.1,0,0.2-0.1,0.2-0.1c0.1,0,0.1-0.1,0.2-0.1s0.1,0,0.1,0
				c0.1,0,0.1,0,0.1,0c0,0,0.1,0.1,0.1,0.1l0.6,1c-0.3,0.2-0.6,0.4-1,0.5C398,170.9,397.6,170.9,397.2,170.9z"/>
		</g>
	</g>
</g>
</svg>
