<?xml version="1.0" encoding="utf-8"?>
<!-- Generator: Adobe Illustrator 19.2.0, SVG Export Plug-In . SVG Version: 6.00 Build 0)  -->
<svg version="1.1" id="Layer_1" xmlns="http://www.w3.org/2000/svg" xmlns:xlink="http://www.w3.org/1999/xlink" x="0px" y="0px"
	 viewBox="0 0 29.8 29.8" style="enable-background:new 0 0 29.8 29.8;" xml:space="preserve">
<g>
	<g>
		<path d="M27.6,0H2.2C1,0,0,1,0,2.2v25.5c0,1.2,1,2.2,2.2,2.2h25.4c1.2,0,2.2-1,2.2-2.2V2.2C29.8,1,28.8,0,27.6,0z M8.8,25.4H4.4
			V11.2h4.4V25.4z M6.6,9.2c-1.4,0-2.6-1.2-2.6-2.6s1.1-2.6,2.6-2.6c1.4,0,2.6,1.2,2.6,2.6S8.1,9.2,6.6,9.2z M25.4,25.4H21v-6.9
			c0-1.7,0-3.8-2.3-3.8c-2.3,0-2.7,1.8-2.7,3.7v7h-4.4V11.2h4.2v1.9h0.1c0.6-1.1,2-2.3,4.2-2.3c4.5,0,5.3,2.9,5.3,6.8V25.4z"/>
	</g>
</g>
</svg>
