<?xml version="1.0" encoding="utf-8"?>
<!-- Generator: Adobe Illustrator 19.2.0, SVG Export Plug-In . SVG Version: 6.00 Build 0)  -->
<svg version="1.1" id="Layer_1" xmlns="http://www.w3.org/2000/svg" xmlns:xlink="http://www.w3.org/1999/xlink" x="0px" y="0px"
	 viewBox="0 0 46.6 31.7" style="enable-background:new 0 0 46.6 31.7;" xml:space="preserve">
<style type="text/css">
	.st0{fill:#55ACEE;}
	.st1{fill:#FFFFFF;}
</style>
<path class="st0" d="M42.7,30.4H3.8c-1.1,0-2-0.9-2-2V3.2c0-1.1,0.9-2,2-2h38.9c1.1,0,2,0.9,2,2v25.2C44.7,29.5,43.8,30.4,42.7,30.4
	z"/>
<path class="st1" d="M35.7,8.1c-0.9,0.4-1.9,0.7-2.9,0.8c1-0.6,1.9-1.6,2.2-2.8c-1,0.6-2.1,1-3.2,1.2c-0.9-1-2.3-1.6-3.7-1.6
	C25.2,5.7,23,8,23,10.8c0,0.4,0,0.8,0.1,1.2c-4.2-0.2-8-2.2-10.5-5.3c-0.4,0.8-0.7,1.6-0.7,2.6c0,1.8,0.9,3.3,2.3,4.2
	c-0.8,0-1.6-0.3-2.3-0.6c0,0,0,0,0,0.1c0,2.5,1.8,4.5,4.1,5c-0.4,0.1-0.9,0.2-1.3,0.2c-0.3,0-0.6,0-1-0.1c0.6,2,2.5,3.5,4.8,3.5
	c-1.7,1.4-3.9,2.2-6.3,2.2c-0.4,0-0.8,0-1.2-0.1c2.3,1.4,4.9,2.3,7.8,2.3c9.4,0,14.5-7.8,14.5-14.5c0-0.2,0-0.4,0-0.7
	C34.1,10.1,35,9.2,35.7,8.1z"/>
</svg>
