<?xml version="1.0" encoding="utf-8"?>
<!-- Generator: Adobe Illustrator 19.2.0, SVG Export Plug-In . SVG Version: 6.00 Build 0)  -->
<svg version="1.1" id="Layer_1" xmlns="http://www.w3.org/2000/svg" xmlns:xlink="http://www.w3.org/1999/xlink" x="0px" y="0px"
	 viewBox="0 0 46.6 31.7" style="enable-background:new 0 0 46.6 31.7;" xml:space="preserve">
<style type="text/css">
	.st0{fill:#3E5C9A;}
	.st1{fill:#FFFFFF;}
</style>
<path class="st0" d="M42.7,30.4H3.8c-1.1,0-2-0.9-2-2V3.2c0-1.1,0.9-2,2-2h38.9c1.1,0,2,0.9,2,2v25.2C44.7,29.5,43.8,30.4,42.7,30.4
	z"/>
<path class="st1" d="M25.6,9.1c0.4-0.3,1.5-0.3,3.3-0.2V5c-2-0.1-5.8-0.5-7.3,2.1c-0.7,1.1-0.7,2.8-0.7,3.9v1.8h-3.2v4h3.2v9.9h4.2
	v-9.9h3.2l0.4-4h-3.6v-1.7C25.1,10.2,25.1,9.4,25.6,9.1z"/>
</svg>
