<?xml version="1.0" encoding="utf-8"?>
<!-- Generator: Adobe Illustrator 20.0.0, SVG Export Plug-In . SVG Version: 6.00 Build 0)  -->
<svg version="1.1" id="Layer_1" xmlns="http://www.w3.org/2000/svg" xmlns:xlink="http://www.w3.org/1999/xlink" x="0px" y="0px"
	 viewBox="0 0 92.2 136.8" style="enable-background:new 0 0 92.2 136.8;" xml:space="preserve">
<style type="text/css">
	.st0{fill:#2E2E2E;}
</style>
<polygon class="st0" points="92.2,7.2 85,0 46.1,38.9 7.2,0 0,7.2 38.9,46.1 0,85 7.2,92.2 46.1,53.3 85,92.2 92.2,85 53.3,46.1 "/>
<g>
	<path class="st0" d="M23.1,111.4v3.8H11.8v7h8.9v3.6h-8.9v7.2h11.3v3.8h-16v-25.4H23.1z"/>
	<path class="st0" d="M35,123.7l-8.1-12.3h4.7c0.3,0,0.6,0,0.7,0.1c0.1,0.1,0.3,0.2,0.4,0.4l5.8,9.3c0.1-0.2,0.1-0.3,0.2-0.4
		c0.1-0.1,0.2-0.3,0.2-0.4l5.3-8.3c0.3-0.4,0.6-0.6,1-0.6h4.5l-8.2,12.1l8.4,13.3h-4.7c-0.3,0-0.6-0.1-0.8-0.2
		c-0.2-0.2-0.4-0.4-0.5-0.6l-5.9-9.7c0,0.1-0.1,0.3-0.2,0.4c-0.1,0.1-0.1,0.2-0.2,0.3l-5.6,9c-0.1,0.2-0.3,0.4-0.5,0.6
		c-0.2,0.2-0.4,0.3-0.7,0.3h-4.4L35,123.7z"/>
	<path class="st0" d="M59.8,136.8h-4.7v-25.4h4.7V136.8z"/>
	<path class="st0" d="M85.2,111.4v3.9h-7.6v21.5h-4.7v-21.5h-7.7v-3.9H85.2z"/>
</g>
</svg>
