<?xml version="1.0" encoding="utf-8"?>
<!-- Generator: Adobe Illustrator 19.2.0, SVG Export Plug-In . SVG Version: 6.00 Build 0)  -->
<svg version="1.1" id="Layer_1" xmlns="http://www.w3.org/2000/svg" xmlns:xlink="http://www.w3.org/1999/xlink" x="0px" y="0px"
	 viewBox="0 0 432.4 342" style="enable-background:new 0 0 432.4 342;" xml:space="preserve">
<style type="text/css">
	.st0{fill:#4DB45A;}
	.st1{fill:#4DBE5A;}
	.st2{fill:#4DAA5A;}
	.st3{fill:#4DC85A;}
	.st4{fill:#4DD25A;}
	.st5{fill:#4DDB5A;}
	.st6{fill:#383838;}
	.st7{fill:#0051C6;}
</style>
<g>
	<g>
		<g>
			<g>
				<path class="st0" d="M251.4,102.4h3.4V14.9h-3.4c-5.4,0-9.8,4.4-9.8,9.8v68C241.6,98.1,246,102.4,251.4,102.4z"/>
			</g>
		</g>
		<g>
			<g>
				<path class="st1" d="M230,106.2h3.4v-95H230c-5.4,0-9.8,4.4-9.8,9.8v75.4C220.2,101.8,224.6,106.2,230,106.2z"/>
			</g>
		</g>
		<g>
			<g>
				<path class="st2" d="M272.7,98.8h3.4V18.5h-3.4c-5.4,0-9.8,4.4-9.8,9.8v60.8C263,94.5,267.3,98.8,272.7,98.8z"/>
			</g>
		</g>
		<g>
			<g>
				<path class="st3" d="M208.6,109.9h3.4V7.5h-3.4c-5.4,0-9.8,4.4-9.8,9.8v82.9C198.8,105.5,203.2,109.9,208.6,109.9z"/>
			</g>
		</g>
		<g>
			<g>
				<path class="st4" d="M187.2,113.6h3.4V3.7h-3.4c-5.4,0-9.8,4.4-9.8,9.8v90.4C177.5,109.3,181.8,113.6,187.2,113.6z"/>
			</g>
		</g>
		<g>
			<g>
				<path class="st5" d="M165.9,117.4h3.4V0h-3.4c-5.4,0-9.8,4.4-9.8,9.8v97.8C156.1,113,160.5,117.4,165.9,117.4z"/>
			</g>
		</g>
	</g>
	<g>
		<path class="st6" d="M9.6,334.2l-7.4-19.4H2.1c0.1,1.5,0.2,3.4,0.2,5.5v13.9H0v-21.9h3.8l6.9,18h0.1l7-18h3.8v21.9h-2.5v-14.1
			c0-1.6,0.1-3.4,0.2-5.3h-0.2l-7.5,19.4H9.6z"/>
		<path class="st6" d="M42.3,326c0,2.7-0.7,4.8-2,6.3s-3.2,2.3-5.6,2.3c-1.5,0-2.8-0.3-3.9-1c-1.1-0.7-2-1.7-2.6-3s-0.9-2.8-0.9-4.5
			c0-2.7,0.7-4.8,2-6.2c1.3-1.5,3.2-2.2,5.6-2.2c2.3,0,4.1,0.8,5.5,2.3C41.6,321.4,42.3,323.4,42.3,326z M29.8,326
			c0,2.1,0.4,3.7,1.3,4.8c0.8,1.1,2.1,1.6,3.7,1.6c1.6,0,2.9-0.5,3.7-1.6c0.8-1.1,1.3-2.7,1.3-4.8s-0.4-3.7-1.3-4.8
			c-0.8-1.1-2.1-1.6-3.7-1.6c-1.6,0-2.9,0.5-3.7,1.6C30.2,322.3,29.8,323.9,29.8,326z"/>
		<path class="st6" d="M54.9,317.5c0.7,0,1.4,0.1,2,0.2l-0.3,2.3c-0.7-0.1-1.3-0.2-1.8-0.2c-1.3,0-2.5,0.5-3.4,1.6
			c-0.9,1.1-1.4,2.4-1.4,4v8.8h-2.5v-16.4h2l0.3,3h0.1c0.6-1.1,1.3-1.9,2.2-2.5C53,317.8,53.9,317.5,54.9,317.5z"/>
		<path class="st6" d="M67.6,334.5c-2.4,0-4.3-0.7-5.7-2.2s-2.1-3.5-2.1-6.1c0-2.6,0.7-4.7,2-6.3c1.3-1.6,3-2.3,5.2-2.3
			c2.1,0,3.7,0.7,4.9,2c1.2,1.4,1.8,3.1,1.8,5.3v1.6H62.4c0.1,1.9,0.5,3.4,1.5,4.4c0.9,1,2.2,1.5,3.9,1.5c1.8,0,3.5-0.4,5.2-1.1v2.2
			c-0.9,0.4-1.7,0.7-2.5,0.8S68.7,334.5,67.6,334.5z M66.9,319.6c-1.3,0-2.4,0.4-3.1,1.3c-0.8,0.9-1.2,2-1.4,3.6H71
			c0-1.6-0.3-2.8-1-3.6C69.2,320,68.2,319.6,66.9,319.6z"/>
		<path class="st6" d="M98.3,334.2l-7.4-19.4h-0.1c0.1,1.5,0.2,3.4,0.2,5.5v13.9h-2.3v-21.9h3.8l6.9,18h0.1l7-18h3.8v21.9h-2.5
			v-14.1c0-1.6,0.1-3.4,0.2-5.3h-0.1l-7.5,19.4H98.3z"/>
		<path class="st6" d="M131,326c0,2.7-0.7,4.8-2,6.3s-3.2,2.3-5.6,2.3c-1.5,0-2.8-0.3-3.9-1s-2-1.7-2.6-3s-0.9-2.8-0.9-4.5
			c0-2.7,0.7-4.8,2-6.2c1.3-1.5,3.2-2.2,5.6-2.2c2.3,0,4.1,0.8,5.5,2.3C130.3,321.4,131,323.4,131,326z M118.5,326
			c0,2.1,0.4,3.7,1.3,4.8c0.8,1.1,2.1,1.6,3.7,1.6s2.9-0.5,3.7-1.6c0.8-1.1,1.3-2.7,1.3-4.8s-0.4-3.7-1.3-4.8
			c-0.8-1.1-2.1-1.6-3.7-1.6s-2.9,0.5-3.7,1.6C118.9,322.3,118.5,323.9,118.5,326z"/>
		<path class="st6" d="M143.8,317.6c2.2,0,3.8,0.7,5,2.2s1.8,3.6,1.8,6.2c0,2.7-0.6,4.8-1.8,6.3c-1.2,1.5-2.9,2.2-5,2.2
			c-1.1,0-2-0.2-2.9-0.6c-0.9-0.4-1.6-1-2.2-1.8h-0.2l-0.5,2.1h-1.8v-23.3h2.5v5.7c0,1.3,0,2.4-0.1,3.4h0.1
			C139.8,318.4,141.5,317.6,143.8,317.6z M143.4,319.7c-1.7,0-2.9,0.5-3.7,1.5c-0.7,1-1.1,2.6-1.1,4.9s0.4,4,1.2,4.9
			c0.8,1,2,1.5,3.7,1.5c1.5,0,2.7-0.6,3.4-1.7c0.7-1.1,1.1-2.7,1.1-4.8c0-2.1-0.4-3.7-1.1-4.8C146.2,320.2,145,319.7,143.4,319.7z"
			/>
		<path class="st6" d="M155.6,313.4c0-0.6,0.1-1,0.4-1.2s0.6-0.4,1-0.4s0.7,0.1,1,0.4s0.4,0.7,0.4,1.2c0,0.6-0.1,1-0.4,1.2
			c-0.3,0.3-0.6,0.4-1,0.4s-0.8-0.1-1-0.4C155.7,314.4,155.6,314,155.6,313.4z M158.3,334.2h-2.5v-16.4h2.5V334.2z"/>
		<path class="st6" d="M166.8,334.2h-2.5v-23.3h2.5V334.2z"/>
		<path class="st6" d="M172.6,313.4c0-0.6,0.1-1,0.4-1.2c0.3-0.3,0.6-0.4,1-0.4s0.7,0.1,1,0.4s0.4,0.7,0.4,1.2c0,0.6-0.1,1-0.4,1.2
			c-0.3,0.3-0.6,0.4-1,0.4s-0.8-0.1-1-0.4C172.7,314.4,172.6,314,172.6,313.4z M175.2,334.2h-2.5v-16.4h2.5V334.2z"/>
		<path class="st6" d="M186.9,332.5c0.4,0,0.9,0,1.3-0.1c0.4-0.1,0.7-0.1,1-0.2v1.9c-0.3,0.1-0.7,0.2-1.2,0.3
			c-0.5,0.1-1,0.1-1.4,0.1c-3.2,0-4.8-1.7-4.8-5v-9.7h-2.3v-1.2l2.3-1l1-3.5h1.4v3.8h4.8v1.9h-4.8v9.7c0,1,0.2,1.7,0.7,2.3
			C185.5,332.2,186.1,332.5,186.9,332.5z"/>
		<path class="st6" d="M192.2,317.8h2.7l3.6,9.4c0.8,2.1,1.3,3.7,1.5,4.6h0.1c0.1-0.5,0.4-1.4,0.8-2.6s1.8-5,4.1-11.4h2.7l-7,18.7
			c-0.7,1.8-1.5,3.2-2.4,3.9c-0.9,0.8-2.1,1.2-3.4,1.2c-0.8,0-1.5-0.1-2.2-0.3v-2c0.5,0.1,1.2,0.2,1.8,0.2c1.7,0,2.9-1,3.7-2.9
			l0.9-2.3L192.2,317.8z"/>
		<path class="st6" d="M209.4,332.7c0-0.7,0.2-1.2,0.5-1.5s0.7-0.5,1.3-0.5c0.6,0,1,0.2,1.4,0.5c0.3,0.3,0.5,0.9,0.5,1.5
			c0,0.6-0.2,1.1-0.5,1.5c-0.3,0.3-0.8,0.5-1.3,0.5s-0.9-0.2-1.3-0.5S209.4,333.4,209.4,332.7z"/>
		<path class="st6" d="M238.4,334.2l-7.4-19.4h-0.1c0.1,1.5,0.2,3.4,0.2,5.5v13.9h-2.3v-21.9h3.8l6.9,18h0.1l7-18h3.8v21.9h-2.5
			v-14.1c0-1.6,0.1-3.4,0.2-5.3H248l-7.5,19.4H238.4z"/>
		<path class="st6" d="M271.1,326c0,2.7-0.7,4.8-2,6.3s-3.2,2.3-5.6,2.3c-1.5,0-2.8-0.3-3.9-1s-2-1.7-2.6-3s-0.9-2.8-0.9-4.5
			c0-2.7,0.7-4.8,2-6.2c1.3-1.5,3.2-2.2,5.6-2.2c2.3,0,4.1,0.8,5.5,2.3C270.4,321.4,271.1,323.4,271.1,326z M258.6,326
			c0,2.1,0.4,3.7,1.3,4.8c0.8,1.1,2.1,1.6,3.7,1.6s2.9-0.5,3.7-1.6c0.8-1.1,1.3-2.7,1.3-4.8s-0.4-3.7-1.3-4.8
			c-0.8-1.1-2.1-1.6-3.7-1.6s-2.9,0.5-3.7,1.6C259,322.3,258.6,323.9,258.6,326z"/>
		<path class="st6" d="M283.7,317.5c0.7,0,1.4,0.1,2,0.2l-0.3,2.3c-0.7-0.1-1.3-0.2-1.8-0.2c-1.3,0-2.5,0.5-3.4,1.6
			c-0.9,1.1-1.4,2.4-1.4,4v8.8h-2.5v-16.4h2.1l0.3,3h0.1c0.6-1.1,1.3-1.9,2.2-2.5C281.8,317.8,282.7,317.5,283.7,317.5z"/>
		<path class="st6" d="M296.4,334.5c-2.4,0-4.3-0.7-5.7-2.2c-1.4-1.5-2.1-3.5-2.1-6.1c0-2.6,0.7-4.7,2-6.3c1.3-1.6,3.1-2.3,5.2-2.3
			s3.7,0.7,4.9,2c1.2,1.4,1.8,3.1,1.8,5.3v1.6h-11.4c0.1,1.9,0.5,3.4,1.5,4.4c0.9,1,2.2,1.5,3.9,1.5c1.8,0,3.5-0.4,5.2-1.1v2.2
			c-0.9,0.4-1.7,0.7-2.5,0.8C298.4,334.5,297.5,334.5,296.4,334.5z M295.7,319.6c-1.3,0-2.4,0.4-3.1,1.3c-0.8,0.9-1.2,2-1.4,3.6h8.6
			c0-1.6-0.3-2.8-1-3.6C298.1,320.1,297,319.6,295.7,319.6z"/>
		<path class="st6" d="M326.8,314.3c-2.4,0-4.3,0.8-5.7,2.4c-1.4,1.6-2.1,3.8-2.1,6.6c0,2.9,0.7,5.1,2,6.6s3.3,2.3,5.7,2.3
			c1.5,0,3.3-0.3,5.2-0.8v2.2c-1.5,0.6-3.4,0.9-5.6,0.9c-3.2,0-5.7-1-7.5-2.9c-1.8-2-2.6-4.7-2.6-8.3c0-2.3,0.4-4.2,1.3-5.9
			c0.8-1.7,2.1-3,3.7-3.9c1.6-0.9,3.5-1.4,5.6-1.4c2.3,0,4.3,0.4,6,1.3l-1.1,2.2C330.1,314.7,328.5,314.3,326.8,314.3z"/>
		<path class="st6" d="M351,326c0,2.7-0.7,4.8-2,6.3s-3.2,2.3-5.6,2.3c-1.5,0-2.8-0.3-3.9-1c-1.1-0.7-2-1.7-2.6-3s-0.9-2.8-0.9-4.5
			c0-2.7,0.7-4.8,2-6.2c1.3-1.5,3.2-2.2,5.6-2.2c2.3,0,4.1,0.8,5.5,2.3C350.3,321.4,351,323.4,351,326z M338.5,326
			c0,2.1,0.4,3.7,1.3,4.8s2.1,1.6,3.7,1.6c1.6,0,2.9-0.5,3.7-1.6c0.8-1.1,1.3-2.7,1.3-4.8s-0.4-3.7-1.3-4.8
			c-0.8-1.1-2.1-1.6-3.7-1.6c-1.6,0-2.9,0.5-3.7,1.6C338.9,322.3,338.5,323.9,338.5,326z"/>
		<path class="st6" d="M367.4,334.2v-10.6c0-1.3-0.3-2.3-0.9-3c-0.6-0.7-1.6-1-2.9-1c-1.7,0-3,0.5-3.8,1.4c-0.8,0.9-1.2,2.5-1.2,4.6
			v8.6h-2.5v-16.4h2l0.4,2.2h0.1c0.5-0.8,1.2-1.4,2.1-1.9c0.9-0.4,1.9-0.7,3.1-0.7c2,0,3.5,0.5,4.5,1.4c1,1,1.5,2.5,1.5,4.6v10.7
			L367.4,334.2L367.4,334.2z"/>
		<path class="st6" d="M381.2,332.5c0.4,0,0.9,0,1.3-0.1c0.4-0.1,0.7-0.1,1-0.2v1.9c-0.3,0.1-0.7,0.2-1.2,0.3
			c-0.5,0.1-1,0.1-1.4,0.1c-3.2,0-4.8-1.7-4.8-5v-9.7h-2.3v-1.2l2.3-1l1-3.5h1.4v3.8h4.8v1.9h-4.8v9.7c0,1,0.2,1.7,0.7,2.3
			C379.8,332.2,380.4,332.5,381.2,332.5z"/>
		<path class="st6" d="M395.3,317.5c0.7,0,1.4,0.1,2,0.2L397,320c-0.7-0.1-1.3-0.2-1.8-0.2c-1.3,0-2.5,0.5-3.4,1.6
			c-0.9,1.1-1.4,2.4-1.4,4v8.8h-2.5v-16.4h2.1l0.3,3h0.1c0.6-1.1,1.3-1.9,2.2-2.5C393.3,317.8,394.3,317.5,395.3,317.5z"/>
		<path class="st6" d="M415.2,326c0,2.7-0.7,4.8-2,6.3s-3.2,2.3-5.6,2.3c-1.5,0-2.8-0.3-3.9-1c-1.1-0.7-2-1.7-2.6-3
			s-0.9-2.8-0.9-4.5c0-2.7,0.7-4.8,2-6.2c1.3-1.5,3.2-2.2,5.6-2.2c2.3,0,4.1,0.8,5.5,2.3C414.5,321.4,415.2,323.4,415.2,326z
			 M402.7,326c0,2.1,0.4,3.7,1.3,4.8c0.8,1.1,2.1,1.6,3.7,1.6c1.6,0,2.9-0.5,3.7-1.6c0.8-1.1,1.3-2.7,1.3-4.8s-0.4-3.7-1.3-4.8
			c-0.8-1.1-2.1-1.6-3.7-1.6c-1.6,0-2.9,0.5-3.7,1.6C403.1,322.3,402.7,323.9,402.7,326z"/>
		<path class="st6" d="M422.9,334.2h-2.5v-23.3h2.5V334.2z"/>
		<path class="st6" d="M428.7,332.7c0-0.7,0.2-1.2,0.5-1.5s0.7-0.5,1.3-0.5s1,0.2,1.4,0.5c0.3,0.3,0.5,0.9,0.5,1.5
			c0,0.6-0.2,1.1-0.5,1.5c-0.3,0.3-0.8,0.5-1.3,0.5s-0.9-0.2-1.3-0.5C428.8,333.9,428.7,333.4,428.7,332.7z"/>
	</g>
	<g>
		<g>
			<path class="st7" d="M409.3,243.5v-1h6.9v1h-2.9v7.6h-1.2v-7.6H409.3z"/>
			<path class="st7" d="M419.1,242.6l2.7,7.2l2.7-7.2h1.6v8.6H425v-7.1l0,0l-2.7,7.1h-1l-2.7-7.1l0,0v7.1h-1.1v-8.6H419.1z"/>
		</g>
		<g>
			<path class="st7" d="M43.6,145.2c8.6,0,15.6,7,15.6,15.6h21.9c0-20.7-16.8-37.5-37.5-37.5S6.1,140.2,6.1,160.8
				s16.8,37.5,37.5,37.5c8.6,0,15.6,7,15.6,15.6s-7,15.6-15.6,15.6s-15.6-7-15.6-15.6H6.1c0,20.7,16.8,37.5,37.5,37.5
				s37.5-16.8,37.5-37.5s-16.8-37.5-37.5-37.5c-8.6,0-15.6-7-15.6-15.6S35,145.2,43.6,145.2z"/>
			<circle class="st7" cx="105" cy="134.6" r="10.9"/>
			<rect x="94.1" y="161.8" class="st7" width="21.9" height="89.7"/>
			<circle class="st7" cx="317.9" cy="134.6" r="10.9"/>
			<rect x="306.9" y="161.8" class="st7" width="21.9" height="89.7"/>
			<rect x="342" y="123.5" class="st7" width="21.9" height="128"/>
			<rect x="378" y="123.5" class="st7" width="21.9" height="128"/>
			<path class="st7" d="M293.4,205.8v-44h-21.9v6.4c-6.8-4-14.5-6.3-22.9-6.3c-24.6,0-44.7,20-44.7,44.7c0,24.6,20.1,44.7,44.7,44.7
				c8.3,0,16.1-2.3,22.9-6.3v4c0,13.5-11.1,24.6-24.5,24.6h-16v21.9h16c25.5,0,46.4-20.9,46.4-46.5v-41.5c0-0.3,0-0.6,0-0.9
				S293.4,206.1,293.4,205.8z M248.7,229.5c-12.6,0-22.9-10.2-22.9-22.8s10.3-22.9,22.9-22.9c12.4,0,22.5,10,22.9,22.4v0.9
				C271.3,219.5,261.1,229.5,248.7,229.5z"/>
			<polygon class="st7" points="210.2,161.8 184.5,161.8 169.5,186 154.6,161.8 128.9,161.8 156.7,206.8 129.1,251.5 154.8,251.5 
				169.5,227.6 184.3,251.5 210,251.5 182.4,206.8 			"/>
		</g>
	</g>
</g>
</svg>
