<?xml version="1.0" encoding="utf-8"?>
<!-- Generator: Adobe Illustrator 20.0.0, SVG Export Plug-In . SVG Version: 6.00 Build 0)  -->
<svg version="1.1" id="Layer_1" xmlns="http://www.w3.org/2000/svg" xmlns:xlink="http://www.w3.org/1999/xlink" x="0px" y="0px"
	 viewBox="0 0 470 175" style="enable-background:new 0 0 470 175;" xml:space="preserve">
<style type="text/css">
	.st0{fill:#0051C6;}
	.st1{fill:#4DDB5A;}
</style>
<g>
	<g>
		<path class="st0" d="M64.4,63.3c-0.6,1-1.2,1.6-1.9,2c-0.7,0.4-1.5,0.6-2.5,0.6c-1.1,0-2.3-0.3-3.5-0.9c-1.2-0.6-2.7-1.3-4.3-2
			c-1.6-0.8-3.5-1.4-5.6-2C44.5,60.3,42,60,39.2,60c-4.4,0-7.9,0.9-10.4,2.8c-2.5,1.9-3.8,4.3-3.8,7.3c0,2,0.6,3.7,2,5
			c1.3,1.4,3,2.6,5.2,3.6c2.1,1,4.6,1.9,7.3,2.8s5.5,1.7,8.3,2.7c2.8,1,5.6,2.1,8.3,3.3c2.7,1.2,5.2,2.8,7.3,4.7
			c2.1,1.9,3.9,4.2,5.2,6.8c1.3,2.7,2,5.9,2,9.6c0,4.5-0.8,8.6-2.4,12.4c-1.6,3.8-4,7-7.2,9.8c-3.1,2.8-7,4.9-11.7,6.4
			c-4.6,1.5-9.9,2.3-15.9,2.3c-3.2,0-6.3-0.3-9.4-0.9c-3.1-0.6-6-1.4-8.8-2.4c-2.8-1-5.4-2.2-7.8-3.6c-2.4-1.4-4.5-2.9-6.3-4.5
			l5.2-8.5c0.7-1,1.5-1.8,2.4-2.4c0.9-0.5,2.1-0.8,3.4-0.8c1.4,0,2.7,0.4,3.9,1.2c1.2,0.8,2.7,1.6,4.3,2.5c1.6,0.9,3.6,1.8,5.8,2.5
			c2.2,0.8,5,1.2,8.4,1.2c2.7,0,4.9-0.3,6.8-1s3.5-1.5,4.7-2.5c1.2-1,2.1-2.2,2.7-3.6c0.6-1.4,0.9-2.8,0.9-4.2c0-2.2-0.7-4-2-5.4
			c-1.3-1.4-3-2.6-5.2-3.6c-2.1-1-4.6-1.9-7.3-2.8c-2.8-0.8-5.6-1.7-8.4-2.7c-2.9-1-5.7-2.1-8.4-3.4C15.4,93.6,13,92,10.8,90
			c-2.1-2-3.9-4.4-5.2-7.3c-1.3-2.9-2-6.4-2-10.5c0-3.8,0.8-7.4,2.3-10.9c1.5-3.4,3.7-6.5,6.7-9c2.9-2.6,6.6-4.6,11-6.2
			c4.4-1.5,9.4-2.3,15.2-2.3c6.4,0,12.2,1.1,17.5,3.2c5.3,2.1,9.6,4.9,13.2,8.3L64.4,63.3z"/>
		<path class="st0" d="M124.5,43.7c5.9,0,11.3,0.9,16.2,2.8c4.9,1.9,9.2,4.6,12.7,8.2c3.6,3.6,6.3,8,8.3,13.2c2,5.2,3,11.2,3,17.9
			c0,1.7-0.1,3.1-0.2,4.2c-0.2,1.1-0.4,2-0.8,2.6c-0.4,0.6-0.9,1.1-1.6,1.4c-0.7,0.3-1.5,0.4-2.5,0.4h-57.5c0.7,9.6,3.2,16.6,7.7,21
			c4.5,4.5,10.4,6.7,17.8,6.7c3.6,0,6.8-0.4,9.4-1.3c2.6-0.8,4.9-1.8,6.9-2.8c2-1,3.7-2,5.2-2.8c1.5-0.8,2.9-1.3,4.3-1.3
			c0.9,0,1.7,0.2,2.4,0.5c0.7,0.4,1.2,0.9,1.7,1.5l6.5,8.2c-2.5,2.9-5.3,5.3-8.3,7.3c-3.1,2-6.3,3.5-9.7,4.7
			c-3.4,1.2-6.8,2-10.2,2.5c-3.5,0.5-6.8,0.7-10.1,0.7c-6.5,0-12.5-1.1-18.1-3.2c-5.6-2.1-10.4-5.3-14.5-9.5
			c-4.1-4.2-7.3-9.4-9.7-15.6s-3.5-13.4-3.5-21.5c0-6.3,1-12.3,3.1-17.9c2.1-5.6,5-10.5,8.8-14.6c3.8-4.1,8.5-7.4,14.1-9.8
			C111.3,44.9,117.6,43.7,124.5,43.7z M125,59.8c-6.5,0-11.6,1.8-15.3,5.5c-3.7,3.7-6,8.9-7.1,15.7h42.1c0-2.9-0.4-5.6-1.2-8.2
			c-0.8-2.6-2-4.8-3.6-6.8c-1.6-1.9-3.7-3.5-6.2-4.6C131.2,60.3,128.3,59.8,125,59.8z"/>
		<path class="st0" d="M180.7,138.2V45.2h13.7c2.9,0,4.8,1.4,5.7,4.1l1.5,7.3c1.9-1.9,3.9-3.7,5.9-5.3c2.1-1.6,4.3-2.9,6.6-4.1
			c2.3-1.1,4.8-2,7.5-2.6c2.7-0.6,5.6-0.9,8.7-0.9c5.1,0,9.6,0.9,13.5,2.6c3.9,1.7,7.2,4.1,9.8,7.3c2.6,3.1,4.6,6.8,6,11.2
			c1.4,4.3,2,9.1,2,14.3v59.2h-22.4V79c0-5.7-1.3-10.1-3.9-13.2c-2.6-3.1-6.6-4.7-11.8-4.7c-3.9,0-7.5,0.9-10.9,2.6
			c-3.4,1.8-6.6,4.1-9.6,7.2v67.3H180.7z"/>
		<path class="st0" d="M336.7,63.3c-0.6,1-1.2,1.6-1.9,2c-0.7,0.4-1.5,0.6-2.5,0.6c-1.1,0-2.3-0.3-3.5-0.9c-1.2-0.6-2.7-1.3-4.3-2
			c-1.6-0.8-3.5-1.4-5.6-2c-2.1-0.6-4.6-0.9-7.4-0.9c-4.4,0-7.9,0.9-10.4,2.8c-2.5,1.9-3.8,4.3-3.8,7.3c0,2,0.6,3.7,2,5
			c1.3,1.4,3,2.6,5.2,3.6c2.1,1,4.6,1.9,7.3,2.8c2.7,0.8,5.5,1.7,8.3,2.7c2.8,1,5.6,2.1,8.3,3.3c2.7,1.2,5.2,2.8,7.3,4.7
			c2.1,1.9,3.9,4.2,5.2,6.8c1.3,2.7,2,5.9,2,9.6c0,4.5-0.8,8.6-2.4,12.4s-4,7-7.2,9.8c-3.1,2.8-7,4.9-11.7,6.4
			c-4.6,1.5-9.9,2.3-15.9,2.3c-3.2,0-6.3-0.3-9.4-0.9s-6-1.4-8.8-2.4c-2.8-1-5.4-2.2-7.8-3.6c-2.4-1.4-4.5-2.9-6.3-4.5l5.2-8.5
			c0.7-1,1.5-1.8,2.4-2.4c0.9-0.5,2.1-0.8,3.4-0.8c1.4,0,2.7,0.4,3.9,1.2c1.2,0.8,2.7,1.6,4.3,2.5c1.6,0.9,3.6,1.8,5.8,2.5
			c2.2,0.8,5,1.2,8.4,1.2c2.7,0,4.9-0.3,6.8-1c1.9-0.6,3.5-1.5,4.7-2.5c1.2-1,2.1-2.2,2.7-3.6c0.6-1.4,0.9-2.8,0.9-4.2
			c0-2.2-0.7-4-2-5.4c-1.3-1.4-3-2.6-5.2-3.6c-2.1-1-4.6-1.9-7.3-2.8c-2.8-0.8-5.6-1.7-8.4-2.7c-2.9-1-5.7-2.1-8.4-3.4
			c-2.8-1.3-5.2-2.9-7.3-4.9c-2.1-2-3.9-4.4-5.2-7.3c-1.3-2.9-2-6.4-2-10.5c0-3.8,0.8-7.4,2.3-10.9c1.5-3.4,3.7-6.5,6.7-9
			c2.9-2.6,6.6-4.6,11-6.2c4.4-1.5,9.4-2.3,15.2-2.3c6.4,0,12.2,1.1,17.5,3.2c5.3,2.1,9.6,4.9,13.2,8.3L336.7,63.3z"/>
		<path class="st0" d="M396.8,43.7c5.9,0,11.3,0.9,16.2,2.8c4.9,1.9,9.2,4.6,12.7,8.2c3.6,3.6,6.3,8,8.3,13.2c2,5.2,3,11.2,3,17.9
			c0,1.7-0.1,3.1-0.2,4.2c-0.2,1.1-0.4,2-0.8,2.6c-0.4,0.6-0.9,1.1-1.6,1.4c-0.7,0.3-1.5,0.4-2.5,0.4h-57.5c0.7,9.6,3.2,16.6,7.7,21
			c4.5,4.5,10.4,6.7,17.8,6.7c3.6,0,6.8-0.4,9.4-1.3c2.6-0.8,4.9-1.8,6.9-2.8c2-1,3.7-2,5.2-2.8c1.5-0.8,2.9-1.3,4.3-1.3
			c0.9,0,1.7,0.2,2.4,0.5c0.7,0.4,1.2,0.9,1.7,1.5l6.5,8.2c-2.5,2.9-5.3,5.3-8.3,7.3c-3.1,2-6.3,3.5-9.7,4.7s-6.8,2-10.2,2.5
			c-3.5,0.5-6.8,0.7-10.1,0.7c-6.5,0-12.5-1.1-18.1-3.2c-5.6-2.1-10.4-5.3-14.5-9.5c-4.1-4.2-7.3-9.4-9.7-15.6s-3.5-13.4-3.5-21.5
			c0-6.3,1-12.3,3.1-17.9c2.1-5.6,5-10.5,8.8-14.6c3.8-4.1,8.5-7.4,14.1-9.8C383.6,44.9,389.9,43.7,396.8,43.7z M397.3,59.8
			c-6.5,0-11.6,1.8-15.3,5.5c-3.7,3.7-6,8.9-7.1,15.7H417c0-2.9-0.4-5.6-1.2-8.2c-0.8-2.6-2-4.8-3.6-6.8c-1.6-1.9-3.7-3.5-6.2-4.6
			C403.5,60.3,400.6,59.8,397.3,59.8z"/>
	</g>
	<g>
		<g>
			<path class="st0" d="M450.8,43.9v2h-4.7V59h-2.4V45.9h-4.7v-2H450.8z"/>
			<path class="st0" d="M460.7,53.7c0.1,0.2,0.2,0.4,0.3,0.7c0.1-0.2,0.2-0.4,0.3-0.7s0.2-0.4,0.3-0.6l4.8-8.8
				c0.1-0.2,0.2-0.3,0.3-0.4s0.3-0.1,0.5-0.1h1.8V59h-2.2V48.7c0-0.2,0-0.4,0-0.5c0-0.2,0-0.4,0-0.6l-4.9,9
				c-0.2,0.4-0.5,0.6-0.9,0.6h-0.3c-0.4,0-0.7-0.2-0.9-0.6l-4.9-9c0,0.2,0,0.4,0.1,0.6c0,0.2,0,0.4,0,0.6V59h-2.2V43.9h1.8
				c0.2,0,0.4,0,0.5,0.1s0.2,0.2,0.3,0.4l4.9,8.8C460.5,53.3,460.6,53.5,460.7,53.7z"/>
		</g>
	</g>
	<g>
		<path class="st1" d="M17.5,5.3c-0.1,0.2-0.2,0.3-0.4,0.4c-0.1,0.1-0.3,0.1-0.5,0.1c-0.2,0-0.4-0.1-0.7-0.2
			c-0.2-0.2-0.5-0.4-0.9-0.6c-0.4-0.2-0.8-0.4-1.3-0.6s-1.1-0.3-1.7-0.3c-0.6,0-1.2,0.1-1.6,0.2S9.6,4.9,9.2,5.2
			c-0.3,0.3-0.6,0.6-0.7,1C8.4,6.5,8.3,6.9,8.3,7.4c0,0.6,0.2,1,0.5,1.4s0.7,0.7,1.2,1s1.1,0.5,1.7,0.7c0.6,0.2,1.3,0.4,1.9,0.6
			c0.7,0.2,1.3,0.5,1.9,0.8c0.6,0.3,1.2,0.7,1.7,1.1s0.9,1,1.2,1.6s0.5,1.4,0.5,2.4c0,1-0.2,1.9-0.5,2.8c-0.3,0.9-0.8,1.6-1.5,2.3
			c-0.7,0.7-1.5,1.2-2.4,1.5c-1,0.4-2,0.6-3.3,0.6c-0.7,0-1.4-0.1-2.1-0.2c-0.7-0.1-1.3-0.3-2-0.6s-1.2-0.6-1.7-0.9s-1-0.8-1.5-1.2
			L5,19.5c0.1-0.1,0.2-0.3,0.4-0.3c0.1-0.1,0.3-0.1,0.5-0.1c0.2,0,0.5,0.1,0.8,0.3c0.3,0.2,0.6,0.5,1.1,0.7c0.4,0.3,0.9,0.5,1.5,0.7
			c0.6,0.2,1.3,0.3,2.1,0.3c1.3,0,2.3-0.3,3.1-1c0.7-0.6,1.1-1.5,1.1-2.7c0-0.6-0.2-1.2-0.5-1.6c-0.3-0.4-0.7-0.7-1.2-1
			c-0.5-0.3-1.1-0.5-1.7-0.7s-1.3-0.4-1.9-0.6c-0.7-0.2-1.3-0.5-1.9-0.8S7,12.3,6.5,11.8c-0.5-0.5-0.9-1-1.2-1.7S4.9,8.6,4.9,7.6
			C4.9,6.8,5,6,5.3,5.2s0.8-1.4,1.4-2C7.3,2.6,8.1,2.1,9,1.8c0.9-0.4,1.9-0.5,3.1-0.5c1.3,0,2.5,0.2,3.6,0.6c1.1,0.4,2,1,2.8,1.7
			L17.5,5.3z"/>
		<path class="st1" d="M28.6,24H25V1.5h3.7V24z"/>
		<path class="st1" d="M41.2,12.4L34,1.5h3.6c0.3,0,0.5,0,0.6,0.1c0.1,0.1,0.2,0.2,0.3,0.4l5.5,8.6c0-0.1,0.1-0.3,0.1-0.4
			c0.1-0.1,0.1-0.3,0.2-0.4L49.4,2c0.1-0.2,0.2-0.3,0.3-0.4c0.1-0.1,0.3-0.1,0.5-0.1h3.5l-7.3,10.8L53.9,24h-3.6
			c-0.2,0-0.5-0.1-0.6-0.2c-0.2-0.1-0.3-0.3-0.4-0.5l-5.6-9c0,0.1-0.1,0.2-0.1,0.4s-0.1,0.2-0.2,0.3L38,23.3
			c-0.1,0.2-0.2,0.3-0.4,0.5c-0.1,0.1-0.3,0.2-0.6,0.2h-3.4L41.2,12.4z"/>
		<path class="st1" d="M68.7,24.2c-1.8,0-3.5-0.3-4.9-0.9S61,22,60,21c-1-1-1.8-2.2-2.4-3.6c-0.6-1.4-0.8-3-0.8-4.6
			c0-1.7,0.3-3.2,0.8-4.7s1.3-2.6,2.3-3.6s2.2-1.8,3.7-2.4c1.4-0.6,3-0.8,4.8-0.8c0.9,0,1.7,0.1,2.5,0.2c0.8,0.1,1.5,0.3,2.2,0.6
			s1.3,0.6,1.8,0.9c0.6,0.4,1.1,0.8,1.5,1.2l-1,1.7c-0.2,0.3-0.4,0.4-0.6,0.5c-0.3,0.1-0.5,0-0.8-0.2c-0.3-0.2-0.6-0.4-1-0.6
			S72.2,5.2,71.7,5c-0.4-0.2-0.9-0.3-1.5-0.4c-0.6-0.1-1.2-0.2-2-0.2C67,4.4,65.9,4.6,65,5c-1,0.4-1.8,0.9-2.4,1.7
			c-0.7,0.7-1.2,1.6-1.6,2.6c-0.4,1-0.5,2.2-0.5,3.4c0,1.3,0.2,2.5,0.6,3.6c0.4,1.1,0.9,2,1.6,2.7c0.7,0.7,1.6,1.3,2.6,1.7
			c1,0.4,2.1,0.6,3.4,0.6c0.9,0,1.8-0.1,2.5-0.3c0.7-0.2,1.4-0.5,2.1-0.8v-4.5H70c-0.2,0-0.4-0.1-0.6-0.2c-0.1-0.1-0.2-0.3-0.2-0.5
			v-2.1h7.2v8.9C74.2,23.4,71.6,24.2,68.7,24.2z"/>
		<path class="st1" d="M86.7,24H83V1.5h3.7V24z"/>
		<path class="st1" d="M97.8,20.9h9.3V24h-13V1.5h3.7V20.9z"/>
		<path class="st1" d="M116.1,20.9h9.3V24h-13V1.5h3.7V20.9z"/>
	</g>
</g>
</svg>
