<?xml version="1.0" encoding="utf-8"?>
<!-- Generator: Adobe Illustrator 19.2.0, SVG Export Plug-In . SVG Version: 6.00 Build 0)  -->
<svg version="1.1" id="Layer_1" xmlns="http://www.w3.org/2000/svg" xmlns:xlink="http://www.w3.org/1999/xlink" x="0px" y="0px"
	 viewBox="0 0 46.6 31.7" style="enable-background:new 0 0 46.6 31.7;" xml:space="preserve">
<style type="text/css">
	.st0{fill:#0077B5;}
	.st1{fill:#FFFFFF;}
</style>
<path class="st0" d="M42.7,30.4H3.8c-1.1,0-2-0.9-2-2V3.2c0-1.1,0.9-2,2-2h38.9c1.1,0,2,0.9,2,2v25.2C44.7,29.5,43.8,30.4,42.7,30.4
	z"/>
<g>
	<path class="st1" d="M24.3,19.3c0-1.8,0.5-3.5,2.7-3.5s2.2,2,2.2,3.6V26h4.2v-7.5c0-3.7-0.8-6.5-5.1-6.5c-2.1,0-3.5,1.1-4,2.2h-0.1
		v-1.9h-4.1V26h4.2V19.3L24.3,19.3z"/>
	<rect x="13.4" y="12.4" class="st1" width="4.3" height="13.7"/>
	<circle class="st1" cx="15.5" cy="8.1" r="2.5"/>
</g>
</svg>
