<?xml version="1.0" encoding="utf-8"?>
<!-- Generator: Adobe Illustrator 19.2.0, SVG Export Plug-In . SVG Version: 6.00 Build 0)  -->
<svg version="1.1" id="Layer_1" xmlns="http://www.w3.org/2000/svg" xmlns:xlink="http://www.w3.org/1999/xlink" x="0px" y="0px"
	 viewBox="0 0 28.8 23.4" style="enable-background:new 0 0 28.8 23.4;" xml:space="preserve">
<path d="M28.8,2.8c-1.1,0.5-2.2,0.8-3.4,0.9C26.6,3,27.6,1.8,28,0.4c-1.1,0.7-2.4,1.2-3.8,1.4C23.2,0.7,21.6,0,19.9,0
	C16.7,0,14,2.6,14,5.9c0,0.5,0.1,0.9,0.2,1.3C9.3,7,4.9,4.7,2,1.1C1.5,2,1.2,3,1.2,4.1c0,2.1,1,3.9,2.6,4.9c-1,0-1.9-0.3-2.7-0.7
	c0,0,0,0,0,0.1c0,2.9,2,5.3,4.7,5.8c-0.5,0.1-1,0.2-1.6,0.2c-0.4,0-0.7,0-1.1-0.1c0.8,2.3,2.9,4.1,5.5,4.1c-2,1.6-4.6,2.5-7.3,2.5
	c-0.5,0-1,0-1.4-0.1c2.6,1.7,5.7,2.7,9.1,2.7c10.9,0,16.8-9,16.8-16.8c0-0.3,0-0.5,0-0.8C27,5,28,4,28.8,2.8z"/>
</svg>
