<svg xmlns="http://www.w3.org/2000/svg" id="Layer_1" viewBox="0 0 46.6 31.7"><style type="text/css">  
	.st0{fill:#2E2E2E;}
	.st1{fill:#FFFFFF;}
</style><path class="st0" d="M42.7 30.4H3.8c-1.1 0-2-0.9-2-2V3.2c0-1.1 0.9-2 2-2h38.9c1.1 0 2 0.9 2 2v25.2C44.7 29.5 43.8 30.4 42.7 30.4z"/><polygon class="st1" points="10.7 7.9 10.7 23.7 20.1 15.1 "/><polygon class="st1" points="35.9 23.7 35.9 7.9 26.5 15.1 "/><polygon class="st1" points="23.3 16.2 35 7.2 11.6 7.2 "/><path class="st1" d="M25.5 15.8l-1.9 1.5c-0.1 0.1-0.2 0.1-0.3 0.1s-0.2-0.1-0.3-0.1l-2-1.5 -9.5 8.6h23.6L25.5 15.8z"/></svg>